<svg width="448" height="72" viewBox="0 0 448 72" fill="none" xmlns="http://www.w3.org/2000/svg">
<path d="M10.944 26.016C12.8 23.456 15.328 21.376 18.528 19.776C21.792 18.112 25.408 17.28 29.376 17.28C34.048 17.28 38.272 18.4 42.048 20.64C45.824 22.88 48.8 26.08 50.976 30.24C53.152 34.336 54.24 39.04 54.24 44.352C54.24 49.664 53.152 54.432 50.976 58.656C48.8 62.816 45.792 66.08 41.952 68.448C38.176 70.752 33.984 71.904 29.376 71.904C25.28 71.904 21.632 71.104 18.432 69.504C15.296 67.904 12.8 65.856 10.944 63.36V71.04H0V0H10.944V26.016ZM43.104 44.352C43.104 40.704 42.336 37.568 40.8 34.944C39.328 32.256 37.344 30.24 34.848 28.896C32.416 27.488 29.792 26.784 26.976 26.784C24.224 26.784 21.6 27.488 19.104 28.896C16.672 30.304 14.688 32.352 13.152 35.04C11.68 37.728 10.944 40.896 10.944 44.544C10.944 48.192 11.68 51.392 13.152 54.144C14.688 56.832 16.672 58.88 19.104 60.288C21.6 61.696 24.224 62.4 26.976 62.4C29.792 62.4 32.416 61.696 34.848 60.288C37.344 58.816 39.328 56.704 40.8 53.952C42.336 51.2 43.104 48 43.104 44.352Z" fill="#5169F6"/>
<path d="M76.0065 0V71.04H65.0625V0H76.0065Z" fill="#5169F6"/>
<path d="M138.279 18.144V71.04H127.335V64.8C125.607 66.976 123.335 68.704 120.519 69.984C117.767 71.2 114.823 71.808 111.687 71.808C107.527 71.808 103.783 70.944 100.455 69.216C97.191 67.488 94.599 64.928 92.679 61.536C90.823 58.144 89.895 54.048 89.895 49.248V18.144H100.743V47.616C100.743 52.352 101.927 56 104.295 58.56C106.663 61.056 109.895 62.304 113.991 62.304C118.087 62.304 121.319 61.056 123.687 58.56C126.119 56 127.335 52.352 127.335 47.616V18.144H138.279Z" fill="#5169F6"/>
<path d="M201.199 43.296C201.199 45.28 201.071 47.072 200.815 48.672H160.399C160.719 52.896 162.287 56.288 165.103 58.848C167.919 61.408 171.375 62.688 175.471 62.688C181.359 62.688 185.519 60.224 187.951 55.296H199.759C198.159 60.16 195.247 64.16 191.023 67.296C186.863 70.368 181.679 71.904 175.471 71.904C170.415 71.904 165.871 70.784 161.839 68.544C157.871 66.24 154.735 63.04 152.431 58.944C150.191 54.784 149.071 49.984 149.071 44.544C149.071 39.104 150.159 34.336 152.335 30.24C154.575 26.08 157.679 22.88 161.647 20.64C165.679 18.4 170.287 17.28 175.471 17.28C180.463 17.28 184.911 18.368 188.815 20.544C192.719 22.72 195.759 25.792 197.935 29.76C200.111 33.664 201.199 38.176 201.199 43.296ZM189.775 39.84C189.711 35.808 188.271 32.576 185.455 30.144C182.639 27.712 179.151 26.496 174.991 26.496C171.215 26.496 167.983 27.712 165.295 30.144C162.607 32.512 161.007 35.744 160.495 39.84H189.775Z" fill="#5169F6"/>
<path d="M223.143 0V71.04H212.199V0H223.143Z" fill="#FCFCFC"/>
<path d="M285.992 43.296C285.992 45.28 285.864 47.072 285.608 48.672H245.192C245.512 52.896 247.08 56.288 249.896 58.848C252.712 61.408 256.168 62.688 260.264 62.688C266.152 62.688 270.312 60.224 272.744 55.296H284.552C282.952 60.16 280.04 64.16 275.816 67.296C271.656 70.368 266.472 71.904 260.264 71.904C255.208 71.904 250.664 70.784 246.632 68.544C242.664 66.24 239.528 63.04 237.224 58.944C234.984 54.784 233.864 49.984 233.864 44.544C233.864 39.104 234.952 34.336 237.128 30.24C239.368 26.08 242.472 22.88 246.44 20.64C250.472 18.4 255.08 17.28 260.264 17.28C265.256 17.28 269.704 18.368 273.608 20.544C277.512 22.72 280.552 25.792 282.728 29.76C284.904 33.664 285.992 38.176 285.992 43.296ZM274.568 39.84C274.504 35.808 273.064 32.576 270.248 30.144C267.432 27.712 263.944 26.496 259.784 26.496C256.008 26.496 252.776 27.712 250.088 30.144C247.4 32.512 245.8 35.744 245.288 39.84H274.568Z" fill="#FCFCFC"/>
<path d="M293.114 44.352C293.114 39.04 294.202 34.336 296.378 30.24C298.618 26.144 301.626 22.976 305.402 20.736C309.242 18.432 313.466 17.28 318.074 17.28C322.234 17.28 325.85 18.112 328.922 19.776C332.058 21.376 334.554 23.392 336.41 25.824V18.144H347.45V71.04H336.41V63.168C334.554 65.664 332.026 67.744 328.826 69.408C325.626 71.072 321.978 71.904 317.882 71.904C313.338 71.904 309.178 70.752 305.402 68.448C301.626 66.08 298.618 62.816 296.378 58.656C294.202 54.432 293.114 49.664 293.114 44.352ZM336.41 44.544C336.41 40.896 335.642 37.728 334.106 35.04C332.634 32.352 330.682 30.304 328.25 28.896C325.818 27.488 323.194 26.784 320.378 26.784C317.562 26.784 314.938 27.488 312.506 28.896C310.074 30.24 308.09 32.256 306.554 34.944C305.082 37.568 304.346 40.704 304.346 44.352C304.346 48 305.082 51.2 306.554 53.952C308.09 56.704 310.074 58.816 312.506 60.288C315.002 61.696 317.626 62.4 320.378 62.4C323.194 62.4 325.818 61.696 328.25 60.288C330.682 58.88 332.634 56.832 334.106 54.144C335.642 51.392 336.41 48.192 336.41 44.544Z" fill="#FCFCFC"/>
<path d="M372.768 25.824C374.368 23.136 376.48 21.056 379.104 19.584C381.792 18.048 384.96 17.28 388.608 17.28V28.608H385.824C381.536 28.608 378.272 29.696 376.032 31.872C373.856 34.048 372.768 37.824 372.768 43.2V71.04H361.824V18.144H372.768V25.824Z" fill="#FCFCFC"/>
<path d="M425.356 17.28C429.516 17.28 433.228 18.144 436.492 19.872C439.82 21.6 442.412 24.16 444.268 27.552C446.124 30.944 447.052 35.04 447.052 39.84V71.04H436.204V41.472C436.204 36.736 435.02 33.12 432.652 30.624C430.284 28.064 427.052 26.784 422.956 26.784C418.86 26.784 415.596 28.064 413.164 30.624C410.796 33.12 409.612 36.736 409.612 41.472V71.04H398.668V18.144H409.612V24.192C411.404 22.016 413.676 20.32 416.428 19.104C419.244 17.888 422.22 17.28 425.356 17.28Z" fill="#FCFCFC"/>
</svg>
