<svg xmlns="http://www.w3.org/2000/svg" xmlns:xlink="http://www.w3.org/1999/xlink" width="590" zoomAndPan="magnify" viewBox="0 0 442.5 89.999999" height="120" preserveAspectRatio="xMidYMid meet" version="1.0"><defs><g/><clipPath id="id1"><path d="M 5.953125 6.542969 L 83.203125 6.542969 L 83.203125 83.792969 L 5.953125 83.792969 Z M 5.953125 6.542969 " clip-rule="nonzero"/></clipPath></defs><g clip-path="url(#id1)"><path fill="#ffffff" d="M 14.535156 6.542969 C 9.816406 6.542969 5.953125 10.40625 5.953125 15.125 L 5.953125 75.210938 C 5.953125 79.929688 9.816406 83.792969 14.535156 83.792969 L 74.617188 83.792969 C 79.339844 83.792969 83.203125 79.929688 83.203125 75.210938 L 83.203125 15.125 C 83.203125 10.40625 79.339844 6.542969 74.617188 6.542969 Z M 74.617188 75.210938 L 14.535156 75.210938 L 14.535156 15.125 L 74.617188 15.125 Z M 74.617188 75.210938 " fill-opacity="1" fill-rule="nonzero"/></g><path fill="#ffffff" d="M 21.089844 21.679688 L 67.578125 21.679688 L 67.578125 30.679688 L 21.089844 30.679688 L 21.089844 21.679688 " fill-opacity="1" fill-rule="nonzero"/><g fill="#ffffff" fill-opacity="1"><g transform="translate(102.145766, 65.535023)"><g><path d="M 34.875 -42.46875 L 46.078125 -42.46875 L 26.75 0 L 17.953125 0 L -1.390625 -42.46875 L 10.125 -42.46875 L 22.46875 -13.796875 Z M 34.875 -42.46875 "/></g></g></g><g fill="#ffffff" fill-opacity="1"><g transform="translate(146.891258, 65.535023)"><g><path d="M 3.859375 0 L 3.859375 -42.46875 L 34.03125 -42.46875 L 34.03125 -33.90625 L 14.640625 -33.90625 L 14.640625 -25.84375 L 32.828125 -25.84375 L 32.828125 -17.34375 L 14.640625 -17.34375 L 14.640625 -8.546875 L 34.03125 -8.546875 L 34.03125 0 Z M 3.859375 0 "/></g></g></g><g fill="#ffffff" fill-opacity="1"><g transform="translate(182.844233, 65.535023)"><g><path d="M 42.046875 0 L 29.875 0 L 22.53125 -13.546875 C 21.601562 -15.117188 20.132812 -15.90625 18.125 -15.90625 L 14.75 -15.90625 L 14.75 0 L 3.859375 0 L 3.859375 -42.46875 L 24.09375 -42.46875 C 29.226562 -42.46875 33.09375 -41.351562 35.6875 -39.125 C 38.28125 -36.894531 39.578125 -33.671875 39.578125 -29.453125 C 39.578125 -26.242188 38.691406 -23.523438 36.921875 -21.296875 C 35.148438 -19.066406 32.660156 -17.570312 29.453125 -16.8125 C 31.898438 -16.28125 33.847656 -14.691406 35.296875 -12.046875 Z M 22.34375 -24.21875 C 24.789062 -24.21875 26.546875 -24.597656 27.609375 -25.359375 C 28.679688 -26.117188 29.21875 -27.363281 29.21875 -29.09375 C 29.21875 -30.863281 28.679688 -32.140625 27.609375 -32.921875 C 26.546875 -33.703125 24.789062 -34.09375 22.34375 -34.09375 L 14.640625 -34.09375 L 14.640625 -24.21875 Z M 22.34375 -24.21875 "/></g></g></g><g fill="#ffffff" fill-opacity="1"><g transform="translate(225.42171, 65.535023)"><g><path d="M 32.34375 -22.046875 C 34.832031 -21.285156 36.738281 -20.007812 38.0625 -18.21875 C 39.394531 -16.4375 40.0625 -14.238281 40.0625 -11.625 C 40.0625 -9.289062 39.445312 -7.25 38.21875 -5.5 C 36.988281 -3.757812 35.238281 -2.40625 32.96875 -1.4375 C 30.707031 -0.476562 28.050781 0 25 0 L 3.859375 0 L 3.859375 -42.46875 L 24.390625 -42.46875 C 28.847656 -42.46875 32.390625 -41.472656 35.015625 -39.484375 C 37.648438 -37.492188 38.96875 -34.8125 38.96875 -31.4375 C 38.96875 -29.269531 38.382812 -27.351562 37.21875 -25.6875 C 36.0625 -24.019531 34.4375 -22.804688 32.34375 -22.046875 Z M 14.640625 -25.78125 L 22.53125 -25.78125 C 24.613281 -25.78125 26.132812 -26.097656 27.09375 -26.734375 C 28.0625 -27.378906 28.546875 -28.40625 28.546875 -29.8125 C 28.546875 -31.300781 28.0625 -32.382812 27.09375 -33.0625 C 26.132812 -33.75 24.613281 -34.09375 22.53125 -34.09375 L 14.640625 -34.09375 Z M 23.609375 -8.375 C 25.816406 -8.375 27.390625 -8.722656 28.328125 -9.421875 C 29.273438 -10.128906 29.75 -11.285156 29.75 -12.890625 C 29.75 -14.492188 29.273438 -15.644531 28.328125 -16.34375 C 27.390625 -17.050781 25.816406 -17.40625 23.609375 -17.40625 L 14.640625 -17.40625 L 14.640625 -8.375 Z M 23.609375 -8.375 "/></g></g></g><g fill="#ffffff" fill-opacity="1"><g transform="translate(267.276517, 65.535023)"><g><path d="M 56.265625 -42.46875 L 66.734375 -42.46875 L 51.5625 0 L 42.765625 0 L 33.796875 -25.484375 L 24.703125 0 L 15.84375 0 L 0.71875 -42.46875 L 11.984375 -42.46875 L 20.78125 -15.546875 L 30.296875 -42.46875 L 37.953125 -42.46875 L 47.046875 -15.0625 Z M 56.265625 -42.46875 "/></g></g></g><g fill="#ffffff" fill-opacity="1"><g transform="translate(334.786194, 65.535023)"><g><path d="M 3.859375 0 L 3.859375 -42.46875 L 14.9375 -42.46875 L 14.9375 0 Z M 3.859375 0 "/></g></g></g><g fill="#ffffff" fill-opacity="1"><g transform="translate(353.575698, 65.535023)"><g><path d="M 42.046875 0 L 29.875 0 L 22.53125 -13.546875 C 21.601562 -15.117188 20.132812 -15.90625 18.125 -15.90625 L 14.75 -15.90625 L 14.75 0 L 3.859375 0 L 3.859375 -42.46875 L 24.09375 -42.46875 C 29.226562 -42.46875 33.09375 -41.351562 35.6875 -39.125 C 38.28125 -36.894531 39.578125 -33.671875 39.578125 -29.453125 C 39.578125 -26.242188 38.691406 -23.523438 36.921875 -21.296875 C 35.148438 -19.066406 32.660156 -17.570312 29.453125 -16.8125 C 31.898438 -16.28125 33.847656 -14.691406 35.296875 -12.046875 Z M 22.34375 -24.21875 C 24.789062 -24.21875 26.546875 -24.597656 27.609375 -25.359375 C 28.679688 -26.117188 29.21875 -27.363281 29.21875 -29.09375 C 29.21875 -30.863281 28.679688 -32.140625 27.609375 -32.921875 C 26.546875 -33.703125 24.789062 -34.09375 22.34375 -34.09375 L 14.640625 -34.09375 L 14.640625 -24.21875 Z M 22.34375 -24.21875 "/></g></g></g><g fill="#ffffff" fill-opacity="1"><g transform="translate(396.153163, 65.535023)"><g><path d="M 3.859375 0 L 3.859375 -42.46875 L 34.03125 -42.46875 L 34.03125 -33.90625 L 14.640625 -33.90625 L 14.640625 -25.84375 L 32.828125 -25.84375 L 32.828125 -17.34375 L 14.640625 -17.34375 L 14.640625 -8.546875 L 34.03125 -8.546875 L 34.03125 0 Z M 3.859375 0 "/></g></g></g><path fill="#ffffff" d="M 67.832031 21.6875 L 67.832031 68.175781 L 58.832031 68.175781 L 58.832031 21.6875 L 67.832031 21.6875 " fill-opacity="1" fill-rule="nonzero"/><path fill="#ffffff" d="M 64.6875 32.390625 L 17.664062 77.601562 L 11.429688 71.113281 L 58.449219 25.902344 L 64.6875 32.390625 " fill-opacity="1" fill-rule="nonzero"/><path fill="#ffffff" d="M 13.136719 59.21875 L 29.304688 76.933594 L 22.101562 83.507812 L 5.933594 65.792969 L 13.136719 59.21875 " fill-opacity="1" fill-rule="nonzero"/></svg>