<svg width="298" height="298" viewBox="0 0 298 298" fill="none" xmlns="http://www.w3.org/2000/svg">
<path opacity="0.54" d="M149 298C231.29 298 298 231.29 298 149C298 66.7096 231.29 0 149 0C66.7096 0 0 66.7096 0 149C0 231.29 66.7096 298 149 298Z" fill="url(#paint0_radial_664_559)"/>
<path d="M148.998 242.553C200.956 242.553 243.076 200.433 243.076 148.475C243.076 96.5174 200.956 54.3975 148.998 54.3975C97.0408 54.3975 54.9209 96.5174 54.9209 148.475C54.9209 200.433 97.0408 242.553 148.998 242.553Z" fill="#00B0CB"/>
<path d="M148.998 242.289C200.767 242.289 243.075 200.243 243.075 148.212C243.075 143.219 242.55 138.226 241.761 133.233C238.608 132.707 235.717 131.656 233.089 130.342C227.045 127.189 222.315 122.196 217.585 117.203C212.855 112.21 208.125 107.217 201.818 104.589C195.774 101.698 187.89 101.698 182.634 106.166C176.853 110.896 176.327 119.831 178.692 126.926C179.744 129.817 181.058 133.496 178.955 135.861C176.853 138.226 173.437 137.437 170.546 137.963C165.553 138.751 161.611 142.693 158.983 146.898C154.516 153.73 151.625 162.402 153.728 170.286C155.042 175.016 158.195 180.009 156.093 184.739C153.991 189.732 147.946 191.046 143.216 193.411C136.647 196.827 131.654 204.711 134.019 211.806C135.07 214.697 136.909 217.062 137.698 219.69C139.537 226.785 133.756 233.092 130.603 239.924C136.647 241.764 142.691 242.289 148.998 242.289Z" fill="#0B93C1"/>
<path d="M160.824 100.122C160.561 96.7061 161.349 93.5526 160.824 90.1364C160.298 85.4063 157.408 81.4645 154.517 77.7855C151.626 74.1064 148.21 70.6902 146.371 66.4856C145.319 63.8578 145.057 60.7043 145.582 57.8137C145.845 56.7625 146.371 55.4486 146.371 54.3975C95.6528 55.7114 54.9209 97.2317 54.9209 148.212C54.9209 163.717 58.8627 178.433 65.4324 191.572C69.3742 190.784 73.0531 188.681 76.4693 186.316C80.4111 183.951 84.6157 181.323 88.5575 178.958C94.6016 175.279 101.434 170.549 102.748 163.717C104.325 155.045 96.7039 145.847 100.12 137.438C101.434 134.285 104.062 131.919 106.953 130.343C111.42 127.452 116.939 125.35 121.931 126.664C129.289 128.241 134.02 135.598 140.589 139.278C144.794 141.905 149.787 142.957 154.78 142.168C157.408 141.905 160.298 141.117 162.401 139.54C166.342 136.65 168.445 131.92 168.97 127.189C169.233 122.459 167.919 117.729 165.817 113.262C164.24 109.057 161.349 104.852 160.824 100.122Z" fill="#00C3DF"/>
<path d="M242.552 139.54C242.552 140.328 232.041 139.803 230.99 139.54C217.325 137.438 210.755 124.561 198.404 120.882C195.514 120.094 192.097 119.831 189.732 121.67C180.535 127.977 199.981 140.854 186.842 144.796C183.425 145.847 180.009 144.796 176.856 145.584C173.965 146.11 170.812 148.212 168.447 150.314C163.716 154.256 160.3 160.563 160.563 166.87C160.563 180.535 171.863 194.2 185.002 197.09C187.893 197.616 191.046 197.879 193.937 199.193C200.244 202.083 201.032 209.967 198.142 215.485C194.988 221.529 186.842 220.741 184.214 227.311C183.425 229.15 182.9 232.829 184.214 234.406C185.791 236.245 189.207 235.194 191.309 234.143C195.776 232.041 199.981 229.676 204.186 226.785C212.069 221.267 219.427 214.434 225.209 206.813C236.771 191.835 243.078 173.177 244.129 154.256C243.866 149.263 244.392 144.533 242.552 139.54Z" fill="#1EB400"/>
<path d="M161.351 107.48C159.775 101.173 160.3 94.6036 157.672 88.5595C155.044 82.5155 149.263 78.5736 145.584 73.3179C141.905 68.0622 140.066 61.2297 140.591 54.9229C92.764 59.1274 55.1855 99.3338 55.1855 148.475C55.1855 158.461 56.7623 168.184 59.6529 177.119C62.8064 175.805 65.4342 173.965 67.2737 171.6C70.9528 166.87 71.2156 160.3 71.7411 154.256C72.5295 145.321 74.6318 136.387 79.6247 129.029C84.3549 121.671 92.2384 115.627 101.173 114.838C105.641 114.313 110.108 115.101 114.313 116.152C119.043 117.203 123.51 118.78 127.452 121.145C131.919 123.773 135.598 127.715 139.277 131.131C143.219 134.547 147.424 137.701 152.679 139.015C157.672 140.066 163.716 138.489 166.607 134.284C169.235 130.343 168.709 125.087 167.133 120.62C165.03 116.152 162.665 111.948 161.351 107.48Z" fill="#0B93C1"/>
<path d="M164.241 128.503C165.293 122.985 162.928 116.941 160.037 111.948C157.935 108.269 155.832 104.59 154.518 100.648C153.205 96.706 154.518 92.5014 153.205 88.5596C151.891 83.8294 147.686 80.4132 145.321 76.2086C142.167 71.2156 139.54 65.9599 137.963 60.4414C137.7 59.1275 137.437 57.288 137.175 55.1857C131.656 53.8717 122.984 56.2368 116.414 58.6019C75.4197 73.0552 48.3526 114.05 55.1851 155.57C57.2874 152.417 58.8642 149.263 60.1781 145.847C61.492 141.905 62.5431 137.701 63.8571 133.759C66.2222 127.189 67.7989 120.094 73.3174 115.364C76.4709 112.473 79.6243 112.473 83.8289 111.159C88.2962 109.845 92.5008 107.743 96.4426 105.115C98.8077 103.538 100.91 101.699 103.538 100.911C109.845 98.5455 112.735 103.013 115.889 107.48C121.67 115.101 129.028 118.254 137.7 121.671C141.379 123.247 145.058 125.087 147.686 127.978C150.051 130.868 151.628 135.598 156.095 136.124C159.774 136.65 162.928 133.233 163.979 129.817C163.979 129.292 164.241 129.029 164.241 128.503Z" fill="#1EB400"/>
<path d="M162.138 194.725C161.875 194.725 161.612 194.725 161.349 194.725C156.094 195.251 146.108 201.032 144.531 206.288C143.48 209.441 143.743 212.595 144.006 215.748C144.268 218.901 144.531 223.369 148.21 224.42C150.05 224.946 152.152 224.683 153.991 224.42C158.722 223.632 163.715 224.683 168.445 224.42C170.81 224.157 173.175 223.894 175.014 222.843C177.642 221.004 179.482 218.376 182.372 216.799C185 215.485 187.891 215.222 187.365 211.281C186.84 208.127 184.475 208.127 182.11 207.339C176.591 205.237 172.912 201.032 167.919 198.141C166.868 196.565 164.24 194.725 162.138 194.725Z" fill="#00BE1B"/>
<path d="M147.686 214.434C148.474 217.325 151.102 219.953 154.255 219.69C156.095 219.69 157.934 218.639 159.774 218.639C161.088 218.639 162.139 219.164 163.19 219.427C164.504 219.69 165.818 219.427 166.606 218.639C167.395 217.588 167.132 216.011 166.606 214.96C165.818 212.858 165.818 211.806 166.343 209.967C166.869 208.127 167.657 207.339 166.606 205.5C165.292 203.397 160.825 201.821 158.46 201.558C152.416 200.244 146.372 208.39 147.686 214.434Z" fill="#00CE1D"/>
<path d="M173.701 215.748C174.489 215.748 175.54 215.222 176.329 214.959C177.643 214.697 179.219 214.697 180.008 213.646C180.533 212.594 179.745 211.018 178.694 210.492C176.854 209.178 173.175 205.762 171.598 207.864C170.022 209.967 170.284 216.011 173.701 215.748Z" fill="#00CE1D"/>
<path d="M172.912 159.249C166.606 169.235 184.475 165.819 188.68 165.556C194.461 165.03 201.556 164.768 201.293 157.41C201.031 148.212 190.782 148.738 184.475 150.577C179.745 151.891 175.54 155.307 172.912 159.249Z" fill="#00CE1D"/>
<path d="M202.081 142.693C202.606 142.956 203.395 143.219 204.183 142.956C204.709 142.693 204.971 142.431 204.971 141.905C205.234 141.379 205.497 140.854 205.497 140.328C206.022 138.226 205.76 136.124 205.497 134.021C205.497 133.496 205.234 132.97 204.971 132.707C201.818 128.503 192.095 138.752 202.081 142.693Z" fill="#00CE1D"/>
<path d="M207.076 223.895C213.12 219.164 219.69 212.595 224.42 206.551C235.982 191.572 242.289 172.914 243.34 153.993C243.603 151.365 243.866 148.212 243.603 145.584C239.661 145.321 234.668 145.847 230.727 145.584C225.996 145.321 222.317 143.482 218.376 141.117C216.799 140.328 215.222 139.54 213.645 139.54C212.069 139.54 210.229 140.591 209.704 142.168C209.178 143.482 209.704 144.796 209.966 146.11C211.806 153.205 211.543 163.979 204.973 168.709C199.718 172.388 194.462 168.709 188.681 168.709C185.79 168.709 182.637 169.76 180.534 172.126C176.33 176.856 179.746 181.323 184.739 182.9C189.469 184.477 194.199 185.528 198.667 187.893C202.346 189.732 205.499 192.36 207.864 195.776C209.441 197.879 210.755 200.244 211.018 202.872C211.28 205.237 210.755 207.602 209.966 209.967C209.178 214.171 208.127 219.953 207.076 223.895Z" fill="#00CE1D"/>
<path d="M140.329 80.9383C138.489 77.5221 136.387 74.3687 135.073 70.6897C133.233 66.4851 132.182 59.3898 132.97 54.6597C127.715 54.6597 121.671 56.762 116.678 58.6015C88.034 68.8501 65.9599 91.4498 57.8135 119.831C58.8646 119.568 61.7553 119.305 62.8065 118.517C64.646 117.203 65.4343 114.838 67.011 112.998C70.4272 109.056 76.2086 108.794 80.6759 106.429C84.0922 104.589 86.72 101.436 90.1363 99.5962C96.9687 95.3916 109.057 93.5521 116.415 96.9683C119.568 98.2823 121.933 100.647 124.036 103.275C125.875 105.64 126.926 109.319 130.08 110.633C135.336 112.998 141.38 109.319 144.533 104.852C147.686 100.122 145.584 92.5009 143.745 87.508C142.431 85.4057 141.38 83.0406 140.329 80.9383Z" fill="#00CE1D"/>
<path d="M147.948 107.217C145.846 110.633 137.962 114.05 141.904 117.203C145.846 120.357 155.043 129.817 156.883 127.452C158.985 124.824 153.992 97.4942 147.948 107.217Z" fill="#00CE1D"/>
<path d="M161.087 55.1853C161.087 55.7109 161.087 56.2365 160.824 56.762C160.298 61.2294 159.773 65.9596 160.036 70.4269C160.036 72.5292 160.299 74.8943 161.35 76.7338C162.664 79.6245 165.291 81.464 168.182 82.7779C175.803 86.1941 184.738 85.143 192.096 88.822C195.775 90.6615 198.928 93.5522 202.607 95.3917C208.651 98.5451 215.746 99.3335 221.265 103.275C227.309 107.48 230.462 114.838 236.507 118.78C237.295 119.305 237.821 119.568 238.609 120.094C227.835 85.9314 197.877 59.9155 161.087 55.1853Z" fill="#00C3DF"/>
<path d="M149 145.847C147.686 144.796 145.847 145.321 144.27 146.11C142.693 146.898 141.642 147.949 140.065 148.475C136.386 149.789 132.444 147.161 128.503 146.898C122.721 146.373 117.466 150.577 114.575 155.57C111.684 160.563 110.633 166.344 108.794 171.863C103.801 187.893 93.0264 201.82 78.8359 211.018C89.3474 222.843 103.012 232.041 118.254 237.297C119.305 230.201 118.78 222.581 120.356 215.485C121.407 210.23 123.772 205.237 126.926 200.769C129.028 197.879 131.656 195.251 133.758 192.097C135.861 188.944 137.437 185.265 136.912 181.586C136.649 178.958 135.335 176.593 135.072 173.965C134.81 170.549 136.123 167.133 137.7 164.242C139.802 160.826 142.43 157.672 145.584 155.044C147.16 153.731 148.737 152.679 149.526 151.103C150.577 149.526 150.577 146.898 149 145.847Z" fill="#00C3DF"/>
<path opacity="0.13" d="M243.601 154.256C243.601 152.416 243.864 150.314 243.864 148.474C243.864 147.686 243.864 146.635 243.864 145.847C243.601 143.744 243.339 141.642 242.55 139.54C242.55 139.014 242.55 138.489 242.287 137.963C242.287 137.437 242.025 136.649 242.025 136.123C241.236 130.868 240.185 125.612 238.608 120.619C238.083 119.305 237.82 117.991 237.295 116.94C237.032 116.414 237.032 116.152 236.769 115.626C236.506 114.838 235.981 113.787 235.718 112.998C235.455 112.473 235.455 112.21 235.192 111.684C234.667 110.37 234.141 109.319 233.616 108.005C233.353 107.743 233.353 107.48 233.09 107.217C232.564 106.166 232.039 105.377 231.776 104.326C231.513 104.064 231.25 103.538 231.25 103.275C228.885 111.422 226.52 119.831 223.104 127.714C217.06 141.379 207.074 154.519 192.884 160.037C180.007 165.03 165.554 163.19 152.152 167.132C135.071 172.125 121.668 186.053 104.587 191.046C92.4992 194.462 79.3598 193.148 66.7461 194.199C70.1623 200.243 74.1041 206.025 78.5715 211.018C81.1994 213.908 84.09 216.799 86.9806 219.427L87.2434 219.69C88.8201 221.004 90.1341 222.055 91.7108 223.369C94.8643 225.734 98.2804 228.099 101.697 229.938C101.697 229.938 101.697 229.938 101.959 229.938C113.259 236.508 126.136 240.713 139.801 242.289C140.064 242.289 140.326 242.289 140.326 242.289C141.64 242.289 142.954 242.552 144.268 242.552C145.845 242.552 147.422 242.552 148.998 242.552C161.875 242.552 174.226 239.924 185.263 235.194C186.839 235.457 189.205 234.931 190.781 234.143C195.249 232.041 199.453 229.676 203.658 226.785C204.972 225.996 206.023 224.945 207.337 224.157C207.6 223.894 207.862 223.894 207.862 223.631C213.381 219.427 218.374 214.434 222.578 209.178C223.104 208.39 223.892 207.601 224.418 206.813C235.981 191.834 242.55 173.176 243.601 154.256Z" fill="#00C3DF"/>
<path opacity="0.33" d="M243.866 148.212C243.866 147.424 243.866 146.373 243.866 145.584C243.603 143.482 243.34 141.38 242.552 139.277C242.552 138.752 242.552 138.226 242.289 137.701C242.289 137.175 242.026 136.387 242.026 135.861C241.238 130.606 240.187 125.35 238.61 120.357C238.085 119.043 237.822 117.729 237.296 116.678C237.033 116.152 237.033 115.889 236.771 115.364C236.508 114.576 235.982 113.524 235.719 112.736C235.457 112.21 235.457 111.948 235.194 111.422C234.668 110.108 234.143 109.057 233.617 107.743C233.354 107.48 233.354 107.218 233.092 106.955C232.566 105.904 232.04 105.115 231.778 104.064C231.515 103.801 231.252 103.276 231.252 103.013C233.354 111.422 235.457 119.831 235.194 128.503C234.931 145.584 225.208 161.614 211.806 172.126C208.127 175.016 203.922 177.907 199.192 179.221C192.885 181.061 186.316 180.272 180.009 180.535C170.548 180.798 161.088 183.163 152.416 187.105C143.481 191.309 135.598 197.353 126.663 201.032C107.742 208.653 85.9311 204.711 67.7988 195.514C70.9523 201.032 74.6312 206.288 78.8358 210.755C81.4637 213.646 84.3544 216.537 87.245 219.165L87.5078 219.427C89.0845 220.741 90.3984 221.792 91.9751 223.106C95.1286 225.471 98.5449 227.837 101.961 229.676C101.961 229.676 101.961 229.676 102.224 229.676C113.524 236.246 126.4 240.45 140.065 242.027C140.328 242.027 140.591 242.027 140.591 242.027C141.905 242.027 143.219 242.29 144.532 242.29C146.109 242.29 147.686 242.29 149.263 242.29C162.139 242.29 174.49 239.662 185.527 234.932C187.104 235.195 189.469 234.669 191.046 233.881C195.513 231.778 199.718 229.413 203.922 226.523C205.236 225.734 206.287 224.683 207.601 223.895C207.864 223.632 208.127 223.632 208.127 223.369C213.645 219.165 218.638 214.172 222.843 208.916C223.368 208.128 224.157 207.339 224.682 206.551C236.245 191.572 242.552 172.914 243.603 153.994C243.603 152.154 243.866 150.315 243.866 148.212Z" fill="#00C3DF"/>
<path opacity="0.56" d="M243.866 145.847C243.866 143.745 243.34 141.642 242.552 139.54C242.552 139.015 242.552 138.489 242.289 137.963C242.289 137.438 242.026 136.65 242.026 136.124C241.238 130.868 240.187 125.612 238.61 120.62C238.084 119.306 237.822 117.992 237.296 116.941C237.033 116.415 237.033 116.152 236.77 115.627C236.508 114.838 235.982 113.787 235.719 112.999C235.456 112.473 235.456 112.21 235.194 111.685C234.668 110.371 234.143 109.32 233.617 108.006C233.354 107.743 233.354 107.48 233.091 107.217C232.566 106.166 232.04 105.378 231.777 104.327C231.515 103.801 231.252 103.538 230.989 103.013C230.464 102.224 230.201 101.436 229.675 100.648C229.412 100.122 229.15 99.8594 228.887 99.3338C228.361 98.2827 227.573 97.2315 226.785 96.1804C226.522 95.6548 226.259 95.392 225.996 94.8665C225.471 94.0781 224.945 93.5525 224.682 92.7642C224.419 92.2386 223.894 91.713 223.631 91.4502C223.106 90.9246 222.58 90.1363 222.317 89.6107C222.054 89.0851 221.529 88.5596 221.266 88.2968C220.478 87.5084 219.689 86.4573 219.164 85.6689C218.638 85.1433 218.375 84.6178 217.85 84.0922C217.324 83.5666 217.061 83.3038 216.536 82.7783C216.01 82.2527 215.485 81.7271 214.959 81.2016C214.696 80.9388 214.171 80.4132 213.645 80.1504C213.382 79.8876 213.12 79.6248 212.857 79.3621C213.12 79.6248 213.12 79.6248 213.382 79.8876C213.908 80.4132 214.171 80.676 214.696 81.2016C215.222 81.7271 215.747 82.2527 216.01 82.7783C216.799 83.5666 217.587 84.355 218.113 85.4061C218.375 85.9317 218.901 86.4573 219.164 86.7201C219.689 87.2456 220.215 88.034 220.478 88.5596C220.74 89.0852 221.266 89.6107 221.529 89.8735C222.054 90.6619 222.58 91.1874 222.843 91.9758C223.106 92.5014 223.368 92.7641 223.631 93.2897C224.419 94.3409 224.945 95.392 225.733 96.4432C225.996 96.9688 226.259 97.2315 226.522 97.7571C227.047 98.5455 227.31 99.3338 227.836 100.122C228.098 100.648 228.361 100.911 228.624 101.436C229.15 102.224 229.675 103.276 229.938 104.327C230.201 104.59 230.201 104.852 230.464 105.115C230.989 106.166 231.515 107.48 232.04 108.794C232.303 109.32 232.303 109.583 232.566 110.108C232.829 110.896 233.354 111.948 233.617 112.736C233.88 113.262 233.88 113.524 234.143 114.05C234.668 115.364 234.931 116.678 235.456 117.729C237.033 122.722 238.084 127.978 238.873 133.233C238.873 133.759 239.135 134.547 239.135 135.073C239.135 135.598 239.135 136.124 239.398 136.65C240.187 138.752 240.449 140.854 240.712 142.956C240.712 143.745 240.712 144.796 240.712 145.584C240.712 147.424 240.449 149.526 240.449 151.366C239.398 170.286 233.091 188.944 221.529 203.923C221.003 204.711 220.215 205.5 219.689 206.288C215.222 211.544 210.229 216.537 204.973 220.741C204.71 221.004 204.448 221.004 204.448 221.267C203.134 222.055 202.083 223.106 200.769 223.895C196.827 226.785 192.359 229.15 187.892 231.253C186.315 232.041 184.213 232.829 182.374 232.304C171.337 237.034 158.986 239.662 146.109 239.662C144.532 239.662 142.956 239.662 141.379 239.662C140.065 239.662 138.751 239.399 137.437 239.399C137.174 239.399 136.912 239.399 136.912 239.399C123.247 238.085 110.37 233.881 99.0703 227.048C99.0703 227.048 99.0703 227.048 98.8075 227.048C95.3912 224.946 91.9751 222.844 88.8216 220.478C87.2449 219.427 85.9309 218.113 84.3542 216.799L84.0914 216.537C83.5658 216.011 83.0403 215.485 82.252 214.96C83.8287 216.537 85.4054 218.113 87.2449 219.69L87.5077 219.953C89.0844 221.267 90.3983 222.318 91.975 223.632C95.1284 225.997 98.5447 228.362 101.961 230.202C101.961 230.202 101.961 230.202 102.224 230.202C113.524 236.771 126.4 240.976 140.065 242.553C140.328 242.553 140.591 242.553 140.591 242.553C141.904 242.553 143.218 242.815 144.532 242.815C146.109 242.815 147.686 242.815 149.263 242.815C162.139 242.815 174.49 240.187 185.527 235.457C187.104 235.72 189.469 235.195 191.046 234.406C195.513 232.304 199.718 229.939 203.922 227.048C205.236 226.26 206.287 225.209 207.601 224.42C207.864 224.157 208.127 224.157 208.127 223.895C213.645 219.69 218.638 214.697 222.843 209.441C223.368 208.653 224.157 207.865 224.682 207.076C236.245 192.097 242.552 173.44 243.603 154.519C243.603 152.679 243.866 150.577 243.866 148.738C243.866 147.424 243.866 146.635 243.866 145.847Z" fill="#00C3DF"/>
<path opacity="0.41" d="M137.173 55.1854C135.859 54.9226 134.282 54.6598 132.706 54.6598C127.45 54.6598 121.406 56.7622 116.413 58.3389C114.836 58.8645 113.259 59.39 111.946 60.1784C111.42 60.4412 110.632 60.704 110.106 60.9667C109.318 61.2295 108.792 61.4923 108.004 62.0179C84.6157 72.7921 66.7463 92.2383 58.8627 116.152C58.5999 116.94 58.3371 117.991 58.0743 118.78C58.0743 119.043 57.8115 119.305 57.8115 119.568C56.4976 124.298 55.4465 129.028 54.9209 133.759C66.7463 151.365 86.718 162.928 109.58 162.928C145.845 162.928 175.277 133.496 175.277 97.2313C175.277 80.9385 169.496 66.2225 159.773 54.6598C156.356 54.1343 152.677 54.1343 148.998 54.1343C145.057 54.3971 141.115 54.6598 137.173 55.1854Z" fill="#98F1FF"/>
<path opacity="0.42" d="M222.317 89.6109C222.054 89.0853 221.528 88.5597 221.266 88.2969C220.477 87.5086 219.689 86.4574 219.163 85.6691C218.638 85.1435 218.375 84.6179 217.849 84.0923C217.324 83.5667 217.061 83.304 216.536 82.7784C216.01 82.2528 215.484 81.7273 214.959 81.2017C214.696 80.9389 214.17 80.4133 213.645 80.1505C212.594 79.0994 211.543 78.311 210.491 77.2599C210.229 76.9971 209.966 76.7343 209.44 76.4715C208.915 75.9459 208.126 75.4204 207.601 74.8948C207.338 74.632 207.075 74.3692 206.55 74.1065C205.761 73.5809 205.236 73.0553 204.447 72.5297C202.608 71.2158 201.031 70.1646 199.192 69.1135C198.929 69.1135 198.929 68.8507 198.666 68.8507C197.878 68.3252 197.089 67.7996 196.038 67.274C195.775 67.274 195.775 67.0112 195.513 67.0112C192.622 65.4345 189.994 63.8578 186.841 62.5438C175.015 57.2881 162.139 54.3975 148.474 54.3975C144.532 54.3975 140.59 54.6602 136.911 55.1858C135.597 54.923 134.021 54.6602 132.444 54.6602C127.188 54.6602 121.144 56.7625 116.151 58.3393C114.574 58.8648 112.998 59.3904 111.684 60.1788C111.158 60.4415 110.37 60.7043 109.844 60.9671C109.056 61.2299 108.53 61.4927 107.742 62.0183C106.428 62.5438 105.114 63.3322 103.8 64.1206C103.274 64.3833 103.012 64.6461 102.486 64.9089C101.698 65.4345 100.647 65.96 99.8582 66.4856C99.3327 66.7484 98.8072 67.0112 98.2816 67.274C97.4932 67.7996 96.7048 68.3252 95.9164 68.8507C95.3909 69.1135 94.8654 69.6391 94.3398 69.9019C93.5514 70.4274 92.763 70.953 92.2374 71.4786C91.7119 71.7414 91.1863 72.2669 90.6607 72.5297C89.8723 73.0553 89.084 73.5809 88.5584 74.1065C88.0329 74.3692 87.7701 74.8948 87.2445 75.1576C86.4562 75.6832 85.6678 76.4715 84.8794 76.9971C84.6167 77.2599 84.0911 77.5227 83.8283 78.0483C82.7772 79.0994 81.726 79.8877 80.6748 80.9389C80.6748 80.9389 80.6748 80.9389 80.412 80.9389C79.3609 81.99 78.3098 83.0412 77.2587 84.0923C76.9959 84.3551 76.733 84.8807 76.2074 85.1435C75.6819 85.9318 74.8936 86.7202 74.368 87.2458C74.1052 87.7714 73.5796 88.0341 73.3169 88.5597C72.7913 89.3481 72.2657 89.8736 71.7401 90.662C71.4773 91.1876 70.9518 91.7131 70.689 92.2387C70.1634 93.0271 69.6378 93.5527 69.1123 94.341C68.8495 94.8666 68.3239 95.3921 68.0611 95.9177C67.5356 96.7061 67.01 97.4945 66.7472 98.2828C66.4844 98.8084 66.2216 99.3339 65.9588 99.8595C65.4332 100.648 64.9076 101.436 64.6449 102.487C64.3821 103.013 64.1193 103.276 63.8565 103.801C63.331 105.115 62.5426 106.166 62.017 107.48C60.7031 110.371 59.3891 113.524 58.338 116.678C58.0752 117.466 57.8125 118.517 57.5497 119.306C57.5497 119.569 57.2869 119.831 57.2869 120.094C53.8706 131.657 53.0823 143.745 54.9218 155.833C54.9218 156.359 54.9217 156.884 55.1845 157.41C55.1845 157.935 55.1845 158.461 55.4473 159.249C55.4473 159.512 55.4473 159.775 55.4473 160.3C55.4473 160.563 55.4473 160.826 55.4473 161.089C55.4473 161.352 55.4473 161.614 55.4473 161.877C55.4473 162.403 55.7101 162.928 55.7101 163.717C55.7101 164.242 55.9729 164.768 55.9729 165.293C55.9729 165.819 56.2357 166.082 56.2357 166.607C56.2357 166.87 56.2357 167.133 56.4985 167.396C56.7612 168.184 56.7613 168.972 57.0241 169.761C57.0241 170.286 57.2869 170.812 57.2869 171.338C57.2869 171.6 57.2869 171.6 57.2869 171.863C57.5496 172.651 57.5496 173.177 57.8124 173.965C57.8124 174.491 58.0752 174.754 58.0752 175.279C59.3891 179.484 60.7031 183.426 62.5426 187.367C62.5426 187.367 62.5426 187.367 62.5426 187.63C63.331 189.207 64.1193 190.784 64.9077 192.36C68.5867 199.193 72.7913 205.763 78.047 211.544C78.8353 212.595 79.6237 213.383 80.6748 214.172C76.9958 209.704 73.8424 204.711 71.2145 199.456C70.4262 197.879 69.6378 196.302 68.8495 194.726C68.8495 194.726 68.8495 194.725 68.8495 194.463C67.0099 190.521 65.696 186.579 64.3821 182.375C64.3821 181.849 64.1193 181.586 64.1193 181.061C63.8565 180.272 63.8565 179.747 63.5937 178.958C63.5937 178.696 63.5937 178.696 63.5937 178.433C63.5937 177.907 63.3309 177.382 63.3309 176.856C63.0681 176.068 63.0682 175.279 62.8054 174.491C62.8054 174.228 62.8054 173.965 62.5426 173.703C62.5426 173.177 62.2798 172.914 62.2798 172.389C62.2798 171.863 62.017 171.337 62.017 170.812C62.017 170.286 61.7542 169.761 61.7542 168.972C61.7542 168.71 61.7542 168.447 61.7542 168.184C61.7542 167.921 61.7542 167.658 61.7542 167.396C61.7542 167.133 61.7542 166.87 61.7542 166.345C61.7542 165.819 61.7542 165.293 61.4915 164.505C61.4915 163.979 61.4914 163.454 61.2287 162.928C59.1264 150.84 60.1775 138.489 63.5937 127.189C63.5937 126.927 63.8565 126.664 63.8565 126.401C64.1193 125.613 64.3821 124.561 64.6449 123.773C65.4332 121.408 66.2216 119.043 67.2727 116.941C76.2075 128.503 90.398 136.124 106.165 136.124C133.232 136.124 155.043 114.313 155.043 87.2458C155.043 78.0483 152.416 69.6391 148.211 62.2811C150.576 62.0183 152.678 62.0183 155.043 62.0183C168.708 62.0183 181.585 64.9089 193.147 70.1647C196.301 71.4786 198.929 73.0553 201.819 74.632C202.082 74.632 202.082 74.8948 202.345 74.8948C203.133 75.4204 204.184 75.9459 204.973 76.4715C205.236 76.4715 205.236 76.7343 205.498 76.7343C207.338 77.7855 208.915 79.0994 210.491 80.1505C211.28 80.6761 212.068 81.2017 212.594 81.7273C212.857 81.99 213.119 82.2528 213.645 82.5156C214.433 83.0412 214.959 83.5667 215.484 84.0923C215.747 84.3551 216.01 84.6179 216.536 84.8807C217.587 85.9318 218.638 86.7202 219.689 87.7714C220.214 88.0341 220.477 88.5597 221.003 88.8225C221.528 89.3481 222.054 89.8736 222.58 90.3992C222.58 89.8736 222.317 89.8736 222.317 89.6109Z" fill="#00DF16"/>
<path opacity="0.63" d="M243.864 145.847C243.601 143.745 243.339 141.643 242.55 139.54C242.55 139.015 242.55 138.489 242.288 137.964C242.288 137.438 242.025 136.65 242.025 136.124C241.236 130.868 240.185 125.613 238.609 120.62C238.083 119.306 237.82 117.992 237.295 116.941C237.032 116.415 237.032 116.152 236.769 115.627C236.506 114.838 235.981 113.787 235.718 112.999C235.455 112.473 235.455 112.21 235.192 111.685C234.667 110.371 234.141 109.32 233.616 108.006C233.353 107.743 233.353 107.48 233.09 107.218C232.564 106.166 232.039 105.378 231.776 104.327C231.513 103.801 231.251 103.539 230.988 103.013C230.462 102.225 230.199 101.436 229.674 100.648C229.411 100.122 229.148 99.8595 228.885 99.3339C228.36 98.2828 227.572 97.2317 226.783 96.1805C226.52 95.6549 226.258 95.3922 225.995 94.8666C225.469 94.0782 224.944 93.5526 224.681 92.7643C224.418 92.2387 223.892 91.7131 223.63 91.4503C223.104 90.9248 222.579 90.1364 222.316 89.6108C222.053 89.0853 221.527 88.5597 221.265 88.2969C220.476 87.5086 219.688 86.4574 219.162 85.6691C218.637 85.1435 218.374 84.6179 217.848 84.0923C217.323 83.5667 217.06 83.304 216.534 82.7784C216.009 82.2528 215.483 81.7273 214.958 81.2017C214.695 80.9389 214.169 80.4133 213.644 80.1505C212.593 79.0994 211.541 78.311 210.49 77.2599C210.228 76.9971 209.965 76.7343 209.439 76.4715C208.914 75.9459 208.125 75.4204 207.6 74.8948C207.337 74.632 207.074 74.3692 206.549 74.1065C205.76 73.5809 205.235 73.0553 204.446 72.5297C202.607 71.2158 201.03 70.1646 199.191 69.1135C198.928 69.1135 198.928 68.8507 198.665 68.8507C197.877 68.3252 197.088 67.7996 196.037 67.274C195.774 67.274 195.774 67.0112 195.512 67.0112C192.621 65.4345 189.993 63.8578 186.84 62.5438C175.014 57.2881 162.138 54.3975 148.473 54.3975C144.531 54.3975 140.589 54.6602 136.91 55.1858C135.596 54.923 134.02 54.6602 132.443 54.6602C127.187 54.6602 121.143 56.7625 116.15 58.3393C114.573 58.8648 112.997 59.3904 111.683 60.1788C111.157 60.4415 110.369 60.7043 109.843 60.9671C109.055 61.2299 108.529 61.4927 107.741 62.0183C84.3528 72.7925 66.4834 92.2387 58.5998 116.152C58.337 116.941 58.0741 117.992 57.8114 118.78C57.8114 119.043 57.5486 119.306 57.5486 119.569C54.1324 131.131 53.344 143.219 55.1835 155.308C55.1835 155.833 55.1835 156.359 55.4463 156.884C55.4463 157.41 55.4463 157.935 55.7091 158.724C55.7091 158.987 55.7091 159.249 55.7091 159.775C55.7091 160.038 55.7091 160.3 55.7091 160.563C55.7091 160.826 55.7091 161.089 55.7091 161.352C55.7091 161.877 55.9719 162.403 55.9719 163.191C55.9719 163.717 56.2347 164.242 56.2347 164.768C56.2347 165.293 56.4974 165.556 56.4974 166.082C56.4974 166.345 56.4974 166.607 56.7602 166.87C57.023 167.658 57.023 168.447 57.2858 169.235C57.2858 169.761 57.5486 170.286 57.5486 170.812C57.5486 171.075 57.5486 171.075 57.5486 171.337C57.8114 172.126 57.8114 172.651 58.0742 173.44C58.0742 173.965 58.337 174.228 58.337 174.754C59.6509 178.958 60.9649 182.9 62.8044 186.842C62.8044 186.842 62.8044 186.842 62.8044 187.105C63.5927 188.681 64.3811 190.258 65.1694 191.835C68.8484 198.667 73.053 205.237 78.3088 211.018C80.9366 213.909 83.8272 216.8 86.7179 219.427L86.9807 219.69C88.5574 221.004 89.8714 222.055 91.4481 223.369C94.6015 225.734 98.0177 228.099 101.434 229.939C101.434 229.939 101.434 229.939 101.697 229.939C112.997 236.509 125.873 240.713 139.538 242.29C139.801 242.29 140.064 242.29 140.064 242.29C141.378 242.29 142.691 242.553 144.005 242.553C145.582 242.553 147.159 242.553 148.736 242.553C161.612 242.553 173.963 239.925 185 235.195C186.577 235.457 188.942 234.932 190.519 234.143C194.986 232.041 199.191 229.676 203.395 226.785C204.709 225.997 205.76 224.946 207.074 224.158C207.337 223.895 207.6 223.895 207.6 223.632C213.118 219.427 218.111 214.434 222.316 209.179C222.841 208.39 223.63 207.602 224.155 206.814C235.718 191.835 242.025 173.177 243.076 154.256C243.076 152.417 243.339 150.315 243.339 148.475C243.864 147.424 243.864 146.636 243.864 145.847Z" fill="url(#paint1_linear_664_559)"/>
<path opacity="0.37" d="M130.34 135.598C151.239 135.598 168.182 118.656 168.182 97.7568C168.182 76.8577 151.239 59.9155 130.34 59.9155C109.441 59.9155 92.499 76.8577 92.499 97.7568C92.499 118.656 109.441 135.598 130.34 135.598Z" fill="url(#paint2_radial_664_559)"/>
<path opacity="0.49" d="M233.352 112.998C233.615 124.035 232.039 135.072 228.097 146.109C211.016 194.462 157.933 219.69 109.843 202.609C84.8781 193.674 66.2203 175.542 56.2344 153.205C57.0227 190.52 80.6735 225.208 117.989 238.348C166.342 255.429 219.162 230.201 236.243 181.848C244.39 158.198 242.813 133.758 233.352 112.998Z" fill="url(#paint3_linear_664_559)"/>
<path opacity="0.25" d="M186.578 66.2227C194.199 74.1063 200.243 83.5666 204.711 94.3408C224.157 141.642 201.82 195.776 154.519 215.485C130.079 225.471 103.801 224.42 81.4639 214.434C106.954 241.501 147.686 251.75 184.213 236.508C231.515 217.062 254.115 162.665 234.406 115.364C225.208 92.5013 207.601 75.4202 186.578 66.2227Z" fill="url(#paint4_linear_664_559)"/>
<defs>
<radialGradient id="paint0_radial_664_559" cx="0" cy="0" r="1" gradientUnits="userSpaceOnUse" gradientTransform="translate(149.057 149.023) scale(149.118)">
<stop stop-color="#ACFFFB"/>
<stop offset="0.1978" stop-color="#87C7C4"/>
<stop offset="0.5942" stop-color="#3F5D5C"/>
<stop offset="0.869" stop-color="#121A1A"/>
<stop offset="0.9972"/>
</radialGradient>
<linearGradient id="paint1_linear_664_559" x1="81.1363" y1="80.581" x2="216.389" y2="215.834" gradientUnits="userSpaceOnUse">
<stop stop-color="white"/>
<stop offset="0.9972" stop-color="#1876E7"/>
</linearGradient>
<radialGradient id="paint2_radial_664_559" cx="0" cy="0" r="1" gradientUnits="userSpaceOnUse" gradientTransform="translate(130.21 97.6669) scale(37.851 37.851)">
<stop stop-color="#ECECEC"/>
<stop offset="0.4693" stop-color="#F1F1F1"/>
<stop offset="1" stop-color="white"/>
</radialGradient>
<linearGradient id="paint3_linear_664_559" x1="140.129" y1="114.325" x2="170.577" y2="241.331" gradientUnits="userSpaceOnUse">
<stop offset="0.2422" stop-color="white"/>
<stop offset="0.9199" stop-color="white"/>
<stop offset="1" stop-color="white"/>
</linearGradient>
<linearGradient id="paint4_linear_664_559" x1="118.219" y1="129.665" x2="225.795" y2="203.718" gradientUnits="userSpaceOnUse">
<stop offset="0.2422" stop-color="white"/>
<stop offset="0.9199" stop-color="white"/>
<stop offset="1" stop-color="white"/>
</linearGradient>
</defs>
</svg>
