<svg width="298" height="298" viewBox="0 0 298 298" fill="none" xmlns="http://www.w3.org/2000/svg">
<path opacity="0.54" d="M149.132 290.673C227.284 290.673 290.638 227.318 290.638 149.166C290.638 71.0141 227.284 7.65942 149.132 7.65942C70.9797 7.65942 7.625 71.0141 7.625 149.166C7.625 227.318 70.9797 290.673 149.132 290.673Z" fill="url(#paint0_radial_664_637)"/>
<mask id="mask0_664_637" style="mask-type:luminance" maskUnits="userSpaceOnUse" x="60" y="60" width="178" height="178">
<path d="M209.123 83.5451C172.973 50.3401 116.75 52.7273 83.5449 88.8771C50.3399 125.027 52.7272 181.25 88.877 214.455C125.027 247.66 181.25 245.273 214.455 209.123C247.66 172.973 245.273 116.75 209.123 83.5451Z" fill="white"/>
</mask>
<g mask="url(#mask0_664_637)">
<path d="M231.938 181.3C249.755 135.563 227.122 84.0409 181.385 66.223C135.647 48.4052 84.1258 71.0384 66.3079 116.776C48.4901 162.513 71.1234 214.035 116.861 231.853C162.598 249.67 214.12 227.037 231.938 181.3Z" fill="#F1AC5E"/>
</g>
<mask id="mask1_664_637" style="mask-type:luminance" maskUnits="userSpaceOnUse" x="60" y="60" width="179" height="178">
<path d="M231.936 181.301C249.753 135.564 227.12 84.0425 181.383 66.2248C135.646 48.4072 84.1253 71.0402 66.3076 116.777C48.49 162.514 71.123 214.035 116.86 231.853C162.597 249.67 214.118 227.037 231.936 181.301Z" fill="white"/>
</mask>
<g mask="url(#mask1_664_637)">
<path d="M237.758 149.166C237.758 137.001 235.276 125.582 230.807 114.906C227.828 122.106 222.863 128.312 216.16 132.285C209.705 136.008 202.009 137.994 196.547 143.208C191.334 148.173 188.851 155.373 183.886 160.586C169.239 176.226 141.434 167.289 123.311 178.46C116.36 182.681 111.395 189.88 104.444 194.101C96.2514 199.314 86.0729 200.555 76.1426 199.811C92.2793 222.898 118.843 238.042 149.13 238.042C198.037 237.794 237.758 198.073 237.758 149.166Z" fill="#F19B3A"/>
</g>
<mask id="mask2_664_637" style="mask-type:luminance" maskUnits="userSpaceOnUse" x="60" y="60" width="179" height="178">
<path d="M231.936 181.301C249.753 135.564 227.12 84.0425 181.383 66.2248C135.646 48.4072 84.1253 71.0402 66.3076 116.777C48.49 162.514 71.123 214.035 116.86 231.853C162.597 249.67 214.118 227.037 231.936 181.301Z" fill="white"/>
</mask>
<g mask="url(#mask2_664_637)">
<path d="M153.6 166.544C160.055 168.282 173.461 166.544 180.909 158.104C188.356 149.663 183.888 143.953 176.688 147.677C169.489 151.401 146.649 164.806 153.6 166.544Z" fill="#F19B3A"/>
</g>
<mask id="mask3_664_637" style="mask-type:luminance" maskUnits="userSpaceOnUse" x="60" y="60" width="179" height="178">
<path d="M231.936 181.301C249.753 135.564 227.12 84.0425 181.383 66.2248C135.646 48.4072 84.1253 71.0402 66.3076 116.777C48.49 162.514 71.123 214.035 116.86 231.853C162.597 249.67 214.118 227.037 231.936 181.301Z" fill="white"/>
</mask>
<g mask="url(#mask3_664_637)">
<path d="M42.1309 150.159C39.1518 155.124 43.3721 160.338 46.8478 163.317C52.3094 167.785 59.2606 169.523 65.9636 168.53C81.8521 166.792 93.0236 152.642 106.678 145.691C114.126 141.967 121.077 141.47 129.269 142.215C138.951 142.96 147.64 142.711 156.826 139.484C164.274 136.753 171.225 132.781 179.169 131.043C187.361 129.057 195.306 128.312 202.505 123.596C215.911 114.658 222.862 99.7629 224.352 84.1227C225.097 76.9232 226.09 65.2552 217.152 62.5243C208.463 59.7935 205.733 69.7237 205.733 76.4267C205.981 91.3221 199.774 107.459 184.134 111.183C176.438 112.921 169.239 114.41 161.791 117.637C153.35 121.361 145.902 125.085 136.717 124.837C127.035 124.837 117.601 123.596 108.167 126.575C98.9818 129.802 91.0376 135.264 83.3416 141.222C77.1352 145.939 70.4322 152.145 62.2397 153.386C59.2606 153.883 55.785 153.635 53.0542 152.642C50.0751 151.4 48.3373 148.918 44.8617 148.67C43.8687 148.173 42.8756 149.166 42.1309 150.159Z" fill="#F18913"/>
</g>
<mask id="mask4_664_637" style="mask-type:luminance" maskUnits="userSpaceOnUse" x="60" y="60" width="179" height="178">
<path d="M231.936 181.301C249.753 135.564 227.12 84.0425 181.383 66.2248C135.646 48.4072 84.1253 71.0402 66.3076 116.777C48.49 162.514 71.123 214.035 116.86 231.853C162.597 249.67 214.118 227.037 231.936 181.301Z" fill="white"/>
</mask>
<g mask="url(#mask4_664_637)">
<path d="M203.251 115.9C192.079 114.907 177.929 123.348 169.736 130.299C164.275 135.016 159.558 141.222 153.103 144.698C146.152 148.422 137.711 147.677 130.263 149.911C115.616 154.38 105.934 164.31 97.2451 176.227C93.273 181.937 89.0526 187.398 82.8461 190.874C76.3915 194.598 68.4472 196.087 61.2478 197.08C53.8 198.073 46.3523 198.818 38.9046 198.322C33.6912 197.825 23.7609 195.094 21.5266 202.294C19.2923 209.245 28.2295 213.465 33.4429 214.458C41.8837 216.196 50.8209 215.203 59.51 214.21C74.1571 212.472 88.8043 209.493 100.224 199.315C111.147 189.384 116.361 174.737 129.519 167.289C136.966 163.069 145.407 162.821 153.351 159.842C161.047 156.863 167.005 151.401 172.467 145.443C177.929 139.485 182.894 134.519 189.845 130.299C195.555 126.823 201.513 124.093 205.237 118.631C205.485 117.39 204.492 116.148 203.251 115.9Z" fill="#F18913"/>
</g>
<mask id="mask5_664_637" style="mask-type:luminance" maskUnits="userSpaceOnUse" x="60" y="60" width="179" height="178">
<path d="M231.936 181.301C249.753 135.564 227.12 84.0425 181.383 66.2248C135.646 48.4072 84.1253 71.0402 66.3076 116.777C48.49 162.514 71.123 214.035 116.86 231.853C162.597 249.67 214.118 227.037 231.936 181.301Z" fill="white"/>
</mask>
<g mask="url(#mask5_664_637)">
<path d="M55.0411 96.2873C45.1108 106.466 46.1039 132.285 64.9714 129.802C74.4052 128.561 83.0942 121.361 91.7832 117.389C96.5001 115.155 101.962 113.169 107.175 113.169C112.14 113.169 117.105 114.907 122.071 115.651C140.69 118.631 163.033 110.686 179.17 101.501C187.114 97.0321 194.562 90.5774 198.286 81.8884C202.258 72.9511 201.513 60.29 194.065 53.3388C191.583 51.1045 187.859 49.6149 184.632 50.8562C177.432 53.3388 176.687 60.29 178.922 66.7447C181.404 73.9441 180.163 78.6611 173.708 83.378C162.04 91.8187 144.662 99.2664 130.015 100.508C122.319 101.252 115.119 98.2734 107.423 98.5217C100.224 98.7699 93.2728 101.004 86.8181 103.983C83.0942 105.721 79.6186 107.707 76.143 109.693C72.6674 111.679 68.447 115.155 64.2267 116.148C59.5098 117.141 59.5098 113.169 59.5098 109.197C59.5098 105.473 60.2545 101.749 60.2545 98.0251C60.2545 95.7908 56.7789 94.5495 55.0411 96.2873Z" fill="#F19B3A"/>
</g>
<mask id="mask6_664_637" style="mask-type:luminance" maskUnits="userSpaceOnUse" x="60" y="60" width="179" height="178">
<path d="M231.936 181.301C249.753 135.564 227.12 84.0425 181.383 66.2248C135.646 48.4072 84.1253 71.0402 66.3076 116.777C48.49 162.514 71.123 214.035 116.86 231.853C162.597 249.67 214.118 227.037 231.936 181.301Z" fill="white"/>
</mask>
<g mask="url(#mask6_664_637)">
<path d="M162.537 48.8705C156.579 52.0978 156.33 60.5386 154.344 66.2485C151.613 73.9445 146.648 81.1439 140.938 86.8538C135.229 92.812 127.533 97.5289 119.588 99.7632C111.892 101.998 102.955 101.501 96.0038 105.225C93.0247 106.714 94.0178 110.935 96.9969 111.928C105.189 114.41 115.616 111.431 123.56 109.694C133.242 107.707 142.428 105.225 150.62 99.7632C166.261 89.5847 175.943 70.7171 170.481 52.3461C169.24 48.8705 165.516 47.1327 162.537 48.8705Z" fill="#F19B3A"/>
</g>
<mask id="mask7_664_637" style="mask-type:luminance" maskUnits="userSpaceOnUse" x="60" y="60" width="179" height="178">
<path d="M231.936 181.301C249.753 135.564 227.12 84.0425 181.383 66.2248C135.646 48.4072 84.1253 71.0402 66.3076 116.777C48.49 162.514 71.123 214.035 116.86 231.853C162.597 249.67 214.118 227.037 231.936 181.301Z" fill="white"/>
</mask>
<g mask="url(#mask7_664_637)">
<path d="M247.69 99.2669C232.794 142.215 199.776 177.468 154.345 187.398C142.677 189.881 130.264 190.129 118.596 193.108C107.921 195.839 98.487 201.301 88.5567 205.769C77.8817 210.486 67.7031 212.472 56.2833 208.997C45.1117 205.521 36.1744 197.825 25.2511 193.853C22.5203 192.86 20.5342 196.336 21.7755 198.57C30.7128 214.458 51.3181 225.382 69.4409 225.133C89.5498 224.637 105.686 210.735 124.802 206.514C134.981 204.28 145.656 204.032 156.083 201.797C165.517 199.811 174.95 196.584 183.639 192.612C201.266 184.667 217.402 172.751 229.567 157.607C243.221 140.726 251.662 121.61 254.641 100.012C255.137 96.0395 248.683 95.7913 247.69 99.2669Z" fill="#F18913"/>
</g>
<mask id="mask8_664_637" style="mask-type:luminance" maskUnits="userSpaceOnUse" x="60" y="60" width="179" height="178">
<path d="M231.936 181.301C249.753 135.564 227.12 84.0425 181.383 66.2248C135.646 48.4072 84.1253 71.0402 66.3076 116.777C48.49 162.514 71.123 214.035 116.86 231.853C162.597 249.67 214.118 227.037 231.936 181.301Z" fill="white"/>
</mask>
<g mask="url(#mask8_664_637)">
<path d="M92.0334 233.574C109.411 226.126 129.272 225.629 147.891 223.147C165.518 220.912 182.399 216.444 198.536 208.996C214.424 201.548 228.823 191.37 241.236 178.957C253.152 166.792 263.827 152.89 267.055 136.008C267.8 132.285 263.331 130.547 261.097 133.526C251.166 146.932 242.974 161.331 231.058 173.247C218.645 185.412 203.997 195.094 188.109 202.045C171.972 208.996 155.339 212.72 138.209 215.203C121.079 217.685 104.943 220.416 90.7921 231.339C89.0543 232.332 90.2955 234.318 92.0334 233.574Z" fill="#F1AC5E"/>
</g>
<mask id="mask9_664_637" style="mask-type:luminance" maskUnits="userSpaceOnUse" x="60" y="60" width="179" height="178">
<path d="M231.936 181.301C249.753 135.564 227.12 84.0425 181.383 66.2248C135.646 48.4072 84.1253 71.0402 66.3076 116.777C48.49 162.514 71.123 214.035 116.86 231.853C162.597 249.67 214.118 227.037 231.936 181.301Z" fill="white"/>
</mask>
<g mask="url(#mask9_664_637)">
<path d="M209.208 140.974C207.47 139.733 204.739 141.47 203.25 142.712C201.512 143.953 198.781 145.939 200.022 148.173C201.015 150.159 203.498 149.663 204.987 148.67C207.47 147.18 209.704 145.691 211.939 143.953C213.18 142.96 212.435 140.974 211.194 140.726C207.222 139.733 201.015 141.47 200.767 146.436C200.767 148.173 202.753 148.918 203.994 147.677C205.732 146.187 207.222 143.705 209.953 144.45C209.704 143.457 209.456 142.215 209.208 140.974C207.967 142.215 206.477 142.96 205.236 143.953C204.491 144.45 203.746 144.946 203.001 145.443C202.753 145.443 202.505 145.691 202.257 145.939C202.753 147.429 203.25 147.925 203.746 147.18C204.243 146.932 204.739 146.187 205.236 145.691C205.732 145.194 206.477 144.946 206.974 144.45C207.967 143.705 208.96 143.456 209.456 142.215C209.953 141.719 209.704 141.222 209.208 140.974Z" fill="#F1AC5E"/>
</g>
<mask id="mask10_664_637" style="mask-type:luminance" maskUnits="userSpaceOnUse" x="60" y="60" width="179" height="178">
<path d="M231.936 181.301C249.753 135.564 227.12 84.0425 181.383 66.2248C135.646 48.4072 84.1253 71.0402 66.3076 116.777C48.49 162.514 71.123 214.035 116.86 231.853C162.597 249.67 214.118 227.037 231.936 181.301Z" fill="white"/>
</mask>
<g mask="url(#mask10_664_637)">
<path d="M199.774 152.145C198.533 152.145 197.54 152.394 196.795 153.387C195.802 154.628 196.547 156.366 198.037 156.366C199.774 156.366 200.767 155.124 201.016 153.635C201.016 152.89 200.519 152.145 199.774 151.897C197.788 151.401 195.057 153.138 195.802 155.373C196.05 156.117 196.547 156.614 197.292 156.614C198.037 156.614 198.533 156.366 199.278 155.869C199.774 155.373 199.03 156.117 199.526 155.621C199.774 155.621 199.774 155.621 199.526 155.621C199.774 155.621 200.023 155.373 200.023 155.373C199.03 154.876 198.285 154.38 197.292 153.883C197.292 153.635 197.54 153.387 198.037 153.138C198.533 153.883 199.03 154.628 199.774 155.373C199.774 155.124 200.271 154.38 200.271 154.38C201.264 153.387 201.016 152.145 199.774 152.145Z" fill="#F1AC5E"/>
</g>
<mask id="mask11_664_637" style="mask-type:luminance" maskUnits="userSpaceOnUse" x="60" y="60" width="179" height="178">
<path d="M231.936 181.301C249.753 135.564 227.12 84.0425 181.383 66.2248C135.646 48.4072 84.1253 71.0402 66.3076 116.777C48.49 162.514 71.123 214.035 116.86 231.853C162.597 249.67 214.118 227.037 231.936 181.301Z" fill="white"/>
</mask>
<g mask="url(#mask11_664_637)">
<path d="M207.967 90.081C206.477 91.5705 206.726 92.8118 206.229 95.0461C205.484 98.2735 204.243 101.501 202.505 104.232C199.278 109.445 194.313 113.665 189.596 117.638C188.851 118.134 189.844 119.127 190.589 118.879C196.795 115.651 202.257 111.183 205.981 105.225C208.215 101.501 212.187 93.8048 208.712 90.081C208.463 89.8327 208.215 89.8327 207.967 90.081Z" fill="#F1AC5E"/>
</g>
<mask id="mask12_664_637" style="mask-type:luminance" maskUnits="userSpaceOnUse" x="60" y="60" width="179" height="178">
<path d="M231.936 181.301C249.753 135.564 227.12 84.0425 181.383 66.2248C135.646 48.4072 84.1253 71.0402 66.3076 116.777C48.49 162.514 71.123 214.035 116.86 231.853C162.597 249.67 214.118 227.037 231.936 181.301Z" fill="white"/>
</mask>
<g mask="url(#mask12_664_637)">
<path d="M181.403 128.561C173.707 131.54 169.239 137.25 163.777 143.208C156.081 151.153 146.399 153.883 136.717 158.6C135.724 159.097 136.469 160.586 137.462 160.338C145.903 158.352 154.84 154.876 161.543 149.415C168.99 143.457 173.956 134.768 182.148 130.299C182.893 129.802 182.396 128.313 181.403 128.561Z" fill="#F1AC5E"/>
</g>
<mask id="mask13_664_637" style="mask-type:luminance" maskUnits="userSpaceOnUse" x="60" y="60" width="179" height="178">
<path d="M231.936 181.301C249.753 135.564 227.12 84.0425 181.383 66.2248C135.646 48.4072 84.1253 71.0402 66.3076 116.777C48.49 162.514 71.123 214.035 116.86 231.853C162.597 249.67 214.118 227.037 231.936 181.301Z" fill="white"/>
</mask>
<g mask="url(#mask13_664_637)">
<path d="M95.0107 211.727C102.21 209.741 108.665 205.769 116.361 204.28C124.057 202.542 132.001 202.045 139.697 201.549C153.351 200.556 169.488 199.811 180.163 190.626C181.653 189.384 180.163 186.902 178.425 187.398C170.729 189.633 163.282 192.363 155.337 193.605C146.897 194.846 138.456 195.094 130.015 196.087C118.347 197.329 100.472 198.818 93.0247 209.245C92.0316 210.486 93.5212 212.224 95.0107 211.727Z" fill="#F1AC5E"/>
</g>
<mask id="mask14_664_637" style="mask-type:luminance" maskUnits="userSpaceOnUse" x="60" y="60" width="179" height="178">
<path d="M231.936 181.301C249.753 135.564 227.12 84.0425 181.383 66.2248C135.646 48.4072 84.1253 71.0402 66.3076 116.777C48.49 162.514 71.123 214.035 116.86 231.853C162.597 249.67 214.118 227.037 231.936 181.301Z" fill="white"/>
</mask>
<g mask="url(#mask14_664_637)">
<path d="M208.216 166.296C203.996 168.282 201.265 172.006 197.789 174.985C194.562 177.716 189.1 179.95 187.114 183.674C186.618 184.915 187.362 185.908 188.355 186.157C192.576 186.653 196.796 182.681 199.775 180.199C203.747 176.971 206.478 172.751 209.706 168.779C210.947 167.289 209.706 165.8 208.216 166.296Z" fill="#F1AC5E"/>
</g>
<mask id="mask15_664_637" style="mask-type:luminance" maskUnits="userSpaceOnUse" x="60" y="60" width="179" height="178">
<path d="M231.936 181.301C249.753 135.564 227.12 84.0425 181.383 66.2248C135.646 48.4072 84.1253 71.0402 66.3076 116.777C48.49 162.514 71.123 214.035 116.86 231.853C162.597 249.67 214.118 227.037 231.936 181.301Z" fill="white"/>
</mask>
<g mask="url(#mask15_664_637)">
<path d="M67.9501 122.354C73.4118 125.582 78.3769 121.113 82.8455 117.886C90.2933 112.672 97.9892 107.956 107.175 107.707C115.864 107.459 124.553 109.445 133.242 108.949C140.938 108.452 148.634 107.211 155.337 103.487C156.578 102.742 156.081 100.26 154.592 100.508C146.648 101.501 138.952 103.239 130.759 103.487C122.815 103.735 114.871 101.997 106.927 102.246C100.72 102.494 94.7619 104.48 89.5485 107.707C83.0938 111.431 75.6461 120.617 68.1984 120.617C67.7018 120.368 67.2053 121.858 67.9501 122.354Z" fill="#F1AC5E"/>
</g>
<mask id="mask16_664_637" style="mask-type:luminance" maskUnits="userSpaceOnUse" x="60" y="60" width="179" height="178">
<path d="M231.936 181.301C249.753 135.564 227.12 84.0425 181.383 66.2248C135.646 48.4072 84.1253 71.0402 66.3076 116.777C48.49 162.514 71.123 214.035 116.86 231.853C162.597 249.67 214.118 227.037 231.936 181.301Z" fill="white"/>
</mask>
<g mask="url(#mask16_664_637)">
<path d="M191.583 65.2554C189.845 64.2624 188.108 64.7589 187.115 66.2485C184.632 70.2206 184.384 75.9305 182.149 80.1508C179.667 85.3642 176.191 89.0881 172.219 93.3085C170.978 94.5498 172.219 96.5358 173.957 96.2876C181.156 95.0463 187.611 89.0881 190.838 82.6334C192.576 79.1578 196.548 67.9862 191.583 65.2554Z" fill="#F18913"/>
</g>
<mask id="mask17_664_637" style="mask-type:luminance" maskUnits="userSpaceOnUse" x="60" y="60" width="179" height="178">
<path d="M231.936 181.301C249.753 135.564 227.12 84.0425 181.383 66.2248C135.646 48.4072 84.1253 71.0402 66.3076 116.777C48.49 162.514 71.123 214.035 116.86 231.853C162.597 249.67 214.118 227.037 231.936 181.301Z" fill="white"/>
</mask>
<g mask="url(#mask17_664_637)">
<path d="M66.4614 143.208C66.7096 144.449 67.4544 145.194 68.4474 144.946C73.4126 144.201 77.6329 139.981 81.1085 136.753C83.5911 134.519 86.322 132.533 89.3011 131.043C92.5284 129.306 96.004 128.561 98.7348 126.326C100.969 124.589 98.9831 121.361 96.5005 121.113C89.301 120.617 81.6051 126.575 77.1364 131.54C74.6539 134.271 72.9161 137.498 70.1852 139.981C70.1852 139.981 66.2131 142.215 66.4614 143.208Z" fill="#F18913"/>
</g>
<mask id="mask18_664_637" style="mask-type:luminance" maskUnits="userSpaceOnUse" x="60" y="60" width="179" height="178">
<path d="M231.936 181.301C249.753 135.564 227.12 84.0425 181.383 66.2248C135.646 48.4072 84.1253 71.0402 66.3076 116.777C48.49 162.514 71.123 214.035 116.86 231.853C162.597 249.67 214.118 227.037 231.936 181.301Z" fill="white"/>
</mask>
<g mask="url(#mask18_664_637)">
<path d="M229.565 96.5358C224.6 100.756 222.118 107.956 218.642 113.417C214.918 119.127 210.201 124.589 205.733 129.802C204.74 131.044 205.733 132.781 207.222 132.285C214.422 130.547 219.635 126.078 223.856 120.12C228.076 114.162 233.538 105.473 233.538 98.0254C233.538 96.0393 231.055 95.2945 229.565 96.5358Z" fill="#F18913"/>
</g>
<mask id="mask19_664_637" style="mask-type:luminance" maskUnits="userSpaceOnUse" x="60" y="60" width="179" height="178">
<path d="M231.936 181.301C249.753 135.564 227.12 84.0425 181.383 66.2248C135.646 48.4072 84.1253 71.0402 66.3076 116.777C48.49 162.514 71.123 214.035 116.86 231.853C162.597 249.67 214.118 227.037 231.936 181.301Z" fill="white"/>
</mask>
<g mask="url(#mask19_664_637)">
<path d="M119.341 240.773C124.058 237.794 131.009 237.794 136.471 236.801C142.677 235.808 148.884 234.815 154.842 233.574C165.517 231.34 176.192 227.367 183.888 219.175C184.881 218.182 183.888 216.196 182.398 216.692C170.73 220.168 158.814 222.899 146.898 225.133C135.974 227.368 124.306 228.112 116.362 236.801C114.624 239.036 116.858 242.511 119.341 240.773Z" fill="#F18913"/>
</g>
<mask id="mask20_664_637" style="mask-type:luminance" maskUnits="userSpaceOnUse" x="60" y="60" width="179" height="178">
<path d="M231.936 181.301C249.753 135.564 227.12 84.0425 181.383 66.2248C135.646 48.4072 84.1253 71.0402 66.3076 116.777C48.49 162.514 71.123 214.035 116.86 231.853C162.597 249.67 214.118 227.037 231.936 181.301Z" fill="white"/>
</mask>
<g mask="url(#mask20_664_637)">
<path d="M55.7872 185.412C63.9797 189.384 72.1722 186.902 79.6199 182.433C87.0676 178.213 96.7496 171.013 99.7287 162.572C100.722 159.593 97.2462 158.104 95.0119 159.097C88.3089 162.076 83.8403 169.275 77.8821 173.496C71.9239 177.716 63.9797 181.192 56.7802 181.44C55.0424 181.44 53.8011 184.419 55.7872 185.412Z" fill="#F19B3A"/>
</g>
<mask id="mask21_664_637" style="mask-type:luminance" maskUnits="userSpaceOnUse" x="60" y="60" width="179" height="178">
<path d="M231.936 181.301C249.753 135.564 227.12 84.0425 181.383 66.2248C135.646 48.4072 84.1253 71.0402 66.3076 116.777C48.49 162.514 71.123 214.035 116.86 231.853C162.597 249.67 214.118 227.037 231.936 181.301Z" fill="white"/>
</mask>
<g mask="url(#mask21_664_637)">
<path d="M105.935 156.118C107.921 155.621 109.907 155.125 112.141 154.38C114.127 153.635 116.362 153.139 117.603 151.401C118.348 150.408 117.851 148.918 116.858 148.173C114.872 146.932 111.645 148.173 109.659 149.166C107.424 150.408 106.183 152.146 104.694 154.132C103.949 155.125 104.942 156.366 105.935 156.118Z" fill="#F19B3A"/>
</g>
<mask id="mask22_664_637" style="mask-type:luminance" maskUnits="userSpaceOnUse" x="60" y="60" width="179" height="178">
<path d="M231.936 181.301C249.753 135.564 227.12 84.0425 181.383 66.2248C135.646 48.4072 84.1253 71.0402 66.3076 116.777C48.49 162.514 71.123 214.035 116.86 231.853C162.597 249.67 214.118 227.037 231.936 181.301Z" fill="white"/>
</mask>
<g mask="url(#mask22_664_637)">
<path d="M143.173 56.5664C135.725 63.7659 132.498 74.9375 121.823 78.6614C113.382 81.6404 103.948 80.8957 95.259 83.6265C91.5351 84.8678 83.0943 89.5846 79.1222 86.6055C76.6397 84.6195 77.1362 80.6474 74.1571 78.9096C67.2059 74.4409 63.7303 85.3643 65.7163 90.3294C68.9437 98.2736 77.3844 101.004 85.0804 100.011C90.5421 99.2667 95.259 96.7841 100.472 95.0463C104.941 93.5567 109.906 92.812 114.623 92.0672C123.312 90.5777 131.008 87.8469 137.214 81.1439C142.428 75.434 149.627 66.0002 146.648 57.8077C146.4 55.8216 144.414 55.3251 143.173 56.5664Z" fill="#F19B3A"/>
</g>
<mask id="mask23_664_637" style="mask-type:luminance" maskUnits="userSpaceOnUse" x="60" y="60" width="179" height="178">
<path d="M231.936 181.301C249.753 135.564 227.12 84.0425 181.383 66.2248C135.646 48.4072 84.1253 71.0402 66.3076 116.777C48.49 162.514 71.123 214.035 116.86 231.853C162.597 249.67 214.118 227.037 231.936 181.301Z" fill="white"/>
</mask>
<g mask="url(#mask23_664_637)">
<path d="M83.5917 80.3991C78.3783 85.8607 81.8539 89.5846 88.5568 89.0881C95.5081 88.5916 102.211 87.3503 109.162 86.6055C114.127 85.8607 119.341 85.6125 124.058 83.8747C131.754 81.1438 141.187 73.9444 141.932 65.2554C142.677 58.0559 135.478 48.8704 128.03 53.8356C125.547 55.5734 125.795 59.2972 128.775 60.2902C130.512 60.5385 131.505 61.5315 131.754 63.2693C133.988 65.2554 133.74 67.4897 131.009 69.4758C129.519 71.2136 127.285 73.1996 125.299 74.4409C121.823 76.6752 117.851 77.6683 113.879 78.1648C109.41 78.9095 104.694 79.406 99.9767 80.1508C98.9837 80.3991 84.5847 82.6334 84.833 81.1439C85.3295 80.3991 84.3365 79.6543 83.5917 80.3991Z" fill="#F18913"/>
</g>
<mask id="mask24_664_637" style="mask-type:luminance" maskUnits="userSpaceOnUse" x="60" y="60" width="179" height="178">
<path d="M231.936 181.301C249.753 135.564 227.12 84.0425 181.383 66.2248C135.646 48.4072 84.1253 71.0402 66.3076 116.777C48.49 162.514 71.123 214.035 116.86 231.853C162.597 249.67 214.118 227.037 231.936 181.301Z" fill="white"/>
</mask>
<g mask="url(#mask24_664_637)">
<path d="M120.83 62.5244C119.837 63.0209 119.34 63.7656 118.347 64.2621C116.361 65.7517 114.127 65.7517 111.644 66.2482C107.92 66.7447 104.197 68.4825 100.473 67.986C100.969 70.9651 101.218 74.1924 101.714 77.1715C106.183 75.682 132.746 69.2272 121.823 60.29C117.354 56.5661 112.389 61.0348 108.417 63.2691C105.438 64.7586 102.211 66.2482 98.9832 67.2412C95.7559 68.2343 93.5216 68.2342 91.7838 71.4616C91.2872 72.7028 91.039 74.4407 92.2803 75.4337C96.2524 78.661 100.473 76.9232 105.19 75.1854C107.424 74.4407 109.658 73.4477 111.644 72.4547C113.134 71.7099 117.106 67.986 118.596 68.2342C117.603 67.7377 116.361 67.2412 115.368 66.993C115.616 67.2412 115.865 67.4895 116.113 67.4895C115.616 66.4965 115.12 65.2551 114.872 64.2621C115.12 63.7656 115.616 63.2691 115.865 62.7726C115.12 63.0208 114.127 63.5174 113.382 63.7656C111.893 64.2622 110.403 65.0069 108.665 65.5034C105.438 66.7447 102.459 67.4895 99.2315 68.2342C93.7698 69.4755 95.5076 76.9233 100.473 77.4198C103.948 77.9163 106.679 76.675 109.907 75.682C113.134 74.6889 116.609 74.6889 119.589 73.1994C123.064 71.4616 127.285 66.4964 123.312 63.0208C122.568 62.2761 121.823 62.2761 120.83 62.5244Z" fill="#F18913"/>
</g>
<mask id="mask25_664_637" style="mask-type:luminance" maskUnits="userSpaceOnUse" x="60" y="60" width="179" height="178">
<path d="M231.936 181.301C249.753 135.564 227.12 84.0425 181.383 66.2248C135.646 48.4072 84.1253 71.0402 66.3076 116.777C48.49 162.514 71.123 214.035 116.86 231.853C162.597 249.67 214.118 227.037 231.936 181.301Z" fill="white"/>
</mask>
<g mask="url(#mask25_664_637)">
<path d="M158.811 63.2693C157.818 68.2345 154.839 73.1996 155.584 78.1648C155.832 79.1578 157.074 80.399 158.315 80.1508C166.259 79.1578 167.997 69.724 167.004 63.2693C166.011 59.2972 159.556 59.5454 158.811 63.2693Z" fill="#F18913"/>
</g>
<mask id="mask26_664_637" style="mask-type:luminance" maskUnits="userSpaceOnUse" x="60" y="60" width="179" height="178">
<path d="M231.936 181.301C249.753 135.564 227.12 84.0425 181.383 66.2248C135.646 48.4072 84.1253 71.0402 66.3076 116.777C48.49 162.514 71.123 214.035 116.86 231.853C162.597 249.67 214.118 227.037 231.936 181.301Z" fill="white"/>
</mask>
<g mask="url(#mask26_664_637)">
<path d="M152.854 81.3921C152.357 81.6404 151.861 81.8887 151.364 82.1369C150.868 82.3852 150.371 83.13 149.875 83.6265C149.13 84.3712 148.137 86.109 148.137 87.3503C148.137 88.3434 148.881 88.8398 149.626 88.8398C150.371 88.8398 150.868 88.5916 151.612 88.3433C152.605 87.8468 153.102 87.3503 153.598 86.6055C154.095 86.109 154.591 85.3643 154.591 84.8678C154.84 84.123 154.84 83.6264 154.84 82.8817C155.584 81.6404 153.847 80.8956 152.854 81.3921Z" fill="#F18913"/>
</g>
<mask id="mask27_664_637" style="mask-type:luminance" maskUnits="userSpaceOnUse" x="60" y="60" width="179" height="178">
<path d="M231.936 181.301C249.753 135.564 227.12 84.0425 181.383 66.2248C135.646 48.4072 84.1253 71.0402 66.3076 116.777C48.49 162.514 71.123 214.035 116.86 231.853C162.597 249.67 214.118 227.037 231.936 181.301Z" fill="white"/>
</mask>
<g mask="url(#mask27_664_637)">
<path d="M144.909 90.8257C143.668 91.8187 142.178 92.5635 140.689 93.5565C139.944 94.0531 139.448 94.5495 138.951 95.046C138.206 95.5425 137.462 95.7908 137.213 96.7839C136.717 97.7769 137.213 98.5216 138.206 99.0182C139.696 99.7629 142.675 98.5216 143.916 97.5286C145.406 96.2873 146.647 94.7978 147.888 93.3083C148.881 91.3222 146.399 89.5844 144.909 90.8257Z" fill="#F18913"/>
</g>
<mask id="mask28_664_637" style="mask-type:luminance" maskUnits="userSpaceOnUse" x="60" y="60" width="179" height="178">
<path d="M231.936 181.301C249.753 135.564 227.12 84.0425 181.383 66.2248C135.646 48.4072 84.1253 71.0402 66.3076 116.777C48.49 162.514 71.123 214.035 116.86 231.853C162.597 249.67 214.118 227.037 231.936 181.301Z" fill="white"/>
</mask>
<g mask="url(#mask28_664_637)">
<path d="M103.203 123.596C104.197 123.844 104.941 123.596 105.934 123.596C106.431 123.596 106.927 123.596 107.424 123.348C107.92 123.348 108.417 122.851 108.913 122.851C111.644 121.858 111.148 118.383 108.169 118.135C106.927 117.886 105.934 118.134 104.693 118.631C103.7 119.127 102.707 119.624 101.962 120.617C101.217 121.858 101.962 123.348 103.203 123.596Z" fill="#F18913"/>
</g>
<mask id="mask29_664_637" style="mask-type:luminance" maskUnits="userSpaceOnUse" x="60" y="60" width="179" height="178">
<path d="M231.936 181.301C249.753 135.564 227.12 84.0425 181.383 66.2248C135.646 48.4072 84.1253 71.0402 66.3076 116.777C48.49 162.514 71.123 214.035 116.86 231.853C162.597 249.67 214.118 227.037 231.936 181.301Z" fill="white"/>
</mask>
<g mask="url(#mask29_664_637)">
<path d="M114.623 121.114C115.368 121.114 115.865 120.865 116.609 120.617C117.106 120.369 117.354 119.872 117.354 119.128C117.106 117.638 115.368 117.638 114.375 117.886C112.389 118.383 112.637 121.362 114.623 121.114Z" fill="#F18913"/>
</g>
<mask id="mask30_664_637" style="mask-type:luminance" maskUnits="userSpaceOnUse" x="60" y="60" width="179" height="178">
<path d="M231.936 181.301C249.753 135.564 227.12 84.0425 181.383 66.2248C135.646 48.4072 84.1253 71.0402 66.3076 116.777C48.49 162.514 71.123 214.035 116.86 231.853C162.597 249.67 214.118 227.037 231.936 181.301Z" fill="white"/>
</mask>
<g mask="url(#mask30_664_637)">
<path d="M196.798 94.0532C196.053 94.0532 195.308 94.3015 194.811 95.0462C194.315 95.5428 194.067 95.791 193.818 96.2875C193.074 97.0323 192.577 97.7771 192.577 98.7701C192.577 99.7631 193.074 100.508 193.818 101.004C194.563 101.501 195.804 101.501 196.549 101.004C197.294 100.508 197.791 99.7632 198.039 99.2666C198.287 98.7701 198.535 98.2736 199.032 97.7771C199.528 96.7841 199.528 96.0393 199.28 95.2945C198.784 94.3015 197.791 94.0532 196.798 94.0532Z" fill="#F18913"/>
</g>
<mask id="mask31_664_637" style="mask-type:luminance" maskUnits="userSpaceOnUse" x="60" y="60" width="179" height="178">
<path d="M231.936 181.301C249.753 135.564 227.12 84.0425 181.383 66.2248C135.646 48.4072 84.1253 71.0402 66.3076 116.777C48.49 162.514 71.123 214.035 116.86 231.853C162.597 249.67 214.118 227.037 231.936 181.301Z" fill="white"/>
</mask>
<g mask="url(#mask31_664_637)">
<path d="M188.604 101.501C187.86 101.749 187.115 101.997 186.618 102.494C186.37 102.99 186.122 103.735 185.874 104.232C185.625 104.728 186.122 105.473 186.618 105.225C187.115 105.225 187.86 105.225 188.356 104.976C189.101 104.728 189.349 103.983 189.846 103.239C190.839 102.742 189.598 101.253 188.604 101.501Z" fill="#F18913"/>
</g>
<mask id="mask32_664_637" style="mask-type:luminance" maskUnits="userSpaceOnUse" x="60" y="60" width="179" height="178">
<path d="M231.936 181.301C249.753 135.564 227.12 84.0425 181.383 66.2248C135.646 48.4072 84.1253 71.0402 66.3076 116.777C48.49 162.514 71.123 214.035 116.86 231.853C162.597 249.67 214.118 227.037 231.936 181.301Z" fill="white"/>
</mask>
<g mask="url(#mask32_664_637)">
<path d="M189.1 142.215C189.845 141.967 188.852 142.215 189.1 142.215C188.852 142.215 189.845 142.215 190.093 142.215C191.086 142.215 191.583 141.718 192.327 141.222C192.327 141.222 192.824 140.974 192.576 141.222C192.824 140.974 193.32 140.974 193.569 140.726C194.562 140.229 195.555 139.484 195.803 138.243C195.307 138.739 194.81 139.484 194.562 139.981C194.81 139.732 195.058 139.484 195.307 139.484C197.293 137.995 196.548 134.767 194.065 134.767C193.817 134.767 193.32 134.767 193.072 134.767C193.569 135.016 194.065 135.016 194.562 135.264C192.576 133.774 190.341 135.512 188.852 136.753C188.107 137.498 187.362 138.243 187.362 139.484C187.362 139.732 187.362 140.725 187.362 140.229C187.362 139.981 187.362 140.725 187.362 140.974C187.611 141.718 188.355 142.463 189.1 142.215Z" fill="#F19B3A"/>
</g>
<mask id="mask33_664_637" style="mask-type:luminance" maskUnits="userSpaceOnUse" x="60" y="60" width="179" height="178">
<path d="M231.936 181.301C249.753 135.564 227.12 84.0425 181.383 66.2248C135.646 48.4072 84.1253 71.0402 66.3076 116.777C48.49 162.514 71.123 214.035 116.86 231.853C162.597 249.67 214.118 227.037 231.936 181.301Z" fill="white"/>
</mask>
<g mask="url(#mask33_664_637)">
<path d="M145.904 165.055C143.421 165.055 141.684 165.552 139.201 166.296C138.208 166.545 137.215 167.041 136.222 167.538C134.981 168.283 134.732 168.531 133.739 169.772C132.995 170.517 133.491 171.51 134.484 171.51C135.726 171.758 135.974 172.006 137.463 171.51C138.456 171.262 139.698 170.765 140.691 170.517C142.677 169.772 144.663 169.027 146.401 167.786C147.642 166.793 147.145 165.055 145.904 165.055Z" fill="#F19B3A"/>
</g>
<path opacity="0.61" d="M213.926 88.5918C215.912 95.7913 216.905 103.487 216.905 111.431C216.905 160.338 177.184 200.308 128.029 200.308C102.458 200.308 79.3701 189.384 63.2334 172.254C73.412 210.238 107.92 238.043 149.13 238.043C198.037 238.043 238.007 198.322 238.007 149.167C237.758 125.582 228.821 104.48 213.926 88.5918Z" fill="#F1AC5E"/>
<path opacity="0.82" d="M207.967 82.8816C215.912 96.2875 220.38 111.679 220.38 128.313C220.38 177.219 180.659 217.189 131.504 217.189C108.913 217.189 88.0592 208.748 72.4189 194.597C87.8109 220.416 116.361 237.794 148.634 237.794C197.541 237.794 237.51 198.073 237.51 148.918C237.758 122.851 226.339 99.0183 207.967 82.8816Z" fill="#F1AC5E"/>
<path opacity="0.25" d="M219.636 95.5425C229.07 109.693 234.532 126.575 234.532 144.946C234.532 193.852 194.811 233.822 145.656 233.822C116.858 233.822 91.0391 219.919 74.9023 198.818C90.7908 222.65 117.851 238.29 148.635 238.29C197.542 238.29 237.511 198.569 237.511 149.414C237.759 129.057 231.056 110.438 219.636 95.5425Z" fill="#F1AC5E"/>
<path opacity="0.58" d="M212.686 87.3502C196.549 70.7169 173.958 60.29 148.884 60.29C145.904 60.29 142.677 60.5383 139.698 60.7866C138.208 61.0348 136.471 61.2831 134.981 61.2831C134.485 61.2831 133.988 61.5313 133.74 61.5313C132.747 61.7796 131.506 62.0279 130.513 62.2761C130.016 62.2761 129.519 62.5244 129.023 62.5244C128.03 62.7727 127.037 63.0209 126.044 63.2692C125.547 63.5174 125.051 63.5174 124.306 63.7657C123.313 64.014 122.32 64.2622 121.575 64.7587C121.079 65.007 120.582 65.0069 119.837 65.2552C118.844 65.5034 117.851 66 117.107 66.2483C116.61 66.4965 116.114 66.7447 115.617 66.7447C114.624 67.2413 113.631 67.4895 112.886 67.986C112.39 68.2343 111.893 68.4826 111.397 68.7309C110.404 69.2274 109.411 69.7238 108.418 70.2203C108.169 70.4686 107.673 70.4686 107.425 70.7169C104.694 72.2064 101.963 73.696 99.4803 75.4338C99.2321 75.4338 99.2321 75.682 98.9838 75.682C97.9908 76.4268 96.7495 77.1716 95.7565 77.9163C95.5082 78.1646 95.0117 78.4129 94.7634 78.6611C93.7704 79.4059 93.0256 80.1507 92.0326 80.8955C91.7843 81.1437 91.2878 81.392 91.0396 81.8885C90.2948 82.6332 89.55 83.378 88.557 84.1228C88.3087 84.371 87.8122 84.8675 87.564 85.1158C86.8192 85.8606 86.0744 86.6054 85.3296 87.3502C85.0814 87.5984 84.5849 88.0949 84.3366 88.3432C83.5919 89.0879 82.8471 90.081 82.1023 90.8257C81.854 91.074 81.6058 91.5705 81.3575 91.8188C80.6128 92.8118 79.868 93.5566 79.1232 94.5496C78.875 94.7979 78.6267 95.0461 78.6267 95.2944C77.6337 96.5356 76.8889 97.7769 75.8959 99.0182C66.2138 113.169 60.5039 130.299 60.5039 148.918C60.5039 175.482 72.172 199.066 90.5431 215.451C75.1511 199.562 65.4691 177.716 65.4691 153.635C65.4691 135.512 70.9307 118.631 80.3645 104.48C87.0675 111.183 96.5012 115.403 106.928 115.403C127.533 115.403 144.415 98.5217 144.415 77.9163C144.415 73.696 143.67 69.4756 142.429 65.5035C146.401 65.0069 150.373 64.7587 154.345 64.7587C176.688 65.2552 197.045 73.4477 212.686 87.3502Z" fill="#F1AC5E"/>
<path opacity="0.25" d="M143.422 60.5386C98.7355 63.2694 62.9865 99.2668 60.5039 144.201C71.179 154.132 85.3296 160.338 100.97 160.338C133.492 160.338 159.807 134.023 159.807 101.501C159.807 85.6126 153.6 71.2136 143.422 60.5386Z" fill="#F1AC5E"/>
<path opacity="0.5" d="M149.629 82.8817C149.629 87.3503 153.105 90.826 157.573 90.826C162.042 90.826 165.517 87.3503 165.517 82.8817C165.517 78.4131 162.042 74.9375 157.573 74.9375C153.105 74.9375 149.629 78.6613 149.629 82.8817Z" fill="#F1AC5E"/>
<path opacity="0.5" d="M145.158 101.253C145.158 103.983 147.393 106.218 150.123 106.218C152.854 106.218 155.089 103.983 155.089 101.253C155.089 98.5217 152.854 96.2874 150.123 96.2874C147.393 96.2874 145.158 98.2734 145.158 101.253Z" fill="#F1AC5E"/>
<path opacity="0.51" d="M149.132 238.042C198.217 238.042 238.008 198.251 238.008 149.166C238.008 100.081 198.217 60.29 149.132 60.29C100.047 60.29 60.2559 100.081 60.2559 149.166C60.2559 198.251 100.047 238.042 149.132 238.042Z" fill="url(#paint1_linear_664_637)"/>
<path opacity="0.32" d="M228.823 114.659C229.071 125.086 227.581 135.512 223.857 145.939C207.721 191.618 157.573 215.451 112.142 199.314C88.5571 190.874 70.9309 173.744 61.4971 152.642C62.2418 187.895 84.585 220.665 119.838 233.077C165.517 249.214 215.417 225.381 231.553 179.702C239.249 157.607 237.76 134.519 228.823 114.659Z" fill="url(#paint2_linear_664_637)"/>
<path opacity="0.32" d="M184.632 70.4688C191.832 77.9165 197.541 86.8538 201.762 97.0323C220.133 141.719 199.031 192.86 154.345 211.479C131.257 220.913 106.431 219.92 85.3291 210.486C109.41 236.056 147.89 245.739 182.398 231.34C227.084 212.969 248.434 161.579 229.815 116.893C221.126 95.5428 204.493 79.406 184.632 70.4688Z" fill="url(#paint3_linear_664_637)"/>
<defs>
<radialGradient id="paint0_radial_664_637" cx="0" cy="0" r="1" gradientUnits="userSpaceOnUse" gradientTransform="translate(149.04 149.241) scale(141.425)">
<stop stop-color="#ACFFFB"/>
<stop offset="0.1673" stop-color="#7FBDBA"/>
<stop offset="0.332" stop-color="#588381"/>
<stop offset="0.4894" stop-color="#395453"/>
<stop offset="0.6382" stop-color="#20302F"/>
<stop offset="0.7765" stop-color="#0E1515"/>
<stop offset="0.9002" stop-color="#040605"/>
<stop offset="0.9972"/>
</radialGradient>
<linearGradient id="paint1_linear_664_637" x1="86.2767" y1="86.3608" x2="211.804" y2="211.887" gradientUnits="userSpaceOnUse">
<stop stop-color="#FFF100"/>
<stop offset="0.9972" stop-color="#EC8D66"/>
</linearGradient>
<linearGradient id="paint2_linear_664_637" x1="140.692" y1="116.001" x2="169.457" y2="235.985" gradientUnits="userSpaceOnUse">
<stop offset="0.2422" stop-color="white"/>
<stop offset="0.9199" stop-color="white"/>
<stop offset="1" stop-color="white"/>
</linearGradient>
<linearGradient id="paint3_linear_664_637" x1="119.991" y1="130.492" x2="221.619" y2="200.451" gradientUnits="userSpaceOnUse">
<stop offset="0.2422" stop-color="white"/>
<stop offset="0.3912" stop-color="#FFFEFC"/>
<stop offset="0.5032" stop-color="#FFFAF2"/>
<stop offset="0.6031" stop-color="#FFF4E2"/>
<stop offset="0.696" stop-color="#FFECCB"/>
<stop offset="0.784" stop-color="#FFE1AE"/>
<stop offset="0.8685" stop-color="#FFD48A"/>
<stop offset="0.9485" stop-color="#FFC55F"/>
<stop offset="1" stop-color="#FFB940"/>
</linearGradient>
</defs>
</svg>
