<svg width="298" height="298" viewBox="0 0 298 298" fill="none" xmlns="http://www.w3.org/2000/svg">
<path opacity="0.43" d="M149 298C231.29 298 298 231.29 298 149C298 66.7096 231.29 0 149 0C66.7096 0 0 66.7096 0 149C0 231.29 66.7096 298 149 298Z" fill="url(#paint0_radial_664_587)"/>
<path d="M148.999 241.114C199.44 241.114 240.33 200.223 240.33 149.783C240.33 99.3419 199.44 58.4517 148.999 58.4517C98.5582 58.4517 57.668 99.3419 57.668 149.783C57.668 200.223 98.5582 241.114 148.999 241.114Z" fill="#FF2424"/>
<path d="M213.715 84.8074C208.757 85.0683 203.799 86.8949 199.363 89.5044C190.491 94.4624 183.184 102.03 179.27 111.163C175.356 120.557 175.356 131.517 180.314 140.389C182.662 144.825 186.315 148.478 189.969 152.131C192.578 154.741 195.448 157.611 196.231 161.004C197.275 165.701 194.405 170.137 191.012 173.268C183.967 179.27 173.529 180.574 165.179 176.66C159.177 173.79 154.48 168.31 148.739 164.918C140.65 160.221 129.951 159.699 121.34 164.135C112.729 168.571 106.727 177.182 105.683 186.576C105.161 191.273 105.683 196.492 102.291 200.145C99.4204 203.277 94.2015 203.799 91.853 207.452C89.2435 211.105 90.8092 216.063 91.3311 220.499C106.988 233.546 127.342 241.114 149.261 241.114C199.885 241.114 240.592 200.145 240.592 149.783C240.592 124.471 230.415 101.508 213.715 84.8074Z" fill="#E72121"/>
<path d="M214.759 86.1121C211.888 87.4168 209.54 88.7215 207.191 90.2872C194.666 98.8984 185.011 114.816 190.491 128.646C194.927 139.606 207.191 145.869 211.367 156.828C215.02 166.222 212.149 177.182 205.887 185.01C199.624 192.839 190.752 198.319 181.88 202.755C171.442 207.713 158.916 211.888 148.479 206.669C141.694 203.277 136.997 196.753 129.951 193.883C120.818 190.229 109.076 195.187 105.162 204.32C103.596 207.974 103.335 212.149 101.508 215.802C99.9427 218.933 97.3333 221.021 94.4629 222.848C109.598 234.068 128.647 240.853 149.001 240.853C199.624 240.853 240.331 199.884 240.331 149.522C240.592 124.993 230.676 102.552 214.759 86.1121Z" fill="#D80B0B"/>
<path d="M208.496 103.595C209.018 99.4203 205.104 97.5937 200.407 103.335C196.754 107.51 192.84 114.555 197.537 119.774C199.102 121.34 200.929 121.862 202.494 119.774C203.277 118.469 203.538 116.904 203.538 115.338C203.799 112.99 204.06 111.685 205.626 109.858C206.67 108.293 208.235 105.944 208.496 103.595Z" fill="#E72121"/>
<path d="M209.279 122.383C209.018 121.862 208.496 121.34 207.974 121.34C207.974 121.079 207.713 120.818 207.713 120.818C206.93 120.035 205.887 120.296 205.365 120.818C204.321 121.862 203.799 123.427 204.582 124.993C205.104 126.298 206.93 126.82 208.235 126.559C209.279 125.515 210.062 123.949 209.279 122.383Z" fill="#E72121"/>
<path d="M97.0707 161.786C91.069 161.264 87.1548 167.266 85.0672 171.963C82.1968 177.704 81.4139 184.749 84.2843 190.751C85.85 193.883 88.4595 195.448 91.3299 195.187C93.4174 195.97 96.0269 194.926 97.0707 192.578C100.463 189.707 99.9411 185.532 99.6802 181.357C100.985 178.487 103.855 176.399 105.16 173.268C106.726 167.788 102.029 162.047 97.0707 161.786Z" fill="#E72121"/>
<path d="M190.752 157.872C189.447 154.48 186.315 153.958 183.184 155.002C179.009 156.829 167.788 166.484 174.051 170.92C177.182 173.268 180.836 170.92 183.445 168.832C184.228 168.31 185.011 167.527 185.794 167.006C186.315 167.006 186.837 167.006 187.098 166.484C189.708 164.657 192.056 161.265 190.752 157.872Z" fill="#E72121"/>
<path d="M176.922 151.609C177.704 152.131 178.487 152.392 179.27 152.914C180.314 153.436 181.619 153.175 181.88 151.87C181.88 151.348 181.88 150.827 181.88 150.305C182.402 148.217 180.314 145.347 177.965 144.303C177.705 144.042 177.183 143.781 176.661 143.781C175.095 143.259 173.79 144.303 173.007 145.608C172.225 147.173 172.747 148.739 174.051 150.044C174.834 150.566 175.878 151.348 176.922 151.609Z" fill="#E72121"/>
<path d="M112.467 155.785C112.206 155.524 111.945 155.524 111.945 155.263C109.596 153.697 106.726 155.002 105.682 157.611C105.682 157.872 105.682 158.133 105.421 158.394C104.377 160.742 104.377 163.613 106.726 165.179C109.596 167.005 112.206 164.918 112.988 162.047C114.032 160.221 114.032 157.35 112.467 155.785Z" fill="#E72121"/>
<path d="M102.553 152.392C102.292 152.131 102.031 151.871 101.509 151.871C100.726 151.61 100.204 151.61 99.4213 151.871C98.3775 152.392 97.3337 153.175 97.0728 154.48C96.8118 155.002 96.8118 156.046 97.3337 156.568C97.5946 157.089 98.6384 157.611 99.1603 157.611C100.204 157.872 101.509 157.872 102.292 157.089C103.335 157.089 104.118 156.307 104.118 155.263C104.118 154.219 103.335 153.175 102.553 152.392Z" fill="#E72121"/>
<path d="M154.479 179.27L154.218 179.009C150.826 174.051 145.085 167.788 142.476 173.268C141.171 176.138 142.998 179.531 144.824 181.357C146.912 183.706 149.782 184.75 152.653 185.272C153.436 185.532 154.218 185.532 155.001 185.793C156.567 186.054 157.611 184.75 156.828 183.184C156.306 182.662 155.523 181.096 154.479 179.27Z" fill="#FF2424"/>
<path d="M160.482 179.27C159.96 179.27 159.177 179.53 158.916 180.052C158.394 180.835 158.394 181.879 158.916 182.923C159.438 183.967 160.221 184.227 161.264 184.488C161.525 184.488 161.525 184.488 161.786 184.488C161.786 184.488 162.047 184.488 162.047 184.749C163.352 185.271 164.396 183.967 164.135 182.662C163.874 180.574 162.308 179.53 160.482 179.27Z" fill="#FF2424"/>
<path d="M161.002 188.142C160.741 188.142 160.219 188.142 159.958 188.142C159.176 188.142 158.132 188.925 158.132 189.969C158.132 191.012 158.915 191.534 159.958 191.795C160.219 191.795 160.741 191.795 161.002 191.795C161.785 191.795 162.829 191.012 162.829 189.969C162.568 188.925 162.046 188.403 161.002 188.142Z" fill="#FF2424"/>
<path d="M110.903 182.401C108.293 183.706 107.771 187.359 109.598 189.447C110.12 189.969 110.903 189.969 111.425 189.708C114.034 189.447 113.773 185.011 113.512 183.184C113.251 182.14 111.947 181.879 110.903 182.401Z" fill="#FF2424"/>
<path d="M112.468 176.921L112.207 177.182C111.424 177.965 111.424 179.009 112.207 179.531C112.99 180.313 114.034 180.313 114.556 179.531L114.817 179.27C115.6 178.487 115.6 177.443 114.817 176.921C114.295 176.138 112.99 176.138 112.468 176.921Z" fill="#FF2424"/>
<path d="M199.1 148.478C198.318 147.174 197.013 146.391 195.708 145.347C194.664 144.303 194.403 142.738 193.36 141.694C192.316 140.65 190.489 140.128 189.185 141.172C185.792 144.042 190.228 147.435 192.316 149C193.882 150.827 195.708 152.393 197.796 151.871C199.361 151.61 199.883 149.783 199.1 148.478Z" fill="#FF2424"/>
<path d="M157.35 204.059C159.959 205.103 164.917 205.886 167.005 203.016C167.788 201.711 167.788 200.145 166.744 198.84C165.7 197.797 164.395 197.275 163.091 197.275C161.525 196.753 159.698 196.753 157.872 197.275C156.567 197.797 155.001 198.84 154.74 200.406C154.48 202.494 155.784 203.537 157.35 204.059Z" fill="#D80B0B"/>
<path d="M180.051 97.3325C181.356 98.1153 182.661 97.5935 183.705 96.8106C185.792 95.5059 187.358 93.6793 189.446 92.6355C191.794 91.0698 197.535 89.5041 197.274 85.8509C197.013 82.7195 192.055 82.1976 189.706 82.7195C187.358 83.2414 185.009 84.5461 183.183 86.6337C182.139 87.4165 181.095 88.4603 180.312 89.5041C178.225 91.3308 176.659 95.5059 180.051 97.3325Z" fill="#D80B0B"/>
<path d="M177.443 106.205C177.965 106.205 178.487 105.944 179.009 105.422C179.531 104.639 179.792 103.856 179.792 103.074C179.792 102.813 179.792 102.813 179.792 102.552V102.291C179.792 101.247 179.009 100.725 177.965 100.464C176.66 100.464 175.617 101.247 175.095 102.291C174.573 103.595 174.573 104.9 175.617 105.944C176.399 106.205 176.921 106.205 177.443 106.205Z" fill="#D80B0B"/>
<path d="M202.494 85.5899C203.016 85.5899 203.277 85.5899 203.799 85.5899C204.582 85.329 204.843 84.807 205.104 84.0242C205.104 83.7633 205.104 83.5023 205.104 83.5023C205.365 82.9804 205.104 82.1976 204.582 81.6757C203.799 80.8929 202.755 81.1538 202.234 81.6757L201.973 81.9366C201.451 82.1976 201.19 82.4585 200.668 82.7195C200.146 83.5023 199.885 84.5461 200.668 85.068C201.19 85.8509 201.973 85.8508 202.494 85.5899Z" fill="#D80B0B"/>
<path d="M89.2426 196.753C87.6769 196.492 85.8502 196.753 84.2846 197.797C83.7627 198.058 83.2408 198.58 82.719 199.102C82.458 199.624 82.197 200.146 81.9361 200.928C81.6751 203.538 84.2846 205.104 86.6331 205.104C88.1988 205.104 89.7644 204.582 90.8082 203.538C93.4177 201.189 92.3739 197.536 89.2426 196.753Z" fill="#D80B0B"/>
<path d="M81.1527 191.012C80.3698 190.49 79.3261 190.49 78.8042 191.012C78.0213 191.795 77.7604 193.1 78.2823 193.883C78.2823 193.883 78.2823 194.144 78.5432 194.144C78.5432 194.144 78.5432 194.144 78.8042 194.405C78.8042 194.405 78.8041 194.666 79.0651 194.666C80.1088 195.709 81.9355 195.709 82.7184 194.144C82.9793 193.1 82.4574 191.534 81.1527 191.012Z" fill="#D80B0B"/>
<path d="M189.708 181.618C189.447 182.14 188.925 182.662 188.664 183.445C186.577 186.315 186.055 189.185 188.664 190.229H188.925C189.447 190.49 189.969 190.751 190.491 191.012C196.232 192.578 212.932 176.399 204.321 173.268C204.06 173.268 203.538 173.007 203.277 173.007C203.016 172.746 202.494 172.746 201.973 172.746C197.015 174.572 192.839 177.443 189.708 181.618Z" fill="#D80B0B"/>
<path d="M202.754 167.788C203.015 168.049 203.015 168.31 203.276 168.571C203.798 169.093 204.32 169.614 204.581 169.875C205.364 170.658 206.668 170.658 207.19 169.614C207.973 168.049 208.234 165.7 207.451 164.135C207.451 163.874 207.19 163.613 206.929 163.352C206.146 162.308 205.103 161.525 203.798 161.525C202.493 161.786 201.71 162.83 201.45 163.874C201.45 163.874 201.45 163.874 201.45 164.135C201.189 164.656 201.188 164.917 201.188 165.439C201.71 166.222 201.971 167.266 202.754 167.788Z" fill="#D80B0B"/>
<path d="M197.795 170.658C198.839 171.963 201.188 170.919 201.188 169.354C201.188 167.527 199.1 166.744 197.795 168.049C197.534 168.31 197.273 168.832 197.273 169.354C197.273 169.875 197.273 170.397 197.795 170.658Z" fill="#D80B0B"/>
<path d="M133.344 69.1504C131.779 69.1504 130.474 69.1504 128.908 68.8894C128.125 68.6285 127.082 68.6285 126.038 69.1504C118.21 71.7598 111.164 75.674 104.64 80.8929C99.4215 85.0681 91.854 91.8527 92.115 99.4201C92.3759 106.727 99.9434 109.858 106.206 108.292C114.817 106.205 122.907 99.1591 129.691 93.9402C134.91 90.026 144.043 83.7633 144.565 76.4569C145.087 69.9332 138.824 68.8894 133.344 69.1504Z" fill="#E72121"/>
<path d="M76.1971 107.77C75.4142 108.553 74.6313 109.597 74.1095 110.641C74.1095 110.641 74.1094 110.902 73.8485 110.902C73.8485 111.163 73.5876 111.163 73.5876 111.424C73.5876 111.424 73.5876 111.424 73.5876 111.685C72.5438 113.772 71.5 115.86 71.5 117.947C71.5 120.035 72.2829 121.601 73.5876 122.644C74.6314 123.949 76.197 124.732 77.7627 124.732C78.2846 124.732 78.8065 124.732 79.3284 124.471C86.6348 123.949 92.8976 112.728 87.6787 106.988C83.7645 103.595 79.0675 104.378 76.1971 107.77Z" fill="#E72121"/>
<path d="M101.768 113.511C101.507 113.511 101.246 113.511 100.985 113.511C100.725 113.25 100.463 113.25 99.9416 113.25C98.6369 112.989 97.0712 112.989 96.0274 113.772C94.9836 114.555 93.9399 115.599 93.6789 116.903V117.164C92.8961 118.73 92.8961 120.557 93.6789 122.122C94.7227 123.688 96.2884 124.471 98.115 124.732C99.4198 124.732 101.246 124.471 102.29 123.688C102.551 123.427 102.812 123.427 102.812 123.166C104.639 122.122 105.421 120.035 105.161 117.947C105.161 115.86 103.595 114.033 101.768 113.511Z" fill="#E72121"/>
<path d="M156.307 66.5413C155.003 66.0194 153.437 66.2803 152.132 67.0632C150.566 68.107 149.784 69.6726 150.045 71.7602C150.045 72.0212 150.306 72.2821 150.306 72.5431C150.306 74.3697 150.566 76.4572 151.871 77.762C153.437 79.3276 156.307 79.3276 157.873 77.762C158.917 76.7182 159.439 75.4134 159.7 74.1087C160.743 71.2383 159.7 67.5851 156.307 66.5413Z" fill="#E72121"/>
<path d="M146.652 84.5465C144.825 85.8512 142.215 87.4169 141.693 89.7654C141.433 90.2873 141.433 90.8092 141.433 91.3311C141.433 92.6358 142.476 94.4625 144.042 94.7234C144.825 94.7234 145.347 94.9843 146.13 94.7234C146.391 94.7234 146.391 94.4624 146.652 94.4624C147.695 94.2015 148.739 93.6796 149.522 92.6358C150.044 92.1139 150.827 91.3311 151.349 90.5483C152.653 88.9826 152.914 86.895 151.609 85.3293C150.566 84.0246 148.217 83.2418 146.652 84.5465Z" fill="#E72121"/>
<path d="M70.4568 129.168C67.3254 135.431 70.7177 142.738 78.5461 139.606C80.1118 139.084 82.9822 136.214 84.8088 136.736C86.1135 137.258 87.6792 140.389 89.2449 141.433C93.1591 144.042 97.5951 144.042 102.031 143.52C110.903 142.477 118.993 138.041 123.951 130.734C126.821 126.559 126.299 121.34 130.213 118.47C134.649 115.338 140.129 113.251 140.39 107.249C140.39 105.944 139.607 104.379 138.564 103.857C134.649 102.03 132.823 102.813 128.909 104.9C125.516 106.727 121.08 108.554 118.471 111.424C115.861 114.034 115.6 117.165 114.818 120.557C113.774 123.949 111.686 126.559 109.077 128.646C106.206 130.734 102.814 133.083 99.4218 133.865C94.7247 135.17 93.42 132.561 90.0277 130.212C87.9401 128.646 85.5916 127.864 82.9821 128.646C80.3727 129.429 74.6319 135.692 74.6319 129.951C74.11 128.386 71.5006 127.342 70.4568 129.168Z" fill="#E72121"/>
<path d="M165.438 71.4993C171.44 79.0668 161.002 84.8076 157.088 89.5046C153.174 94.4626 153.957 98.3767 156.044 104.118C157.871 109.076 154.739 111.163 150.825 113.773C148.216 115.338 145.606 117.165 143.258 119.252C138.3 123.688 134.125 129.69 132.82 136.475C132.559 138.041 133.081 139.867 134.647 140.65C134.908 140.911 135.168 140.911 135.429 140.911C136.473 141.433 138.3 140.911 139.083 139.867C144.562 132.822 148.999 126.559 156.566 121.601C163.09 117.165 168.57 110.902 165.699 102.552C165.177 100.986 163.612 99.1596 163.612 97.5939C163.612 95.2454 165.699 93.9407 167.265 92.6359C169.874 90.2874 172.223 87.9389 173.788 84.5466C176.659 78.023 174.832 71.2384 168.83 67.5851C165.699 65.7585 163.612 69.4118 165.438 71.4993Z" fill="#E72121"/>
<path d="M70.4555 151.61C70.1946 151.871 71.2384 154.48 71.4993 155.002C72.2821 156.307 73.5869 157.35 74.8917 158.133C78.023 159.699 81.6762 159.438 84.2856 157.089C85.0685 156.307 85.5904 154.741 85.0685 153.697C84.2857 151.088 82.1981 151.088 79.8496 151.61C77.762 152.132 77.501 151.349 76.4573 149.522C75.4135 147.695 73.8478 145.869 71.4993 146.13C69.4117 146.13 67.5852 147.695 67.0633 149.783C66.8023 151.871 68.8899 152.914 70.4555 151.61Z" fill="#E72121"/>
<path d="M68.6284 162.048C68.8894 163.874 69.4113 165.44 70.7161 166.484C72.5427 168.049 75.4131 168.31 76.9787 166.223C77.7616 165.179 77.7616 163.874 76.9787 162.83C77.5006 163.613 76.7178 162.308 76.7178 162.308C76.1959 161.526 75.1521 161.004 74.3693 160.743H74.1083C73.8474 160.743 73.8474 160.743 74.1083 160.743C74.3693 160.743 74.3693 160.743 74.1083 160.743C74.1083 160.743 74.1083 160.743 73.8474 160.743C73.5864 160.482 73.5864 160.482 73.8474 160.743C74.1083 161.004 74.1083 161.004 73.8474 160.743C73.8474 160.743 73.8474 160.743 73.5865 160.482C73.8474 160.743 73.8474 160.743 73.5865 160.482C73.0646 159.438 71.7598 158.916 70.4551 159.177C69.4113 159.699 68.3675 160.743 68.6284 162.048Z" fill="#E72121"/>
<path opacity="0.28" d="M189.708 67.8459C195.71 80.1104 199.102 93.9405 199.102 108.553C199.102 159.177 158.133 199.884 107.771 199.884C93.158 199.884 79.3279 196.492 67.0635 190.49C81.9374 220.499 112.99 241.375 149 241.375C199.624 241.375 240.331 200.406 240.331 150.044C240.592 113.772 219.978 82.7199 189.708 67.8459Z" fill="#B70909"/>
<path opacity="0.28" d="M210.322 81.676C217.629 94.9843 222.065 110.119 222.065 126.298C222.065 176.921 181.097 217.629 130.734 217.629C107.249 217.629 85.8515 208.757 69.6729 194.144C85.3296 222.065 115.077 240.853 149.522 240.853C200.146 240.853 240.853 199.884 240.853 149.522C240.592 122.644 228.85 98.3765 210.322 81.676Z" fill="#B70909"/>
<path opacity="0.92" d="M212.409 83.7636C195.969 67.8459 173.528 58.1909 148.999 58.1909C139.866 58.1909 130.994 59.4956 122.643 62.1051C121.861 62.366 121.339 62.627 120.817 62.627C120.295 62.8879 119.773 62.8879 119.251 63.1489C118.207 63.4098 117.164 63.9317 116.381 64.1927C115.859 64.4536 115.337 64.4536 114.815 64.7146C114.032 64.9755 113.249 65.4974 112.206 65.7583C111.684 66.0193 110.901 66.2802 110.379 66.5412C109.857 66.8021 109.074 67.063 108.552 67.5849C108.03 67.8459 107.509 68.1068 107.248 68.3678C106.204 68.8897 105.421 69.4116 104.377 69.9335C103.855 70.1944 103.594 70.4554 103.073 70.7163C102.029 71.2382 100.985 72.021 100.202 72.5429C99.9411 72.8039 99.4193 73.0648 99.1583 73.3258C98.6364 73.8477 97.8536 74.1086 97.3317 74.6305C97.0707 74.8914 96.8098 74.8914 96.8098 75.1524C95.766 75.9352 94.7222 76.718 93.4175 77.5009C93.1565 77.7618 92.8956 78.0228 92.6347 78.0228C91.5909 78.8056 90.5471 79.5885 89.5033 80.3713C89.2423 80.6322 88.9814 80.6322 88.7205 80.8932C86.8939 82.4589 85.0672 84.2855 83.5016 85.8511C83.5016 85.8511 83.5016 85.8512 83.2406 86.1121C82.1968 87.1559 81.1531 88.4606 80.1093 89.5044L79.8484 89.7653C78.8046 91.07 77.7608 92.1139 76.717 93.4186C64.7135 108.814 57.668 128.385 57.668 149.261C57.668 177.704 70.7152 203.277 91.3299 219.977C74.1075 203.277 63.4087 180.053 63.4087 154.219C63.4087 142.215 65.7572 130.995 69.9324 120.557C76.456 125.254 84.2844 127.863 92.8956 127.863C114.815 127.863 132.82 110.119 132.82 87.9387C132.82 80.3713 130.733 73.3258 127.08 67.324C135.952 64.4536 145.346 62.8879 155.001 62.8879C176.659 63.1489 196.752 70.9773 212.409 83.7636Z" fill="#FFF2C8"/>
<path d="M136.474 86.8951C136.474 94.4625 142.475 100.464 150.043 100.464C157.61 100.464 163.612 94.4625 163.612 86.8951C163.612 79.3277 157.61 73.3259 150.043 73.3259C142.475 73.3259 136.474 79.3277 136.474 86.8951Z" fill="#FFF2C8"/>
<path d="M132.822 112.729C132.822 117.687 136.736 121.601 141.694 121.601C146.652 121.601 150.567 117.687 150.567 112.729C150.567 107.771 146.652 103.856 141.694 103.856C136.997 103.856 132.822 108.032 132.822 112.729Z" fill="#FFF2C8"/>
<path opacity="0.14" d="M199.363 73.3258C185.011 63.6708 167.527 58.1909 149 58.1909C136.214 58.1909 124.21 60.8004 113.251 65.4974C109.597 67.0631 106.205 68.6288 103.074 70.7163C102.813 70.9773 102.291 70.9773 102.03 71.2382C101.247 71.7601 100.464 72.282 99.6814 72.8039C99.1595 73.0648 98.8986 73.3258 98.3767 73.5867C97.5939 74.1086 96.811 74.6305 96.0281 75.1524C95.5062 75.4133 95.2453 75.6743 94.7234 75.9352C93.9406 76.4571 93.4187 76.979 92.6359 77.5009C92.114 77.7618 91.853 78.0228 91.3311 78.5447C90.5483 79.0666 90.0264 79.5885 89.2436 80.3713C88.7217 80.6322 88.4608 81.1541 87.9389 81.4151C87.156 81.937 86.6341 82.7198 85.8513 83.2417C85.5903 83.5026 85.0684 84.0245 84.8075 84.2855C84.2856 84.8074 83.5027 85.5902 82.9808 86.1121C82.7199 86.373 82.198 86.8949 81.9371 87.1559C81.4152 87.9387 80.6324 88.4606 80.1105 89.2434C79.8496 89.5044 79.5886 90.0263 79.0667 90.2872C78.5448 91.0701 77.762 91.5919 77.2401 92.3748C76.9791 92.6357 76.7182 93.1576 76.4572 93.4186C75.9353 94.2014 75.4135 94.9842 74.6306 95.7671C74.3697 96.028 74.1087 96.5499 73.8477 96.8109C73.3259 97.5937 72.804 98.3765 72.2821 99.1594C72.0212 99.4203 71.7602 99.9422 71.7602 100.203C71.2383 100.986 70.7164 102.03 70.1945 102.813C69.9336 103.074 69.9336 103.335 69.6727 103.595C69.1508 104.639 68.6289 105.422 68.107 106.466C68.107 106.727 67.846 106.988 67.846 106.988C61.3224 119.774 57.4082 134.126 57.4082 149.261C57.4082 182.662 75.1525 211.627 101.769 227.806C76.9791 211.366 60.5396 183.445 60.5396 151.349C60.5396 137.518 63.6709 124.471 69.1508 112.729C74.8916 117.165 82.198 119.774 90.0264 119.774C108.293 119.774 123.167 105.683 123.167 87.9387C123.167 80.1103 120.296 73.0648 115.338 67.5849C126.559 62.627 139.084 60.0175 152.131 60.0175C169.615 60.2785 185.794 64.9755 199.363 73.3258Z" fill="#FFF2C8"/>
<path d="M148.999 240.331C199.44 240.331 240.33 199.441 240.33 149C240.33 98.5595 199.44 57.6692 148.999 57.6692C98.5582 57.6692 57.668 98.5595 57.668 149C57.668 199.441 98.5582 240.331 148.999 240.331Z" fill="url(#paint1_linear_664_587)"/>
<path opacity="0.22" d="M57.668 127.342C57.668 138.823 60.5384 149.783 65.4963 159.177C74.8904 164.918 85.8501 168.049 97.5926 168.049C132.298 168.049 160.22 139.867 160.22 105.422C160.22 87.4168 152.652 71.2382 140.388 59.7566C135.952 58.7128 131.255 58.4518 126.297 58.4518C88.4595 58.1909 57.668 89.2434 57.668 127.342Z" fill="white"/>
<path opacity="0.19" d="M104.64 100.986C110.26 100.986 114.817 96.4293 114.817 90.8087C114.817 85.1882 110.26 80.6318 104.64 80.6318C99.0192 80.6318 94.4629 85.1882 94.4629 90.8087C94.4629 96.4293 99.0192 100.986 104.64 100.986Z" fill="white"/>
<path opacity="0.19" d="M94.7227 97.5938C94.7227 99.1594 96.0274 100.464 97.5931 100.464C99.1587 100.464 100.463 99.1594 100.463 97.5938C100.463 96.0281 99.1587 94.7234 97.5931 94.7234C95.7665 94.7234 94.7227 96.0281 94.7227 97.5938Z" fill="white"/>
<path opacity="0.19" d="M108.814 106.727C112.705 106.727 115.86 103.572 115.86 99.6813C115.86 95.7901 112.705 92.6357 108.814 92.6357C104.923 92.6357 101.769 95.7901 101.769 99.6813C101.769 103.572 104.923 106.727 108.814 106.727Z" fill="white"/>
<path opacity="0.17" d="M233.026 111.424C233.287 122.383 231.721 133.343 227.807 144.303C210.845 192.317 158.134 217.368 110.381 200.406C85.5915 191.534 67.0644 173.529 57.1484 151.348C57.9313 188.403 81.4164 222.847 118.471 235.895C166.485 252.856 218.935 227.805 235.896 179.791C243.986 156.567 242.42 132.299 233.026 111.424Z" fill="url(#paint2_linear_664_587)"/>
<path opacity="0.17" d="M186.577 64.9751C194.144 72.8035 200.146 82.1975 204.582 92.8963C223.892 139.867 201.711 193.621 154.741 213.192C130.473 223.108 104.379 222.064 82.1982 212.148C107.51 239.026 147.957 249.203 184.228 234.068C231.198 214.758 253.64 160.742 234.069 113.772C224.936 91.3306 207.452 74.3691 186.577 64.9751Z" fill="url(#paint3_linear_664_587)"/>
<path opacity="0.19" d="M223.63 96.5498C233.024 110.902 238.242 127.863 238.242 146.39C238.242 197.014 197.274 237.721 146.912 237.721C116.12 237.721 88.9816 222.587 72.542 199.362C88.7206 224.413 117.164 241.114 149.26 241.114C199.884 241.114 240.591 200.145 240.591 149.783C240.591 129.951 234.328 111.685 223.63 96.5498Z" fill="white"/>
<defs>
<radialGradient id="paint0_radial_664_587" cx="0" cy="0" r="1" gradientUnits="userSpaceOnUse" gradientTransform="translate(149.124 149.023) scale(148.9)">
<stop stop-color="#FF0000"/>
<stop offset="0.1456" stop-color="#D90000"/>
<stop offset="0.9972"/>
</radialGradient>
<linearGradient id="paint1_linear_664_587" x1="84.4632" y1="84.3634" x2="213.783" y2="213.683" gradientUnits="userSpaceOnUse">
<stop stop-color="#FF0000"/>
<stop offset="1" stop-color="#930005"/>
</linearGradient>
<linearGradient id="paint2_linear_664_587" x1="140.35" y1="112.826" x2="170.586" y2="238.943" gradientUnits="userSpaceOnUse">
<stop offset="0.2422" stop-color="white"/>
<stop offset="0.9199" stop-color="white"/>
<stop offset="1" stop-color="white"/>
</linearGradient>
<linearGradient id="paint3_linear_664_587" x1="118.591" y1="128.058" x2="225.414" y2="201.593" gradientUnits="userSpaceOnUse">
<stop offset="0.2422" stop-color="white"/>
<stop offset="0.9199" stop-color="white"/>
<stop offset="1" stop-color="white"/>
</linearGradient>
</defs>
</svg>
