<svg width="298" height="298" viewBox="0 0 298 298" fill="none" xmlns="http://www.w3.org/2000/svg">
<path opacity="0.54" d="M149 298C231.29 298 298 231.29 298 149C298 66.7096 231.29 0 149 0C66.7096 0 0 66.7096 0 149C0 231.29 66.7096 298 149 298Z" fill="url(#paint0_radial_664_239)"/>
<path opacity="0.68" d="M148.999 240.532C199.606 240.532 240.631 199.551 240.631 149C240.631 98.4477 199.606 57.4673 148.999 57.4673C98.3914 57.4673 57.3662 98.4477 57.3662 149C57.3662 199.551 98.3914 240.532 148.999 240.532Z" fill="url(#paint1_linear_664_239)"/>
<path d="M148.999 240.532C199.606 240.532 240.631 199.551 240.631 149C240.631 98.4477 199.606 57.4673 148.999 57.4673C98.3914 57.4673 57.3662 98.4477 57.3662 149C57.3662 199.551 98.3914 240.532 148.999 240.532Z" fill="#DDC3A3"/>
<g opacity="0.89">
<path d="M232.326 141.199C232.326 139.639 231.807 137.558 230.768 135.738C230.249 133.658 229.211 132.358 227.394 131.838C226.096 131.057 224.538 131.318 222.721 132.878C220.645 134.698 219.347 138.338 219.347 141.719C218.309 146.14 218.828 153.421 224.798 153.941C231.288 154.461 232.586 146.14 232.326 141.199Z" fill="#D8B58C"/>
<path d="M208.962 112.335C208.702 112.335 208.443 112.595 208.443 112.595C206.366 112.855 204.03 113.895 202.732 115.715C201.434 117.796 201.694 120.136 203.511 121.956C205.847 124.036 208.443 123.776 210.52 122.216C210.52 122.216 210.779 122.216 210.779 121.956C212.337 120.916 213.375 119.096 213.894 117.275C214.673 114.155 212.337 111.295 208.962 112.335Z" fill="#D8B58C"/>
<path d="M138.097 161.222C134.982 163.042 132.127 166.162 131.348 169.803C129.012 178.384 140.693 178.644 145.885 176.044C151.855 172.923 157.306 162.782 149.259 158.621C145.885 157.061 142.251 158.361 139.136 160.702C138.616 160.962 138.357 160.962 138.097 161.222Z" fill="#D8B58C"/>
<path d="M160.939 171.883C163.016 171.103 163.794 169.283 164.054 167.202C164.314 166.422 164.314 165.382 163.794 164.602C163.794 164.082 163.535 163.822 163.535 163.562C163.794 162.782 163.535 161.742 163.016 161.221C162.237 160.441 160.16 160.181 159.381 161.221C158.862 161.742 158.603 162.262 158.343 162.782C157.305 163.822 156.786 165.122 157.045 166.682C157.045 166.942 156.786 167.462 156.786 167.722C156.266 170.323 158.084 172.923 160.939 171.883Z" fill="#D8B58C"/>
<path d="M87.9979 152.38C93.7087 147.7 94.2279 135.478 91.6321 128.977C90.3342 126.117 87.9979 123.256 84.8829 123.516C83.0659 123.777 81.768 124.817 80.47 126.377C75.2784 127.417 73.2018 139.639 73.7209 143.539C74.2401 150.04 81.5084 157.841 87.9979 152.38Z" fill="#D8B58C"/>
<path d="M133.423 101.413C135.24 101.934 136.797 101.153 138.095 100.113C138.874 99.3332 139.653 98.5531 140.172 97.513C141.47 94.6526 141.47 89.1918 137.836 87.8917C130.567 85.2913 125.895 99.8533 133.423 101.413Z" fill="#D8B58C"/>
<path d="M91.8924 169.543C87.9986 166.683 84.1049 166.683 81.7687 170.323C79.1729 171.623 79.1729 178.644 79.1729 180.724C79.692 186.185 83.3262 191.386 89.037 191.646C89.8157 191.646 90.3349 191.646 91.1136 191.646C93.1903 192.166 95.0074 191.906 96.3053 190.086C96.5648 189.566 96.8244 189.046 97.084 188.525C98.1223 187.225 98.9011 185.405 98.9011 183.325C98.9011 178.124 96.0457 172.403 91.8924 169.543Z" fill="#D8B58C"/>
<path d="M155.749 125.597C158.604 130.537 164.834 133.138 170.026 131.578C173.4 130.537 175.996 128.717 178.073 125.857C179.63 123.777 181.188 121.696 181.967 119.096C183.265 114.675 182.226 109.215 178.852 105.834C176.256 103.494 173.4 102.194 169.766 101.934C167.17 101.934 164.834 102.714 162.498 103.754C158.864 105.574 156.268 109.215 155.23 113.115C154.97 113.895 154.97 114.675 154.97 115.455C153.932 118.576 153.932 122.476 155.749 125.597Z" fill="#D8B58C"/>
<path d="M192.09 173.703C187.677 173.703 187.677 180.464 192.09 180.464C196.503 180.724 196.503 173.703 192.09 173.703Z" fill="#D8B58C"/>
<path d="M171.324 207.768C169.247 205.948 167.17 204.648 164.315 204.127C163.017 203.867 161.719 203.607 160.421 203.607C159.383 203.607 157.566 203.867 157.047 204.127C155.23 204.648 153.932 205.688 152.634 206.728C150.038 208.808 149.259 212.969 150.298 216.089C151.076 219.209 153.672 222.07 157.047 222.85C157.306 222.85 157.306 222.85 157.566 222.85C158.345 223.11 159.123 223.37 159.642 223.63C162.238 224.15 164.575 224.15 167.17 223.63C170.285 223.11 172.881 219.99 173.66 217.129C174.439 214.009 173.919 209.848 171.324 207.768Z" fill="#D8B58C"/>
<path d="M144.587 214.529C144.587 214.269 144.327 214.009 144.327 213.488C144.327 213.488 144.327 213.488 144.327 213.228C144.327 213.228 144.327 212.968 144.068 212.968C143.808 212.708 143.808 212.448 143.548 212.188C143.548 211.928 143.289 211.928 143.289 211.668L143.029 211.408C141.212 209.328 138.616 208.288 135.761 208.548C131.089 209.068 128.233 214.009 129.271 218.689C130.31 222.85 134.982 224.93 138.876 223.37C139.395 223.11 139.655 222.85 140.174 222.59C141.472 222.07 142.51 221.29 143.289 220.249C144.587 218.689 145.106 216.869 144.587 214.529Z" fill="#D8B58C"/>
<path d="M145.105 199.447C142.769 199.447 140.692 201.267 140.952 203.607C140.952 205.948 142.769 207.768 145.105 207.768C147.441 207.768 149.518 205.948 149.258 203.607C148.999 201.527 147.441 199.447 145.105 199.447Z" fill="#D8B58C"/>
<path d="M212.076 170.062C205.587 170.062 205.587 180.204 212.076 180.204C218.566 180.464 218.566 170.062 212.076 170.062Z" fill="#D8B58C"/>
<path d="M210.001 183.844C203.771 183.844 203.771 193.466 210.001 193.466C216.49 193.466 216.49 183.844 210.001 183.844Z" fill="#D8B58C"/>
<path d="M194.166 194.506C190.791 194.506 190.791 199.707 194.166 199.707C197.54 199.707 197.54 194.506 194.166 194.506Z" fill="#D8B58C"/>
<path d="M202.474 169.543C198.58 169.543 198.58 175.784 202.474 175.784C206.627 175.784 206.627 169.543 202.474 169.543Z" fill="#D8B58C"/>
<path d="M200.655 181.764C198.578 181.764 196.761 183.584 197.021 185.405C197.021 187.485 198.578 189.045 200.655 189.045C202.732 189.045 204.549 187.225 204.289 185.405C204.289 183.324 202.732 181.764 200.655 181.764Z" fill="#D8B58C"/>
<path d="M179.109 184.365C176.773 184.365 174.437 186.445 174.437 188.785C174.437 191.125 176.513 193.206 179.109 193.206C181.445 193.206 183.781 191.125 183.781 188.785C183.522 186.445 181.705 184.365 179.109 184.365Z" fill="#D8B58C"/>
<path d="M201.694 138.599C198.838 138.599 195.983 139.899 193.906 141.719C192.089 143.539 190.532 146.66 190.791 149.52C190.791 152.38 191.829 155.241 193.906 157.321C195.983 159.401 198.838 160.442 201.694 160.442C204.549 160.442 207.404 159.141 209.481 157.321C211.298 155.501 212.856 152.38 212.596 149.52C212.596 146.66 211.558 143.799 209.481 141.719C207.145 139.899 204.549 138.599 201.694 138.599Z" fill="#D8B58C"/>
<path d="M183.523 146.14C187.157 146.14 187.157 140.679 183.523 140.679C180.149 140.679 180.149 146.14 183.523 146.14Z" fill="#D8B58C"/>
<path d="M182.226 150.82C173.919 150.82 173.919 163.562 182.226 163.562C190.533 163.562 190.533 150.82 182.226 150.82Z" fill="#D8B58C"/>
<path d="M201.695 104.534C203.771 105.834 206.108 105.054 207.925 103.494C208.444 102.974 208.963 102.194 209.482 101.674C209.742 101.414 209.742 101.154 210.001 100.894C210.261 100.633 210.261 100.113 210.521 99.8534V99.5933C211.04 98.5532 211.04 97.7731 210.78 96.7329C210.261 95.4328 208.963 94.3926 207.665 94.6527C205.848 94.6527 204.291 95.1727 203.252 96.4729C202.993 96.7329 202.993 96.993 202.733 97.253C202.473 97.513 202.214 97.7731 201.954 97.7731C200.916 98.5532 200.137 99.5933 200.137 101.154C199.618 102.454 200.397 103.754 201.695 104.534Z" fill="#D8B58C"/>
<path d="M190.531 91.0122C191.829 92.3124 193.906 92.3124 194.944 90.7522C196.501 87.6318 195.982 83.9913 193.646 81.391C191.829 79.3107 188.714 80.6108 187.935 82.9511C187.416 83.9913 187.416 85.2915 187.416 86.3316C187.416 88.1518 188.195 89.192 189.233 90.4922C189.493 90.7522 190.012 91.0122 190.531 91.0122Z" fill="#D8B58C"/>
<path d="M131.349 234.292C134.983 234.292 134.983 228.831 131.349 228.831C127.715 228.831 127.715 234.292 131.349 234.292Z" fill="#D8B58C"/>
<path d="M117.59 229.091C121.224 229.091 121.224 223.63 117.59 223.63C113.956 223.63 113.956 229.091 117.59 229.091Z" fill="#D8B58C"/>
<path d="M106.688 180.464C110.322 180.464 110.322 174.743 106.688 174.743C103.053 174.743 103.053 180.464 106.688 180.464Z" fill="#D8B58C"/>
<path d="M68.5296 151.861C71.6446 151.861 71.6446 147.18 68.5296 147.18C65.4146 147.18 65.4146 151.861 68.5296 151.861Z" fill="#D8B58C"/>
<path d="M223.76 109.735C225.836 109.735 227.913 107.914 227.653 105.834C227.653 103.754 225.836 101.934 223.76 101.934C221.683 101.934 219.606 103.754 219.866 105.834C219.866 107.914 221.683 109.735 223.76 109.735Z" fill="#D8B58C"/>
<path d="M217.269 117.276C220.384 117.276 220.384 112.595 217.269 112.595C214.154 112.595 214.154 117.276 217.269 117.276Z" fill="#D8B58C"/>
<path d="M215.971 128.717C219.086 128.717 219.086 123.777 215.971 123.777C212.597 123.517 212.597 128.717 215.971 128.717Z" fill="#D8B58C"/>
<path d="M195.982 140.939C199.357 140.939 199.357 135.738 195.982 135.738C192.608 135.738 192.608 140.939 195.982 140.939Z" fill="#D8B58C"/>
<path d="M172.362 161.482C174.698 161.482 177.034 159.401 177.034 156.801C177.034 154.201 174.958 152.12 172.362 152.12C170.026 152.12 167.689 154.201 167.689 156.801C167.689 159.401 169.766 161.482 172.362 161.482Z" fill="#D8B58C"/>
<path d="M165.353 172.663C168.208 172.663 170.804 170.063 170.804 167.202C170.544 164.342 168.468 161.742 165.353 161.742C162.497 161.742 159.901 164.342 159.901 167.202C160.161 170.063 162.238 172.663 165.353 172.663Z" fill="#D8B58C"/>
<path d="M154.968 180.464C158.602 180.464 161.977 177.344 161.717 173.703C161.458 170.063 158.862 166.942 154.968 166.942C151.334 166.942 147.96 170.063 148.219 173.703C148.479 177.344 151.334 180.464 154.968 180.464Z" fill="#D8B58C"/>
<path d="M151.075 235.071C154.709 235.071 158.083 231.951 157.824 228.31C157.564 224.67 154.968 221.55 151.075 221.55C147.441 221.55 144.066 224.67 144.326 228.31C144.585 231.951 147.441 235.071 151.075 235.071Z" fill="#D8B58C"/>
<path d="M152.373 213.229C154.969 213.229 157.306 210.888 157.306 208.288C157.306 205.687 155.229 203.347 152.373 203.347C149.778 203.347 147.441 205.687 147.441 208.288C147.701 211.148 149.518 213.229 152.373 213.229Z" fill="#D8B58C"/>
<path d="M132.126 205.948C134.203 205.948 136.279 204.127 136.279 201.787C136.279 199.447 134.462 197.626 132.126 197.626C130.049 197.626 127.973 199.447 127.973 201.787C128.232 204.127 129.79 205.948 132.126 205.948Z" fill="#D8B58C"/>
<path d="M118.628 196.846C125.117 196.846 125.117 186.965 118.628 186.965C112.398 186.965 112.398 196.846 118.628 196.846Z" fill="#D8B58C"/>
<path d="M194.686 195.806C198.321 195.806 201.695 192.686 201.695 188.785C201.436 185.145 198.58 181.764 194.686 181.764C191.052 181.764 187.678 184.885 187.678 188.785C187.937 192.686 190.793 195.806 194.686 195.806Z" fill="#D8B58C"/>
<path d="M177.813 180.465C180.409 180.465 183.005 178.124 182.745 175.524C182.745 172.924 180.409 170.583 177.813 170.583C175.217 170.583 172.622 172.924 172.881 175.524C172.881 178.124 174.958 180.465 177.813 180.465Z" fill="#D8B58C"/>
<path d="M102.794 135.738C104.871 135.738 106.947 133.918 106.947 131.578C106.947 129.497 105.13 127.417 102.794 127.417C100.717 127.417 98.6406 129.237 98.6406 131.578C98.9002 133.918 100.458 135.738 102.794 135.738Z" fill="#D8B58C"/>
<path d="M66.7116 132.358C69.8266 132.358 69.8266 127.417 66.7116 127.417C63.337 127.157 63.337 132.358 66.7116 132.358Z" fill="#D8B58C"/>
<path d="M105.388 163.042C107.465 163.042 109.542 161.222 109.282 159.141C109.282 157.061 107.465 155.241 105.388 155.241C103.312 155.241 101.235 157.061 101.495 159.141C101.495 161.222 103.312 163.042 105.388 163.042Z" fill="#D8B58C"/>
<path d="M117.07 178.384C119.925 178.384 122.521 176.044 122.262 173.184C122.262 170.323 119.925 167.983 117.07 167.983C114.215 167.983 111.619 170.323 111.878 173.184C112.138 176.044 114.215 178.384 117.07 178.384Z" fill="#D8B58C"/>
</g>
<g opacity="0.44">
<path d="M166.65 132.877C162.757 133.657 159.901 138.338 161.199 142.239C161.459 143.019 161.718 143.799 161.978 144.319C163.016 145.619 164.055 146.659 165.612 147.439C167.169 147.959 168.987 148.219 170.544 147.699C173.14 146.919 175.217 144.839 175.736 141.978V142.239C175.736 142.239 175.736 142.239 175.736 141.978C176.514 139.638 175.736 136.258 173.919 134.698C171.842 133.137 169.506 132.357 166.65 132.877Z" fill="#CE9B78"/>
<path d="M124.079 191.125C121.483 191.125 119.147 192.425 117.849 194.765C116.811 196.586 116.811 198.666 117.589 200.486C117.849 201.266 118.368 202.046 118.887 202.567C119.666 203.347 120.704 203.867 121.743 204.127C123.56 204.907 125.896 204.387 127.453 203.347C128.751 202.567 129.53 201.526 130.049 200.226C130.568 198.926 130.828 197.366 130.309 195.806C129.53 193.205 127.194 191.125 124.079 191.125Z" fill="#CE9B78"/>
<path d="M110.32 196.586C110.061 192.946 107.465 190.085 103.831 190.085C100.456 190.085 97.0816 193.206 97.3412 196.586C97.6008 200.227 100.197 203.087 103.831 203.087C107.205 203.087 110.58 199.967 110.32 196.586Z" fill="#CE9B78"/>
<path d="M78.133 173.443C82.5459 173.443 82.5459 166.682 78.133 166.682C73.9797 166.682 73.7201 173.443 78.133 173.443Z" fill="#CE9B78"/>
<path d="M93.1896 201.007C85.1425 201.007 85.1425 213.748 93.1896 213.748C101.496 213.748 101.496 201.007 93.1896 201.007Z" fill="#CE9B78"/>
<path d="M107.725 208.808C104.61 208.808 104.61 213.488 107.725 213.488C110.84 213.488 110.84 208.808 107.725 208.808Z" fill="#CE9B78"/>
<path d="M169.765 181.504C168.986 180.724 167.948 180.724 166.91 180.464C166.131 180.464 165.092 180.464 164.314 180.724C164.054 180.724 164.054 180.984 163.795 180.984C160.42 181.504 157.824 185.144 158.862 188.785C160.16 193.206 165.871 194.766 169.246 191.385C170.284 190.345 171.322 189.045 171.582 187.745C171.842 186.445 171.842 185.145 171.582 183.844C171.063 182.804 170.544 182.024 169.765 181.504Z" fill="#CE9B78"/>
<path d="M213.376 136.518C213.895 135.218 214.155 133.657 213.636 132.357C212.597 129.237 209.223 126.897 206.108 127.937C204.81 128.457 203.512 128.977 202.733 130.017C199.618 133.397 200.656 138.598 204.81 140.418C206.627 141.199 208.703 141.199 210.521 140.158C212.078 139.378 212.857 138.078 213.376 136.518Z" fill="#CE9B78"/>
<path d="M194.425 112.075C188.455 112.075 188.455 121.436 194.425 121.436C200.395 121.176 200.395 112.075 194.425 112.075Z" fill="#CE9B78"/>
<path d="M178.852 108.174C182.226 108.174 185.341 105.314 185.341 101.673C185.082 98.2928 182.486 95.1724 178.852 95.1724C175.477 95.1724 172.362 98.0327 172.362 101.673C172.622 105.314 175.218 108.174 178.852 108.174Z" fill="#CE9B78"/>
<path d="M112.659 163.042C110.323 161.221 107.727 160.181 104.612 160.961C102.016 161.741 99.4202 164.082 98.901 166.682C97.8627 170.843 98.3818 174.743 100.458 178.384C101.497 180.204 103.054 182.024 105.131 183.324C109.284 187.225 116.033 188.265 119.927 183.324C124.859 176.563 118.11 167.462 112.659 163.042Z" fill="#CE9B78"/>
<path d="M123.301 216.608C121.744 214.528 118.889 213.228 116.552 213.228C113.697 213.228 111.101 214.788 109.544 217.129C107.986 219.469 107.986 222.589 109.024 225.19C110.322 228.31 113.437 230.13 116.812 230.13C117.071 230.13 117.591 230.13 117.85 230.13C119.927 231.17 122.004 231.43 124.34 230.13C127.974 228.05 128.493 223.369 126.416 219.989C125.897 218.689 124.599 217.649 123.301 216.608Z" fill="#CE9B78"/>
<path d="M86.9582 102.194C87.7369 101.414 88.2561 100.634 88.5157 99.5934C88.7752 98.8133 88.7752 97.7732 88.2561 96.9931C87.4773 95.6929 86.1794 95.4329 84.8815 95.6929C83.8432 95.9529 82.8048 96.213 82.0261 97.2531C80.7282 98.5533 80.4686 100.894 82.0261 102.194C82.2857 102.454 82.8048 102.714 83.0644 102.974C83.5836 103.754 84.6219 104.014 85.6602 103.494C85.9198 103.234 85.9198 103.234 86.1794 102.974C86.1794 102.714 86.439 102.454 86.9582 102.194Z" fill="#CE9B78"/>
<path d="M65.6726 121.696C65.9321 123.256 66.7109 124.296 67.7492 125.077C68.2684 125.337 68.528 125.857 69.0471 126.117C72.9409 128.457 77.3538 126.377 79.9496 122.996C80.4687 122.216 80.9879 121.436 81.2475 120.656C82.5454 118.836 83.3241 117.016 82.805 114.935C82.2858 110.515 77.3538 108.434 73.46 109.995C70.6046 111.035 68.2684 113.115 66.7109 115.715C65.413 117.536 65.1534 119.616 65.6726 121.696Z" fill="#CE9B78"/>
<path d="M90.075 120.655C95.0071 120.655 95.0071 113.115 90.075 113.115C85.143 113.115 85.143 120.655 90.075 120.655Z" fill="#CE9B78"/>
<path d="M99.158 151.86C100.456 154.2 102.533 155.761 105.128 156.281C107.465 156.801 109.541 156.541 111.618 155.501C112.916 154.72 114.214 153.42 114.993 152.12C116.29 149.78 116.81 147.179 116.031 144.319C115.252 141.719 113.175 139.378 110.58 138.338C108.243 137.298 105.648 137.298 103.052 138.338C100.456 139.378 98.8985 141.979 98.6389 144.579C97.8601 146.919 97.8601 149.52 99.158 151.86Z" fill="#CE9B78"/>
<path d="M114.214 159.401C114.214 162.001 116.291 164.081 118.887 164.081C121.223 164.081 123.559 162.001 123.559 159.401C123.559 156.801 121.482 154.72 118.887 154.72C116.291 154.98 113.955 157.061 114.214 159.401Z" fill="#CE9B78"/>
<path d="M125.378 172.663C129.531 172.663 129.791 165.902 125.378 165.902C120.965 165.902 120.965 172.663 125.378 172.663Z" fill="#CE9B78"/>
<path d="M73.2013 161.481C75.0184 158.101 74.2397 153.68 71.6438 151.08C70.0863 149.519 67.7501 148.999 65.4139 149.519C62.5585 150.56 61.2606 152.9 61.001 155.76C61.001 157.06 61.2606 158.101 62.0393 158.881C62.0393 159.401 62.0393 159.661 62.2989 160.181C63.5968 165.382 70.8651 165.902 73.2013 161.481Z" fill="#CE9B78"/>
<path d="M95.2658 163.042C100.457 163.042 100.457 154.98 95.2658 154.98C90.0742 155.241 90.0742 163.042 95.2658 163.042Z" fill="#CE9B78"/>
<path d="M81.508 188.525C79.4313 187.485 76.8355 187.485 74.7589 188.785C73.7206 189.565 72.9418 190.605 72.6822 191.646C72.1631 192.686 71.9035 193.986 72.4226 195.026C72.9418 196.586 73.7205 198.147 75.278 198.927C76.0568 199.447 77.0951 199.707 77.8739 199.967C79.1718 200.227 80.2101 200.227 81.508 199.707C82.5463 199.187 83.5847 198.407 84.1038 197.366C84.8826 195.806 85.4017 193.986 84.623 192.166C84.1038 190.866 83.0655 189.565 81.508 188.525Z" fill="#CE9B78"/>
<path d="M228.431 167.982C231.027 167.982 231.027 163.821 228.431 163.821C225.835 164.081 225.835 167.982 228.431 167.982Z" fill="#CE9B78"/>
<path d="M226.094 129.237C236.477 129.237 236.477 113.115 226.094 113.115C215.711 113.115 215.711 129.237 226.094 129.237Z" fill="#CE9B78"/>
<path d="M227.653 135.737C227.653 138.078 229.47 140.158 232.066 140.158C234.402 140.158 236.478 138.078 236.478 135.737C236.478 133.397 234.661 131.317 232.066 131.317C229.729 131.317 227.393 133.397 227.653 135.737Z" fill="#CE9B78"/>
<path d="M218.568 113.115C223.76 113.115 223.76 105.054 218.568 105.054C213.636 105.054 213.636 113.115 218.568 113.115Z" fill="#CE9B78"/>
<path d="M177.293 116.495C177.293 116.235 177.293 116.235 177.034 115.975C177.034 115.975 177.034 115.975 177.034 115.715C176.774 115.455 176.774 115.195 176.255 114.935C175.217 113.895 174.178 113.635 172.88 113.635C171.323 113.375 169.765 114.675 168.727 115.975C167.948 117.276 167.948 118.836 168.208 120.396C168.727 123.256 172.102 124.557 174.698 123.516C175.995 122.996 176.774 122.216 177.293 120.916C177.553 120.396 177.553 120.136 177.553 119.616C178.072 118.836 177.813 117.536 177.293 116.495Z" fill="#CE9B78"/>
<path d="M179.63 186.965C176.774 186.965 176.774 191.385 179.63 191.385C182.745 191.645 182.745 186.965 179.63 186.965Z" fill="#CE9B78"/>
<path d="M212.336 174.223C209.48 174.223 209.48 178.643 212.336 178.643C215.191 178.643 215.191 174.223 212.336 174.223Z" fill="#CE9B78"/>
<path d="M200.395 149.52C194.424 149.52 194.424 158.881 200.395 158.881C206.365 158.881 206.365 149.52 200.395 149.52Z" fill="#CE9B78"/>
<path d="M197.8 149.52C200.915 149.52 200.915 144.839 197.8 144.839C194.685 144.579 194.685 149.52 197.8 149.52Z" fill="#CE9B78"/>
<path d="M183.524 156.02C180.928 156.02 180.928 160.181 183.524 160.181C186.379 160.181 186.379 156.02 183.524 156.02Z" fill="#CE9B78"/>
<path d="M236.998 157.321C236.738 156.801 236.738 156.541 236.479 156.021C234.921 153.94 231.806 153.68 229.989 155.501C228.691 156.801 228.432 158.621 228.951 160.181C228.951 160.441 229.21 160.701 229.47 161.221C229.73 161.482 229.989 162.002 230.249 162.262C230.768 162.782 231.547 163.302 232.325 163.562C234.662 164.082 237.257 162.522 237.517 160.181C237.777 159.141 237.517 158.101 236.998 157.321Z" fill="#CE9B78"/>
<path d="M223.498 167.722C225.315 165.382 225.575 162.261 224.277 159.921C222.719 157.321 219.864 156.021 216.749 156.801C216.23 157.061 215.451 157.321 214.932 157.581C214.153 157.841 213.374 158.361 212.855 158.881C210 162.001 210.779 167.202 214.413 169.282C217.528 171.103 221.162 170.583 223.498 167.722Z" fill="#CE9B78"/>
<path d="M226.873 175.523C225.315 175.263 224.018 175.523 222.72 176.043C221.941 176.564 221.162 177.084 220.643 178.124C219.864 179.164 219.605 180.204 219.345 181.504C219.085 183.064 220.124 185.145 221.162 186.185C222.46 187.485 224.018 188.005 225.835 187.745C227.652 187.485 228.95 186.705 229.988 185.145C230.767 184.105 231.026 182.804 231.026 181.504C231.026 180.204 230.767 179.164 229.988 177.864C229.728 177.084 227.911 175.783 226.873 175.523Z" fill="#CE9B78"/>
</g>
<g opacity="0.23">
<mask id="mask0_664_239" style="mask-type:luminance" maskUnits="userSpaceOnUse" x="57" y="57" width="184" height="184">
<path d="M149 240.532C199.607 240.532 240.632 199.551 240.632 149C240.632 98.4477 199.607 57.4673 149 57.4673C98.3924 57.4673 57.3672 98.4477 57.3672 149C57.3672 199.551 98.3924 240.532 149 240.532Z" fill="white"/>
</mask>
<g mask="url(#mask0_664_239)">
<path d="M130.311 225.97C130.052 226.49 130.052 227.01 129.792 227.53C129.533 227.27 129.273 226.75 128.754 226.49C126.418 224.41 123.303 222.849 120.188 222.849C119.409 222.849 118.63 222.849 117.852 223.109C117.592 221.809 116.813 220.509 114.996 220.509C112.141 220.509 111.362 223.889 112.66 225.71C112.4 225.97 111.881 226.23 111.622 226.75C110.064 228.31 109.026 230.13 108.507 232.211C107.987 234.291 107.987 236.631 108.507 238.711V238.971C109.026 240.012 109.285 240.792 109.804 241.832C110.583 243.132 111.622 244.432 112.919 245.212C113.698 245.992 114.477 246.513 115.515 246.773C117.073 247.553 118.63 247.813 120.188 247.813C122.264 247.813 124.341 247.033 126.418 246.252C127.716 245.472 129.014 244.432 129.792 243.132C130.831 241.832 131.609 240.532 131.869 238.971V238.711C132.388 236.891 132.388 235.331 132.129 233.511C132.388 233.511 132.388 233.771 132.648 233.771C133.946 234.291 135.243 234.291 136.541 233.771C137.839 233.511 138.878 232.731 139.656 231.43C140.695 229.35 140.435 226.75 138.618 225.19C136.541 222.329 131.869 222.849 130.311 225.97Z" fill="#C87E56"/>
<path d="M84.1033 131.058C82.8054 130.798 81.5075 130.798 80.4692 131.058C77.6138 131.838 76.0563 134.438 76.0563 137.038C75.7967 137.818 75.5371 138.859 75.5371 139.639C75.5371 142.759 77.3542 145.62 80.4692 146.4C83.3246 147.18 85.9204 146.4 87.7375 144.059C89.0354 142.499 89.295 140.679 89.0354 138.599C89.0354 136.518 88.7758 134.438 87.2183 132.878C86.9587 132.618 86.4395 132.358 86.18 132.098C87.2183 132.878 87.2183 132.878 86.4396 132.358C85.4012 131.578 84.8821 131.318 84.1033 131.058Z" fill="#C87E56"/>
<path d="M117.59 79.5707C119.407 79.5707 120.965 78.0105 120.965 76.4502C120.965 74.63 119.667 73.3298 117.59 73.3298C115.773 73.3298 114.216 74.89 114.216 76.4502C114.216 78.0105 115.773 79.5707 117.59 79.5707Z" fill="#C87E56"/>
<path d="M103.313 92.5721C103.573 92.8321 104.092 92.8321 104.611 93.0922C106.688 93.6122 109.024 92.8321 110.581 91.5319C112.658 89.9717 114.215 88.1515 114.215 85.5511C114.215 82.1707 111.36 79.5703 108.245 79.5703C106.947 79.5703 105.649 79.8304 104.611 80.3504C103.832 80.6105 103.053 81.1305 102.534 81.9107C102.015 82.1707 101.496 82.6908 100.977 83.2108C99.4193 84.771 98.9001 86.8513 99.4193 88.9316C99.9385 90.4918 101.496 92.052 103.313 92.5721Z" fill="#C87E56"/>
<path d="M117.072 82.9505C116.812 84.2507 117.072 85.5509 118.37 86.591C119.927 87.8912 122.264 87.3711 123.302 85.5508C124.34 83.9906 123.561 81.9103 122.004 80.8702C120.446 79.8301 117.591 80.8702 117.072 82.9505Z" fill="#C87E56"/>
<path d="M176.516 87.1115C179.112 87.8916 181.708 87.6315 184.044 86.3314C186.38 85.0312 187.938 82.1708 187.678 79.3104C187.678 76.7101 186.64 74.3698 184.563 72.2895C182.746 70.2092 180.15 68.649 177.295 67.8689C176.257 67.6088 174.959 67.6088 173.92 67.8689C167.691 68.3889 163.278 74.8898 166.912 80.6106C168.988 84.2511 172.882 86.0713 176.516 87.1115Z" fill="#C87E56"/>
<path d="M199.618 90.7517C200.396 91.2718 201.435 91.7918 202.213 92.0519C204.29 92.5719 206.107 92.0519 207.924 90.7517C209.222 89.7116 209.741 87.6313 209.222 86.0711C209.222 85.551 208.962 85.291 208.703 84.7709C208.184 83.7308 207.405 83.2107 206.626 82.6906C206.367 82.4306 206.107 81.9105 205.588 81.6505C205.069 81.1304 204.55 80.8704 204.03 80.3503H203.771C203.771 80.3503 203.511 80.0903 203.252 80.0903C202.992 79.8303 202.732 79.8302 202.732 79.5702C200.656 78.27 198.06 79.0501 197.022 80.8704C195.983 81.9105 195.205 83.9908 195.983 85.551C196.503 87.6313 197.8 89.4515 199.618 90.7517Z" fill="#C87E56"/>
<path d="M196.762 97.2528C197.801 98.2929 199.358 98.0329 200.137 96.7327C200.916 95.6926 200.137 93.8723 198.839 93.6123C198.579 93.6123 198.32 93.3522 198.06 93.3522C196.243 92.8322 194.945 95.1725 196.243 96.4726C196.243 96.9927 196.503 97.2528 196.762 97.2528Z" fill="#C87E56"/>
<path d="M221.943 163.822C224.28 162.781 225.837 160.181 226.616 157.841C227.395 156.021 227.395 153.42 226.616 151.6C225.578 148.48 222.982 145.879 219.607 145.879C216.752 145.879 213.896 147.439 212.598 150.04C212.079 151.6 211.56 152.9 211.82 154.46C211.56 156.281 211.56 157.841 211.82 159.661C212.339 161.741 213.896 163.301 215.713 164.082C218.05 165.122 219.867 164.602 221.943 163.822Z" fill="#C87E56"/>
<path d="M187.938 128.457C187.159 131.838 187.938 135.218 191.053 137.038C194.687 139.118 199.619 137.038 200.398 132.878C200.658 132.358 200.658 131.577 200.658 131.057C200.658 130.537 200.917 130.277 200.917 129.757C201.696 128.457 201.696 126.377 200.917 125.337C199.619 123.516 197.802 122.216 195.206 122.476C194.168 122.736 193.13 122.996 192.351 123.776C190.274 124.817 188.457 126.117 187.938 128.457Z" fill="#C87E56"/>
<path d="M199.617 106.354C194.685 106.354 194.685 113.895 199.617 113.895C204.549 113.895 204.549 106.354 199.617 106.354Z" fill="#C87E56"/>
<path d="M104.093 171.883C102.276 171.103 100.199 170.323 98.3824 170.323C95.2674 170.583 92.412 172.403 91.6333 175.523C91.1141 177.864 91.8929 180.464 93.9695 181.764C94.2291 182.544 94.7483 183.324 95.2674 183.845C98.9016 187.225 105.132 187.485 107.987 183.064C110.323 179.164 108.247 173.963 104.093 171.883Z" fill="#C87E56"/>
<path d="M90.3335 177.604C90.0739 176.824 89.8143 176.303 89.2951 175.783C89.2951 175.783 89.2951 175.523 89.0356 175.523C89.0356 175.523 89.0356 175.523 88.776 175.263C87.9972 174.483 86.9589 173.963 85.9206 173.963C84.8822 173.963 84.3631 174.223 83.3248 174.743C81.2481 175.783 80.9885 178.124 81.2481 179.944C81.2481 180.204 81.2481 180.204 81.2481 180.464C82.0269 182.544 83.8439 184.105 86.1802 183.844C88.5164 183.584 90.0739 181.764 90.0739 179.424C89.8143 180.464 89.8143 180.464 90.0739 179.684C90.3335 178.904 90.3335 178.124 90.3335 177.604Z" fill="#C87E56"/>
<path d="M72.6823 185.405C73.9802 184.884 75.0186 183.844 75.5377 182.284C76.0569 180.984 76.0569 179.424 75.7973 178.124C75.5377 176.823 74.759 175.523 73.9802 174.483C73.2015 173.703 71.644 173.183 70.6057 173.183C69.5673 173.183 68.0099 173.703 67.2311 174.483C66.4524 175.263 65.9332 176.563 65.9332 177.863V178.124C65.6736 179.424 65.6736 180.724 66.1928 182.024C66.7119 183.324 67.7503 184.364 68.7886 185.144C69.8269 186.185 71.3844 185.925 72.6823 185.405Z" fill="#C87E56"/>
<path d="M133.944 198.406C134.204 198.406 134.463 198.666 134.723 198.666C138.357 199.706 141.732 197.106 141.732 193.206C141.732 190.605 140.434 188.265 138.876 186.185C137.578 184.624 136.021 183.064 134.723 181.764C131.348 178.384 125.897 180.464 124.599 184.884C123.821 187.745 124.859 190.865 126.157 193.466C127.714 195.806 130.829 198.666 133.944 198.406Z" fill="#C87E56"/>
<path d="M143.808 188.265C145.625 188.785 147.183 187.225 146.923 185.145C146.663 184.104 146.144 183.324 145.106 182.804C142.77 181.504 140.174 184.104 141.472 186.445C141.991 187.485 142.77 188.005 143.808 188.265Z" fill="#C87E56"/>
<path d="M147.702 188.005C143.289 188.005 143.289 195.026 147.702 195.026C152.115 195.026 152.115 188.005 147.702 188.005Z" fill="#C87E56"/>
<path d="M218.05 195.806C213.637 192.426 207.926 197.626 205.85 201.267C205.33 202.047 205.33 202.827 205.071 203.867C203.513 205.947 203.254 208.548 205.33 210.628C210.522 215.829 217.271 205.687 219.607 201.787C220.905 199.707 220.127 197.366 218.05 195.806Z" fill="#C87E56"/>
<path d="M147.703 75.6699C151.338 75.6699 151.597 69.9492 147.703 69.9492C143.81 69.6891 143.81 75.6699 147.703 75.6699Z" fill="#C87E56"/>
<path d="M149.519 80.3503C151.596 80.3503 151.596 77.2298 149.519 77.2298C147.443 76.9698 147.443 80.3503 149.519 80.3503Z" fill="#C87E56"/>
<path d="M153.933 77.23C157.048 77.23 157.048 72.2893 153.933 72.2893C150.818 72.2893 150.818 77.23 153.933 77.23Z" fill="#C87E56"/>
<path d="M144.588 229.091C143.55 228.831 142.771 229.091 142.252 229.871C141.473 230.911 141.732 232.471 142.771 232.991C143.809 233.511 145.107 233.251 145.886 232.211C146.665 231.171 146.145 229.351 144.588 229.091Z" fill="#C87E56"/>
<path d="M143.807 221.55C141.99 221.55 140.433 223.11 140.433 224.67C140.433 226.49 141.731 227.79 143.807 227.79C145.624 227.79 147.182 226.23 147.182 224.67C146.922 222.85 145.624 221.55 143.807 221.55Z" fill="#C87E56"/>
<path d="M152.116 229.611C152.116 228.571 151.078 227.531 149.78 227.791H149.521C147.963 228.311 147.963 230.651 149.521 231.171H149.78C150.819 231.691 152.116 230.651 152.116 229.611Z" fill="#C87E56"/>
<path d="M65.4143 139.898C68.2697 143.019 72.9422 140.678 73.7209 137.038C73.9805 136.258 73.9805 135.478 73.9805 134.698C73.9805 134.438 73.9805 133.918 73.9805 133.657C73.9805 133.397 73.7209 132.097 73.9805 132.617C73.9805 131.317 73.7209 130.537 72.6826 129.497C71.9039 128.717 70.606 128.197 69.5676 128.197C67.491 128.197 65.6739 129.497 64.6356 131.057C63.5972 132.877 63.5972 134.698 64.1164 136.518C64.1164 137.558 64.376 138.858 65.4143 139.898Z" fill="#C87E56"/>
<path d="M77.356 120.916C76.8368 120.916 76.3177 121.176 76.0581 121.436C75.5389 121.696 75.0197 122.216 74.5006 122.736C73.9814 124.036 73.7218 125.076 74.241 126.377C74.7602 127.677 75.7985 128.197 76.8368 128.717C78.1347 129.237 79.4326 128.717 80.2114 127.677C80.471 127.417 80.7305 127.157 80.9901 127.157C82.288 126.117 82.5476 123.776 81.5093 122.476C80.9901 121.176 79.1731 120.656 77.356 120.916Z" fill="#C87E56"/>
<path d="M72.4232 116.755C69.3082 116.755 69.3082 121.436 72.4232 121.436C75.2786 121.696 75.2786 116.755 72.4232 116.755Z" fill="#C87E56"/>
<path d="M191.83 146.399C188.196 146.399 188.196 152.12 191.83 152.12C195.464 152.12 195.464 146.399 191.83 146.399Z" fill="#C87E56"/>
<path d="M212.598 116.755C208.185 116.755 208.185 123.516 212.598 123.516C217.011 123.516 217.011 116.755 212.598 116.755Z" fill="#C87E56"/>
<path d="M213.115 114.415C224.537 114.415 224.537 96.4727 213.115 96.4727C201.434 96.4727 201.434 114.415 213.115 114.415Z" fill="#C87E56"/>
<path d="M187.938 100.373C184.564 101.674 184.823 107.654 189.236 107.654C193.908 107.654 193.908 100.633 189.755 100.113C193.908 98.8132 193.389 91.5322 188.457 91.5322C182.746 91.7923 182.487 100.113 187.938 100.373Z" fill="#C87E56"/>
<path d="M205.07 184.624C219.347 184.624 219.347 162.261 205.07 162.261C190.793 162.261 190.793 184.624 205.07 184.624Z" fill="#C87E56"/>
<path d="M198.84 190.085C196.244 190.085 194.946 191.645 194.168 193.466C193.389 192.686 192.35 192.165 190.793 192.165C184.303 192.165 184.303 202.307 190.793 202.307C193.389 202.307 194.946 200.747 195.465 198.926C196.244 199.707 197.282 199.967 198.58 199.967C205.33 200.227 205.33 190.085 198.84 190.085Z" fill="#C87E56"/>
<path d="M220.905 183.064C212.858 183.064 212.858 195.806 220.905 195.806C228.952 195.806 228.952 183.064 220.905 183.064Z" fill="#C87E56"/>
<path d="M239.854 154.46C230.249 154.46 230.249 169.542 239.854 169.542C249.458 169.542 249.458 154.46 239.854 154.46Z" fill="#C87E56"/>
<path d="M229.73 169.282C221.683 169.282 221.683 181.764 229.73 181.764C237.777 181.764 237.777 169.282 229.73 169.282Z" fill="#C87E56"/>
<path d="M165.354 226.23C163.796 226.23 162.239 226.49 160.681 227.01C163.277 224.93 163.017 219.729 159.383 218.689C161.46 218.169 163.277 216.089 163.277 213.748C163.277 211.148 160.941 208.808 158.345 208.808C155.749 208.808 153.153 211.148 153.413 213.748C153.413 216.089 154.97 217.909 157.047 218.429C152.375 219.729 152.634 227.79 158.345 227.79C158.605 227.79 158.864 227.79 159.383 227.79C158.085 228.31 157.047 229.35 156.009 230.13C154.711 231.431 153.673 232.991 153.153 234.551C152.375 236.111 151.855 237.932 151.855 240.012C152.115 243.652 153.153 247.293 156.009 249.893C158.864 252.493 162.239 254.054 165.873 254.054C169.507 254.054 173.141 252.493 175.737 249.893C177.035 248.593 178.073 247.033 178.592 245.473C179.371 243.912 179.89 242.092 179.89 240.012C179.631 236.371 178.592 232.731 175.737 230.13C172.622 227.79 169.247 226.23 165.354 226.23Z" fill="#C87E56"/>
<path d="M92.1522 204.647C91.8926 204.647 91.8926 204.647 91.633 204.647C93.4501 202.827 94.748 200.227 94.4884 197.886C94.4884 195.286 93.4501 192.946 91.633 191.126C89.8159 189.305 87.4797 188.265 84.8839 188.265C82.5476 188.265 79.9518 189.305 78.1348 191.126C76.5773 192.686 75.2793 195.546 75.2793 197.886C75.2793 198.146 75.2793 198.146 75.2793 198.407C68.0111 198.407 68.0111 209.848 75.2793 209.848C77.8752 209.848 79.6922 208.288 80.471 206.468C81.5093 206.988 82.2881 207.248 83.3264 207.508C72.9431 214.789 75.7985 235.331 91.8926 235.331C111.88 235.331 111.88 204.647 92.1522 204.647Z" fill="#C87E56"/>
<path d="M67.4913 170.583C68.0105 171.623 69.0488 172.663 70.8659 172.663C75.798 172.663 75.798 164.862 70.8659 164.862C70.8659 164.862 70.8659 164.862 70.6063 164.862C71.1255 163.562 71.1255 162.262 71.1255 160.961C71.1255 160.441 71.1255 160.181 71.1255 159.661C71.9042 160.441 72.9426 161.221 74.5 161.221C80.2108 161.221 80.2108 152.38 74.5 152.38C72.1638 152.38 70.6063 153.94 70.3467 155.761C69.568 153.94 68.5297 152.12 67.2318 150.82C64.3764 148.22 61.0018 146.659 57.1081 146.659C53.4739 146.659 49.5802 148.22 46.9844 150.82C45.6865 152.12 44.6481 153.68 44.129 155.501C43.3502 157.321 42.8311 159.141 42.8311 160.961C43.0906 164.602 44.129 168.502 46.9844 171.103C49.8398 173.703 53.2143 175.263 57.1081 175.263C60.7422 175.263 64.6359 173.703 67.2318 171.103C66.9722 170.843 67.2318 170.843 67.4913 170.583Z" fill="#C87E56"/>
<path d="M88.5165 165.382C88.5165 162.521 86.1802 160.181 83.3248 160.181C80.4694 160.181 77.8736 162.521 78.1332 165.382C78.1332 168.242 80.4694 170.583 83.3248 170.583C85.9206 170.583 88.5165 168.242 88.5165 165.382Z" fill="#C87E56"/>
<path d="M70.3474 189.305C66.1941 189.305 66.1941 195.806 70.3474 195.806C74.5007 195.806 74.5007 189.305 70.3474 189.305Z" fill="#C87E56"/>
<path d="M57.8876 140.418C59.4451 140.418 60.743 139.118 60.743 137.558C60.743 135.998 59.4451 134.698 57.8876 134.698C56.3301 134.698 55.0322 135.998 55.0322 137.558C55.2918 139.118 56.3301 140.418 57.8876 140.418Z" fill="#C87E56"/>
<path d="M90.3353 131.578C93.1907 133.138 96.5653 132.618 98.9015 130.538C98.9015 130.538 98.9015 130.538 99.1611 130.538C100.459 129.497 101.238 127.157 101.238 125.597C101.238 123.777 100.459 121.956 99.1611 120.656C99.1611 120.656 99.1611 120.656 98.9015 120.656C96.8249 118.836 93.9695 118.056 91.1141 119.096C88.5182 120.136 86.7012 122.737 86.7012 125.597C86.9608 127.937 88.2587 130.277 90.3353 131.578Z" fill="#C87E56"/>
<path d="M73.4612 111.035C76.8358 111.035 79.9508 108.174 79.9508 104.534C79.6912 101.153 77.0954 98.033 73.4612 98.033C70.0867 98.033 66.9717 100.893 66.9717 104.534C67.2313 108.174 70.0867 111.035 73.4612 111.035Z" fill="#C87E56"/>
<path d="M229.729 123.776C225.316 125.857 223.24 130.017 222.98 134.698C222.201 134.178 221.423 133.918 220.384 133.918C214.154 133.918 214.154 143.539 220.384 143.539C222.201 143.539 223.759 142.499 224.278 141.199C226.095 144.839 229.47 147.439 234.661 147.439C248.419 147.439 250.236 128.457 239.853 123.776C247.381 119.096 245.823 104.794 234.661 104.794C224.019 104.534 222.201 119.096 229.729 123.776Z" fill="#C87E56"/>
<path d="M226.615 102.713C230.249 102.713 230.508 96.9924 226.615 96.9924C222.721 96.9924 222.721 102.713 226.615 102.713Z" fill="#C87E56"/>
<path d="M198.061 150.04C198.32 153.68 200.916 156.541 204.55 156.541C207.925 156.541 211.299 153.68 211.04 150.04C210.78 146.399 208.184 143.539 204.55 143.539C201.176 143.799 198.061 146.659 198.061 150.04Z" fill="#C87E56"/>
<path d="M143.549 221.29C156.009 221.29 156.009 202.047 143.549 202.047C131.089 201.787 131.089 221.29 143.549 221.29Z" fill="#C87E56"/>
<path d="M170.546 222.59C178.074 222.59 178.074 211.148 170.546 211.148C163.018 210.888 163.018 222.59 170.546 222.59Z" fill="#C87E56"/>
<path d="M186.38 219.469C179.112 219.469 179.112 230.911 186.38 230.911C193.908 230.651 193.908 219.469 186.38 219.469Z" fill="#C87E56"/>
<path d="M116.292 197.886C105.649 197.886 105.649 214.268 116.292 214.268C126.935 214.268 126.935 197.886 116.292 197.886Z" fill="#C87E56"/>
<path d="M178.852 166.682C176.516 166.682 173.92 167.722 172.362 169.543C170.805 171.103 169.507 173.703 169.507 176.043C169.507 178.384 170.286 180.984 172.362 182.544C174.179 184.104 176.516 185.405 178.852 185.405C181.188 185.405 183.784 184.365 185.341 182.544C186.899 180.984 188.197 178.384 188.197 176.043C188.197 173.703 187.418 171.103 185.341 169.543C183.524 167.722 181.448 166.682 178.852 166.682Z" fill="#C87E56"/>
<path d="M153.153 194.506C153.413 197.886 154.451 201.267 156.787 203.347C159.124 205.687 162.239 206.988 165.613 206.988C168.728 206.988 172.103 205.687 174.439 203.347C175.737 202.307 176.516 200.747 177.035 199.186C177.814 197.626 178.073 196.066 178.073 194.246C177.814 190.865 176.775 187.485 174.439 185.405C172.103 183.064 168.988 181.764 165.613 181.764C162.498 181.764 159.124 183.064 156.787 185.405C155.49 186.445 154.711 188.005 154.192 189.565C153.672 191.385 153.153 192.946 153.153 194.506Z" fill="#C87E56"/>
<path d="M180.149 201.527C172.881 201.527 172.881 212.709 180.149 212.709C187.418 212.709 187.418 201.527 180.149 201.527Z" fill="#C87E56"/>
</g>
</g>
<path opacity="0.6" d="M214.153 84.771C221.94 98.2928 226.613 114.155 226.613 130.797C226.613 181.504 185.599 222.329 134.98 222.329C109.541 222.329 86.4384 211.928 69.8252 195.026C85.6597 222.329 115.252 240.532 148.998 240.532C199.616 240.532 240.63 199.446 240.63 149C240.63 124.036 230.506 101.153 214.153 84.771Z" fill="#DDC3A3"/>
<path opacity="0.25" d="M208.182 79.0503C212.595 89.7117 214.931 101.413 214.931 113.635C214.931 164.342 173.917 205.167 123.299 205.167C100.715 205.167 79.9488 196.846 64.1143 183.324C77.8721 216.869 110.579 240.272 148.998 240.272C199.616 240.272 240.63 199.186 240.63 148.74C240.63 120.916 227.91 95.9526 208.182 79.0503Z" fill="#DDC3A3"/>
<path opacity="0.27" d="M225.835 99.0729C209.481 74.1095 181.446 57.7273 149.518 57.4673C149.258 57.4673 149.258 57.4673 148.999 57.4673C147.701 57.4673 146.143 57.4673 144.845 57.4673C144.586 57.4673 144.067 57.4673 143.807 57.4673C142.509 57.4673 141.211 57.7273 139.913 57.7273H139.654C138.356 57.9874 137.058 57.9874 135.76 58.2474C135.5 58.2474 134.981 58.2474 134.722 58.5074C133.683 58.7675 132.385 58.7675 131.347 59.0275C131.087 59.0275 130.828 59.0275 130.828 59.0275C129.53 59.2875 128.232 59.5476 126.934 59.8076C126.415 59.8076 126.155 60.0676 125.636 60.0676C124.598 60.3277 123.56 60.5877 122.521 60.8477C122.262 60.8477 122.002 61.1078 121.743 61.1078C120.445 61.3678 119.406 61.8879 118.368 62.408C117.849 62.668 117.589 62.668 117.07 62.928C116.291 63.1881 115.513 63.4481 114.474 63.9682C113.955 64.2282 113.695 64.2282 113.176 64.4883C112.138 65.0083 111.1 65.5284 110.061 65.7884C109.542 66.0485 109.023 66.3085 108.504 66.5685C107.725 66.8285 107.206 67.3486 106.687 67.6087C106.168 67.8687 105.648 68.1287 105.129 68.3888C104.091 68.9089 103.312 69.4289 102.274 69.949C101.755 70.209 101.236 70.7291 100.457 70.9891C99.9376 71.2492 99.4185 71.5092 99.1589 71.7692C97.861 72.5493 96.8227 73.3294 95.5247 74.3696C95.2652 74.3696 95.2652 74.6296 95.0056 74.6296C94.4864 75.1497 93.7077 75.6698 93.1885 76.1898C92.9289 76.4499 92.6693 76.7099 92.1502 76.9699C90.0735 78.5301 87.9969 80.3504 86.1798 82.1706C85.9202 82.4306 85.9202 82.4307 85.6606 82.6907C83.584 84.5109 81.7669 86.5912 79.9498 88.6715L79.6902 88.9315C77.8732 91.0118 76.0561 93.3521 74.239 95.6924C63.5962 110.774 57.3662 128.977 57.3662 148.48C57.3662 169.022 64.1153 188.005 75.5369 203.347C66.192 189.045 60.7408 171.883 60.7408 153.42C60.7408 137.298 64.8941 121.956 72.1624 108.954C80.469 122.216 95.0056 131.057 111.878 131.057C137.577 131.057 158.344 110.254 158.344 84.5109C158.344 76.1898 156.267 68.6488 152.373 61.8879C182.485 62.408 208.962 76.7099 225.835 99.0729Z" fill="#DDC3A3"/>
<path opacity="0.68" d="M223.758 95.9526C233.623 110.515 239.333 128.197 239.333 146.919C239.333 197.626 198.319 238.452 147.701 238.452C116.811 238.452 89.5546 223.11 72.9414 199.707C89.2951 224.15 117.33 240.272 148.999 240.272C199.617 240.272 240.631 199.187 240.631 148.74C240.631 129.237 234.401 111.035 223.758 95.9526Z" fill="#DDC3A3"/>
<path opacity="0.46" d="M57.625 144.319C71.1233 163.302 93.1877 175.783 118.108 175.783C158.862 175.783 192.088 142.499 192.088 101.674C192.088 87.6316 188.195 74.3699 181.186 62.9283C171.062 59.0278 160.16 56.9475 148.998 56.9475C99.9369 57.4676 59.9612 95.9528 57.625 144.319Z" fill="#DDC3A3"/>
<path opacity="0.68" d="M125.378 141.719C147.313 141.719 165.094 123.906 165.094 101.934C165.094 79.9607 147.313 62.1482 125.378 62.1482C103.444 62.1482 85.6621 79.9607 85.6621 101.934C85.6621 123.906 103.444 141.719 125.378 141.719Z" fill="url(#paint2_radial_664_239)"/>
<g opacity="0.42">
<path d="M155.486 113.115C161.197 129.497 176.772 127.937 175.474 144.579C174.176 161.221 166.389 179.163 181.964 183.584C197.539 188.005 213.114 188.005 229.986 175.783C233.361 173.443 236.476 168.242 239.85 161.481C240.37 157.32 240.629 153.16 240.629 148.739C240.629 105.053 209.999 68.3886 168.985 59.2874C158.601 76.4497 150.814 100.373 155.486 113.115Z" fill="url(#paint3_linear_664_239)"/>
<path d="M153.151 204.647C146.402 176.563 112.916 169.542 95.0048 173.182C80.2086 176.303 68.0083 165.901 57.625 155.24C60.74 203.086 100.456 240.791 148.998 240.791C172.62 240.791 194.165 231.69 210.519 217.128C190.271 220.769 157.564 223.889 153.151 204.647Z" fill="url(#paint4_linear_664_239)"/>
</g>
<path opacity="0.49" d="M232.325 110.774C232.585 121.696 231.027 132.617 227.134 143.539C210.261 191.385 157.825 216.349 110.062 199.446C85.4019 190.605 66.9715 172.663 57.1074 150.56C57.8862 187.485 81.2485 221.809 118.109 234.811C165.872 251.713 218.308 226.75 235.181 178.904C243.487 155.76 241.67 131.577 232.325 110.774Z" fill="url(#paint5_linear_664_239)"/>
<path opacity="0.49" d="M186.12 64.7485C193.648 72.5496 199.618 81.9108 204.031 92.5723C223.24 139.379 201.176 192.946 154.451 212.448C130.31 222.33 104.352 221.29 82.2871 211.408C107.726 238.192 147.702 248.333 184.043 233.251C230.768 214.009 253.092 160.181 233.623 113.375C224.278 90.752 206.886 73.8498 186.12 64.7485Z" fill="url(#paint6_linear_664_239)"/>
<defs>
<radialGradient id="paint0_radial_664_239" cx="0" cy="0" r="1" gradientUnits="userSpaceOnUse" gradientTransform="translate(148.904 149.023) scale(148.938 149.049)">
<stop stop-color="#ACFFFB"/>
<stop offset="0.1673" stop-color="#7FBDBA"/>
<stop offset="0.332" stop-color="#588381"/>
<stop offset="0.4894" stop-color="#395453"/>
<stop offset="0.6382" stop-color="#20302F"/>
<stop offset="0.7765" stop-color="#0E1515"/>
<stop offset="0.9002" stop-color="#040605"/>
<stop offset="0.9972"/>
</radialGradient>
<linearGradient id="paint1_linear_664_239" x1="84.2646" y1="84.1781" x2="213.953" y2="213.64" gradientUnits="userSpaceOnUse">
<stop stop-color="#FF0000"/>
<stop offset="1" stop-color="#957635"/>
</linearGradient>
<radialGradient id="paint2_radial_664_239" cx="0" cy="0" r="1" gradientUnits="userSpaceOnUse" gradientTransform="translate(125.366 101.874) scale(39.6783 39.7079)">
<stop stop-color="#ECECEC"/>
<stop offset="0.4693" stop-color="#F1F1F1"/>
<stop offset="1" stop-color="white"/>
</radialGradient>
<linearGradient id="paint3_linear_664_239" x1="154.084" y1="123.049" x2="240.583" y2="123.049" gradientUnits="userSpaceOnUse">
<stop stop-color="#FF0000"/>
<stop offset="1" stop-color="#957635"/>
</linearGradient>
<linearGradient id="paint4_linear_664_239" x1="57.6258" y1="197.867" x2="210.478" y2="197.867" gradientUnits="userSpaceOnUse">
<stop stop-color="#FF0000"/>
<stop offset="1" stop-color="#957635"/>
</linearGradient>
<linearGradient id="paint5_linear_664_239" x1="140.168" y1="112.257" x2="170.352" y2="237.939" gradientUnits="userSpaceOnUse">
<stop offset="0.2422" stop-color="white"/>
<stop offset="0.9199" stop-color="white"/>
<stop offset="1" stop-color="white"/>
</linearGradient>
<linearGradient id="paint6_linear_664_239" x1="118.471" y1="127.419" x2="224.964" y2="200.599" gradientUnits="userSpaceOnUse">
<stop offset="0.2422" stop-color="white"/>
<stop offset="0.9199" stop-color="white"/>
<stop offset="1" stop-color="white"/>
</linearGradient>
</defs>
</svg>
