<svg width="298" height="298" viewBox="0 0 298 298" fill="none" xmlns="http://www.w3.org/2000/svg">
<path opacity="0.69" d="M149.149 294.492C229.573 294.492 294.769 229.296 294.769 148.872C294.769 68.448 229.573 3.25171 149.149 3.25171C68.7256 3.25171 3.5293 68.448 3.5293 148.872C3.5293 229.296 68.7256 294.492 149.149 294.492Z" fill="url(#paint0_radial_664_65)"/>
<mask id="mask0_664_65" style="mask-type:luminance" maskUnits="userSpaceOnUse" x="60" y="60" width="178" height="178">
<path d="M209.955 85.4669C174.866 51.8024 119.131 52.9568 85.4666 88.0452C51.8022 123.134 52.9566 178.869 88.045 212.533C123.133 246.198 178.869 245.043 212.533 209.955C246.197 174.866 245.043 119.131 209.955 85.4669Z" fill="white"/>
</mask>
<g mask="url(#mask0_664_65)">
<path d="M230.789 181.84C248.931 136.725 227.066 85.4447 181.951 67.3025C136.836 49.1603 85.556 71.0259 67.4138 116.141C49.2716 161.256 71.1373 212.536 116.252 230.678C161.367 248.82 212.647 226.954 230.789 181.84Z" fill="#EEE9FF"/>
</g>
<mask id="mask1_664_65" style="mask-type:luminance" maskUnits="userSpaceOnUse" x="61" y="60" width="177" height="178">
<path d="M230.788 181.84C248.93 136.725 227.064 85.4459 181.95 67.3038C136.835 49.1617 85.5556 71.0272 67.4136 116.142C49.2715 161.256 71.137 212.536 116.251 230.678C161.366 248.82 212.645 226.954 230.788 181.84Z" fill="white"/>
</mask>
<g mask="url(#mask1_664_65)">
<path opacity="0.71" d="M205.044 91.9268C205.464 96.3395 202.522 100.332 201.262 104.745C200.841 106.005 200.631 107.476 201.472 108.527C202.102 109.368 203.153 109.788 204.203 110.208C210.297 112.309 217.652 114.411 220.173 120.294C221.434 123.867 221.014 128.489 223.956 130.801C227.318 133.322 232.151 131.011 235.092 128.069C238.244 125.127 240.766 121.345 241.186 117.142C241.606 112.94 239.925 108.947 238.454 105.165C233.201 92.7673 227.948 79.9494 218.702 70.2834C212.398 63.7694 202.102 77.0075 197.899 81C201.051 84.152 204.624 87.514 205.044 91.9268Z" fill="#C8C6D3"/>
</g>
<mask id="mask2_664_65" style="mask-type:luminance" maskUnits="userSpaceOnUse" x="61" y="60" width="177" height="178">
<path d="M230.788 181.84C248.93 136.725 227.064 85.4459 181.95 67.3038C136.835 49.1617 85.5556 71.0272 67.4136 116.142C49.2715 161.256 71.137 212.536 116.251 230.678C161.366 248.82 212.645 226.954 230.788 181.84Z" fill="white"/>
</mask>
<g mask="url(#mask2_664_65)">
<path opacity="0.71" d="M208.403 134.163C208.614 134.373 208.824 134.373 209.034 134.373C217.859 135.004 215.338 117.563 209.244 115.251C205.462 113.78 202.31 117.143 202.52 120.925C202.73 125.758 207.353 128.91 208.193 133.533C208.193 133.743 208.193 133.953 208.403 134.163Z" fill="#C8C6D3"/>
</g>
<mask id="mask3_664_65" style="mask-type:luminance" maskUnits="userSpaceOnUse" x="61" y="60" width="177" height="178">
<path d="M230.788 181.84C248.93 136.725 227.064 85.4459 181.95 67.3038C136.835 49.1617 85.5556 71.0272 67.4136 116.142C49.2715 161.256 71.137 212.536 116.251 230.678C161.366 248.82 212.645 226.954 230.788 181.84Z" fill="white"/>
</mask>
<g mask="url(#mask3_664_65)">
<path opacity="0.71" d="M221.013 156.017C221.853 156.857 223.114 156.647 224.375 156.227C228.157 154.756 230.679 150.763 230.468 146.561C230.048 139.627 221.013 133.323 215.549 139.627C213.658 141.938 213.238 145.51 215.129 147.822C216.18 149.082 217.651 149.713 218.701 151.184C219.542 152.234 219.752 153.495 220.172 154.756C220.592 155.176 220.802 155.596 221.013 156.017Z" fill="#C8C6D3"/>
</g>
<mask id="mask4_664_65" style="mask-type:luminance" maskUnits="userSpaceOnUse" x="61" y="60" width="177" height="178">
<path d="M230.788 181.84C248.93 136.725 227.064 85.4459 181.95 67.3038C136.835 49.1617 85.5556 71.0272 67.4136 116.142C49.2715 161.256 71.137 212.536 116.251 230.678C161.366 248.82 212.645 226.954 230.788 181.84Z" fill="white"/>
</mask>
<g mask="url(#mask4_664_65)">
<path opacity="0.71" d="M207.985 177.66C209.035 178.29 210.506 178.08 211.347 178.921C211.977 179.761 211.557 181.232 212.397 181.863C213.238 182.493 214.288 181.863 214.919 181.232C217.02 179.131 218.281 176.189 218.491 173.247C218.491 172.617 218.491 172.197 218.281 171.776C217.65 170.305 215.759 169.045 215.759 169.045C214.288 168.204 212.607 168.624 211.136 169.465C209.876 170.305 208.825 171.776 208.195 173.247C206.934 174.508 206.514 176.819 207.985 177.66Z" fill="#C8C6D3"/>
</g>
<mask id="mask5_664_65" style="mask-type:luminance" maskUnits="userSpaceOnUse" x="61" y="60" width="177" height="178">
<path d="M230.788 181.84C248.93 136.725 227.064 85.4459 181.95 67.3038C136.835 49.1617 85.5556 71.0272 67.4136 116.142C49.2715 161.256 71.137 212.536 116.251 230.678C161.366 248.82 212.645 226.954 230.788 181.84Z" fill="white"/>
</mask>
<g mask="url(#mask5_664_65)">
<path opacity="0.71" d="M186.971 169.044C189.072 169.885 191.594 169.885 193.695 168.834C195.166 167.994 196.427 166.943 198.108 166.523C198.318 166.523 198.318 166.523 198.528 166.523C200.209 166.313 201.89 167.153 203.361 166.733C205.463 166.103 206.513 163.371 205.673 161.27C203.571 155.596 195.166 155.596 190.543 157.487C186.971 158.958 180.667 166.103 186.971 169.044Z" fill="#C8C6D3"/>
</g>
<mask id="mask6_664_65" style="mask-type:luminance" maskUnits="userSpaceOnUse" x="61" y="60" width="177" height="178">
<path d="M230.788 181.84C248.93 136.725 227.064 85.4459 181.95 67.3038C136.835 49.1617 85.5556 71.0272 67.4136 116.142C49.2715 161.256 71.137 212.536 116.251 230.678C161.366 248.82 212.645 226.954 230.788 181.84Z" fill="white"/>
</mask>
<g mask="url(#mask6_664_65)">
<path opacity="0.71" d="M197.057 173.247C196.637 173.878 196.427 174.718 196.637 175.559C196.847 176.189 197.268 176.61 197.898 176.82C199.579 177.45 201.89 176.399 202.311 174.718C202.731 173.247 201.89 171.566 200.63 170.936C199.159 171.146 197.898 171.987 197.057 173.247Z" fill="#C8C6D3"/>
</g>
<mask id="mask7_664_65" style="mask-type:luminance" maskUnits="userSpaceOnUse" x="61" y="60" width="177" height="178">
<path d="M230.788 181.84C248.93 136.725 227.064 85.4459 181.95 67.3038C136.835 49.1617 85.5556 71.0272 67.4136 116.142C49.2715 161.256 71.137 212.536 116.251 230.678C161.366 248.82 212.645 226.954 230.788 181.84Z" fill="white"/>
</mask>
<g mask="url(#mask7_664_65)">
<path opacity="0.71" d="M199.58 170.515C200 170.515 200.21 170.726 200.421 170.726C200.631 170.726 200.631 170.726 200.841 170.515H199.58Z" fill="#C8C6D3"/>
</g>
<mask id="mask8_664_65" style="mask-type:luminance" maskUnits="userSpaceOnUse" x="61" y="60" width="177" height="178">
<path d="M230.788 181.84C248.93 136.725 227.064 85.4459 181.95 67.3038C136.835 49.1617 85.5556 71.0272 67.4136 116.142C49.2715 161.256 71.137 212.536 116.251 230.678C161.366 248.82 212.645 226.954 230.788 181.84Z" fill="white"/>
</mask>
<g mask="url(#mask8_664_65)">
<path opacity="0.71" d="M237.192 162.951C235.091 162.951 232.99 164.002 231.308 165.052C229.627 166.103 227.946 167.784 227.526 169.675C227.106 171.356 227.526 173.037 227.526 174.718C227.106 180.182 220.802 184.384 221.642 189.848C222.063 192.159 223.954 194.05 225.635 195.731C227.526 197.412 229.627 198.883 232.149 199.093C234.46 199.303 236.772 198.043 238.453 196.362C240.764 194.26 242.235 191.319 242.866 188.377C243.286 186.065 243.076 183.544 243.496 181.022C243.916 178.501 244.757 175.979 244.967 173.247C245.387 168.414 242.655 162.741 237.192 162.951Z" fill="#C8C6D3"/>
</g>
<mask id="mask9_664_65" style="mask-type:luminance" maskUnits="userSpaceOnUse" x="61" y="60" width="177" height="178">
<path d="M230.788 181.84C248.93 136.725 227.064 85.4459 181.95 67.3038C136.835 49.1617 85.5556 71.0272 67.4136 116.142C49.2715 161.256 71.137 212.536 116.251 230.678C161.366 248.82 212.645 226.954 230.788 181.84Z" fill="white"/>
</mask>
<g mask="url(#mask9_664_65)">
<path opacity="0.71" d="M209.456 188.377C205.884 187.116 201.471 187.326 199.16 190.268C197.899 191.739 197.479 193.63 196.848 195.311C196.218 197.202 195.798 199.303 195.167 201.194C194.957 202.035 194.747 202.875 194.957 203.506C195.588 206.027 198.95 206.027 200.841 207.708C202.312 208.759 202.942 210.86 203.152 212.752C203.152 214.643 202.732 216.534 202.522 218.215C202.312 219.686 202.312 221.367 203.152 222.418C203.993 223.468 205.464 223.888 206.935 223.888C208.405 223.678 209.666 223.258 210.927 222.628C213.659 221.367 216.18 220.106 218.492 218.215C220.593 216.324 222.274 213.592 222.274 210.65C222.274 208.969 221.644 207.288 221.013 205.817C218.282 198.673 217.651 191.528 209.456 188.377Z" fill="#C8C6D3"/>
</g>
<mask id="mask10_664_65" style="mask-type:luminance" maskUnits="userSpaceOnUse" x="61" y="60" width="177" height="178">
<path d="M230.788 181.84C248.93 136.725 227.064 85.4459 181.95 67.3038C136.835 49.1617 85.5556 71.0272 67.4136 116.142C49.2715 161.256 71.137 212.536 116.251 230.678C161.366 248.82 212.645 226.954 230.788 181.84Z" fill="white"/>
</mask>
<g mask="url(#mask10_664_65)">
<path opacity="0.71" d="M190.333 186.485C189.913 186.275 189.282 186.275 188.652 186.275C185.29 186.906 182.348 188.587 179.406 190.478L180.667 190.057C179.616 190.688 178.566 191.318 177.935 192.369C177.095 194.05 177.095 196.151 178.146 197.622C179.406 199.093 181.718 199.513 183.189 198.463C184.239 197.622 184.66 196.572 185.29 195.521C186.341 194.26 187.811 193.209 189.072 192.159C190.333 191.108 191.384 189.427 191.174 187.746C190.963 187.116 190.753 186.695 190.333 186.485Z" fill="#C8C6D3"/>
</g>
<mask id="mask11_664_65" style="mask-type:luminance" maskUnits="userSpaceOnUse" x="61" y="60" width="177" height="178">
<path d="M230.788 181.84C248.93 136.725 227.064 85.4459 181.95 67.3038C136.835 49.1617 85.5556 71.0272 67.4136 116.142C49.2715 161.256 71.137 212.536 116.251 230.678C161.366 248.82 212.645 226.954 230.788 181.84Z" fill="white"/>
</mask>
<g mask="url(#mask11_664_65)">
<path opacity="0.71" d="M147.047 80.16C147.677 80.16 148.308 79.9499 148.938 80.16C150.619 80.7904 150.619 83.1018 151.88 84.3626C153.141 85.8335 155.242 85.8335 156.923 84.993C164.908 80.7904 157.974 70.494 151.039 69.8636C144.105 69.6535 135.069 81.4208 147.047 80.16Z" fill="#C8C6D3"/>
</g>
<mask id="mask12_664_65" style="mask-type:luminance" maskUnits="userSpaceOnUse" x="61" y="60" width="177" height="178">
<path d="M230.788 181.84C248.93 136.725 227.064 85.4459 181.95 67.3038C136.835 49.1617 85.5556 71.0272 67.4136 116.142C49.2715 161.256 71.137 212.536 116.251 230.678C161.366 248.82 212.645 226.954 230.788 181.84Z" fill="white"/>
</mask>
<g mask="url(#mask12_664_65)">
<path opacity="0.71" d="M133.81 122.396C136.121 120.505 138.012 118.193 139.693 115.672C140.954 113.781 142.215 111.469 142.215 109.158C142.215 105.165 138.853 101.803 135.701 99.4918C132.759 97.6006 129.607 95.7095 126.035 95.7095C123.723 95.7095 121.622 96.55 119.311 96.9703C115.528 97.8108 111.746 97.6006 108.174 98.4412C105.652 98.8614 102.921 99.9121 101.029 101.593C94.7255 104.745 89.4723 109.998 86.5305 116.302C85.2697 119.034 84.4292 122.186 85.4798 125.128C87.371 130.381 94.7255 131.852 97.4572 136.685C99.7686 141.098 98.0876 146.981 101.45 150.764C104.602 154.336 110.485 153.285 114.898 151.814C121.202 149.503 128.136 145.72 129.397 139.206C130.237 134.794 128.136 129.751 130.448 125.968C131.288 124.497 132.759 123.657 133.81 122.396Z" fill="#C8C6D3"/>
</g>
<mask id="mask13_664_65" style="mask-type:luminance" maskUnits="userSpaceOnUse" x="61" y="60" width="177" height="178">
<path d="M230.788 181.84C248.93 136.725 227.064 85.4459 181.95 67.3038C136.835 49.1617 85.5556 71.0272 67.4136 116.142C49.2715 161.256 71.137 212.536 116.251 230.678C161.366 248.82 212.645 226.954 230.788 181.84Z" fill="white"/>
</mask>
<g mask="url(#mask13_664_65)">
<path opacity="0.71" d="M106.491 86.0433C104.6 86.8839 103.129 88.9852 103.129 91.2966C105.65 91.2966 108.172 91.0865 110.694 91.0865C111.324 91.0865 112.165 91.0865 112.795 90.6662C114.266 89.8257 114.476 87.5142 113.425 86.2535C112.375 84.9927 110.483 84.5724 108.802 84.7826C107.121 84.9927 105.65 85.8332 104.18 86.6737L106.491 86.0433Z" fill="#C8C6D3"/>
</g>
<mask id="mask14_664_65" style="mask-type:luminance" maskUnits="userSpaceOnUse" x="61" y="60" width="177" height="178">
<path d="M230.788 181.84C248.93 136.725 227.064 85.4459 181.95 67.3038C136.835 49.1617 85.5556 71.0272 67.4136 116.142C49.2715 161.256 71.137 212.536 116.251 230.678C161.366 248.82 212.645 226.954 230.788 181.84Z" fill="white"/>
</mask>
<g mask="url(#mask14_664_65)">
<path opacity="0.71" d="M87.791 100.542C87.3707 101.803 88.2112 103.484 89.472 103.484C90.3125 103.484 90.9429 103.064 91.3631 102.433C92.834 101.173 94.305 100.122 95.7759 98.8612C96.1961 98.4409 96.8265 98.0207 96.8265 97.3903C97.0367 96.5498 96.4063 95.7092 95.5657 95.4991C94.7252 95.289 93.8847 95.289 93.2543 95.7092C91.153 96.5498 89.472 98.2308 87.791 99.9118L89.8923 97.3903C89.2619 98.4409 88.2112 99.2815 87.791 100.542Z" fill="#C8C6D3"/>
</g>
<mask id="mask15_664_65" style="mask-type:luminance" maskUnits="userSpaceOnUse" x="61" y="60" width="177" height="178">
<path d="M230.788 181.84C248.93 136.725 227.064 85.4459 181.95 67.3038C136.835 49.1617 85.5556 71.0272 67.4136 116.142C49.2715 161.256 71.137 212.536 116.251 230.678C161.366 248.82 212.645 226.954 230.788 181.84Z" fill="white"/>
</mask>
<g mask="url(#mask15_664_65)">
<path opacity="0.71" d="M199.58 146.771C202.732 146.771 202.732 141.938 199.58 141.938C196.428 142.148 196.428 146.771 199.58 146.771Z" fill="#C8C6D3"/>
</g>
<mask id="mask16_664_65" style="mask-type:luminance" maskUnits="userSpaceOnUse" x="61" y="60" width="177" height="178">
<path d="M230.788 181.84C248.93 136.725 227.064 85.4459 181.95 67.3038C136.835 49.1617 85.5556 71.0272 67.4136 116.142C49.2715 161.256 71.137 212.536 116.251 230.678C161.366 248.82 212.645 226.954 230.788 181.84Z" fill="white"/>
</mask>
<g mask="url(#mask16_664_65)">
<path opacity="0.71" d="M199.999 136.895C203.992 136.895 203.992 130.801 199.999 130.801C196.007 130.801 196.007 136.895 199.999 136.895Z" fill="#C8C6D3"/>
</g>
<mask id="mask17_664_65" style="mask-type:luminance" maskUnits="userSpaceOnUse" x="61" y="60" width="177" height="178">
<path d="M230.788 181.84C248.93 136.725 227.064 85.4459 181.95 67.3038C136.835 49.1617 85.5556 71.0272 67.4136 116.142C49.2715 161.256 71.137 212.536 116.251 230.678C161.366 248.82 212.645 226.954 230.788 181.84Z" fill="white"/>
</mask>
<g mask="url(#mask17_664_65)">
<path opacity="0.71" d="M185.081 151.604C190.334 148.452 194.327 143.198 192.646 136.474C191.805 132.692 188.653 129.12 184.451 131.011C180.248 132.902 179.408 137.525 178.987 141.517C178.777 144.879 177.516 145.72 175.205 148.031C173.944 149.292 172.683 150.763 172.263 152.654C171.423 156.016 173.734 159.589 177.516 159.168C180.878 158.328 183.19 154.545 185.081 151.604Z" fill="#C8C6D3"/>
</g>
<mask id="mask18_664_65" style="mask-type:luminance" maskUnits="userSpaceOnUse" x="61" y="60" width="177" height="178">
<path d="M230.788 181.84C248.93 136.725 227.064 85.4459 181.95 67.3038C136.835 49.1617 85.5556 71.0272 67.4136 116.142C49.2715 161.256 71.137 212.536 116.251 230.678C161.366 248.82 212.645 226.954 230.788 181.84Z" fill="white"/>
</mask>
<g mask="url(#mask18_664_65)">
<path opacity="0.71" d="M192.645 176.82C190.754 175.979 187.812 175.139 185.501 175.349C185.291 175.349 184.871 175.349 184.66 175.349C182.139 175.559 179.407 176.82 179.197 179.762C178.987 182.283 181.088 184.174 183.61 184.174C184.871 184.174 185.711 183.544 186.972 183.334C188.443 182.914 189.704 182.493 191.174 182.493C193.696 182.283 195.377 178.081 192.645 176.82Z" fill="#C8C6D3"/>
</g>
<mask id="mask19_664_65" style="mask-type:luminance" maskUnits="userSpaceOnUse" x="61" y="60" width="177" height="178">
<path d="M230.788 181.84C248.93 136.725 227.064 85.4459 181.95 67.3038C136.835 49.1617 85.5556 71.0272 67.4136 116.142C49.2715 161.256 71.137 212.536 116.251 230.678C161.366 248.82 212.645 226.954 230.788 181.84Z" fill="white"/>
</mask>
<g mask="url(#mask19_664_65)">
<path opacity="0.71" d="M179.618 172.617C180.248 172.407 180.668 172.197 181.089 171.777C182.349 170.726 181.509 168.204 179.618 168.204C178.357 168.204 177.306 168.835 177.096 170.096C176.886 171.777 178.147 173.037 179.618 172.617Z" fill="#C8C6D3"/>
</g>
<mask id="mask20_664_65" style="mask-type:luminance" maskUnits="userSpaceOnUse" x="61" y="60" width="177" height="178">
<path d="M230.788 181.84C248.93 136.725 227.064 85.4459 181.95 67.3038C136.835 49.1617 85.5556 71.0272 67.4136 116.142C49.2715 161.256 71.137 212.536 116.251 230.678C161.366 248.82 212.645 226.954 230.788 181.84Z" fill="white"/>
</mask>
<g mask="url(#mask20_664_65)">
<path opacity="0.71" d="M149.778 133.533C152.089 130.591 155.031 127.439 153.77 123.447C152.299 119.664 147.677 118.824 144.314 120.295C140.952 121.766 138.221 125.338 137.17 128.91C136.96 129.54 136.96 130.171 136.96 130.801C136.75 131.222 136.75 131.432 136.75 131.852C136.119 135.004 137.59 138.366 140.742 139.206C144.735 140.257 147.466 136.475 149.778 133.533Z" fill="#C8C6D3"/>
</g>
<mask id="mask21_664_65" style="mask-type:luminance" maskUnits="userSpaceOnUse" x="61" y="60" width="177" height="178">
<path d="M230.788 181.84C248.93 136.725 227.064 85.4459 181.95 67.3038C136.835 49.1617 85.5556 71.0272 67.4136 116.142C49.2715 161.256 71.137 212.536 116.251 230.678C161.366 248.82 212.645 226.954 230.788 181.84Z" fill="white"/>
</mask>
<g mask="url(#mask21_664_65)">
<path opacity="0.71" d="M136.54 148.242C136.751 148.032 136.961 147.822 137.171 147.401V147.191C138.011 146.351 138.432 145.3 138.221 144.039C138.011 142.568 136.12 141.728 134.859 142.148C132.758 142.779 131.077 144.67 131.707 146.981C132.338 149.293 134.859 149.713 136.54 148.242Z" fill="#C8C6D3"/>
</g>
<mask id="mask22_664_65" style="mask-type:luminance" maskUnits="userSpaceOnUse" x="61" y="60" width="177" height="178">
<path d="M230.788 181.84C248.93 136.725 227.064 85.4459 181.95 67.3038C136.835 49.1617 85.5556 71.0272 67.4136 116.142C49.2715 161.256 71.137 212.536 116.251 230.678C161.366 248.82 212.645 226.954 230.788 181.84Z" fill="white"/>
</mask>
<g mask="url(#mask22_664_65)">
<path opacity="0.71" d="M158.814 139.206C157.763 137.105 155.242 136.474 153.351 137.525C151.039 138.576 149.568 141.097 147.887 142.988C147.677 143.198 147.257 143.619 147.047 143.829C147.047 143.829 147.047 143.829 146.837 143.829C142.844 144.459 137.801 150.763 143.475 153.285C146.206 154.546 148.518 152.654 150.829 150.973C153.141 149.292 155.662 147.821 157.553 145.72C158.814 144.039 159.865 141.517 158.814 139.206Z" fill="#C8C6D3"/>
</g>
<mask id="mask23_664_65" style="mask-type:luminance" maskUnits="userSpaceOnUse" x="61" y="60" width="177" height="178">
<path d="M230.788 181.84C248.93 136.725 227.064 85.4459 181.95 67.3038C136.835 49.1617 85.5556 71.0272 67.4136 116.142C49.2715 161.256 71.137 212.536 116.251 230.678C161.366 248.82 212.645 226.954 230.788 181.84Z" fill="white"/>
</mask>
<g mask="url(#mask23_664_65)">
<path opacity="0.71" d="M75.1814 91.7167C80.8549 94.0281 87.7891 94.8687 93.2525 91.5066C97.8754 88.7749 102.919 82.6811 103.129 77.0076C105.02 74.0658 105.65 70.9138 102.498 67.3416C101.027 65.6606 97.6652 65.8707 96.6146 67.972C94.9335 68.1822 93.2525 69.0227 91.7816 70.0733C86.5284 74.4861 81.4852 79.5292 76.6522 84.5723C75.6016 85.2027 74.9712 86.0432 74.7611 86.8837C74.3408 87.9344 74.3408 88.7749 74.5509 89.8255C74.1307 90.2458 74.3408 91.2965 75.1814 91.7167Z" fill="#C8C6D3"/>
</g>
<mask id="mask24_664_65" style="mask-type:luminance" maskUnits="userSpaceOnUse" x="61" y="60" width="177" height="178">
<path d="M230.788 181.84C248.93 136.725 227.064 85.4459 181.95 67.3038C136.835 49.1617 85.5556 71.0272 67.4136 116.142C49.2715 161.256 71.137 212.536 116.251 230.678C161.366 248.82 212.645 226.954 230.788 181.84Z" fill="white"/>
</mask>
<g mask="url(#mask24_664_65)">
<path opacity="0.71" d="M94.0946 151.394C93.8844 149.923 93.4641 148.452 93.4641 146.981C93.4641 146.14 93.4641 145.3 93.254 144.459C92.6236 141.938 89.2616 140.677 86.74 141.518C86.3198 141.518 86.1096 141.728 85.6894 141.938C84.4286 141.518 83.3779 142.778 82.7475 143.829C81.907 144.67 81.0665 145.3 80.226 146.14L82.1171 144.67C81.0665 146.561 80.0158 148.452 79.8057 150.553C79.5956 152.865 80.6462 155.596 82.7475 156.437C82.9576 156.437 83.1678 156.437 83.1678 156.647C83.7982 159.589 85.4792 162.531 88.0007 163.791C88.421 165.052 89.4717 166.103 90.9426 165.683C92.4135 165.262 93.4642 164.212 94.0946 163.161C95.1452 162.11 95.9857 160.639 96.1959 159.169C96.8263 156.227 95.3553 154.125 94.0946 151.394C94.0946 151.604 94.0946 151.604 94.0946 151.394Z" fill="#C8C6D3"/>
</g>
<mask id="mask25_664_65" style="mask-type:luminance" maskUnits="userSpaceOnUse" x="61" y="60" width="177" height="178">
<path d="M230.788 181.84C248.93 136.725 227.064 85.4459 181.95 67.3038C136.835 49.1617 85.5556 71.0272 67.4136 116.142C49.2715 161.256 71.137 212.536 116.251 230.678C161.366 248.82 212.645 226.954 230.788 181.84Z" fill="white"/>
</mask>
<g mask="url(#mask25_664_65)">
<path opacity="0.71" d="M146.837 108.948C147.677 111.259 151.25 112.31 152.51 109.578C153.351 108.107 153.561 106.426 153.141 104.745C153.141 104.535 153.141 104.535 153.141 104.325C153.561 101.803 152.931 99.0716 150.409 97.8108C147.887 96.3399 145.156 98.4412 145.366 101.173C145.366 102.434 145.996 103.274 146.627 104.325C146.837 104.535 146.837 104.745 147.047 105.165C147.047 105.375 147.047 105.586 147.047 105.796C146.417 106.846 146.417 107.897 146.837 108.948Z" fill="#C8C6D3"/>
</g>
<mask id="mask26_664_65" style="mask-type:luminance" maskUnits="userSpaceOnUse" x="61" y="60" width="177" height="178">
<path d="M230.788 181.84C248.93 136.725 227.064 85.4459 181.95 67.3038C136.835 49.1617 85.5556 71.0272 67.4136 116.142C49.2715 161.256 71.137 212.536 116.251 230.678C161.366 248.82 212.645 226.954 230.788 181.84Z" fill="white"/>
</mask>
<g mask="url(#mask26_664_65)">
<path opacity="0.71" d="M81.2756 162.741C78.5439 160.849 75.3919 162.53 74.3412 165.262C73.0804 168.414 73.2906 171.986 74.3412 175.348C74.7615 180.602 76.8628 185.645 81.9059 187.116C84.8477 187.956 88.42 186.695 89.4706 183.754C90.9415 179.551 86.5288 176.819 84.6376 173.457C82.7465 170.095 85.0579 165.262 81.2756 162.741Z" fill="#C8C6D3"/>
</g>
<mask id="mask27_664_65" style="mask-type:luminance" maskUnits="userSpaceOnUse" x="61" y="60" width="177" height="178">
<path d="M230.788 181.84C248.93 136.725 227.064 85.4459 181.95 67.3038C136.835 49.1617 85.5556 71.0272 67.4136 116.142C49.2715 161.256 71.137 212.536 116.251 230.678C161.366 248.82 212.645 226.954 230.788 181.84Z" fill="white"/>
</mask>
<g mask="url(#mask27_664_65)">
<path opacity="0.71" d="M73.7113 160.009C76.0228 160.429 78.124 158.538 78.5443 156.227C78.7544 155.176 78.5443 153.915 77.9139 153.075C77.2836 152.234 76.2329 151.604 76.2329 150.343C76.2329 148.452 73.5012 146.981 72.0303 148.662C70.7695 150.133 69.7189 151.604 69.2986 153.495C68.8783 155.176 69.0885 157.698 70.7695 158.748C70.9797 158.748 70.9796 158.748 71.1898 158.958C71.8201 159.379 72.8708 159.799 73.7113 160.009Z" fill="#C8C6D3"/>
</g>
<mask id="mask28_664_65" style="mask-type:luminance" maskUnits="userSpaceOnUse" x="61" y="60" width="177" height="178">
<path d="M230.788 181.84C248.93 136.725 227.064 85.4459 181.95 67.3038C136.835 49.1617 85.5556 71.0272 67.4136 116.142C49.2715 161.256 71.137 212.536 116.251 230.678C161.366 248.82 212.645 226.954 230.788 181.84Z" fill="white"/>
</mask>
<g mask="url(#mask28_664_65)">
<path opacity="0.71" d="M78.1252 139.416C77.2847 139.627 76.8644 140.257 76.6543 140.887C76.234 141.728 76.8644 142.779 77.7049 142.989C78.5454 143.409 79.386 142.989 80.0164 142.148C80.4366 141.518 80.4366 140.677 80.0164 140.047C79.5961 139.416 78.7556 139.206 78.1252 139.416Z" fill="#C8C6D3"/>
</g>
<mask id="mask29_664_65" style="mask-type:luminance" maskUnits="userSpaceOnUse" x="61" y="60" width="177" height="178">
<path d="M230.788 181.84C248.93 136.725 227.064 85.4459 181.95 67.3038C136.835 49.1617 85.5556 71.0272 67.4136 116.142C49.2715 161.256 71.137 212.536 116.251 230.678C161.366 248.82 212.645 226.954 230.788 181.84Z" fill="white"/>
</mask>
<g mask="url(#mask29_664_65)">
<path opacity="0.71" d="M75.6031 129.33C76.4436 121.555 69.7195 115.672 64.2561 111.259C62.7852 109.998 60.4738 111.469 61.5244 113.36L61.7345 113.571C59.8433 113.781 57.9522 115.041 58.1623 117.143C58.3724 117.983 58.3725 118.824 58.3725 119.664C56.4813 124.287 54.8002 128.91 53.5394 133.953C53.1192 135.844 54.1698 137.315 55.4306 137.735C54.3799 142.989 54.38 148.242 55.0104 153.705C55.0104 154.126 55.0104 154.336 55.2205 154.756C55.8509 159.169 62.3649 157.698 62.5751 153.705C62.9953 146.771 66.3574 143.199 70.56 138.366C73.0815 135.844 75.1828 133.113 75.6031 129.33Z" fill="#C8C6D3"/>
</g>
<mask id="mask30_664_65" style="mask-type:luminance" maskUnits="userSpaceOnUse" x="61" y="60" width="177" height="178">
<path d="M230.788 181.84C248.93 136.725 227.064 85.4459 181.95 67.3038C136.835 49.1617 85.5556 71.0272 67.4136 116.142C49.2715 161.256 71.137 212.536 116.251 230.678C161.366 248.82 212.645 226.954 230.788 181.84Z" fill="white"/>
</mask>
<g mask="url(#mask30_664_65)">
<path opacity="0.71" d="M68.0375 109.158C71.1894 110.629 73.711 112.73 75.8123 115.462C76.8629 116.933 78.7541 117.773 80.4352 116.722C80.4352 116.722 80.4351 116.722 80.6453 116.722C81.0655 116.512 81.4858 116.512 81.6959 116.092C82.9567 115.041 83.1669 113.36 82.5365 111.889C82.1162 111.049 81.6959 110.419 81.0655 109.788C77.9136 105.375 73.0806 99.2817 67.8274 103.274C66.1463 104.745 65.5159 107.897 68.0375 109.158Z" fill="#C8C6D3"/>
</g>
<mask id="mask31_664_65" style="mask-type:luminance" maskUnits="userSpaceOnUse" x="61" y="60" width="177" height="178">
<path d="M230.788 181.84C248.93 136.725 227.064 85.4459 181.95 67.3038C136.835 49.1617 85.5556 71.0272 67.4136 116.142C49.2715 161.256 71.137 212.536 116.251 230.678C161.366 248.82 212.645 226.954 230.788 181.84Z" fill="white"/>
</mask>
<g mask="url(#mask31_664_65)">
<path opacity="0.71" d="M81.9061 97.6005C81.696 97.8107 81.4859 98.0208 81.2757 98.0208H81.0656C80.4352 98.4411 80.015 98.8613 80.015 99.4917C79.8048 99.912 79.5947 100.542 79.8048 101.173C79.8048 101.383 79.8048 101.593 80.015 101.803C80.015 102.013 80.015 102.013 80.015 102.223C80.2251 103.064 81.2757 103.694 82.1163 103.484C83.377 103.064 84.4277 102.434 84.8479 101.173C85.058 100.542 85.058 99.7018 84.8479 99.0715C84.8479 98.0208 83.1669 96.76 81.9061 97.6005Z" fill="#C8C6D3"/>
</g>
<mask id="mask32_664_65" style="mask-type:luminance" maskUnits="userSpaceOnUse" x="61" y="60" width="177" height="178">
<path d="M230.788 181.84C248.93 136.725 227.064 85.4459 181.95 67.3038C136.835 49.1617 85.5556 71.0272 67.4136 116.142C49.2715 161.256 71.137 212.536 116.251 230.678C161.366 248.82 212.645 226.954 230.788 181.84Z" fill="white"/>
</mask>
<g mask="url(#mask32_664_65)">
<path opacity="0.71" d="M85.0579 135.844C86.949 135.214 87.3693 133.112 86.739 131.431C85.8984 129.54 84.2174 127.859 82.9566 126.178C81.4857 124.287 78.3337 125.337 78.9641 127.859C79.1743 128.699 79.3844 129.54 80.2249 129.96C80.0148 133.112 81.6958 136.684 85.0579 135.844Z" fill="#C8C6D3"/>
</g>
<mask id="mask33_664_65" style="mask-type:luminance" maskUnits="userSpaceOnUse" x="61" y="60" width="177" height="178">
<path d="M230.788 181.84C248.93 136.725 227.064 85.4459 181.95 67.3038C136.835 49.1617 85.5556 71.0272 67.4136 116.142C49.2715 161.256 71.137 212.536 116.251 230.678C161.366 248.82 212.645 226.954 230.788 181.84Z" fill="white"/>
</mask>
<g mask="url(#mask33_664_65)">
<path opacity="0.71" d="M220.382 160.009C220.382 157.908 218.911 156.647 217.23 155.807C215.549 154.966 213.868 153.915 212.818 152.234C211.557 150.133 208.405 150.974 208.195 153.495C207.985 156.017 209.245 158.328 211.137 160.009C212.607 161.27 214.709 162.741 216.6 162.321C217.02 162.321 217.651 162.531 218.281 162.531C219.332 162.111 220.382 161.27 220.382 160.009Z" fill="#C8C6D3"/>
</g>
<mask id="mask34_664_65" style="mask-type:luminance" maskUnits="userSpaceOnUse" x="61" y="60" width="177" height="178">
<path d="M230.788 181.84C248.93 136.725 227.064 85.4459 181.95 67.3038C136.835 49.1617 85.5556 71.0272 67.4136 116.142C49.2715 161.256 71.137 212.536 116.251 230.678C161.366 248.82 212.645 226.954 230.788 181.84Z" fill="white"/>
</mask>
<g mask="url(#mask34_664_65)">
<path opacity="0.71" d="M245.178 145.51C245.598 145.09 245.809 144.459 246.019 143.619C246.019 141.728 245.808 140.047 245.598 138.155C245.388 137.105 244.758 136.685 244.127 136.264C244.127 136.054 243.917 135.634 243.917 135.424C243.497 133.743 242.026 133.112 240.555 133.322C239.505 132.902 238.454 132.902 237.403 133.743C236.773 133.533 236.143 133.533 235.512 134.163C232.78 136.895 232.991 141.518 233.831 144.88C234.672 148.452 236.983 151.604 240.555 152.444C242.446 152.865 244.338 151.183 243.707 149.292C243.707 149.292 243.707 149.082 243.497 149.082C243.707 148.872 243.917 148.872 244.127 148.662C245.178 148.242 245.598 146.771 245.178 145.51C245.178 145.72 245.178 145.72 245.178 145.51Z" fill="#C8C6D3"/>
</g>
<mask id="mask35_664_65" style="mask-type:luminance" maskUnits="userSpaceOnUse" x="61" y="60" width="177" height="178">
<path d="M230.788 181.84C248.93 136.725 227.064 85.4459 181.95 67.3038C136.835 49.1617 85.5556 71.0272 67.4136 116.142C49.2715 161.256 71.137 212.536 116.251 230.678C161.366 248.82 212.645 226.954 230.788 181.84Z" fill="white"/>
</mask>
<g mask="url(#mask35_664_65)">
<path opacity="0.71" d="M154.612 198.253C153.141 195.311 151.881 191.739 148.729 190.058C146.417 189.007 143.685 189.217 142.004 191.108C140.323 192.789 140.113 195.101 140.534 197.412C139.903 199.514 140.113 202.035 140.954 204.347C142.845 209.18 147.258 212.332 152.301 212.962C155.873 215.694 161.126 217.375 164.278 213.802C166.38 211.491 164.698 207.709 162.807 205.818C160.076 203.086 156.503 202.035 154.612 198.253Z" fill="#C8C6D3"/>
</g>
<mask id="mask36_664_65" style="mask-type:luminance" maskUnits="userSpaceOnUse" x="61" y="60" width="177" height="178">
<path d="M230.788 181.84C248.93 136.725 227.064 85.4459 181.95 67.3038C136.835 49.1617 85.5556 71.0272 67.4136 116.142C49.2715 161.256 71.137 212.536 116.251 230.678C161.366 248.82 212.645 226.954 230.788 181.84Z" fill="white"/>
</mask>
<g mask="url(#mask36_664_65)">
<path opacity="0.71" d="M156.922 191.529C153.981 192.369 154.401 196.152 156.292 197.833C157.132 198.673 158.603 199.304 159.864 198.883C161.125 198.463 162.176 196.992 161.965 195.731C161.965 194.05 160.705 192.159 159.024 191.949C158.393 191.529 157.763 191.319 156.922 191.529Z" fill="#C8C6D3"/>
</g>
<mask id="mask37_664_65" style="mask-type:luminance" maskUnits="userSpaceOnUse" x="61" y="60" width="177" height="178">
<path d="M230.788 181.84C248.93 136.725 227.064 85.4459 181.95 67.3038C136.835 49.1617 85.5556 71.0272 67.4136 116.142C49.2715 161.256 71.137 212.536 116.251 230.678C161.366 248.82 212.645 226.954 230.788 181.84Z" fill="white"/>
</mask>
<g mask="url(#mask37_664_65)">
<path opacity="0.71" d="M134.229 195.311C132.968 195.521 132.128 196.782 131.917 198.042C131.707 199.934 132.968 201.404 134.649 201.825C135.279 202.035 136.33 201.825 136.75 201.194C138.011 199.723 138.431 198.042 138.011 196.151C137.801 194.47 135.49 194.05 134.229 195.311Z" fill="#C8C6D3"/>
</g>
<mask id="mask38_664_65" style="mask-type:luminance" maskUnits="userSpaceOnUse" x="61" y="60" width="177" height="178">
<path d="M230.788 181.84C248.93 136.725 227.064 85.4459 181.95 67.3038C136.835 49.1617 85.5556 71.0272 67.4136 116.142C49.2715 161.256 71.137 212.536 116.251 230.678C161.366 248.82 212.645 226.954 230.788 181.84Z" fill="white"/>
</mask>
<g mask="url(#mask38_664_65)">
<g opacity="0.43">
<path d="M166.799 127.018C178.566 106.846 164.487 74.2758 140.533 72.5948C130.446 71.9644 122.251 76.5873 114.477 82.2608C109.223 84.9925 104.18 88.7748 100.188 92.7673C88.4204 104.324 76.0227 124.287 79.8051 141.517C84.4279 162.53 108.593 168.204 125.824 159.168C133.178 155.386 138.641 148.872 145.156 143.829C152.51 138.365 161.966 135.214 166.799 127.018Z" fill="#E2E0E2"/>
<path d="M205.883 129.12C191.174 129.12 185.29 140.677 181.298 152.654C177.306 156.437 173.313 160.009 168.9 162.741C158.604 169.675 145.996 175.559 143.054 188.797C139.272 206.448 155.242 216.954 171.002 215.483C185.08 214.223 197.268 205.607 207.564 196.572C217.65 187.746 225.215 176.189 227.527 162.741C229.838 147.821 224.164 129.12 205.883 129.12Z" fill="#E2E0E2"/>
</g>
</g>
<path opacity="0.46" d="M195.377 180.812C192.435 184.804 189.493 188.797 187.182 193.209C182.559 202.035 179.617 211.701 174.994 220.526C171.632 226.83 167.009 232.294 161.126 236.286C203.992 230.402 236.983 193.63 236.983 149.082C236.983 100.542 197.688 61.0376 148.938 61.0376C141.583 61.0376 134.649 61.8781 127.715 63.5592C126.454 67.7618 126.034 71.9644 126.244 75.5366C126.874 87.0937 133.809 96.9698 144.105 102.013C152.3 106.216 160.705 104.535 169.321 106.005C177.306 107.266 185.08 109.998 191.384 115.251C206.934 128.489 210.296 149.712 202.731 167.994C200.84 172.827 198.108 176.819 195.377 180.812Z" fill="#E2E0E2"/>
<path opacity="0.46" d="M122.674 221.997C113.428 211.491 107.544 196.782 111.327 183.333C114.478 171.356 124.565 161.9 126.246 149.713C127.507 140.677 123.724 131.011 116.58 125.337C111.537 121.345 105.233 119.244 100.4 115.041C92.8351 108.107 90.9439 96.5496 93.8858 86.6735C94.7263 83.5216 96.1972 80.5798 97.8782 77.6379C75.6044 93.6078 61.1055 119.664 61.1055 149.292C61.1055 194.89 95.7769 232.294 140.114 236.916C133.81 232.504 127.717 227.671 122.674 221.997Z" fill="#E2E0E2"/>
<path opacity="0.14" d="M196.428 74.9062C197.479 80.5798 198.109 86.2533 198.109 92.347C198.109 140.887 158.815 180.391 110.065 180.391C92.6237 180.391 76.2336 175.348 62.5752 166.523C70.5601 206.868 106.282 237.127 148.939 237.127C197.479 237.127 236.983 197.832 236.983 149.082C236.983 117.983 220.803 90.666 196.428 74.9062Z" fill="#E2E0E2"/>
<path opacity="0.67" d="M214.29 90.0354C219.754 101.593 222.906 114.41 222.906 128.069C222.906 176.609 183.611 216.113 134.861 216.113C109.015 216.113 85.6907 204.976 69.5107 187.115C83.7996 216.744 113.848 237.126 148.94 237.126C197.48 237.126 236.984 197.832 236.984 149.082C236.984 126.388 228.369 105.585 214.29 90.0354Z" fill="#E2E0E2"/>
<path opacity="0.65" d="M149.149 61.0376C144.106 61.0376 139.273 61.4579 134.44 62.2984C134.23 62.2984 133.81 62.2984 133.6 62.5085C132.129 62.7186 130.658 63.1389 129.187 63.349C128.977 63.349 128.767 63.5592 128.346 63.5592C123.303 64.8199 118.26 66.501 113.637 68.6023C113.427 68.8124 113.217 68.8124 112.797 69.0225C111.536 69.6529 110.065 70.2833 108.804 70.9137C108.594 71.1238 108.384 71.1238 108.174 71.334C105.022 73.015 102.08 74.696 99.3484 76.5872C98.0876 77.4277 96.6166 78.4784 95.3558 79.529C95.1457 79.7392 94.9356 79.9493 94.7255 79.9493C93.6748 80.7898 92.414 81.8405 91.3634 82.681C91.1532 82.8911 90.9431 83.1012 90.733 83.3114C88.2115 85.6228 85.6899 87.9342 83.3785 90.4558C82.3278 91.7166 81.2772 92.9774 80.2265 94.2381C80.0164 94.4483 79.8062 94.6584 79.5961 94.8685C78.7556 95.9192 77.9151 97.18 77.0746 98.2306C76.8644 98.4407 76.6543 98.6509 76.6543 98.861C74.7631 101.593 72.8719 104.535 71.1909 107.686C64.6769 120.084 60.8945 134.163 60.8945 149.082C60.8945 171.776 69.5098 192.579 83.7987 208.339C72.2415 193.419 65.3073 174.718 65.3073 154.335C65.3073 138.996 69.2998 124.497 76.2341 111.889C83.1683 117.142 91.7837 120.084 101.029 120.084C124.144 120.084 142.845 101.383 142.845 78.2683C142.845 74.2758 142.215 70.7036 141.374 67.1314C145.367 66.501 149.359 66.2908 153.352 66.2908C179.198 66.2908 202.312 77.4277 218.492 95.0787C202.312 74.2758 177.307 61.0376 149.149 61.0376Z" fill="#F0DDF1"/>
<path opacity="0.22" d="M62.5752 133.322C74.1323 147.821 91.7832 157.067 111.746 157.067C146.207 157.067 174.364 129.12 174.364 94.4483C174.364 82.8911 171.212 71.9644 165.539 62.5085C160.286 61.4579 154.822 61.0376 149.149 61.0376C105.862 61.0376 69.9297 92.1368 62.5752 133.322Z" fill="#F0DDF1"/>
<path d="M149.15 236.706C197.776 236.706 237.194 197.288 237.194 148.662C237.194 100.036 197.776 60.6174 149.15 60.6174C100.524 60.6174 61.1055 100.036 61.1055 148.662C61.1055 197.288 100.524 236.706 149.15 236.706Z" fill="url(#paint1_linear_664_65)"/>
<path opacity="0.68" d="M118.261 147.401C139.383 147.401 156.505 130.279 156.505 109.158C156.505 88.0363 139.383 70.9141 118.261 70.9141C97.1399 70.9141 80.0176 88.0363 80.0176 109.158C80.0176 130.279 97.1399 147.401 118.261 147.401Z" fill="url(#paint2_radial_664_65)"/>
<path opacity="0.29" d="M229.209 113.15C229.42 123.656 227.949 134.163 224.166 144.669C207.986 190.478 157.765 214.433 111.957 198.042C88.4224 189.637 70.5613 172.196 61.1055 151.183C61.946 186.485 84.2197 219.476 119.522 231.873C165.33 248.053 215.551 224.099 231.731 178.5C239.716 156.227 238.035 133.112 229.209 113.15Z" fill="url(#paint3_linear_664_65)"/>
<path opacity="0.22" d="M184.66 68.8127C191.805 76.3774 197.688 85.413 201.891 95.4993C220.382 140.257 199.159 191.739 154.191 210.23C131.077 219.686 106.282 218.635 85.0586 209.39C109.434 235.236 147.887 244.692 182.559 230.403C227.317 211.911 248.75 160.429 230.258 115.672C221.433 93.8182 204.623 77.6382 184.66 68.8127Z" fill="url(#paint4_linear_664_65)"/>
<path opacity="0.81" d="M149.15 236.706C197.776 236.706 237.194 197.288 237.194 148.662C237.194 100.036 197.776 60.6174 149.15 60.6174C100.524 60.6174 61.1055 100.036 61.1055 148.662C61.1055 197.288 100.524 236.706 149.15 236.706Z" fill="url(#paint5_linear_664_65)"/>
<defs>
<radialGradient id="paint0_radial_664_65" cx="0" cy="0" r="1" gradientUnits="userSpaceOnUse" gradientTransform="translate(149.058 148.864) scale(145.721 145.576)">
<stop stop-color="#ACFFFB"/>
<stop offset="0.00500786" stop-color="#ABFDF9"/>
<stop offset="0.2252" stop-color="#78B1AF"/>
<stop offset="0.4314" stop-color="#4D7271"/>
<stop offset="0.6173" stop-color="#2C4140"/>
<stop offset="0.7795" stop-color="#141E1D"/>
<stop offset="0.9116" stop-color="#050808"/>
<stop offset="0.9972"/>
</radialGradient>
<linearGradient id="paint1_linear_664_65" x1="86.8367" y1="86.4298" x2="211.28" y2="210.873" gradientUnits="userSpaceOnUse">
<stop stop-color="white"/>
<stop offset="0.0261059" stop-color="#F9FAFA"/>
<stop offset="0.2482" stop-color="#CDD2D2"/>
<stop offset="0.4625" stop-color="#ABB3B3"/>
<stop offset="0.6644" stop-color="#929D9D"/>
<stop offset="0.8489" stop-color="#839090"/>
<stop offset="1" stop-color="#7E8B8B"/>
</linearGradient>
<radialGradient id="paint2_radial_664_65" cx="0" cy="0" r="1" gradientUnits="userSpaceOnUse" gradientTransform="translate(118.345 109.073) scale(38.3449 38.3449)">
<stop stop-color="#ECECEC"/>
<stop offset="0.4693" stop-color="#F1F1F1"/>
<stop offset="1" stop-color="white"/>
</radialGradient>
<linearGradient id="paint3_linear_664_65" x1="140.679" y1="114.509" x2="169.55" y2="234.931" gradientUnits="userSpaceOnUse">
<stop offset="0.2422" stop-color="white"/>
<stop offset="0.9199" stop-color="white"/>
<stop offset="1" stop-color="white"/>
</linearGradient>
<linearGradient id="paint4_linear_664_65" x1="119.902" y1="129.053" x2="221.902" y2="199.268" gradientUnits="userSpaceOnUse">
<stop offset="0.2422" stop-color="white"/>
<stop offset="0.9199" stop-color="white"/>
<stop offset="1" stop-color="white"/>
</linearGradient>
<linearGradient id="paint5_linear_664_65" x1="86.8367" y1="86.4298" x2="211.28" y2="210.873" gradientUnits="userSpaceOnUse">
<stop stop-color="white"/>
<stop offset="0.0261059" stop-color="#F9FAFA"/>
<stop offset="0.2482" stop-color="#CDD2D2"/>
<stop offset="0.4625" stop-color="#ABB3B3"/>
<stop offset="0.6644" stop-color="#929D9D"/>
<stop offset="0.8489" stop-color="#839090"/>
<stop offset="1" stop-color="#7E8B8B"/>
</linearGradient>
</defs>
</svg>
