<svg width="298" height="298" viewBox="0 0 298 298" fill="none" xmlns="http://www.w3.org/2000/svg">
<path opacity="0.54" d="M149 298C231.29 298 298 231.29 298 149C298 66.7096 231.29 0 149 0C66.7096 0 0 66.7096 0 149C0 231.29 66.7096 298 149 298Z" fill="url(#paint0_radial_664_955)"/>
<path d="M214.075 214.189C250.047 178.217 250.047 119.894 214.075 83.9219C178.103 47.9496 119.78 47.9496 83.8076 83.9219C47.8352 119.894 47.8352 178.217 83.8075 214.189C119.78 250.162 178.103 250.162 214.075 214.189Z" fill="#4FB3FF"/>
<path d="M241.114 149C241.114 108.032 214.236 73.3258 177.182 61.3223C178.747 75.1524 179.53 96.5499 174.311 108.032C166.483 125.776 158.655 143.781 139.867 138.562C120.817 133.604 109.336 128.646 94.201 138.562C85.5898 144.303 69.4112 142.476 57.9296 135.953C57.4077 140.128 56.8857 144.564 56.8857 149C56.8857 199.884 98.1152 241.114 149 241.114C199.884 241.114 241.114 199.884 241.114 149Z" fill="#41AAF9"/>
<path d="M209.017 79.0669C201.189 90.0266 188.924 107.771 183.444 123.167C174.572 147.174 157.35 164.918 135.691 158.916C115.077 153.175 74.8909 152.915 59.4951 168.832C68.3673 210.323 105.422 241.375 149.521 241.375C200.406 241.375 241.635 200.146 241.635 149.261C241.113 121.079 228.588 96.0284 209.017 79.0669Z" fill="#2BA1F9"/>
<path d="M149 241.114C199.884 241.114 241.114 199.884 241.114 149C241.114 125.515 232.242 104.117 217.89 87.9387C205.886 117.687 214.236 142.737 193.1 162.047C168.049 185.532 131.778 163.091 108.031 169.876C94.7232 173.529 78.5446 181.618 63.9316 183.706C77.5008 217.368 110.641 241.114 149 241.114Z" fill="#41AAF9"/>
<path d="M137.518 218.412C122.644 223.37 107.248 222.848 94.7227 223.37C109.858 234.591 128.646 241.114 148.999 241.114C199.884 241.114 241.113 199.885 241.113 149C241.113 134.127 237.721 120.296 231.458 108.032C227.805 115.86 224.674 125.515 222.847 137.258C216.062 177.705 166.483 209.018 137.518 218.412Z" fill="#4FB3FF"/>
<path d="M65.7559 109.859C66.5387 110.381 67.0606 110.903 68.1044 111.424C69.67 111.946 71.7576 111.685 73.3233 111.163C78.2812 109.859 82.9783 107.771 87.9362 106.727C92.8942 105.684 98.635 105.945 102.549 108.815C105.42 110.903 107.507 114.295 110.378 116.382C114.031 118.731 118.728 118.731 122.903 118.209C129.688 117.426 136.733 115.6 142.213 111.163C146.91 107.51 150.041 102.03 152.651 96.8115C158.652 84.547 161.784 69.9341 156.043 57.6696C156.043 57.6696 156.043 57.4087 155.782 57.4087C153.434 57.1477 151.085 57.1477 148.737 57.1477C112.204 57.1477 80.6298 78.5453 65.7559 109.859Z" fill="#2BA1F9"/>
<path d="M149.52 187.359C141.692 187.359 133.863 187.098 126.035 187.098C110.639 186.837 81.9353 183.706 69.9318 195.71C69.9318 195.71 69.9318 195.71 69.6709 195.97C75.1508 205.104 82.1963 213.454 90.2856 220.238C110.639 212.932 130.993 205.886 151.086 198.58C154.478 197.536 158.392 195.188 157.61 191.795C157.088 188.142 152.913 187.359 149.52 187.359Z" fill="#4FB3FF"/>
<path d="M81.9355 86.1124C83.2403 86.3734 84.545 86.6343 85.8497 86.6343C88.9811 86.3734 92.1124 85.5906 95.2438 85.3296C98.3751 85.0687 101.767 85.5906 104.116 87.9391C105.421 89.2438 105.943 91.3314 107.247 92.897C109.857 97.0722 115.076 98.8987 120.034 98.6378C124.992 98.3768 129.428 96.0284 133.342 93.158C137.517 90.2876 141.17 85.0686 139.083 80.6325C138.3 79.0669 136.734 77.5012 137.256 75.6746C137.517 74.3699 139.083 73.587 140.387 72.5432C145.345 69.4119 147.694 62.8882 146.911 56.8865C121.077 57.6693 98.1142 68.89 81.9355 86.1124Z" fill="#41AAF9"/>
<path d="M148.998 241.114C199.882 241.114 241.112 199.884 241.112 149C241.112 139.867 239.807 130.995 237.198 122.645C231.979 126.037 227.804 130.995 225.716 136.736C222.324 145.869 223.89 155.785 224.15 165.701C224.15 175.356 222.063 186.315 213.974 191.795C211.886 193.361 209.537 194.144 207.45 195.709C198.578 201.972 196.49 215.802 186.574 219.977C181.877 221.804 176.658 221.282 171.961 223.109C166.742 225.196 163.089 230.154 157.609 231.198C152.651 232.242 147.693 229.371 142.735 227.806C133.602 225.196 123.947 227.284 115.075 230.415C113.509 230.937 111.683 231.72 110.117 232.242C121.86 237.983 135.168 241.114 148.998 241.114Z" fill="#41AAF9"/>
<path d="M110.119 193.883C102.812 191.534 85.0677 196.753 74.6299 203.016C76.7174 205.625 78.805 208.235 80.8926 210.844C103.334 202.494 141.693 195.97 140.91 193.361C139.866 189.969 118.73 196.753 110.119 193.883Z" fill="#2BA1F9"/>
<path d="M221.281 152.393C219.977 161.787 219.977 171.442 216.584 180.575C212.931 190.23 204.32 198.841 195.709 204.843C181.357 215.02 163.873 218.934 147.173 224.414C138.04 227.545 128.646 231.198 120.817 236.939C124.471 237.983 128.124 239.027 131.777 239.548C153.958 228.85 180.835 227.023 200.667 211.105C213.714 200.668 222.847 187.359 225.196 170.659C227.283 155.785 226.239 135.953 237.721 124.993C237.46 123.689 236.938 122.384 236.416 120.818C226.5 127.342 222.847 140.128 221.281 152.393Z" fill="#70C1FF"/>
<path d="M120.035 159.177C123.688 160.743 127.341 162.309 130.733 164.396C134.648 166.484 138.301 169.093 142.476 170.659C155.784 175.617 168.831 170.398 178.486 160.743C190.229 149.261 192.577 135.431 197.274 120.296C201.189 106.988 207.712 95.7676 215.541 85.3297C215.019 84.8078 214.236 84.025 213.714 83.5031C207.973 90.2877 203.276 98.1161 199.623 105.944C193.099 120.296 192.056 138.041 182.14 150.827C172.746 162.831 155.784 171.442 141.432 163.352C142.476 163.352 143.781 163.352 145.085 163.352C153.697 162.57 161.786 159.177 168.309 153.697C176.921 146.652 181.096 136.214 185.532 126.298C190.49 115.599 195.187 104.379 200.406 93.68C203.015 88.722 205.886 83.764 209.539 79.5889C208.234 78.5451 207.19 77.5013 205.886 76.4575C197.796 84.2859 193.099 95.7675 188.141 105.683C178.747 125.776 171.18 153.176 145.607 156.307C125.514 158.655 107.509 142.477 87.4163 151.871C78.8051 155.785 72.2815 162.57 64.1922 167.267C62.6265 168.31 61.0608 169.093 59.4951 169.615C60.017 171.964 60.5389 174.312 61.3218 176.661C68.3673 173.268 74.369 168.31 80.6317 163.613C91.5915 155.785 101.246 153.697 114.294 157.351C116.12 157.873 118.208 158.395 120.035 159.177Z" fill="#70C1FF"/>
<path d="M75.1505 114.817C80.8913 112.207 86.6322 108.554 93.1559 108.293C99.6795 108.032 103.333 112.207 107.769 115.86C113.249 120.818 118.989 123.689 126.818 122.384C141.692 119.775 154.739 107.771 159.958 93.6801C162.828 86.1127 163.611 77.5015 162.046 69.4122C161.524 65.7589 160.219 61.5838 158.653 57.6696C155.522 57.4087 152.391 57.1477 148.998 57.1477C150.825 60.2791 152.651 63.4104 153.695 66.8027C155.522 73.5873 155.783 80.6328 153.956 87.4174C150.825 99.4209 140.909 109.859 129.166 113.773C115.075 118.209 109.334 103.335 96.2872 101.769C91.3292 101.248 86.6322 102.552 81.9351 104.379C79.5866 105.423 75.1506 108.815 72.802 108.815C69.6707 108.815 67.8441 108.293 67.0613 106.988C65.7566 109.337 64.7127 111.685 63.6689 114.034C66.8003 116.904 70.9754 116.643 75.1505 114.817Z" fill="#70C1FF"/>
<path d="M124.47 227.545C145.085 218.412 165.96 210.062 183.705 195.971C199.1 183.967 211.887 168.571 218.41 150.044C223.107 137.258 226.239 122.906 232.501 110.902C231.98 109.859 231.458 108.815 231.197 107.771C225.195 116.904 221.281 127.603 218.149 138.041C210.582 162.831 196.23 181.88 174.572 195.971C154.218 209.54 130.733 215.542 109.074 226.501C107.508 227.284 105.682 228.328 104.116 229.111C106.726 230.415 109.335 231.72 111.945 233.025C116.12 231.198 120.295 229.372 124.47 227.545Z" fill="#70C1FF"/>
<path d="M76.7176 148.479C95.7667 145.347 117.164 124.994 135.952 139.346C136.474 139.606 136.996 139.085 136.735 138.563C124.471 121.34 103.334 132.3 87.9383 138.302C77.2396 142.216 67.8455 142.477 57.4077 139.346C57.1467 141.955 56.8857 144.564 56.8857 147.174C63.4094 148.74 69.933 149.522 76.7176 148.479Z" fill="#70C1FF"/>
<path d="M167.527 102.552C174.573 89.244 173.268 72.5435 167.527 58.9743C166.745 58.7134 165.962 58.7133 164.918 58.4524C169.876 72.8044 168.571 86.6345 164.918 101.508C164.657 103.074 166.745 103.857 167.527 102.552Z" fill="#70C1FF"/>
<path d="M159.437 109.076C153.435 115.6 146.128 119.253 138.822 123.95C137.778 124.733 138.561 126.298 139.605 126.037C147.955 123.95 155.523 117.165 161.002 110.642C161.785 109.598 160.48 108.032 159.437 109.076Z" fill="#70C1FF"/>
<path opacity="0.42" d="M209.537 79.8499C216.322 92.6362 220.236 107.249 220.236 122.906C220.236 173.79 179.007 215.02 128.122 215.02C104.898 215.02 83.7616 206.409 67.583 192.317C82.9788 221.543 113.77 241.375 148.998 241.375C199.882 241.375 241.112 200.146 241.112 149.261C241.112 121.34 228.847 96.8113 209.537 79.8499Z" fill="#4FB3FF"/>
<path opacity="0.26" d="M201.187 73.3262C204.318 82.7202 206.145 92.6362 206.145 103.335C206.145 154.219 164.915 195.449 114.031 195.449C94.721 195.449 76.7157 189.447 61.8418 179.27C74.3672 215.542 108.551 241.375 148.998 241.375C199.882 241.375 241.112 200.146 241.112 149.261C241.112 117.687 225.455 90.0267 201.187 73.3262Z" fill="#4398D8"/>
<path opacity="0.35" d="M60.0176 125.254C70.7164 144.303 90.8091 157.09 114.294 157.09C148.478 157.09 176.138 129.429 176.138 95.2455C176.138 81.4154 171.441 68.629 163.874 58.1912C158.916 57.4084 153.958 56.8865 149 56.8865C106.466 57.1474 70.4554 86.1124 60.0176 125.254Z" fill="#9DBEFF"/>
<path opacity="0.26" d="M212.409 82.4592C222.847 97.3331 228.849 115.599 228.849 134.909C228.849 185.794 187.619 227.023 136.735 227.023C112.206 227.023 90.0257 217.368 73.3252 201.711C90.0257 225.457 117.686 241.114 148.999 241.114C199.884 241.114 241.113 199.885 241.113 149C241.113 122.906 230.154 99.1598 212.409 82.4592Z" fill="#6399C3"/>
<path opacity="0.28" d="M213.454 83.5032C199.624 69.6731 181.097 60.2791 160.221 57.9306C155.785 57.4087 151.61 57.1477 147.435 57.1477C146.391 57.1477 145.608 57.1477 144.565 57.1477C144.304 57.1477 144.304 57.1477 144.043 57.1477C142.216 57.1477 140.65 57.4087 138.824 57.6696C138.563 57.6696 138.563 57.6696 138.302 57.6696C137.258 57.6696 136.475 57.9306 135.432 57.9306C135.432 57.9306 135.432 57.9306 135.171 57.9306C133.344 58.1915 131.778 58.4525 129.952 58.9744C129.691 58.9744 129.43 58.9744 129.43 58.9744C126.82 59.4962 124.211 60.2791 121.601 61.0619C121.34 61.0619 121.08 61.3229 121.08 61.3229C118.47 62.1057 116.122 63.1495 113.512 63.9323C113.251 63.9323 112.99 64.1933 112.99 64.1933C111.425 64.9761 109.859 65.498 108.293 66.2808C107.51 66.8027 106.728 67.0636 105.945 67.5855C105.684 67.5855 105.684 67.8465 105.423 67.8465C103.857 68.6293 102.552 69.4122 101.248 70.195C100.987 70.195 100.987 70.456 100.726 70.456C99.943 70.9778 99.1601 71.4997 98.3773 71.7607C98.3773 71.7607 98.3773 71.7607 98.1163 71.7607C96.8116 72.8045 95.2459 73.5873 93.9412 74.6311C93.6802 74.892 93.6802 74.892 93.4193 75.1529C91.3317 76.7186 89.2442 78.2844 87.4175 80.111C87.1566 80.3719 87.1566 80.3719 86.8956 80.6328C85.069 82.4594 82.9815 84.2861 81.1549 86.1127C80.8939 86.3736 80.8939 86.3737 80.6329 86.6346C79.3282 87.9393 78.2845 89.2441 77.2407 90.5488C76.7188 91.3316 75.9359 92.1144 75.414 92.6363L75.1531 92.8973C74.1093 94.202 73.0656 95.5068 72.2827 97.0724C72.2827 97.3334 72.0218 97.3333 72.0218 97.5943C64.4543 109.076 59.2354 122.645 57.4088 137.258C53.4946 169.615 66.8028 199.885 90.027 219.195C70.1951 199.885 59.4964 171.703 63.1496 142.216C64.7153 128.647 69.4123 116.121 76.1969 105.162C82.7206 110.642 90.8099 114.295 99.682 115.6C124.211 118.731 146.391 101.248 149.523 76.7186C150.044 71.4997 149.784 66.5418 148.74 61.8448C154.22 61.5838 159.96 61.5838 165.701 62.3666C184.228 64.9761 200.407 72.5435 213.454 83.5032Z" fill="white"/>
<path d="M149 241.114C199.873 241.114 241.114 199.873 241.114 149C241.114 98.1273 199.873 56.8865 149 56.8865C98.1266 56.8865 56.8857 98.1273 56.8857 149C56.8857 199.873 98.1266 241.114 149 241.114Z" fill="url(#paint1_linear_664_955)"/>
<path opacity="0.6" d="M149 241.114C199.873 241.114 241.114 199.873 241.114 149C241.114 98.1273 199.873 56.8865 149 56.8865C98.1266 56.8865 56.8857 98.1273 56.8857 149C56.8857 199.873 98.1266 241.114 149 241.114Z" fill="url(#paint2_linear_664_955)"/>
<path opacity="0.48" d="M124.732 132.039C143.179 132.039 158.133 117.084 158.133 98.6376C158.133 80.1907 143.179 65.2366 124.732 65.2366C106.285 65.2366 91.3311 80.1907 91.3311 98.6376C91.3311 117.084 106.285 132.039 124.732 132.039Z" fill="url(#paint3_radial_664_955)"/>
<path opacity="0.49" d="M233.023 111.424C233.284 122.384 231.718 133.343 227.804 144.303C210.842 192.317 158.131 217.368 110.378 200.406C85.5886 191.534 67.0614 173.529 57.1455 151.348C57.9283 188.403 81.4135 222.848 118.468 235.895C166.482 252.856 218.932 227.806 235.893 179.792C243.983 156.567 242.417 132.039 233.023 111.424Z" fill="url(#paint4_linear_664_955)"/>
<path opacity="0.15" d="M186.577 64.9761C194.144 72.8044 200.146 82.1985 204.582 92.8973C223.892 139.868 201.711 193.622 154.741 213.193C130.473 223.109 104.379 222.065 82.1982 212.149C107.51 239.027 147.957 249.204 184.228 234.069C231.198 214.759 253.64 160.743 234.069 113.773C224.936 91.0707 207.452 74.1092 186.577 64.9761Z" fill="url(#paint5_linear_664_955)"/>
<defs>
<radialGradient id="paint0_radial_664_955" cx="0" cy="0" r="1" gradientUnits="userSpaceOnUse" gradientTransform="translate(149.124 149.078) scale(148.9)">
<stop stop-color="#ACFFFB"/>
<stop offset="0.1673" stop-color="#7FBDBA"/>
<stop offset="0.332" stop-color="#588381"/>
<stop offset="0.4894" stop-color="#395453"/>
<stop offset="0.6382" stop-color="#20302F"/>
<stop offset="0.7765" stop-color="#0E1515"/>
<stop offset="0.9002" stop-color="#040605"/>
<stop offset="0.9972"/>
</radialGradient>
<linearGradient id="paint1_linear_664_955" x1="83.9568" y1="83.994" x2="214.126" y2="214.164" gradientUnits="userSpaceOnUse">
<stop stop-color="white"/>
<stop offset="0.9972" stop-color="#003EE7"/>
</linearGradient>
<linearGradient id="paint2_linear_664_955" x1="227.232" y1="197.641" x2="70.851" y2="100.516" gradientUnits="userSpaceOnUse">
<stop stop-color="white"/>
<stop offset="1" stop-color="#ECECEC"/>
</linearGradient>
<radialGradient id="paint3_radial_664_955" cx="0" cy="0" r="1" gradientUnits="userSpaceOnUse" gradientTransform="translate(124.616 98.623) scale(33.2724)">
<stop stop-color="#ECECEC"/>
<stop offset="0.546" stop-color="#EEEEEE"/>
<stop offset="0.8358" stop-color="#F6F6F6"/>
<stop offset="1" stop-color="white"/>
</radialGradient>
<linearGradient id="paint4_linear_664_955" x1="140.359" y1="112.764" x2="170.595" y2="238.88" gradientUnits="userSpaceOnUse">
<stop offset="0.2422" stop-color="white"/>
<stop offset="0.9199" stop-color="white"/>
<stop offset="1" stop-color="white"/>
</linearGradient>
<linearGradient id="paint5_linear_664_955" x1="118.603" y1="127.996" x2="225.426" y2="201.531" gradientUnits="userSpaceOnUse">
<stop offset="0.2422" stop-color="white"/>
<stop offset="0.9199" stop-color="white"/>
<stop offset="1" stop-color="white"/>
</linearGradient>
</defs>
</svg>
