<svg width="298" height="298" viewBox="0 0 298 298" fill="none" xmlns="http://www.w3.org/2000/svg">
<path opacity="0.54" d="M147.945 298C222.124 298 282.258 231.29 282.258 149C282.258 66.7096 222.124 0 147.945 0C73.7666 0 13.6328 66.7096 13.6328 149C13.6328 231.29 73.7666 298 147.945 298Z" fill="url(#paint0_radial_664_819)"/>
<path d="M147.945 240.331C193.414 240.331 230.273 199.441 230.273 149C230.273 98.5595 193.414 57.6692 147.945 57.6692C102.477 57.6692 65.6172 98.5595 65.6172 149C65.6172 199.441 102.477 240.331 147.945 240.331Z" fill="#E7A993"/>
<g opacity="0.66">
<path d="M75.2606 126.037C83.2582 126.037 89.6093 123.688 96.666 120.296C98.3125 119.513 97.3716 116.904 95.7251 116.904C89.1388 116.643 83.023 116.121 76.4368 116.382C74.555 116.382 72.6732 116.382 70.7914 116.382C69.6153 119.513 68.6744 122.645 67.9688 125.776C70.5562 126.037 72.9084 126.037 75.2606 126.037Z" fill="#B2AFFF"/>
<path d="M171.467 84.0244C161.823 96.2888 150.297 106.727 137.595 114.816C125.128 122.644 111.955 128.385 97.842 131.255C88.9036 133.082 76.672 135.17 66.7926 132.56C66.5574 134.648 66.0869 136.474 66.0869 138.562C72.2027 140.128 79.2594 140.128 83.9639 140.128C101.37 139.867 118.542 134.648 134.066 126.298C149.826 117.947 164.41 105.683 176.171 91.3308C180.641 85.851 186.051 78.5445 190.05 70.7161C187.697 69.1505 185.11 67.5848 182.522 66.28C179.7 72.5427 175.701 78.5445 171.467 84.0244Z" fill="#B2AFFF"/>
<path d="M116.191 82.7198C123.953 79.0665 137.596 69.1506 140.183 57.9299C137.361 58.1909 134.538 58.7128 131.715 59.2347C131.48 59.7566 131.245 60.2784 131.01 61.0612C127.952 66.802 122.542 70.9772 117.367 74.3695C111.251 78.2837 100.431 83.2416 91.4921 82.4588C90.316 83.7635 88.9046 85.0683 87.7285 86.634C96.667 89.7653 108.428 86.1121 116.191 82.7198Z" fill="#B2AFFF"/>
<path d="M98.077 169.876C119.012 167.527 138.535 158.916 156.883 147.956C173.584 138.041 189.108 125.254 201.105 108.554C204.868 103.335 208.632 97.333 211.69 91.3312C207.691 85.8514 202.987 80.8934 197.812 76.4573C193.342 84.8075 187.932 92.6359 182.757 98.8986C171.702 111.946 158.294 121.862 144.181 130.212C129.362 138.823 113.602 146.13 96.9009 149C88.6681 150.305 80.2 150.566 71.9672 150.305C69.8502 150.044 67.7332 150.044 65.6162 149.783C65.6162 156.307 66.3219 162.83 67.498 169.093C77.6126 170.92 88.4328 170.659 98.077 169.876Z" fill="#B2AFFF"/>
<path d="M228.39 169.093C228.861 167.266 229.096 165.439 229.331 163.613C215.924 175.616 201.34 186.315 186.05 194.926C170.996 203.537 155.236 210.844 139.006 216.585C127.715 220.499 116.189 224.413 104.428 226.762C106.31 228.066 108.191 229.371 110.073 230.415C137.124 225.979 163.704 213.714 186.756 199.884C201.575 191.012 215.453 180.574 228.39 169.093Z" fill="#B2AFFF"/>
<path d="M145.357 69.1505C139.006 77.7617 130.303 84.2854 121.129 88.9824C107.957 95.506 92.9026 100.464 78.554 99.4202C77.6131 101.247 76.437 103.073 75.4961 104.9C91.4913 107.249 110.074 100.986 122.776 94.9841C133.831 89.7652 144.181 82.4588 151.708 72.0209C154.296 68.3677 157.354 63.4097 159.471 58.1908C156.883 57.9298 154.296 57.408 151.944 57.408C150.062 61.844 147.945 65.7582 145.357 69.1505Z" fill="#B2AFFF"/>
<path d="M177.818 193.882C196.636 183.184 215.218 167.788 230.273 149.783C230.273 149.522 230.273 149.261 230.273 149C230.273 146.129 230.037 142.998 229.802 140.128C225.098 146.39 220.158 152.392 214.748 158.133C203.928 169.354 192.166 179.269 179.229 187.359C165.586 195.97 150.767 201.972 135.478 206.669C121.364 210.844 105.604 215.802 90.7852 215.019C92.1965 216.585 93.6078 217.889 95.2544 219.455C106.78 219.716 119.012 215.541 129.362 212.932C146.063 208.756 162.528 202.755 177.818 193.882Z" fill="#B2AFFF"/>
<path d="M107.486 206.93C131.008 203.538 153.355 194.405 173.819 181.879C192.402 170.398 210.043 156.046 224.157 138.562C225.803 136.736 227.215 134.648 228.626 132.821C226.744 121.079 222.746 110.119 217.335 100.464C213.101 108.032 208.162 114.816 202.752 121.079C190.05 135.692 175.23 147.695 159.235 157.35C142.534 167.527 124.422 175.095 105.604 177.965C95.4898 179.531 85.14 179.792 75.0254 179.009C73.1436 178.748 71.497 178.487 69.6152 178.226C72.9084 189.186 78.0833 199.363 84.6695 207.974C92.4319 208.496 99.959 207.974 107.486 206.93Z" fill="#B2AFFF"/>
<path d="M150.533 83.7634C145.123 88.1995 140.889 94.2012 134.774 97.8544C128.422 101.769 120.895 103.856 115.485 109.075C112.663 111.685 115.72 115.86 118.778 115.338C126.305 113.511 134.538 107.77 141.36 103.334C146.77 99.6811 152.886 93.9403 154.062 86.6338C154.062 84.8072 152.18 82.4586 150.533 83.7634Z" fill="#B2AFFF"/>
</g>
<path d="M217.57 117.426C217.805 115.338 215.688 114.033 214.042 114.555C206.28 116.643 199.693 129.69 194.754 136.214C187.697 145.869 178.288 152.653 169.114 159.438C167.938 160.482 168.644 162.569 170.055 162.308C181.111 158.655 189.343 150.566 198.047 142.737C204.868 136.736 216.629 127.603 217.57 117.426Z" fill="#E79174"/>
<path d="M138.303 126.037C127.718 132.039 117.368 135.692 105.607 138.041C99.7261 139.345 93.8455 140.128 87.9649 140.65C83.9661 141.172 81.6139 140.911 78.556 143.52C77.8503 144.042 78.0855 145.347 78.7912 145.869C86.0831 151.088 102.078 146.391 110.076 144.042C120.896 140.911 131.246 135.953 139.479 127.603C140.184 126.82 139.244 125.515 138.303 126.037Z" fill="#E79174"/>
<g opacity="0.63">
<path d="M170.998 218.151C169.586 219.195 168.41 220.239 167.469 221.543C166.293 222.848 167.704 225.197 169.351 224.153C170.527 223.37 171.703 222.587 172.879 222.065C174.291 221.543 175.232 220.761 176.172 219.717C177.349 218.934 176.878 217.107 175.467 217.107C173.82 217.107 172.409 217.107 170.998 218.151Z" fill="#E79174"/>
<path d="M175.232 117.426C172.409 118.47 170.527 120.035 168.175 122.123C165.823 124.21 163.471 126.037 160.883 128.125C159.942 128.907 159.001 130.473 159.472 131.778C159.707 132.822 160.177 133.082 160.883 133.865C161.589 134.387 163 134.387 163.941 133.865C168.646 129.951 174.761 125.776 176.878 119.513C177.114 118.209 176.173 117.165 175.232 117.426Z" fill="#E79174"/>
<path d="M129.127 150.566C139.007 149.522 149.357 144.042 156.649 136.475C158.295 134.909 156.649 131.256 154.296 132.3C145.123 135.953 135.478 141.694 128.187 148.739C127.716 149.261 128.187 150.566 129.127 150.566Z" fill="#E79174"/>
<path d="M197.814 159.438C198.755 158.133 198.049 155.524 196.167 156.307C186.993 160.221 179.231 167.527 170.528 172.746C160.413 178.748 150.063 184.489 139.478 188.925C138.067 189.447 138.537 192.056 140.184 191.534C150.769 188.664 161.119 184.75 170.998 179.531C180.172 174.312 191.227 168.571 197.814 159.438Z" fill="#E79174"/>
<path d="M168.882 61.5834C164.883 68.368 159.708 73.8478 155.474 80.3715C154.063 82.459 156.65 85.3295 158.532 83.7638C165.353 78.8058 170.528 71.2384 174.527 62.6272C172.645 61.8444 170.999 61.3224 169.117 60.8005C169.117 61.0615 168.882 61.3225 168.882 61.5834Z" fill="#E79174"/>
<path d="M193.814 95.7675C190.286 100.986 185.816 105.422 182.288 110.641C181.112 112.468 183.464 114.816 185.111 113.773C194.755 107.51 200.871 94.2018 204.399 82.7202C203.693 81.9373 202.988 81.4154 202.517 80.6326C199.93 85.8515 197.107 90.8095 193.814 95.7675Z" fill="#E79174"/>
<path d="M212.867 187.62C205.34 193.361 195.46 197.014 189.109 204.321C187.698 205.886 188.639 209.279 190.991 209.279C200.871 208.235 210.279 200.667 218.277 194.666C218.983 194.144 219.688 193.622 220.159 193.1C222.746 187.881 224.863 182.662 226.51 176.921C222.041 180.575 217.571 184.228 212.867 187.62Z" fill="#E79174"/>
<path d="M124.659 85.0685C135.244 80.8934 145.124 69.9336 148.417 57.6692C148.181 57.6692 147.946 57.6692 147.946 57.6692C146.3 57.6692 144.653 57.6692 142.771 57.9302C141.125 61.8443 139.008 65.4975 136.185 68.6289C131.951 73.5868 126.776 76.9792 123.013 82.1981C122.072 83.2418 122.777 85.5904 124.659 85.0685Z" fill="#E79174"/>
<path d="M111.956 107.771C113.603 106.466 113.368 102.813 110.78 103.074C103.018 103.596 95.726 107.249 87.9637 108.032C83.2592 108.554 78.5547 108.554 74.0855 108.554C73.1446 110.642 72.4389 112.729 71.498 114.817C85.3762 116.382 101.607 115.86 111.956 107.771Z" fill="#E79174"/>
<path d="M159.473 227.284C161.59 225.196 159.238 222.326 157.121 222.587C149.594 223.892 142.537 228.589 135.245 230.937C130.305 232.503 125.601 234.069 120.661 235.373C124.425 236.939 128.423 237.983 132.422 239.027C142.537 237.2 152.416 233.808 159.473 227.284Z" fill="#E79174"/>
<path d="M105.84 190.23C115.249 188.403 124.658 186.316 133.831 183.184C141.123 180.575 151.003 177.965 155.472 170.659C156.413 169.093 155.237 166.745 153.59 167.006C146.533 167.267 139.947 172.225 133.361 174.834C125.128 177.704 116.895 179.792 108.427 181.619C95.9604 184.228 83.964 185.011 71.7324 184.228C72.9085 187.359 74.0847 190.23 75.496 193.1C85.6106 193.622 96.1956 192.056 105.84 190.23Z" fill="#E79174"/>
<path d="M121.366 62.3665C113.839 65.2369 106.783 69.1511 100.196 74.37C104.666 74.6309 109.37 73.5871 112.898 71.4996C116.191 69.6729 119.485 66.2806 121.366 62.3665Z" fill="#E79174"/>
</g>
<path opacity="0.36" d="M147.945 57.6692C150.532 59.7568 153.355 61.5833 154.531 66.0194C155.472 69.4117 155.001 73.065 154.296 76.1963C151.473 89.2436 142.77 99.4205 138.065 111.946C136.889 115.338 135.948 119.513 137.83 122.645C139.712 125.515 143.005 126.037 146.063 126.037C160.176 126.298 173.819 120.557 187.933 119.774C194.754 119.252 201.811 120.296 207.221 124.993C211.22 128.646 213.337 133.865 215.219 139.084C218.512 148.478 221.099 158.394 222.746 168.31C223.451 172.746 223.922 177.182 224.863 181.618C228.391 171.442 230.273 160.482 230.273 149C230.273 98.6377 193.343 57.6692 147.945 57.6692Z" fill="#E7A993"/>
<path opacity="0.36" d="M147.946 240.592C163.941 240.592 178.995 235.373 191.697 226.762C190.286 226.501 188.874 226.24 187.463 225.718C184.17 224.935 180.877 223.63 178.525 221.021C173.585 215.541 174.291 206.408 177.348 199.362C180.406 192.317 185.346 186.576 187.934 179.531C188.639 177.704 189.11 175.616 188.639 173.79C187.698 169.093 182.288 168.049 178.054 168.31C169.351 168.832 160.648 170.658 152.415 173.79C148.886 175.095 145.593 176.66 141.83 176.921C138.066 177.182 134.067 176.138 131.95 173.007C129.363 169.354 129.128 163.352 125.129 161.525C123.247 160.742 121.365 161.264 119.484 161.786C105.841 165.7 91.492 174.573 78.3195 169.093C72.9094 166.744 68.6753 162.308 66.0879 156.567C69.1458 203.538 104.665 240.592 147.946 240.592Z" fill="#E7A993"/>
<path opacity="0.15" d="M193.58 73.0647C194.756 79.3274 195.461 85.5901 195.461 92.3747C195.461 142.998 158.531 183.706 113.133 183.706C96.1971 183.706 80.4371 177.965 67.2646 168.31C75.2622 209.539 108.193 240.592 147.946 240.592C193.58 240.592 230.274 199.623 230.274 149.261C230.274 117.425 215.69 89.5043 193.58 73.0647Z" fill="#E7A993"/>
<path opacity="0.15" d="M202.518 80.6321C207.928 92.8965 210.986 106.466 210.986 121.079C210.986 171.702 174.056 212.41 128.658 212.41C107.723 212.41 88.4344 203.538 73.8506 189.185C87.2583 219.455 115.25 240.331 147.946 240.331C193.579 240.331 230.274 199.362 230.274 149C230.274 121.862 219.689 97.5935 202.518 80.6321Z" fill="#E7A993"/>
<path opacity="0.45" d="M202.047 80.3714C187.463 66.2803 168.646 57.6692 147.711 57.6692C142.771 57.6692 138.067 58.1911 133.362 58.9739C133.127 58.9739 133.127 58.9739 132.892 58.9739C131.245 59.2349 129.834 59.7567 128.187 60.0177H127.952C123.012 61.3224 118.308 63.149 113.839 65.2366C113.603 65.2366 113.603 65.4976 113.368 65.4976C111.957 66.2804 110.545 66.8023 109.369 67.5851C109.369 67.5851 109.134 67.5851 109.134 67.8461C104.9 70.4555 100.666 73.3259 96.9024 76.4572C96.6672 76.4572 96.6672 76.7182 96.432 76.7182C95.2559 77.762 94.0798 78.8058 93.1389 79.8496L92.9037 80.1105C90.5514 82.459 88.1992 85.0685 86.0822 87.6779C85.1413 88.9827 83.9652 90.2874 83.0243 91.5921C82.7891 91.8531 82.7891 91.853 82.5539 92.114C81.613 93.4187 80.9073 94.7234 79.9664 96.0282C79.9664 96.2891 79.7312 96.2891 79.7312 96.5501C70.5575 111.424 64.9121 129.168 64.9121 148.739C64.9121 179.27 78.3198 206.147 99.0195 222.848C81.8482 206.147 70.7927 181.357 70.7927 153.958C70.7927 138.823 74.0858 124.21 80.2016 111.685C86.7879 117.165 94.7855 120.557 103.724 120.557C125.129 120.557 142.301 101.247 142.301 77.762C142.301 72.804 141.595 68.107 140.184 63.9319C144.418 63.149 148.887 62.8881 153.121 62.8881C171.703 62.8881 188.404 69.4117 202.047 80.3714Z" fill="#E7A993"/>
<path opacity="0.25" d="M68.4404 124.471C78.7903 138.823 94.5502 147.956 112.192 147.956C143.006 147.956 168.175 120.296 168.175 85.851C168.175 76.196 166.293 67.063 162.765 58.9736C158.06 57.9299 153.121 57.408 147.946 57.408C110.075 57.6689 78.0846 86.112 68.4404 124.471Z" fill="#E7A993"/>
<path opacity="0.76" d="M147.945 240.331C193.414 240.331 230.273 199.441 230.273 149C230.273 98.5595 193.414 57.6692 147.945 57.6692C102.477 57.6692 65.6172 98.5595 65.6172 149C65.6172 199.441 102.477 240.331 147.945 240.331Z" fill="url(#paint1_linear_664_819)"/>
<path opacity="0.15" d="M223.453 110.902C223.688 121.862 222.276 132.821 218.748 143.781C203.459 191.795 155.943 216.846 112.898 199.884C90.5514 191.012 73.8506 173.007 64.9121 150.827C65.6178 187.881 86.7879 222.326 120.19 235.373C163.471 252.334 210.751 227.284 226.04 179.27C233.567 156.045 231.921 131.778 223.453 110.902Z" fill="url(#paint2_linear_664_819)"/>
<path opacity="0.15" d="M181.819 64.4534C188.64 72.2817 194.05 81.6757 198.049 92.3745C215.456 139.345 195.462 193.1 153.122 212.67C131.246 222.586 107.723 221.543 87.7295 211.627C110.546 238.504 147.006 248.681 179.702 233.546C222.042 214.236 242.271 160.22 224.629 113.25C216.397 90.5479 200.637 73.5865 181.819 64.4534Z" fill="url(#paint3_linear_664_819)"/>
<g opacity="0.72">
<path d="M74.3201 190.49C73.8496 189.446 73.6144 188.403 73.1439 187.62C39.2718 210.844 24.4527 225.979 22.5709 232.502C22.3357 233.024 22.3357 233.546 22.5709 233.807V234.068C22.8062 234.329 23.2766 234.59 23.5118 234.59C27.7458 236.156 49.8568 236.417 154.296 175.877C217.101 139.345 259.911 104.117 271.437 89.7651C272.848 87.9385 271.437 85.329 269.32 85.5899C260.617 87.1556 243.681 92.8964 219.218 104.117C219.688 104.9 219.923 105.422 220.394 106.205C240.623 97.0716 254.031 93.1574 255.442 96.2887C258.5 102.812 213.102 135.952 153.826 170.397C94.7845 204.842 44.2115 227.544 41.1536 221.282C39.507 217.628 52.4443 205.886 74.3201 190.49Z" fill="url(#paint4_linear_664_819)"/>
<path d="M214.513 95.767C214.984 96.2888 215.219 96.8107 215.454 97.5935C246.739 83.2415 270.026 75.4131 277.318 78.0226C279.67 78.8054 281.316 80.893 281.552 83.5025C281.787 86.1119 282.257 94.2013 244.857 123.949C220.629 142.998 189.579 163.874 157.589 182.662C144.181 190.49 129.598 198.58 115.484 206.408C74.3201 228.588 34.5673 246.594 21.63 241.897C18.8074 240.853 17.396 239.026 16.6904 237.46C15.9847 236.156 15.279 233.807 16.2199 230.415C19.2778 218.411 43.5058 199.101 70.5565 180.574C70.3213 180.052 70.3213 179.791 70.086 179.27C24.4527 211.105 -4.00929 238.243 0.459953 247.898C6.81098 261.467 78.5541 233.807 160.647 185.793C242.74 137.779 303.898 87.9386 297.547 74.3694C293.078 65.2363 260.146 74.6304 214.513 95.767Z" fill="url(#paint5_linear_664_819)"/>
<path d="M235.919 104.9C236.624 104.9 233.096 109.336 232.861 109.597C231.45 111.163 229.568 112.467 227.921 113.772C223.452 117.425 218.747 121.079 214.043 124.21C207.457 128.907 199.93 132.821 193.814 138.301C193.108 138.823 193.814 139.867 194.519 139.606C208.868 134.126 224.628 122.122 235.683 110.641C237.33 109.075 239.918 106.726 238.741 103.856C238.036 102.029 236.624 101.769 234.978 102.551C234.272 103.334 234.743 105.161 235.919 104.9Z" fill="url(#paint6_linear_664_819)"/>
<path d="M289.551 94.7228C268.616 121.078 239.683 135.952 215.22 157.611C214.515 158.133 215.22 159.437 216.161 158.915C230.98 150.304 245.094 138.823 258.972 128.124C269.792 120.035 286.258 110.119 291.197 95.7666C291.433 94.9838 290.256 93.94 289.551 94.7228Z" fill="url(#paint7_linear_664_819)"/>
<path d="M201.105 166.222C190.755 172.485 178.288 178.226 169.115 186.315C168.644 186.837 169.115 187.881 169.585 187.62C180.876 184.227 192.167 175.355 201.811 168.31C202.987 167.527 202.281 165.7 201.105 166.222Z" fill="url(#paint8_linear_664_819)"/>
<path d="M128.893 208.235C112.193 218.151 94.0804 225.718 77.6148 236.156C76.6739 236.678 77.1443 238.504 78.3205 238.243C96.6679 233.546 113.604 220.238 129.834 210.061C130.54 209.279 129.834 207.713 128.893 208.235Z" fill="url(#paint9_linear_664_819)"/>
<path d="M55.738 208.495C52.9153 208.756 49.3869 214.236 52.4448 216.846C53.8562 218.15 56.2084 216.846 57.6197 216.324C60.4424 215.28 63.5003 214.236 65.6174 211.888C66.0878 211.366 65.8526 210.322 64.9117 210.583C62.5594 210.844 60.4424 212.149 58.0902 212.931C57.1493 213.192 54.5619 214.758 53.8562 213.453C53.3857 212.67 55.2675 210.061 55.9732 209.539C56.6789 209.278 56.4436 208.495 55.738 208.495Z" fill="url(#paint10_linear_664_819)"/>
<path d="M2.57784 254.161C6.81186 257.553 14.5742 258.075 18.8082 254.161C19.2787 253.9 19.0435 252.856 18.3378 252.856C15.9856 252.856 13.6333 254.161 11.2811 254.422C8.45841 254.683 5.63573 254.422 3.04828 253.117C2.57783 252.856 1.87217 253.9 2.57784 254.161Z" fill="url(#paint11_linear_664_819)"/>
<path d="M19.7485 235.112C22.8064 240.07 29.1574 240.331 33.3914 237.46C33.8619 237.199 33.6267 236.416 33.1562 236.416C28.687 237.199 24.2178 238.243 20.219 234.59C19.7485 234.59 19.5133 235.112 19.7485 235.112Z" fill="url(#paint12_linear_664_819)"/>
<path d="M38.3319 237.721C45.8591 235.895 55.268 234.329 61.8543 229.893C62.3247 229.371 62.5599 228.327 61.619 228.327C53.8567 228.327 45.1534 232.763 37.8615 236.156C36.9206 236.156 37.391 237.721 38.3319 237.721Z" fill="url(#paint13_linear_664_819)"/>
<path d="M65.6156 176.66C58.5589 179.269 51.267 184.749 45.6216 190.229C44.916 191.012 45.6216 192.316 46.5625 191.795C53.1488 187.88 60.4407 182.922 66.3213 177.443C66.5565 177.182 66.0861 176.399 65.6156 176.66Z" fill="url(#paint14_linear_664_819)"/>
<path d="M256.384 84.2854C259.912 83.7635 263.676 82.7198 267.204 82.7198C268.851 82.7198 270.497 82.7197 271.909 83.2416C274.026 84.2854 274.261 86.1121 275.202 87.9387C275.437 88.4606 275.907 88.4605 276.378 88.1996C279.671 85.0682 274.731 80.8931 271.909 80.1103C266.499 78.5446 261.088 80.6321 256.149 82.9806C255.443 83.2416 255.678 84.5463 256.384 84.2854Z" fill="url(#paint15_linear_664_819)"/>
<path d="M273.555 91.592C272.849 91.8529 272.379 92.6357 271.673 93.4186C271.203 94.2014 270.732 94.9843 270.732 95.7671C270.732 96.289 271.203 96.8109 271.673 96.8109C273.32 96.289 274.496 94.2014 274.496 92.3748C274.496 91.592 273.79 91.3311 273.555 91.592Z" fill="url(#paint16_linear_664_819)"/>
</g>
<defs>
<radialGradient id="paint0_radial_664_819" cx="0" cy="0" r="1" gradientUnits="userSpaceOnUse" gradientTransform="translate(147.978 149.078) scale(134.222 148.9)">
<stop stop-color="#ACFFFB"/>
<stop offset="0.1673" stop-color="#7FBDBA"/>
<stop offset="0.332" stop-color="#588381"/>
<stop offset="0.4894" stop-color="#395453"/>
<stop offset="0.6382" stop-color="#20302F"/>
<stop offset="0.7765" stop-color="#0E1515"/>
<stop offset="0.9002" stop-color="#040605"/>
<stop offset="0.9972"/>
</radialGradient>
<linearGradient id="paint1_linear_664_819" x1="89.5646" y1="84.419" x2="218.191" y2="200.366" gradientUnits="userSpaceOnUse">
<stop stop-color="#FF0000"/>
<stop offset="0.1057" stop-color="#F30007"/>
<stop offset="0.2983" stop-color="#D20119"/>
<stop offset="0.5563" stop-color="#9D0236"/>
<stop offset="0.8664" stop-color="#55045E"/>
<stop offset="0.9972" stop-color="#340570"/>
</linearGradient>
<linearGradient id="paint2_linear_664_819" x1="140.026" y1="112.324" x2="173.152" y2="236.879" gradientUnits="userSpaceOnUse">
<stop offset="0.2422" stop-color="white"/>
<stop offset="0.9199" stop-color="white"/>
<stop offset="1" stop-color="white"/>
</linearGradient>
<linearGradient id="paint3_linear_664_819" x1="120.5" y1="127.394" x2="222.967" y2="190.977" gradientUnits="userSpaceOnUse">
<stop offset="0.2422" stop-color="white"/>
<stop offset="0.9199" stop-color="white"/>
<stop offset="1" stop-color="white"/>
</linearGradient>
<linearGradient id="paint4_linear_664_819" x1="20.8039" y1="229.783" x2="283.935" y2="114.483" gradientUnits="userSpaceOnUse">
<stop stop-color="#FFB6A0"/>
<stop offset="0.1477" stop-color="#F3ACA1"/>
<stop offset="0.4168" stop-color="#D293A5"/>
<stop offset="0.7744" stop-color="#9E6BAB"/>
<stop offset="0.9943" stop-color="#7A4FAF"/>
</linearGradient>
<linearGradient id="paint5_linear_664_819" x1="-1.58852" y1="243.056" x2="311.313" y2="105.947" gradientUnits="userSpaceOnUse">
<stop stop-color="#FFB6A0"/>
<stop offset="0.1477" stop-color="#F3ACA1"/>
<stop offset="0.4168" stop-color="#D293A5"/>
<stop offset="0.7744" stop-color="#9E6BAB"/>
<stop offset="0.9943" stop-color="#7A4FAF"/>
</linearGradient>
<linearGradient id="paint6_linear_664_819" x1="192.227" y1="134.021" x2="241.551" y2="112.408" gradientUnits="userSpaceOnUse">
<stop stop-color="#FFB6A0"/>
<stop offset="0.1477" stop-color="#F3ACA1"/>
<stop offset="0.4168" stop-color="#D293A5"/>
<stop offset="0.7744" stop-color="#9E6BAB"/>
<stop offset="0.9943" stop-color="#7A4FAF"/>
</linearGradient>
<linearGradient id="paint7_linear_664_819" x1="211.64" y1="148.988" x2="297.31" y2="111.449" gradientUnits="userSpaceOnUse">
<stop stop-color="#FFB6A0"/>
<stop offset="0.1477" stop-color="#F3ACA1"/>
<stop offset="0.4168" stop-color="#D293A5"/>
<stop offset="0.7744" stop-color="#9E6BAB"/>
<stop offset="0.9943" stop-color="#7A4FAF"/>
</linearGradient>
<linearGradient id="paint8_linear_664_819" x1="169.182" y1="186.355" x2="203.263" y2="171.421" gradientUnits="userSpaceOnUse">
<stop stop-color="#FFB6A0"/>
<stop offset="0.1477" stop-color="#F3ACA1"/>
<stop offset="0.4168" stop-color="#D293A5"/>
<stop offset="0.7744" stop-color="#9E6BAB"/>
<stop offset="0.9943" stop-color="#7A4FAF"/>
</linearGradient>
<linearGradient id="paint9_linear_664_819" x1="78.2355" y1="237.837" x2="131.577" y2="214.464" gradientUnits="userSpaceOnUse">
<stop stop-color="#FFB6A0"/>
<stop offset="0.1477" stop-color="#F3ACA1"/>
<stop offset="0.4168" stop-color="#D293A5"/>
<stop offset="0.7744" stop-color="#9E6BAB"/>
<stop offset="0.9943" stop-color="#7A4FAF"/>
</linearGradient>
<linearGradient id="paint10_linear_664_819" x1="52.4897" y1="214.949" x2="64.5111" y2="209.682" gradientUnits="userSpaceOnUse">
<stop stop-color="#FFB6A0"/>
<stop offset="0.1477" stop-color="#F3ACA1"/>
<stop offset="0.4168" stop-color="#D293A5"/>
<stop offset="0.7744" stop-color="#9E6BAB"/>
<stop offset="0.9943" stop-color="#7A4FAF"/>
</linearGradient>
<linearGradient id="paint11_linear_664_819" x1="4.21833" y1="257.407" x2="17.4101" y2="251.626" gradientUnits="userSpaceOnUse">
<stop stop-color="#FFB6A0"/>
<stop offset="0.1477" stop-color="#F3ACA1"/>
<stop offset="0.4168" stop-color="#D293A5"/>
<stop offset="0.7744" stop-color="#9E6BAB"/>
<stop offset="0.9943" stop-color="#7A4FAF"/>
</linearGradient>
<linearGradient id="paint12_linear_664_819" x1="21.3229" y1="238.972" x2="31.8581" y2="234.356" gradientUnits="userSpaceOnUse">
<stop stop-color="#FFB6A0"/>
<stop offset="0.1477" stop-color="#F3ACA1"/>
<stop offset="0.4168" stop-color="#D293A5"/>
<stop offset="0.7744" stop-color="#9E6BAB"/>
<stop offset="0.9943" stop-color="#7A4FAF"/>
</linearGradient>
<linearGradient id="paint13_linear_664_819" x1="39.0118" y1="238.645" x2="61.4884" y2="228.796" gradientUnits="userSpaceOnUse">
<stop stop-color="#FFB6A0"/>
<stop offset="0.1477" stop-color="#F3ACA1"/>
<stop offset="0.4168" stop-color="#D293A5"/>
<stop offset="0.7744" stop-color="#9E6BAB"/>
<stop offset="0.9943" stop-color="#7A4FAF"/>
</linearGradient>
<linearGradient id="paint14_linear_664_819" x1="45.4908" y1="189.664" x2="67.1471" y2="180.174" gradientUnits="userSpaceOnUse">
<stop stop-color="#FFB6A0"/>
<stop offset="0.1477" stop-color="#F3ACA1"/>
<stop offset="0.4168" stop-color="#D293A5"/>
<stop offset="0.7744" stop-color="#9E6BAB"/>
<stop offset="0.9943" stop-color="#7A4FAF"/>
</linearGradient>
<linearGradient id="paint15_linear_664_819" x1="258.822" y1="89.6237" x2="274.75" y2="82.6442" gradientUnits="userSpaceOnUse">
<stop stop-color="#FFB6A0"/>
<stop offset="0.1477" stop-color="#F3ACA1"/>
<stop offset="0.4168" stop-color="#D293A5"/>
<stop offset="0.7744" stop-color="#9E6BAB"/>
<stop offset="0.9943" stop-color="#7A4FAF"/>
</linearGradient>
<linearGradient id="paint16_linear_664_819" x1="271.105" y1="94.8851" x2="274.438" y2="93.4247" gradientUnits="userSpaceOnUse">
<stop stop-color="#FFB6A0"/>
<stop offset="0.1477" stop-color="#F3ACA1"/>
<stop offset="0.4168" stop-color="#D293A5"/>
<stop offset="0.7744" stop-color="#9E6BAB"/>
<stop offset="0.9943" stop-color="#7A4FAF"/>
</linearGradient>
</defs>
</svg>
