<svg width="298" height="298" viewBox="0 0 298 298" fill="none" xmlns="http://www.w3.org/2000/svg">
<path opacity="0.9" d="M149 298C231.29 298 298 231.29 298 149C298 66.7096 231.29 0 149 0C66.7096 0 0 66.7096 0 149C0 231.29 66.7096 298 149 298Z" fill="url(#paint0_radial_657_5)"/>
<path d="M162.783 237.834C211.84 229.979 245.24 183.843 237.386 134.787C229.531 85.7304 183.395 52.3298 134.338 60.1846C85.2818 68.0394 51.8813 114.175 59.7361 163.232C67.5909 212.288 113.727 245.689 162.783 237.834Z" fill="#FFB817"/>
<path d="M148.571 59.0415C140.412 59.0415 132.683 60.115 125.169 62.0473C125.384 62.0473 125.598 62.0473 125.813 62.0473C141.057 63.3355 155.871 68.7029 168.108 77.9349C171.544 80.5112 174.764 83.517 176.267 87.3816C179.487 96.1842 172.832 105.201 166.391 112.286C159.735 119.586 153.08 127.101 146.209 134.4C141.701 139.338 136.977 144.92 136.977 151.361C136.977 158.446 142.345 164.458 147.927 168.752C153.509 173.046 159.95 176.91 163.385 183.137C167.894 191.295 166.391 201.815 161.238 209.544C156.085 217.273 147.712 222.426 139.124 226.076C131.395 229.297 123.451 231.229 115.078 232.302C125.384 236.382 136.548 238.529 148.142 238.529C197.737 238.529 238.1 198.38 238.1 148.57C238.529 99.4046 198.166 59.0415 148.571 59.0415Z" fill="#FFA917"/>
<path d="M138.266 87.3816C132.04 89.958 126.028 93.8225 119.373 95.5401C116.582 96.1842 113.361 96.3989 111.429 94.2519C109.497 91.8903 110.785 88.4551 112.288 85.8787C113.791 83.3024 115.723 80.726 115.293 77.7202C114.649 73.2116 109.282 71.9234 105.203 70.2058C77.5066 85.4493 58.6133 115.078 58.6133 149C58.6133 181.204 75.5744 209.544 101.338 225.432C101.982 225.217 102.626 225.003 103.27 224.788C114.22 221.353 125.599 218.776 134.616 211.906C138.266 209.33 141.272 205.895 142.989 201.601C144.707 197.521 144.492 192.583 141.916 188.933C138.91 184.425 132.469 182.063 131.825 176.696C131.181 172.616 134.616 168.537 134.401 164.458C133.972 157.158 124.096 155.011 119.587 149.214C116.367 145.135 116.152 138.909 118.514 134.186C120.661 129.462 124.955 125.598 129.463 123.021C134.616 120.23 140.413 118.513 145.995 116.151C151.577 113.789 156.945 110.784 160.38 105.846C163.815 100.908 164.459 93.8225 160.809 89.0992C155.442 83.0877 145.566 84.1611 138.266 87.3816Z" fill="#FFA917"/>
<path d="M221.138 95.7546C216.415 97.4722 212.121 99.6192 208.686 101.551C202.674 104.772 196.877 109.71 195.804 116.58C195.375 118.513 195.589 120.445 196.663 121.948C198.38 124.309 201.815 124.309 204.821 124.739C209.974 125.168 214.912 126.886 219.206 129.677C219.85 130.106 220.494 130.536 220.709 131.394C221.138 132.683 220.279 133.971 219.421 134.83C214.268 140.197 206.754 143.417 199.239 143.417C194.516 143.417 189.578 142.344 184.854 143.847C181.205 145.135 178.199 147.926 175.837 150.932C172.831 155.011 170.255 159.949 171.114 165.102C171.973 171.758 177.984 176.696 183.996 179.487C186.572 180.56 189.148 181.634 191.939 181.634C195.589 181.634 199.024 180.131 202.03 178.413C205.68 176.481 209.33 174.334 212.55 171.972C215.771 169.825 218.991 167.464 222.641 166.39C227.15 165.317 231.873 166.39 236.382 166.819C237.455 161.023 238.099 155.226 238.099 149.214C238.529 129.033 232.088 110.783 221.138 95.7546Z" fill="#FFB817"/>
<path d="M238.528 146.209C228.867 150.288 218.346 152.006 208.041 152.65C203.747 152.865 199.238 153.08 195.374 154.582C191.295 156.3 187.859 159.95 187.859 164.244C187.859 165.532 188.074 166.605 188.933 167.679C191.08 170.685 195.588 170.255 199.024 168.752C203.962 166.82 208.47 163.6 213.408 161.238C221.137 157.588 229.94 156.3 238.528 156.3C238.743 153.938 238.957 151.362 238.957 148.786C238.528 148.142 238.528 147.068 238.528 146.209Z" fill="#FFA917"/>
<path d="M210.187 118.728C210.831 121.304 213.192 123.022 215.769 123.88C218.345 124.739 220.921 124.739 223.713 124.954C227.792 125.383 231.871 126.027 235.95 127.101C233.589 118.083 230.153 109.71 225.43 101.981C221.995 103.699 218.774 105.631 215.769 108.207C212.334 110.784 209.113 114.648 210.187 118.728Z" fill="#FFA917"/>
<g opacity="0.66">
<path opacity="0.43" d="M189.364 98.3311C190.438 104.772 204.608 97.687 206.969 94.6812C209.331 91.6755 208.687 87.8109 204.822 86.308C199.455 84.1611 194.946 88.2403 191.511 92.1049C190.438 93.1784 189.579 94.4665 189.149 96.1841C189.149 96.8282 189.149 97.687 189.364 98.3311Z" fill="#FFCB24"/>
<path opacity="0.43" d="M188.934 108.207C188.505 107.348 187.216 106.49 186.143 106.704C185.713 106.704 185.284 106.704 184.855 106.919C183.566 107.348 182.278 108.637 182.278 110.139V110.354C182.278 110.784 182.278 110.998 182.493 111.428V111.642C182.493 113.36 184.211 114.219 185.713 114.004C186.787 113.789 187.86 113.145 188.505 112.286C188.505 112.072 188.719 112.072 188.719 111.857C188.719 111.857 188.719 111.642 188.934 111.428C188.934 111.428 188.934 111.428 188.934 111.213V110.998C188.934 110.784 189.149 110.569 189.149 110.569C189.578 109.71 189.578 108.851 188.934 108.207Z" fill="#FFCB24"/>
<path d="M190.652 128.389C190.438 123.88 187.217 118.942 182.065 120.015C174.121 121.518 176.912 134.615 183.782 135.259C188.72 135.688 190.867 132.253 190.652 128.389Z" fill="#FFCB24"/>
<path d="M183.353 100.263C185.93 100.263 185.93 96.1838 183.353 96.1838C180.777 96.1838 180.777 100.263 183.353 100.263Z" fill="#FFCB24"/>
<path d="M184.855 92.3192C186.358 92.7486 188.291 91.8898 188.505 90.1723V89.9576C189.149 89.0988 189.793 88.24 190.438 87.3812C191.726 85.4489 189.579 82.8726 187.432 83.5166C185.285 84.1607 182.923 86.093 182.708 88.4547C182.494 90.1723 182.923 92.1045 184.855 92.3192Z" fill="#FFCB24"/>
<path opacity="0.43" d="M193.443 85.6637C195.376 85.6637 195.376 82.658 193.443 82.658C191.726 82.658 191.726 85.6637 193.443 85.6637Z" fill="#FFCB24"/>
<path d="M198.381 83.7316C200.958 83.7316 200.958 79.6523 198.381 79.6523C195.805 79.6523 195.805 83.7316 198.381 83.7316Z" fill="#FFCB24"/>
<path d="M222.859 179.272C222.644 178.843 222.214 178.413 221.57 178.199C215.559 176.266 208.474 180.131 204.395 184.425C201.818 187.216 200.745 191.295 202.892 194.516C205.039 198.165 209.333 198.595 213.197 197.307C218.779 195.589 226.294 191.08 226.079 184.425C225.864 182.063 224.576 180.346 222.859 179.272Z" fill="#FFCB24"/>
<path d="M189.579 190.221C189.579 192.583 191.511 194.515 193.873 194.515C196.02 194.515 198.167 192.583 198.167 190.221C198.167 187.86 196.235 185.927 193.873 185.927C191.726 185.927 189.579 187.86 189.579 190.221Z" fill="#FFCB24"/>
<path opacity="0.43" d="M197.309 199.239C195.806 198.38 193.874 197.951 192.371 198.165C188.721 198.595 182.924 203.747 186.789 207.397C190.224 210.618 195.806 207.612 198.168 204.606C199.885 202.245 199.027 200.312 197.309 199.239Z" fill="#FFCB24"/>
<path d="M206.54 201.171C202.89 201.171 202.89 206.754 206.54 206.754C210.19 206.539 210.19 201.171 206.54 201.171Z" fill="#FFCB24"/>
<path d="M200.529 210.403C199.026 210.403 199.026 212.765 200.529 212.765C202.031 212.765 202.031 210.403 200.529 210.403Z" fill="#FFCB24"/>
<path d="M214.7 199.239C211.694 199.239 211.694 203.747 214.7 203.747C217.491 203.747 217.491 199.239 214.7 199.239Z" fill="#FFCB24"/>
</g>
<path opacity="0.39" d="M58.6133 149C58.6133 170.469 66.1277 190.222 78.7948 205.68C78.5801 202.674 79.0095 199.668 79.6536 196.663C81.5859 188.719 86.9533 181.848 92.7502 175.837C94.0383 174.549 95.3265 173.261 95.7559 171.543C96.8294 167.893 93.8236 164.243 90.6032 162.526C87.3827 160.808 83.5182 160.164 80.2977 158.446C72.998 154.367 70.207 143.632 74.9303 136.547C75.5744 135.474 76.4332 134.4 77.7213 133.971C80.9418 132.468 84.1623 134.83 87.3827 136.333C93.8236 139.338 101.982 138.48 107.564 133.971C113.146 129.462 115.723 121.733 114.22 114.648C113.361 110.998 110.999 107.348 107.35 106.49C102.197 105.201 97.4735 109.71 92.3208 110.784C91.2473 110.998 89.9591 110.998 88.8856 110.569C87.8121 109.925 86.9533 108.851 86.5239 107.778C82.6594 100.263 82.8741 92.3196 85.6652 85.2346C68.9188 101.552 58.6133 124.095 58.6133 149Z" fill="#FFCB24"/>
<g opacity="0.64">
<path d="M106.276 170.899C104.129 170.899 102.196 172.832 102.196 174.979C102.196 177.126 103.914 179.058 106.276 179.058C108.423 179.058 110.355 177.126 110.355 174.979C110.14 172.617 108.637 170.899 106.276 170.899Z" fill="#FFCB24"/>
<path opacity="0.63" d="M118.512 159.52C117.868 157.158 116.365 155.226 114.218 154.152C112.071 153.079 109.495 152.65 107.133 153.508C105.416 154.152 103.698 155.011 102.839 156.729C101.98 158.446 101.766 160.379 102.195 162.311C102.41 162.955 102.625 163.384 102.839 163.814C103.054 165.102 103.698 166.176 104.772 167.034L104.557 166.82C104.986 167.249 105.63 167.678 106.06 168.108C106.919 168.537 107.563 168.752 108.421 168.967C108.207 168.967 108.207 168.967 107.992 168.967C109.924 169.181 111.642 169.611 113.574 168.967C117.224 167.464 119.586 163.599 118.512 159.52Z" fill="#FFCB24"/>
<path d="M98.9754 157.158C101.337 157.158 101.337 153.509 98.9754 153.509C96.6137 153.509 96.6137 157.158 98.9754 157.158Z" fill="#FFCB24"/>
<path d="M90.6025 152.864C94.2524 152.864 94.2524 147.068 90.6025 147.068C86.738 147.282 86.738 152.864 90.6025 152.864Z" fill="#FFCB24"/>
<path d="M91.2455 188.075C88.2398 188.075 88.2398 192.584 91.2455 192.584C94.2513 192.584 94.2513 188.075 91.2455 188.075Z" fill="#FFCB24"/>
<path d="M92.3199 199.239C92.3199 197.092 90.6023 195.375 88.4553 195.375C86.5231 195.375 84.5908 197.092 84.5908 199.239C84.5908 201.386 86.3084 203.104 88.4553 203.104C90.3876 203.104 92.3199 201.386 92.3199 199.239Z" fill="#FFCB24"/>
<path opacity="0.63" d="M92.1053 203.318C88.0261 203.318 88.0261 209.759 92.1053 209.759C96.1846 209.759 96.1846 203.318 92.1053 203.318Z" fill="#FFCB24"/>
<path opacity="0.63" d="M107.564 192.584C107.564 192.584 107.564 192.584 107.779 192.369C107.993 191.725 107.993 190.866 107.993 190.222C107.993 188.504 107.135 186.787 105.417 185.928C103.914 183.996 101.123 184.64 99.4056 185.499C97.688 186.572 96.1851 188.075 95.541 190.007C94.8969 191.939 95.1116 194.301 96.1851 196.019C97.688 198.38 100.694 199.669 103.27 198.81C106.061 197.951 107.135 195.589 107.564 192.798C107.349 193.013 107.349 192.798 107.564 192.584Z" fill="#FFCB24"/>
<path d="M111.856 189.792C115.721 189.792 115.721 183.781 111.856 183.781C107.992 183.566 107.992 189.792 111.856 189.792Z" fill="#FFCB24"/>
<path d="M110.997 193.228H110.783C107.992 194.301 107.992 198.166 110.783 199.024H110.997C112.93 199.669 114.862 197.951 114.862 196.019C115.077 194.301 112.93 192.369 110.997 193.228Z" fill="#FFCB24"/>
<path d="M107.992 200.313C106.06 200.313 106.06 203.533 107.992 203.533C109.924 203.533 109.924 200.313 107.992 200.313Z" fill="#FFCB24"/>
<path d="M101.336 203.963C100.048 203.963 100.048 205.895 101.336 205.895C102.624 205.895 102.624 203.963 101.336 203.963Z" fill="#FFCB24"/>
</g>
<g opacity="0.36">
<path d="M92.3213 94.4668C89.3155 94.4668 86.5245 97.0432 86.7392 100.049C86.9539 103.055 89.1008 105.631 92.3213 105.631C95.327 105.631 98.1181 103.055 97.9034 100.049C97.6887 96.8285 95.327 94.4668 92.3213 94.4668Z" fill="#FFCB24"/>
<path d="M89.7444 92.1048C90.6031 92.9636 91.6766 93.1783 92.7501 92.7489C93.8236 92.3195 94.4677 91.246 94.4677 90.1725C94.253 87.5961 91.4619 86.5226 89.7444 88.2402C89.7444 88.2402 89.7443 88.2402 89.5296 88.4549C88.6709 89.3137 88.6709 91.246 89.7444 92.1048Z" fill="#FFCB24"/>
<path d="M99.4074 88.0259C97.9046 88.0259 97.9046 90.3875 99.4074 90.3875C100.91 90.3875 100.91 88.0259 99.4074 88.0259Z" fill="#FFCB24"/>
<path d="M103.915 94.6812C100.48 94.6812 100.48 99.8339 103.915 99.8339C107.136 99.8339 107.136 94.6812 103.915 94.6812Z" fill="#FFCB24"/>
<path d="M104.988 89.7434C102.197 89.7434 102.197 93.8227 104.988 93.8227C107.564 93.8227 107.564 89.7434 104.988 89.7434Z" fill="#FFCB24"/>
<path d="M103.916 74.4998C96.1869 74.4998 96.1869 86.3081 103.916 86.3081C111.43 86.3081 111.43 74.4998 103.916 74.4998Z" fill="#FFCB24"/>
<path d="M94.6839 85.4491C95.9721 85.4491 95.9721 83.5168 94.6839 83.5168C93.3957 83.5168 93.3957 85.4491 94.6839 85.4491Z" fill="#FFCB24"/>
</g>
<g opacity="0.42">
<path d="M183.566 221.997C173.69 229.726 162.096 235.308 150.073 238.958C199.024 238.099 238.529 198.166 238.529 149C238.529 107.563 210.618 72.7824 172.617 62.2622C173.69 62.6916 174.549 63.121 175.408 63.7651C180.131 66.3415 183.781 70.4207 186.572 75.1441C189.148 79.438 190.651 84.376 190.866 89.5288C191.081 97.4726 187.431 104.987 182.493 111.428C173.046 123.88 159.52 132.039 148.141 142.774C144.706 145.994 141.056 150.073 141.271 155.011C141.271 159.305 144.277 162.955 147.712 165.317C151.147 167.679 155.226 168.967 159.091 170.255C167.893 173.69 176.052 178.414 183.351 184.425C189.792 189.792 195.804 197.307 194.945 205.68C194.086 212.336 188.934 217.703 183.566 221.997Z" fill="#FFB817"/>
<path d="M149.859 59.0417C149.43 59.0417 149 59.0417 148.571 59.0417C146.853 59.0417 145.136 59.0417 143.633 59.2564C145.78 59.2564 147.927 59.2564 149.859 59.0417Z" fill="#FFB817"/>
</g>
<path opacity="0.35" d="M215.986 89.5286C222.213 101.766 225.862 115.722 225.862 130.536C225.862 180.131 185.714 220.494 135.904 220.494C109.067 220.494 84.8063 208.686 68.4893 190.007C83.3034 218.991 113.576 238.958 148.571 238.958C198.166 238.958 238.53 198.81 238.53 149C238.53 126.242 229.942 105.416 215.986 89.5286Z" fill="#FFCD5C"/>
<path opacity="0.39" d="M206.54 80.2964C208.043 86.7373 208.687 93.1782 208.687 100.049C208.687 149.644 168.539 190.007 118.729 190.007C96.6152 190.007 76.4337 182.063 60.7607 168.966C69.778 209.115 105.632 239.172 148.572 239.172C198.167 239.172 238.53 199.024 238.53 149.214C238.53 121.304 226.078 96.6134 206.54 80.2964Z" fill="#FFB817"/>
<path opacity="0.61" d="M216.201 89.7432C199.669 71.0646 175.623 59.0415 148.571 59.0415C136.978 59.0415 125.814 61.1885 115.508 65.2677C115.508 65.2677 115.293 65.2677 115.293 65.4824C114.22 65.9118 113.361 66.3412 112.288 66.7706C112.288 66.7706 112.073 66.7706 112.073 66.9853C109.067 68.2735 106.276 69.7764 103.485 71.494C103.27 71.494 103.056 71.7087 103.056 71.7087C102.197 72.138 101.553 72.5674 100.694 73.2115C100.265 73.4262 100.05 73.6409 99.6205 73.8556C98.9764 74.285 98.1176 74.7144 97.4735 75.3585C97.0441 75.5732 96.8294 75.7879 96.4 76.2173C94.2531 77.7202 92.1061 79.4378 90.1738 81.1553C89.7444 81.5847 89.315 82.0141 88.8856 82.2288C88.4562 82.6582 87.8121 83.0876 87.3827 83.7317C86.9533 84.1611 86.5239 84.5905 86.0946 85.0199C85.6652 85.4493 85.2358 85.8787 84.5917 86.5228C84.1623 86.9522 83.7329 87.5963 83.0888 88.0257C68.06 104.128 58.6133 125.812 58.6133 149.644C58.6133 174.334 68.4894 196.663 84.5917 212.98C70.6363 197.092 62.2631 176.481 62.2631 153.723C62.2631 130.965 70.851 110.139 84.8064 94.2519C89.7444 100.478 97.4735 104.343 106.061 104.343C121.09 104.343 133.328 92.1049 133.328 77.0761C133.328 73.2115 132.469 69.5617 131.181 66.3412C138.051 64.6236 145.136 63.7648 152.436 63.7648C177.341 63.1208 199.884 73.2115 216.201 89.7432Z" fill="#FFC747"/>
<path opacity="0.2" d="M63.7646 119.157C72.5672 138.05 91.6753 151.147 113.789 151.147C144.276 151.147 168.966 126.456 168.966 95.9693C168.966 81.7993 163.599 68.9174 154.796 59.0414C152.649 58.8267 150.717 58.8267 148.57 58.8267C109.281 59.0414 76.0024 84.161 63.7646 119.157Z" fill="#FFB817"/>
<path opacity="0.91" d="M148.571 238.958C198.254 238.958 238.53 198.682 238.53 149C238.53 99.3172 198.254 59.0415 148.571 59.0415C98.8889 59.0415 58.6133 99.3172 58.6133 149C58.6133 198.682 98.8889 238.958 148.571 238.958Z" fill="url(#paint1_linear_657_5)"/>
<path opacity="0.68" d="M118.727 139.983C140.426 139.983 158.017 122.488 158.017 100.908C158.017 79.3272 140.426 61.8328 118.727 61.8328C97.0281 61.8328 79.4375 79.3272 79.4375 100.908C79.4375 122.488 97.0281 139.983 118.727 139.983Z" fill="url(#paint2_radial_657_5)"/>
<path opacity="0.25" d="M231.229 113.145C231.444 123.665 229.941 134.4 226.077 144.92C209.545 191.295 158.662 215.556 112.072 199.239C88.0262 190.651 69.9916 173.046 60.5449 151.576C61.4037 187.431 83.947 220.923 120.016 233.591C166.391 250.122 217.489 225.861 234.02 179.272C241.964 156.729 240.247 133.327 231.229 113.145Z" fill="url(#paint3_linear_657_5)"/>
<path opacity="0.37" d="M186.143 68.2737C193.443 76.0028 199.454 85.0201 203.748 95.3256C222.642 140.841 200.957 193.013 155.441 211.906C132.039 221.568 106.705 220.494 85.2354 211.047C109.926 237.241 149 246.902 184.211 232.302C229.727 213.409 251.411 161.238 232.518 115.722C223.286 93.608 206.325 77.0763 186.143 68.2737Z" fill="url(#paint4_linear_657_5)"/>
<defs>
<radialGradient id="paint0_radial_657_5" cx="0" cy="0" r="1" gradientUnits="userSpaceOnUse" gradientTransform="translate(148.962 148.992) scale(149.02)">
<stop stop-color="#FFB300"/>
<stop offset="0.2134" stop-color="#B68000"/>
<stop offset="0.4243" stop-color="#755200"/>
<stop offset="0.6139" stop-color="#432F00"/>
<stop offset="0.7786" stop-color="#1E1500" stop-opacity="0.53"/>
<stop offset="0.9119" stop-color="#080600" stop-opacity="0.68"/>
<stop offset="0.9972" stop-opacity="0.74"/>
</radialGradient>
<linearGradient id="paint1_linear_657_5" x1="85.0262" y1="85.4177" x2="212.174" y2="212.566" gradientUnits="userSpaceOnUse">
<stop stop-color="white"/>
<stop offset="1" stop-color="#DD3D02"/>
</linearGradient>
<radialGradient id="paint2_radial_657_5" cx="0" cy="0" r="1" gradientUnits="userSpaceOnUse" gradientTransform="translate(118.776 100.872) scale(39.2172 39.178)">
<stop stop-color="#ECECEC"/>
<stop offset="0.4693" stop-color="#F1F1F1"/>
<stop offset="1" stop-color="white"/>
</radialGradient>
<linearGradient id="paint3_linear_657_5" x1="141.367" y1="114.486" x2="170.669" y2="236.709" gradientUnits="userSpaceOnUse">
<stop offset="0.2422" stop-color="white"/>
<stop offset="0.3795" stop-color="#FFFFFC"/>
<stop offset="0.4828" stop-color="#FFFEF2"/>
<stop offset="0.5749" stop-color="#FFFDE2"/>
<stop offset="0.6607" stop-color="#FFFBCB"/>
<stop offset="0.7419" stop-color="#FFF8AE"/>
<stop offset="0.8198" stop-color="#FFF589"/>
<stop offset="0.8949" stop-color="#FFF25E"/>
<stop offset="0.9662" stop-color="#FFEE2E"/>
<stop offset="1" stop-color="#FFEC14"/>
</linearGradient>
<linearGradient id="paint4_linear_657_5" x1="120.234" y1="129.228" x2="223.842" y2="200.55" gradientUnits="userSpaceOnUse">
<stop offset="0.2422" stop-color="white"/>
<stop offset="0.4698" stop-color="#FFFFFD"/>
<stop offset="0.5763" stop-color="#FFFEF5"/>
<stop offset="0.6576" stop-color="#FFFDE9"/>
<stop offset="0.7261" stop-color="#FFFCD6"/>
<stop offset="0.7866" stop-color="#FFFABE"/>
<stop offset="0.8414" stop-color="#FFF7A1"/>
<stop offset="0.8919" stop-color="#FFF57E"/>
<stop offset="0.9391" stop-color="#FFF156"/>
<stop offset="0.982" stop-color="#FFEE29"/>
<stop offset="1" stop-color="#FFEC14"/>
</linearGradient>
</defs>
</svg>
