<svg width="298" height="298" viewBox="0 0 298 298" fill="none" xmlns="http://www.w3.org/2000/svg">
<path opacity="0.54" d="M149 298C231.29 298 298 231.29 298 149C298 66.7096 231.29 0 149 0C66.7096 0 0 66.7096 0 149C0 231.29 66.7096 298 149 298Z" fill="url(#paint0_radial_664_886)"/>
<path d="M149.784 240.331C200.225 240.331 241.115 199.441 241.115 149C241.115 98.5595 200.225 57.6692 149.784 57.6692C99.3434 57.6692 58.4531 98.5595 58.4531 149C58.4531 199.441 99.3434 240.331 149.784 240.331Z" fill="#005DC6"/>
<path opacity="0.63" d="M149.782 57.6692C146.912 57.6692 144.041 57.9301 141.171 58.191C139.866 58.452 136.213 70.4555 135.691 72.0212C133.081 79.8496 131.255 87.9388 131.255 96.0282C131.255 104.117 134.647 111.685 141.432 116.382C147.694 120.557 154.479 120.035 161.785 120.035C171.44 120.035 181.356 118.209 191.011 119.774C198.579 121.079 205.885 123.167 212.67 126.82C220.759 130.995 227.805 137.519 232.241 145.608C234.85 150.566 235.894 156.046 236.416 161.526C236.677 164.396 236.677 167.005 236.938 169.876C236.938 171.181 238.243 174.834 237.721 176.139C240.33 167.527 241.635 158.655 241.635 149.261C241.374 98.6377 200.405 57.6692 149.782 57.6692Z" fill="#247EE2"/>
<path opacity="0.63" d="M60.2786 168.049C68.8898 208.496 102.813 236.939 141.955 240.07C146.652 240.592 138.562 212.932 137.258 210.322C129.168 195.187 115.338 184.489 104.9 171.18C101.769 167.266 99.4205 162.83 99.4205 157.872C99.9424 137.257 137.519 147.695 136.214 126.037C135.953 121.34 133.343 117.165 129.951 114.033C122.645 107.771 113.251 105.161 104.378 102.03C100.203 100.464 96.2891 98.8984 92.6359 96.2889C91.5921 95.5061 81.9372 87.4168 82.9809 86.1121C63.41 107.51 54.0159 137.518 60.2786 168.049Z" fill="#247EE2"/>
<path opacity="0.47" d="M110.38 159.96C110.641 165.962 117.686 170.398 122.905 171.963C124.732 172.485 126.558 172.485 128.124 171.441C130.995 169.615 129.951 166.483 130.212 163.874C130.473 161.004 131.516 157.089 129.69 154.741C126.037 149.261 112.728 150.566 110.641 157.089C110.38 157.872 110.38 158.916 110.38 159.96Z" fill="#154B86"/>
<path opacity="0.63" d="M88.7217 81.1545C91.3311 84.2859 95.7672 86.1124 99.1595 86.8953C102.813 87.6781 107.249 87.6781 109.597 84.5468C111.685 81.6764 110.641 77.5013 111.946 74.3699C113.251 71.4995 116.643 69.6729 119.774 68.89C122.906 67.8463 126.298 67.3244 129.168 65.7587C131.517 64.1931 133.343 61.8446 134.387 59.2351C116.904 62.1055 101.247 69.9339 88.7217 81.1545Z" fill="#247EE2"/>
<path opacity="0.25" d="M198.58 132.822C196.753 132.822 195.188 133.083 193.361 133.344C187.881 134.648 180.053 139.084 184.75 145.869C186.577 148.479 189.447 149.522 192.317 150.827C195.188 151.871 198.319 152.915 200.407 155.263C204.06 159.177 203.538 165.701 201.19 170.659C198.841 175.617 194.927 179.792 192.317 184.489C189.708 189.186 188.925 195.71 192.317 200.146C195.449 204.06 201.711 204.843 206.408 202.755C211.105 200.668 214.759 196.493 217.629 192.317C223.109 183.967 227.023 173.79 226.501 163.613C226.24 153.437 221.543 143.26 213.193 137.519C209.279 134.387 204.06 132.822 198.58 132.822Z" fill="#154B86"/>
<path opacity="0.47" d="M102.292 179.531C98.3779 176.399 94.4636 173.268 91.3323 169.354C88.201 165.44 86.1134 160.221 87.1572 155.524C88.7228 147.956 96.8122 144.042 103.336 139.867C106.206 138.04 109.077 135.953 110.903 133.082C112.73 130.212 113.252 126.298 111.425 123.427C109.077 119.513 104.119 118.73 99.6826 117.426C90.2885 114.555 82.4601 107.51 78.285 98.8985C77.5022 97.5938 77.2412 96.0281 76.7193 94.7234C65.2377 110.119 58.4531 128.907 58.4531 149.522C58.4531 191.012 86.1134 225.979 123.69 237.2C125.255 234.329 126.56 231.72 127.343 228.589C128.387 224.153 127.865 219.194 126.56 214.758C122.646 200.406 113.252 188.664 102.292 179.531Z" fill="#368BEA"/>
<path opacity="0.47" d="M151.609 57.6692C149.782 61.3224 148.216 65.2366 147.434 67.5851C144.302 75.4135 141.954 83.7637 140.91 92.114C140.388 95.2453 140.127 98.6376 141.432 101.769C142.998 105.422 146.651 108.032 150.826 109.075C154.74 110.119 158.915 109.858 163.09 109.597C171.963 108.815 181.096 107.51 189.968 107.51C199.101 107.51 208.234 109.075 216.062 113.512C222.847 117.426 228.327 123.428 232.763 129.69C236.155 134.648 239.026 139.606 241.374 145.086C239.287 97.072 200.145 58.713 151.609 57.6692Z" fill="#368BEA"/>
<path opacity="0.47" d="M201.45 150.044C207.452 155.002 209.018 163.874 206.93 171.441C205.364 177.704 202.233 183.445 202.233 189.708C202.233 190.49 202.233 191.012 202.755 191.795C203.799 193.361 206.147 193.1 207.713 192.317C216.063 188.403 220.238 178.748 220.499 169.615C220.76 162.569 218.934 155.263 214.759 149.783C211.366 145.086 205.104 140.911 199.102 140.389C196.492 140.128 194.666 141.172 195.448 144.042C196.231 146.912 199.363 148.478 201.45 150.044Z" fill="#368BEA"/>
<g opacity="0.32">
<path d="M188.925 161.526C188.664 167.789 182.401 169.615 180.052 174.573C179.009 177.183 180.053 181.097 183.445 180.575C192.056 179.792 199.623 168.571 196.492 160.482C195.187 156.307 189.186 156.829 188.925 161.526Z" fill="#368BEA"/>
</g>
<g opacity="0.32">
<path d="M179.531 186.838C173.791 192.056 173.791 201.972 177.966 208.496C181.358 213.976 189.447 219.978 195.449 214.759C197.015 213.454 196.754 210.845 195.449 209.54C192.579 206.408 188.143 206.408 186.055 202.233C183.707 197.797 184.75 192.839 183.967 188.142C183.185 185.794 180.836 185.533 179.531 186.838Z" fill="#368BEA"/>
</g>
<g opacity="0.32">
<path d="M165.7 194.927C164.917 195.449 164.395 196.493 164.134 197.536C163.351 200.929 163.612 206.67 167.526 207.974C168.57 208.235 169.614 207.713 170.136 206.93C171.702 204.321 170.397 201.451 170.136 198.841C169.875 197.015 169.875 193.883 167.005 194.405C166.483 194.405 166.222 194.666 165.7 194.927Z" fill="#368BEA"/>
</g>
<g opacity="0.47">
<path d="M120.559 76.9792C118.993 78.2839 117.688 80.8934 117.427 82.4591C116.645 88.9827 115.862 91.3312 109.077 92.114C107.772 92.375 106.729 94.2016 107.251 95.5064C109.338 100.986 117.427 98.1158 120.82 95.2454C124.473 92.375 124.995 88.1999 124.995 83.7638C124.734 81.6762 124.473 73.326 120.559 76.9792Z" fill="#154B86"/>
</g>
<path opacity="0.47" d="M126.296 159.699C125.774 157.611 124.731 155.524 123.165 154.48C121.077 152.914 117.946 153.697 116.119 155.524C108.03 164.135 129.167 173.007 126.296 159.699Z" fill="#368BEA"/>
<g opacity="0.47">
<path d="M105.161 131.256C100.725 129.168 94.9838 131.517 91.3306 134.126C87.6774 136.736 82.9803 141.172 84.546 146.13C84.8069 147.435 86.3726 148.218 87.6774 147.957C91.3306 147.435 93.6791 143.781 96.5495 141.694C101.507 138.302 102.812 139.084 105.944 136.214C107.248 134.648 107.248 132.3 105.161 131.256Z" fill="#154B86"/>
</g>
<g opacity="0.47">
<path d="M76.7172 156.307C72.2811 165.962 78.0219 176.66 85.8503 182.923C91.5911 187.359 97.071 190.49 100.985 196.753C104.899 203.016 105.421 210.583 109.857 216.585C111.162 218.412 113.511 218.412 114.815 216.585C121.078 207.191 114.032 194.144 107.248 186.837C103.073 182.401 97.8538 179.792 92.6349 176.66C84.5456 171.702 82.9799 165.44 80.3705 156.829C79.5877 155.524 77.2391 154.741 76.7172 156.307Z" fill="#154B86"/>
</g>
<g opacity="0.47">
<path d="M89.2432 200.407C90.287 202.494 91.3308 204.843 92.3745 206.93C93.4183 209.54 93.6793 212.149 96.2887 213.976C97.5935 215.02 100.203 214.498 101.247 213.454C104.117 210.323 102.812 206.147 100.725 203.016C98.6373 200.146 96.2888 198.58 92.8965 197.014C90.287 195.71 88.1995 198.058 89.2432 200.407Z" fill="#154B86"/>
</g>
<g opacity="0.47">
<path d="M158.917 67.0635C156.568 68.1073 154.22 71.4996 152.915 73.0652C148.479 79.067 146.13 86.8954 148.218 94.2018C150.827 103.596 163.092 107.771 170.92 101.769C173.008 100.204 172.225 97.3332 169.876 96.2894C168.311 95.5065 166.484 95.2456 164.657 95.2456C162.831 95.2456 161.004 94.9847 159.439 93.9409C157.873 92.8971 157.09 90.8095 156.829 88.722C156.307 82.4593 159.96 76.1965 163.092 71.2386C164.397 69.151 162.309 66.5416 159.96 66.8025C159.439 66.8025 159.178 66.8026 158.917 67.0635Z" fill="#005DC6"/>
</g>
<g opacity="0.47">
<path d="M169.093 76.9789C167.267 77.2398 165.44 78.5446 164.657 80.1103C163.353 82.1978 163.875 85.851 165.701 87.6777C168.05 89.7652 173.008 88.7215 173.008 85.3292C173.008 85.8511 172.747 86.112 172.747 86.6339C173.791 83.5025 173.791 75.9351 169.093 76.9789Z" fill="#005DC6"/>
</g>
<g opacity="0.38">
<path d="M180.312 162.569C187.097 162.569 187.097 151.87 180.312 151.87C173.527 151.87 173.527 162.569 180.312 162.569Z" fill="#59A7FF"/>
<path d="M169.615 170.659C173.53 170.659 173.53 164.657 169.615 164.657C165.701 164.657 165.701 170.659 169.615 170.659Z" fill="#59A7FF"/>
<path d="M164.134 183.967C167.788 183.967 167.788 178.226 164.134 178.226C160.481 178.487 160.481 183.967 164.134 183.967Z" fill="#59A7FF"/>
<path d="M152.653 191.012C154.218 191.012 154.218 188.403 152.653 188.403C151.087 188.664 151.087 191.012 152.653 191.012Z" fill="#59A7FF"/>
<path d="M179.268 228.327C184.226 228.327 184.226 220.499 179.268 220.499C174.31 220.499 174.31 228.327 179.268 228.327Z" fill="#59A7FF"/>
<path d="M189.706 228.066C193.099 228.066 193.099 222.847 189.706 222.847C186.314 222.847 186.314 228.066 189.706 228.066Z" fill="#59A7FF"/>
<path d="M167.528 233.025C168.833 233.025 168.833 231.198 167.528 231.198C166.224 231.198 166.224 233.025 167.528 233.025Z" fill="#59A7FF"/>
<path d="M190.228 128.385C192.577 128.385 192.577 124.732 190.228 124.732C187.88 124.732 187.88 128.385 190.228 128.385Z" fill="#59A7FF"/>
<path d="M198.841 129.168C201.712 129.168 201.712 124.732 198.841 124.732C195.971 124.732 195.971 129.168 198.841 129.168Z" fill="#59A7FF"/>
<path d="M136.733 91.5919C139.343 91.5919 139.343 87.4167 136.733 87.4167C134.124 87.6777 134.124 91.5919 136.733 91.5919Z" fill="#59A7FF"/>
<path d="M135.17 99.6812C138.04 99.6812 138.04 95.2451 135.17 95.2451C132.561 95.2451 132.561 99.6812 135.17 99.6812Z" fill="#59A7FF"/>
<path d="M138.04 109.075C139.606 109.075 140.911 107.771 140.911 106.205C140.911 104.639 139.606 103.335 138.04 103.335C136.475 103.335 135.17 104.639 135.17 106.205C135.17 107.771 136.214 109.075 138.04 109.075Z" fill="#59A7FF"/>
<path d="M146.129 108.553C145.085 107.51 143.259 107.51 142.476 108.292C142.476 108.292 142.476 108.292 142.476 108.553C140.91 110.38 141.954 113.25 144.303 113.25C146.651 113.25 147.695 110.38 146.129 108.553Z" fill="#59A7FF"/>
</g>
<path opacity="0.51" d="M149.781 240.331C200.222 240.331 241.112 199.441 241.112 149C241.112 98.5595 200.222 57.6692 149.781 57.6692C99.3405 57.6692 58.4502 98.5595 58.4502 149C58.4502 199.441 99.3405 240.331 149.781 240.331Z" fill="url(#paint1_linear_664_886)"/>
<path opacity="0.07" d="M149.781 240.592C200.404 240.592 241.112 199.624 241.112 149.261C241.112 98.6379 200.144 57.9304 149.781 57.9304C143.518 57.9304 137.256 58.4523 131.254 59.757C134.646 60.2789 138.299 60.8008 141.692 61.5836C154.478 64.454 166.742 69.9339 177.18 77.5013C183.182 81.9374 188.662 86.8954 193.62 92.6362C201.448 102.03 207.45 113.251 208.494 125.254C209.538 137.519 204.841 150.305 194.925 157.351C182.399 166.223 163.35 165.179 155.261 178.226C150.303 186.055 151.869 196.493 147.433 204.843C142.214 215.02 129.949 218.934 118.728 221.021C110.9 222.326 103.072 223.109 94.9824 222.848C110.639 233.808 129.427 240.592 149.781 240.592Z" fill="#005DC6"/>
<path opacity="0.21" d="M149.783 240.592C200.406 240.592 241.114 199.624 241.114 149.261C241.114 105.683 210.583 69.4116 169.876 60.0176C170.397 60.5395 170.919 60.8004 171.963 61.3223C189.968 69.9335 205.103 84.5465 214.236 102.03C219.455 111.685 222.847 122.384 224.152 133.604C224.935 139.606 224.935 145.608 222.326 151.088C216.846 162.83 202.494 166.222 191.534 173.268C189.446 174.573 187.359 176.138 186.054 178.226C183.706 182.401 185.01 187.62 184.489 192.317C183.706 200.667 177.182 207.713 170.137 212.149C147.956 226.762 117.947 225.718 93.6794 214.758C87.6776 211.888 81.9369 208.496 76.457 204.842C93.9404 226.501 120.296 240.592 149.783 240.592Z" fill="#005DC6"/>
<path opacity="0.28" d="M149.782 57.6692C116.12 57.6692 82.9803 77.762 68.1064 108.032C62.1046 120.035 58.9732 133.083 58.4513 146.652C57.9294 166.223 63.9312 185.793 74.891 201.711C71.7596 188.403 68.8892 174.312 70.7158 160.743C72.5424 147.174 79.8489 133.343 92.3743 127.342C107.77 119.774 126.558 125.515 143.259 120.818C152.653 118.209 161.525 112.207 171.18 113.512C173.789 113.772 176.399 114.816 179.008 114.816C181.618 114.816 184.749 113.512 185.532 111.163C186.837 107.51 183.444 104.117 183.183 100.203C182.922 94.7234 189.707 91.5921 195.187 91.0702C205.886 90.0264 216.845 92.6359 225.718 98.6376C209.8 74.6306 182.14 58.713 153.436 57.6692C152.392 57.6692 151.087 57.6692 149.782 57.6692Z" fill="#70B2FF"/>
<path opacity="0.58" d="M149.781 57.6692C99.1577 57.6692 58.4502 98.6377 58.4502 149C58.4502 172.746 67.5833 194.405 82.4572 210.583C69.9318 194.927 62.6253 175.095 62.6253 153.697C62.6253 133.343 69.4099 114.294 80.6306 99.1595C86.6323 108.815 97.3311 115.338 109.596 115.338C128.645 115.338 143.779 99.9424 143.779 81.1543C143.779 74.6307 141.953 68.6289 138.822 63.6709C143.779 62.8881 148.737 62.3662 153.695 62.3662C180.312 62.3662 204.58 73.8478 221.28 92.114C204.58 71.2383 178.746 57.6692 149.781 57.6692Z" fill="#005DC6"/>
<path opacity="0.32" d="M232.763 110.641C233.024 121.601 231.458 132.561 227.544 143.521C210.583 191.535 157.872 216.585 110.119 199.624C85.3288 190.752 66.8017 172.746 56.8857 150.566C57.6686 187.62 81.1537 222.065 118.208 235.112C166.222 252.074 218.672 227.023 235.634 179.009C243.723 155.785 242.157 131.517 232.763 110.641Z" fill="url(#paint2_linear_664_886)"/>
<path opacity="0.32" d="M186.314 64.4541C193.881 72.2825 199.883 81.6765 204.319 92.3752C223.629 139.345 201.449 193.1 154.478 212.671C130.211 222.587 104.116 221.543 81.9355 211.627C107.247 238.505 147.694 248.682 183.965 233.547C230.936 214.237 253.377 160.221 233.806 113.251C224.673 90.5486 207.189 73.5872 186.314 64.4541Z" fill="url(#paint3_linear_664_886)"/>
<path opacity="0.43" d="M126.559 144.564C148.609 144.564 166.484 126.689 166.484 104.639C166.484 82.5895 148.609 64.7146 126.559 64.7146C104.51 64.7146 86.6348 82.5895 86.6348 104.639C86.6348 126.689 104.51 144.564 126.559 144.564Z" fill="url(#paint4_radial_664_886)"/>
<path opacity="0.78" d="M65.2356 181.618C64.7137 180.575 64.1918 179.531 63.9309 178.748C26.3547 201.972 9.91511 217.107 7.82755 223.631C7.5666 224.152 7.5666 224.674 7.82755 224.935V225.196C8.08849 225.457 8.61037 225.718 8.87131 225.718C13.5683 227.284 38.0972 227.545 153.957 167.005C223.63 130.473 271.122 95.2453 283.908 80.8932C285.474 79.0666 283.908 76.4572 281.56 76.7181C271.905 78.2838 253.116 84.0246 225.978 95.2453C226.5 96.0281 226.761 96.55 227.283 97.3328C249.724 88.1997 264.598 84.2855 266.164 87.4169C269.556 93.9405 219.194 127.081 153.435 161.525C87.9379 195.97 31.8345 218.673 28.4422 212.41C26.8766 208.757 41.2286 197.014 65.2356 181.618Z" fill="url(#paint5_linear_664_886)"/>
<defs>
<radialGradient id="paint0_radial_664_886" cx="0" cy="0" r="1" gradientUnits="userSpaceOnUse" gradientTransform="translate(149.056 149.078) scale(148.9)">
<stop stop-color="#ACFFFB"/>
<stop offset="0.1673" stop-color="#7FBDBA"/>
<stop offset="0.332" stop-color="#588381"/>
<stop offset="0.4894" stop-color="#395453"/>
<stop offset="0.6382" stop-color="#20302F"/>
<stop offset="0.7765" stop-color="#0E1515"/>
<stop offset="0.9002" stop-color="#040605"/>
<stop offset="0.9972"/>
</radialGradient>
<linearGradient id="paint1_linear_664_886" x1="85.183" y1="84.419" x2="214.502" y2="213.738" gradientUnits="userSpaceOnUse">
<stop stop-color="white"/>
<stop offset="0.0907307" stop-color="#EBEBF6"/>
<stop offset="0.5386" stop-color="#8B8FCE"/>
<stop offset="0.8514" stop-color="#4F55B4"/>
<stop offset="1" stop-color="#383EAA"/>
</linearGradient>
<linearGradient id="paint2_linear_664_886" x1="140.185" y1="112.163" x2="170.421" y2="238.279" gradientUnits="userSpaceOnUse">
<stop offset="0.2422" stop-color="white"/>
<stop offset="0.9199" stop-color="white"/>
<stop offset="1" stop-color="white"/>
</linearGradient>
<linearGradient id="paint3_linear_664_886" x1="118.426" y1="127.394" x2="225.249" y2="200.929" gradientUnits="userSpaceOnUse">
<stop offset="0.2422" stop-color="white"/>
<stop offset="0.3912" stop-color="#FCFFFF"/>
<stop offset="0.5032" stop-color="#F2FFFF"/>
<stop offset="0.6031" stop-color="#E2FEFF"/>
<stop offset="0.696" stop-color="#CBFDFF"/>
<stop offset="0.784" stop-color="#AEFCFF"/>
<stop offset="0.8685" stop-color="#8AFBFF"/>
<stop offset="0.9485" stop-color="#5FF9FF"/>
<stop offset="1" stop-color="#40F8FF"/>
</linearGradient>
<radialGradient id="paint4_radial_664_886" cx="0" cy="0" r="1" gradientUnits="userSpaceOnUse" gradientTransform="translate(126.664 104.604) scale(39.8475)">
<stop stop-color="#ECECEC"/>
<stop offset="0.4693" stop-color="#F1F1F1"/>
<stop offset="1" stop-color="white"/>
</radialGradient>
<linearGradient id="paint5_linear_664_886" x1="5.98089" y1="220.895" x2="287.429" y2="84.0823" gradientUnits="userSpaceOnUse">
<stop stop-color="#77EDF6"/>
<stop offset="0.1562" stop-color="#6BE1F0"/>
<stop offset="0.4408" stop-color="#4CC0E1"/>
<stop offset="0.8189" stop-color="#1A8CC8"/>
<stop offset="0.9943" stop-color="#0071BB"/>
</linearGradient>
</defs>
</svg>
