<svg width="298" height="298" viewBox="0 0 298 298" fill="none" xmlns="http://www.w3.org/2000/svg">
<path opacity="0.54" d="M149 298C231.29 298 298 231.29 298 149C298 66.7096 231.29 0 149 0C66.7096 0 0 66.7096 0 149C0 231.29 66.7096 298 149 298Z" fill="url(#paint0_radial_664_417)"/>
<path d="M223.45 175.305C240.081 130.864 217.537 81.3553 173.096 64.7243C128.655 48.0934 79.1462 70.6379 62.5153 115.079C45.8844 159.52 68.4288 209.028 112.87 225.659C157.311 242.29 206.819 219.746 223.45 175.305Z" fill="#D8C34E"/>
<path opacity="0.13" d="M157.722 60.5181C159.685 64.2001 160.913 68.3731 161.158 73.037C161.404 87.2742 148.639 98.5658 138.084 106.175C125.565 115.258 111.819 120.904 96.8452 124.34C89.2356 126.058 81.3806 127.777 73.5256 127.04C67.6343 126.549 63.9523 124.095 60.5157 120.658C58.7974 126.549 57.57 132.932 57.0791 139.314C66.1615 145.205 78.9259 147.66 88.2537 147.66C111.573 147.414 135.384 138.823 154.53 125.322C172.695 112.558 188.405 94.8838 188.16 71.8096C178.832 66.4093 168.768 62.4818 157.722 60.5181Z" fill="#D83F3F"/>
<path opacity="0.13" d="M210.497 105.193C209.024 112.557 206.079 120.412 201.906 128.267C193.56 143.732 180.796 158.215 166.067 170.243C151.339 182.025 134.156 190.862 115.01 195.035C102 197.981 88.008 198.472 74.2617 196.508C76.4709 199.699 79.1711 202.645 81.8713 205.345C92.9174 208.536 104.7 210.254 116.728 210.254C138.82 210.254 161.158 204.608 181.777 194.544C191.842 189.389 201.66 183.498 210.743 176.625C216.634 172.206 222.28 167.543 227.68 162.388C228.908 156.742 229.398 151.096 229.398 144.959C229.398 125.322 222.771 107.157 211.725 92.6743C211.479 96.8473 211.234 101.02 210.497 105.193Z" fill="#D83F3F"/>
<g opacity="0.25">
<path d="M146.919 84.3288C145.201 85.5561 143.973 86.538 142.746 88.2563C141.519 89.7291 140.537 91.4474 139.555 92.9202C138.573 94.393 140.537 95.6204 141.764 94.6385C143.237 93.4112 144.71 92.1838 145.937 90.711C147.165 89.2382 148.146 87.7654 149.128 86.2926C149.374 85.0652 148.146 83.3469 146.919 84.3288Z" fill="#D83F3F"/>
</g>
<g opacity="0.25">
<path d="M168.274 123.604C168.765 123.849 169.502 124.095 170.729 124.095C174.902 123.849 177.111 119.676 179.566 116.976C184.475 111.821 188.894 105.685 190.121 98.5661C190.366 97.3388 188.894 96.8478 188.403 97.8297C184.966 102.494 182.757 107.894 179.32 112.558C176.866 115.994 172.447 117.222 169.502 120.167C167.783 121.886 167.538 123.113 168.274 123.604Z" fill="#D83F3F"/>
</g>
<path opacity="0.25" d="M115.745 101.021C108.872 101.757 72.0511 114.031 67.6327 103.475C65.9144 106.666 64.4416 109.858 62.9688 113.049C64.687 114.767 66.8962 116.24 69.3509 116.976C83.8336 121.64 105.189 115.749 117.463 107.648C120.163 105.93 119.427 100.775 115.745 101.021Z" fill="#D83F3F"/>
<path opacity="0.25" d="M150.11 67.1455C150.355 71.8094 149.374 75.9823 148.883 80.4008C148.637 82.3646 151.583 82.8555 152.565 81.3827C156.001 75.9824 156.492 66.9 154.037 60.0268C152.319 59.7814 150.601 59.5359 148.883 59.5359C149.374 61.9906 149.865 64.4453 150.11 67.1455Z" fill="#D83F3F"/>
<path opacity="0.25" d="M204.36 85.0652C203.624 89.2382 202.887 93.4111 201.905 97.5841C199.696 105.685 196.505 113.54 192.823 121.149C185.213 135.877 174.167 147.169 162.63 158.951C160.912 160.67 163.121 163.37 165.085 162.143C180.304 153.797 191.841 138.823 199.451 123.604C204.115 114.522 208.533 102.739 209.76 91.4474C208.288 89.2381 206.324 87.0289 204.36 85.0652Z" fill="#D83F3F"/>
<path opacity="0.25" d="M161.649 129.495C143.975 137.105 127.038 145.942 107.891 149.133C90.9539 152.079 73.2801 150.851 57.0791 144.714C57.0791 144.96 57.0791 145.205 57.0791 145.205C57.0791 146.187 57.0791 147.169 57.0791 147.906C90.9539 162.143 133.175 151.097 162.386 130.723C163.367 130.232 162.386 129.004 161.649 129.495Z" fill="#D83F3F"/>
<path opacity="0.25" d="M182.267 204.364C166.557 210.5 150.601 216.146 133.418 217.619C120.409 218.846 106.908 217.865 93.6523 215.655C97.0889 218.11 100.771 220.074 104.453 222.037C131.455 226.456 160.911 221.792 183.003 206.573C184.476 206.082 183.74 203.873 182.267 204.364Z" fill="#D83F3F"/>
<path opacity="0.13" d="M140.536 152.815C114.026 153.06 85.7966 171.716 58.7949 162.879C60.2677 169.507 62.477 176.134 65.1771 182.026C72.7867 184.48 81.1327 185.217 89.7241 184.48C100.034 183.498 110.098 181.535 119.917 178.098C130.963 174.171 138.327 170.243 145.2 160.915C147.655 157.479 144.464 152.569 140.536 152.815Z" fill="#D83F3F"/>
<path opacity="0.13" d="M103.963 82.8558C95.8627 86.2924 88.2531 86.7833 80.1526 86.5379C76.9615 89.729 74.2613 93.411 71.8066 97.0931C93.1625 115.012 143.729 86.5379 137.347 59.2908C134.892 59.5362 132.438 59.7817 130.228 60.0272C129.737 72.0552 113.782 78.9283 103.963 82.8558Z" fill="#D83F3F"/>
<g opacity="0.85">
<g opacity="0.25">
<path d="M127.774 125.568C132.929 125.568 132.929 117.713 127.774 117.713C122.864 117.713 122.864 125.568 127.774 125.568Z" fill="#E5B55E"/>
</g>
<g opacity="0.25">
<path d="M136.122 123.358C142.013 123.358 142.013 114.276 136.122 114.276C130.23 114.03 130.23 123.358 136.122 123.358Z" fill="#E5B55E"/>
</g>
<g opacity="0.25">
<path d="M142.012 117.222C143.73 117.222 143.73 114.276 142.012 114.276C140.048 114.521 140.048 117.222 142.012 117.222Z" fill="#E5B55E"/>
</g>
<g opacity="0.25">
<path d="M146.185 115.258C149.621 115.258 149.621 109.858 146.185 109.858C142.748 109.612 142.748 115.258 146.185 115.258Z" fill="#E5B55E"/>
</g>
<g opacity="0.25">
<path d="M154.775 109.612C155.021 109.612 155.021 109.367 155.266 109.367C156.248 108.63 156.985 107.403 156.739 105.93C156.248 104.703 155.266 103.721 153.793 103.721C153.548 103.721 153.548 103.721 153.302 103.721C151.339 103.966 149.866 105.685 150.357 107.648C150.848 109.612 153.057 110.84 154.775 109.612Z" fill="#E5B55E"/>
</g>
<g opacity="0.25">
<path d="M163.368 101.02C163.613 101.02 163.613 101.02 163.368 101.02C164.104 98.8112 162.631 96.602 160.667 96.1111H160.422C157.231 95.1292 154.04 99.0567 156.003 102.002C156.74 103.23 157.967 103.966 159.44 103.966C161.649 103.966 162.877 102.739 163.368 101.02Z" fill="#E5B55E"/>
</g>
<g opacity="0.25">
<path d="M164.103 96.1113C165.576 96.1113 166.558 94.8839 166.558 93.6566C166.558 92.1838 165.33 91.2019 164.103 91.2019C162.63 91.2019 161.648 92.4293 161.648 93.6566C161.648 94.8839 162.876 96.1113 164.103 96.1113Z" fill="#E5B55E"/>
</g>
<g opacity="0.25">
<path d="M167.049 88.011C169.503 88.011 169.503 84.0835 167.049 84.0835C164.348 84.329 164.348 88.011 167.049 88.011Z" fill="#E5B55E"/>
</g>
<g opacity="0.25">
<path d="M122.128 125.813C122.128 125.568 122.128 125.568 122.128 125.813C122.865 123.85 121.147 122.131 119.674 122.131C117.956 122.131 116.483 123.85 116.974 125.568V125.813C117.956 128.268 121.147 128.268 122.128 125.813Z" fill="#E5B55E"/>
</g>
<g opacity="0.25">
<path d="M73.0353 173.68C74.7536 173.68 74.7536 170.734 73.0353 170.734C71.0716 170.979 71.0716 173.68 73.0353 173.68Z" fill="#E5B55E"/>
</g>
<g opacity="0.25">
<path d="M79.9084 175.153C82.8541 175.153 82.8541 170.489 79.9084 170.489C76.9628 170.489 76.9628 175.153 79.9084 175.153Z" fill="#E5B55E"/>
</g>
<g opacity="0.25">
<path d="M88.7454 177.116C91.2001 177.116 93.6548 174.907 93.4093 172.452C93.4093 169.998 91.2001 167.788 88.7454 167.788C86.2907 167.788 83.836 169.998 84.0815 172.452C84.0815 174.907 86.0452 177.116 88.7454 177.116Z" fill="#E5B55E"/>
</g>
<g opacity="0.25">
<path d="M97.335 176.625C100.281 176.625 103.226 173.925 102.981 170.979C102.735 167.788 100.526 165.333 97.335 165.333C94.3893 165.333 91.4437 168.034 91.6892 170.979C91.9346 173.925 94.1439 176.625 97.335 176.625Z" fill="#E5B55E"/>
</g>
<g opacity="0.25">
<path d="M107.646 170.98C108.873 169.752 108.873 167.789 107.646 166.561C107.646 166.561 107.646 166.561 107.646 166.316C105.927 164.352 102 165.825 102.245 168.525C102.245 169.507 102.736 170.734 103.718 171.225C104.946 172.207 106.664 172.207 107.646 170.98Z" fill="#E5B55E"/>
</g>
<g opacity="0.25">
<path d="M112.8 169.261C114.273 169.261 115.5 168.034 115.5 166.561C115.5 165.088 114.273 163.861 112.8 163.861C111.327 163.861 110.1 165.088 110.1 166.561C110.1 168.034 111.327 169.261 112.8 169.261Z" fill="#E5B55E"/>
</g>
<g opacity="0.25">
<path d="M119.675 167.788C124.094 167.788 124.094 160.915 119.675 160.915C115.257 160.915 115.257 167.788 119.675 167.788Z" fill="#E5B55E"/>
</g>
<g opacity="0.25">
<path d="M218.106 127.04C225.47 127.04 225.47 115.749 218.106 115.749C210.742 115.749 210.742 127.04 218.106 127.04Z" fill="#E5B55E"/>
</g>
<g opacity="0.25">
<path d="M215.408 134.65C217.372 134.65 219.335 132.932 219.335 130.722C219.335 128.513 217.617 126.795 215.408 126.795C213.444 126.795 211.48 128.513 211.48 130.722C211.48 132.932 213.199 134.65 215.408 134.65Z" fill="#E5B55E"/>
</g>
<g opacity="0.25">
<path d="M211.235 140.541C215.408 140.541 215.408 134.159 211.235 134.159C207.062 134.159 207.062 140.541 211.235 140.541Z" fill="#E5B55E"/>
</g>
<g opacity="0.25">
<path d="M205.834 145.941C208.78 145.941 208.78 141.523 205.834 141.523C202.889 141.277 202.889 145.941 205.834 145.941Z" fill="#E5B55E"/>
</g>
<g opacity="0.25">
<path d="M198.961 157.97C205.589 157.97 205.589 147.906 198.961 147.906C192.333 147.906 192.333 157.97 198.961 157.97Z" fill="#E5B55E"/>
</g>
<g opacity="0.25">
<path d="M193.313 166.561C198.713 166.561 198.713 157.969 193.313 157.969C187.913 157.969 187.913 166.561 193.313 166.561Z" fill="#E5B55E"/>
</g>
<g opacity="0.25">
<path d="M187.424 170.243C188.897 170.243 190.124 169.016 190.124 167.543C190.124 166.07 188.897 164.843 187.424 164.843C185.951 164.843 184.724 166.07 184.724 167.543C184.724 169.016 185.951 170.243 187.424 170.243Z" fill="#E5B55E"/>
</g>
<g opacity="0.25">
<path d="M179.813 174.907C182.513 174.907 182.513 170.489 179.813 170.489C176.867 170.734 176.867 174.907 179.813 174.907Z" fill="#E5B55E"/>
</g>
<g opacity="0.25">
<path d="M189.388 206.327C194.542 206.327 194.542 198.227 189.388 198.227C184.233 198.227 184.233 206.327 189.388 206.327Z" fill="#E5B55E"/>
</g>
<g opacity="0.25">
<path d="M196.995 200.927C200.677 200.927 200.677 195.036 196.995 195.036C193.068 195.036 193.068 200.927 196.995 200.927Z" fill="#E5B55E"/>
</g>
<g opacity="0.25">
<path d="M203.871 187.181H203.625C201.171 187.181 198.716 189.39 198.716 192.09C198.716 194.79 200.925 196.999 203.625 196.999H203.871C206.325 196.999 208.78 194.79 208.78 192.09C208.78 189.39 206.571 187.181 203.871 187.181Z" fill="#E5B55E"/>
</g>
<g opacity="0.25">
<path d="M211.481 190.371C213.445 190.371 215.163 188.653 215.163 186.689C215.163 184.726 213.69 183.007 211.481 183.007C209.517 183.007 207.799 184.726 207.799 186.689C208.044 188.653 209.517 190.371 211.481 190.371Z" fill="#E5B55E"/>
</g>
<g opacity="0.25">
<path d="M216.143 182.026C217.616 182.026 217.616 179.817 216.143 179.817C214.67 179.817 214.67 182.026 216.143 182.026Z" fill="#E5B55E"/>
</g>
<g opacity="0.25">
<path d="M218.845 178.835C221.3 178.835 221.3 174.907 218.845 174.907C216.39 174.907 216.39 178.835 218.845 178.835Z" fill="#E5B55E"/>
</g>
<g opacity="0.25">
<path d="M100.527 194.299C102.245 194.299 102.245 191.354 100.527 191.354C98.5628 191.354 98.5628 194.299 100.527 194.299Z" fill="#E5B55E"/>
</g>
<g opacity="0.25">
<path d="M106.419 194.545C109.61 194.545 109.61 189.635 106.419 189.635C103.228 189.635 103.228 194.545 106.419 194.545Z" fill="#E5B55E"/>
</g>
<g opacity="0.25">
<path d="M113.536 194.054C115.254 194.054 116.973 192.581 116.973 190.617C116.973 188.899 115.5 187.181 113.536 187.181C111.818 187.181 110.1 188.654 110.1 190.617C110.345 192.581 111.572 194.054 113.536 194.054Z" fill="#E5B55E"/>
</g>
<g opacity="0.25">
<path d="M121.883 191.108C125.074 191.108 125.074 186.198 121.883 186.198C118.691 186.198 118.691 191.108 121.883 191.108Z" fill="#E5B55E"/>
</g>
<g opacity="0.25">
<path d="M127.283 189.389C130.72 189.389 130.72 184.235 127.283 184.235C124.092 184.235 124.092 189.389 127.283 189.389Z" fill="#E5B55E"/>
</g>
<g opacity="0.25">
<path d="M132.438 185.462C134.156 185.462 134.156 182.762 132.438 182.762C130.72 182.762 130.72 185.462 132.438 185.462Z" fill="#E5B55E"/>
</g>
<g opacity="0.25">
<path d="M84.8168 98.3208C89.7262 98.3208 89.7262 90.7112 84.8168 90.7112C79.9074 90.7112 79.9074 98.3208 84.8168 98.3208Z" fill="#E5B55E"/>
</g>
<g opacity="0.25">
<path d="M93.4079 96.602C95.8626 96.602 96.1081 92.6745 93.4079 92.6745C90.7078 92.429 90.7078 96.602 93.4079 96.602Z" fill="#E5B55E"/>
</g>
<g opacity="0.25">
<path d="M101.019 96.8476C105.928 96.8476 105.928 89.238 101.019 89.238C96.1096 89.238 96.1096 96.8476 101.019 96.8476Z" fill="#E5B55E"/>
</g>
<g opacity="0.25">
<path d="M110.102 91.9381C113.784 91.9381 113.784 86.0469 110.102 86.0469C106.174 86.0469 106.174 91.9381 110.102 91.9381Z" fill="#E5B55E"/>
</g>
<g opacity="0.25">
<path d="M115.255 87.7655C117.71 87.7655 117.71 84.0835 115.255 84.0835C112.8 84.0835 112.8 87.7655 115.255 87.7655Z" fill="#E5B55E"/>
</g>
<g opacity="0.25">
<path d="M120.166 84.0831C121.148 84.0831 121.148 82.6104 120.166 82.6104C119.184 82.6104 119.184 84.0831 120.166 84.0831Z" fill="#E5B55E"/>
</g>
<g opacity="0.25">
<path d="M123.601 82.6106C126.792 82.6106 126.792 77.7012 123.601 77.7012C120.41 77.7012 120.41 82.6106 123.601 82.6106Z" fill="#E5B55E"/>
</g>
<g opacity="0.25">
<path d="M63.9526 162.142C69.8439 162.142 69.8439 153.06 63.9526 153.06C58.0614 152.814 58.0614 162.142 63.9526 162.142Z" fill="#E5B55E"/>
</g>
<g opacity="0.25">
<path d="M73.2807 157.478C72.5443 156.742 71.0714 156.742 70.5805 157.233C70.5805 157.233 70.5805 157.233 70.5805 157.478C69.3532 158.706 70.0896 160.915 72.0533 160.915C73.7716 160.915 74.508 158.951 73.2807 157.478Z" fill="#E5B55E"/>
</g>
<g opacity="0.25">
<path d="M78.4348 161.406C81.3804 161.406 81.3804 156.988 78.4348 156.988C75.4892 156.988 75.4892 161.406 78.4348 161.406Z" fill="#E5B55E"/>
</g>
<g opacity="0.25">
<path d="M194.788 90.4653C197.243 90.4653 199.452 88.2561 199.452 85.8014C199.452 83.3467 197.488 81.1375 194.788 81.1375C192.333 81.1375 190.124 83.3467 190.124 85.8014C190.369 88.2561 192.333 90.4653 194.788 90.4653Z" fill="#E5B55E"/>
</g>
<g opacity="0.25">
<path d="M196.26 98.0747C200.188 98.0747 200.188 92.1834 196.26 92.1834C192.333 91.938 192.333 98.0747 196.26 98.0747Z" fill="#E5B55E"/>
</g>
<g opacity="0.25">
<path d="M195.277 103.23C197.977 103.23 197.977 98.8118 195.277 98.8118C192.577 98.8118 192.577 103.23 195.277 103.23Z" fill="#E5B55E"/>
</g>
<g opacity="0.25">
<path d="M193.804 106.912C194.541 106.912 194.786 105.684 193.804 105.684C193.068 105.684 193.068 106.912 193.804 106.912Z" fill="#E5B55E"/>
</g>
<g opacity="0.25">
<path d="M158.948 155.76C161.403 155.76 163.612 153.551 163.612 151.097C163.612 148.642 161.648 146.433 158.948 146.433C156.493 146.433 154.284 148.642 154.284 151.097C154.284 153.797 156.248 155.76 158.948 155.76Z" fill="#E5B55E"/>
</g>
<g opacity="0.25">
<path d="M167.049 148.396C173.186 148.396 173.186 138.823 167.049 138.823C160.912 138.823 160.912 148.396 167.049 148.396Z" fill="#E5B55E"/>
</g>
<g opacity="0.25">
<path d="M173.923 140.541C177.114 140.541 177.114 135.632 173.923 135.632C170.977 135.632 170.977 140.541 173.923 140.541Z" fill="#E5B55E"/>
</g>
<g opacity="0.25">
<path d="M178.096 135.141C180.06 135.141 180.06 132.195 178.096 132.195C176.132 131.95 176.132 135.141 178.096 135.141Z" fill="#E5B55E"/>
</g>
<g opacity="0.25">
<path d="M155.267 161.406C157.721 161.406 157.967 157.479 155.267 157.479C152.812 157.479 152.812 161.406 155.267 161.406Z" fill="#E5B55E"/>
</g>
<g opacity="0.25">
<path d="M151.34 166.07C153.795 166.07 153.795 162.388 151.34 162.388C148.885 162.388 148.885 166.07 151.34 166.07Z" fill="#E5B55E"/>
</g>
</g>
<path opacity="0.17" d="M157.72 60.5181C157.229 61.009 156.984 61.7454 156.738 62.4818C152.811 70.3368 150.111 78.9283 149.374 87.7652C148.638 94.3928 149.374 101.757 153.547 106.912C157.229 111.33 162.875 113.294 168.275 114.276C177.849 116.24 187.668 116.731 197.241 118.694C206.814 120.658 216.387 124.586 222.279 132.441C226.206 137.595 228.17 143.978 228.661 150.605C228.661 148.887 228.906 147.169 228.906 145.696C228.906 102.739 198.223 67.6367 157.72 60.5181Z" fill="#CE9C5F"/>
<path opacity="0.17" d="M227.434 161.897C222.034 167.298 216.388 172.698 210.006 176.871C203.624 181.044 196.014 183.744 188.405 183.253C180.795 182.762 173.186 178.589 169.749 171.716C165.822 163.861 167.785 153.306 162.139 146.433C158.703 142.26 153.057 140.296 147.657 140.296C139.065 140.051 130.719 143.733 123.355 148.151C115.991 152.569 109.363 158.215 101.754 162.634C94.3899 167.052 85.7984 170.243 77.207 169.261C73.525 169.016 69.8429 167.543 66.6518 165.579C62.9698 163.37 61.7424 159.934 59.0423 157.233C57.324 155.761 57.8149 156.252 57.8149 158.461C57.8149 160.425 58.5513 162.634 59.0423 164.598C60.0241 168.525 61.2515 172.207 62.7243 175.889C68.6156 190.617 78.4344 203.873 90.9533 213.446C93.8989 215.655 97.09 217.864 100.527 219.828C124.092 233.083 154.039 234.311 178.831 223.019C203.378 211.973 222.034 188.408 227.434 161.897Z" fill="#CE9C5F"/>
<path opacity="0.19" d="M202.396 83.1013C207.796 94.3929 210.742 106.912 210.742 120.167C210.742 167.788 172.203 206.082 124.827 206.082C101.753 206.082 80.8884 196.999 65.4238 182.271C79.4156 211.236 108.872 231.119 142.992 231.119C190.613 231.119 228.907 192.581 228.907 145.205C228.907 120.904 218.842 98.8114 202.396 83.1013Z" fill="#CE5F5F"/>
<path opacity="0.17" d="M183.74 69.3547C185.459 76.2279 186.441 83.3465 186.441 90.9561C186.441 138.577 147.902 176.87 100.526 176.87C85.7981 176.87 71.8063 173.188 59.7783 166.561C69.3516 203.627 102.981 231.119 142.992 231.119C190.614 231.119 228.907 192.58 228.907 145.205C228.907 112.557 210.742 84.0829 183.74 69.3547Z" fill="#CE9C5F"/>
<path opacity="0.44" d="M205.834 86.5379C190.124 69.8459 167.786 59.2908 142.993 59.2908C140.784 59.2908 138.329 59.2907 136.12 59.5362C120.165 60.7636 105.682 66.4094 93.4086 75.0008C88.7447 78.1919 84.5717 81.874 80.6442 86.0469C74.262 92.9201 68.8616 100.775 64.9341 109.367C60.0247 120.167 57.0791 132.441 57.0791 145.205C57.0791 170.488 67.8798 193.072 85.3081 208.782C71.0709 193.317 62.234 172.698 62.234 150.115C62.234 137.35 65.1796 125.077 70.089 114.03C77.6985 120.167 87.2719 123.849 97.5816 123.849C121.883 123.849 141.521 104.212 141.521 79.9102C141.521 74.5099 140.539 69.355 138.82 64.4456C142.012 64.2001 145.203 63.9547 148.394 63.9547C170.241 64.2001 190.615 72.5461 205.834 86.5379Z" fill="#CEC35F"/>
<path opacity="0.32" d="M144.221 92.429C144.221 99.0567 149.376 104.212 156.003 104.212C162.631 104.212 167.786 99.0567 167.786 92.429C167.786 85.8014 162.631 80.6465 156.003 80.6465C149.621 80.6465 144.221 86.0468 144.221 92.429Z" fill="#CEC35F"/>
<path opacity="0.32" d="M142.009 115.503C145.263 115.503 147.901 112.865 147.901 109.612C147.901 106.358 145.263 103.72 142.009 103.72C138.756 103.72 136.118 106.358 136.118 109.612C136.118 112.865 138.756 115.503 142.009 115.503Z" fill="#CEC35F"/>
<path opacity="0.44" d="M72.0518 96.6021C77.4521 103.475 86.0435 107.648 95.3714 107.648C112.063 107.648 125.319 94.1474 125.319 77.7009C125.319 72.0551 123.6 66.6548 120.9 62.2363C100.772 67.3912 83.5888 79.9101 72.0518 96.6021Z" fill="#CEC35F"/>
<path opacity="0.45" d="M142.993 231.119C190.443 231.119 228.908 192.654 228.908 145.205C228.908 97.7559 190.443 59.2908 142.993 59.2908C95.5443 59.2908 57.0791 97.7559 57.0791 145.205C57.0791 192.654 95.5443 231.119 142.993 231.119Z" fill="url(#paint1_linear_664_417)"/>
<path opacity="0.32" d="M221.542 109.121C221.788 119.431 220.315 129.741 216.633 140.051C200.677 185.217 151.092 208.782 106.171 192.826C82.8519 184.48 65.4235 167.543 56.0957 146.678C56.8321 181.535 78.9244 213.937 113.781 226.21C158.947 242.166 208.287 218.601 224.242 173.434C231.852 151.588 230.379 128.759 221.542 109.121Z" fill="url(#paint2_linear_664_417)"/>
<path opacity="0.13" d="M177.848 65.4275C184.967 72.7916 190.612 81.6285 194.785 91.6927C212.95 135.877 192.085 186.444 147.901 204.854C125.072 214.182 100.525 213.2 79.6602 203.872C103.471 229.156 141.518 238.729 175.639 224.492C219.823 206.327 240.934 155.515 222.523 111.33C213.932 90.2199 197.486 74.2644 177.848 65.4275Z" fill="url(#paint3_linear_664_417)"/>
<defs>
<radialGradient id="paint0_radial_664_417" cx="0" cy="0" r="1" gradientUnits="userSpaceOnUse" gradientTransform="translate(149.082 149.021) scale(149.023)">
<stop stop-color="#ACFFFB"/>
<stop offset="0.1673" stop-color="#7FBDBA"/>
<stop offset="0.332" stop-color="#588381"/>
<stop offset="0.4894" stop-color="#395453"/>
<stop offset="0.6382" stop-color="#20302F"/>
<stop offset="0.7765" stop-color="#0E1515"/>
<stop offset="0.9002" stop-color="#040605"/>
<stop offset="0.9972"/>
</radialGradient>
<linearGradient id="paint1_linear_664_417" x1="82.144" y1="84.4018" x2="203.794" y2="206.051" gradientUnits="userSpaceOnUse">
<stop stop-color="#FF0000"/>
<stop offset="1" stop-color="#930000"/>
</linearGradient>
<linearGradient id="paint2_linear_664_417" x1="134.329" y1="110.5" x2="162.771" y2="229.137" gradientUnits="userSpaceOnUse">
<stop offset="0.2422" stop-color="white"/>
<stop offset="0.9199" stop-color="white"/>
<stop offset="1" stop-color="white"/>
</linearGradient>
<linearGradient id="paint3_linear_664_417" x1="113.861" y1="124.828" x2="214.348" y2="194.001" gradientUnits="userSpaceOnUse">
<stop offset="0.2422" stop-color="white"/>
<stop offset="0.3632" stop-color="#FEFBFB"/>
<stop offset="0.4705" stop-color="#FBF1F1"/>
<stop offset="0.5727" stop-color="#F6DEDE"/>
<stop offset="0.6718" stop-color="#EFC5C5"/>
<stop offset="0.7685" stop-color="#E6A4A4"/>
<stop offset="0.8635" stop-color="#DC7C7C"/>
<stop offset="0.9554" stop-color="#CF4D4D"/>
<stop offset="1" stop-color="#C83333"/>
</linearGradient>
</defs>
</svg>
