<svg width="112" height="32" viewBox="0 0 112 32" fill="none" xmlns="http://www.w3.org/2000/svg">
<path d="M111.801 25.2357C111.545 12.3064 100.109 10.685 90.6358 5.90583C85.4727 3.3029 80.0535 0.955983 74.2929 0.443932C63.9239 -0.537499 58.334 5.26577 49.8425 9.3195C42.6738 12.7332 35.5904 11.3676 27.9523 13.4158C19.6742 15.6347 13.9136 24.4676 5.37942 24.937C3.9286 25.0223 2.1791 24.937 1.32568 26.1318C0.472262 27.3266 1.19766 29.1187 2.43511 29.9295C3.67257 30.6975 5.25139 30.7829 6.7022 30.8256C12.1641 30.9536 17.626 31.0816 23.0878 31.167C24.7947 31.2097 26.5015 31.2523 28.2083 31.295C30.1285 31.3377 32.0487 31.3803 33.9689 31.4229C60.0835 31.9777 86.7102 32.4897 111.801 25.2357Z" fill="white"/>
</svg>
