<svg width="169" height="45" viewBox="0 0 169 45" fill="none" xmlns="http://www.w3.org/2000/svg">
<path d="M82.9355 6.73656C85.1117 9.25414 86.6904 12.4544 89.6774 13.9479C97.1021 17.6603 107.642 8.35805 113.53 14.204C115.323 15.9961 115.877 18.7271 117.414 20.7326C120.187 24.3597 125.436 24.957 129.959 24.445C134.482 23.9329 139.09 22.6101 143.571 23.5916C150.739 25.1704 155.945 32.2537 163.285 32.8511C164.693 32.9791 166.186 32.8511 167.466 33.4912C168.747 34.1313 169.472 36.0088 168.491 36.9902C157.439 45.4817 141.224 38.7397 128.721 39.6785C111.61 40.9159 93.9871 40.4892 76.8761 43.1775C71.6703 43.9882 66.4218 45.0977 61.1306 44.8417C54.5593 44.543 48.244 42.196 41.7153 41.2573C31.9864 39.8491 22.0867 41.5986 12.2724 41.2573C7.23724 41.0866 0.879315 38.9531 0.793973 33.9606C0.751302 31.7844 2.07402 29.7789 3.69551 28.3281C13.5525 19.5379 32.2424 28.072 40.7766 18.0016C42.4834 15.9961 43.4648 13.4785 45.001 11.3023C52.0843 0.847951 74.1453 -3.41912 82.9355 6.73656Z" fill="white"/>
</svg>
