<svg width="312" height="313" viewBox="0 0 312 313" fill="none" xmlns="http://www.w3.org/2000/svg">
<path d="M233.807 234.424C276.85 191.381 276.85 121.595 233.807 78.5525C190.765 35.5097 120.979 35.5097 77.9358 78.5525C34.8931 121.595 34.8931 191.381 77.9358 234.424C120.979 277.467 190.765 277.467 233.807 234.424Z" fill="#3A9DE5"/>
<mask id="mask0_853_5" style="mask-type:luminance" maskUnits="userSpaceOnUse" x="45" y="46" width="222" height="221">
<path d="M233.809 234.427C276.852 191.384 276.852 121.598 233.809 78.5554C190.767 35.5126 120.981 35.5126 77.9378 78.5554C34.895 121.598 34.895 191.384 77.9378 234.427C120.981 277.47 190.767 277.47 233.809 234.427Z" fill="white"/>
</mask>
<g mask="url(#mask0_853_5)">
<path d="M100.02 80.2493C107.317 79.4812 114.784 79.4811 121.782 77.2196C131.639 74.0619 139.533 66.7652 148.494 61.6874C157.497 56.5669 169.403 53.8786 177.723 59.9806C187.58 67.192 186.684 82.8948 179.942 93.0931C173.2 103.291 162.405 109.948 153.401 118.184C144.397 126.419 136.589 138.111 138.978 150.101C140.13 155.819 143.501 160.897 144.611 166.615C146.958 179.075 138.04 191.663 140.472 204.123C143.885 221.831 167.354 228.787 173.627 245.642C176.059 252.128 175.59 259.254 174.779 266.124C173.2 279.309 168.251 294.67 155.449 298.17C146.275 300.687 136.205 295.396 130.956 287.416C125.708 279.48 124.513 269.452 125.025 259.936C125.494 251.317 127.158 242.185 123.318 234.462C115.595 218.802 93.1071 220.423 76.0814 224.392C73.8198 213.297 63.1948 206.299 53.5085 200.496C37.5922 190.98 8.78939 180.441 15.318 156.502C19.3291 141.823 31.4049 122.536 40.5365 110.375C54.0205 92.3677 78.0016 82.5962 100.02 80.2493Z" fill="#2AD1CB"/>
<path d="M198.547 166.615C196.285 173.059 197.736 181.379 203.625 184.836C209.513 188.292 218.602 186.628 222.016 192.516C223.765 195.503 223.125 199.258 222.741 202.757C220.821 220.551 228.331 239.113 242.029 250.634C260.292 222.642 282.481 197.296 297.245 167.042C310.174 140.543 315.849 87.9301 268.143 93.136C250.861 95.0135 214.719 117.373 208.062 134.271C205.844 139.946 211.476 145.621 209.983 150.4C208.105 156.374 200.766 160.172 198.547 166.615Z" fill="#2AD1CB"/>
</g>
<g opacity="0.2">
<mask id="mask1_853_5" style="mask-type:luminance" maskUnits="userSpaceOnUse" x="45" y="46" width="222" height="221">
<path d="M233.809 234.427C276.852 191.384 276.852 121.598 233.809 78.5554C190.767 35.5126 120.981 35.5126 77.9378 78.5554C34.895 121.598 34.895 191.384 77.9378 234.427C120.981 277.47 190.767 277.47 233.809 234.427Z" fill="white"/>
</mask>
<g mask="url(#mask1_853_5)">
<path d="M182.457 321.084C170.68 321.254 158.177 321.254 148.15 315.11C142.346 311.568 137.909 306.234 133.556 300.986C124.595 290.19 115.592 279.352 108.636 267.19C104.412 259.808 101.468 249.269 107.954 243.764C114.056 238.601 123.699 242.228 131.167 239.369C146.272 233.651 146.699 165.719 178.19 189.572C188.218 197.21 189.412 215.303 201.744 217.735C210.961 219.57 219.154 209.329 218.386 199.941C217.618 190.554 210.748 182.83 203.28 177.112C194.96 170.712 184.719 164.78 182.414 154.582C181.134 148.992 182.67 143.018 185.529 138.026C190.693 128.979 200.293 122.664 210.62 121.469C216.722 120.787 223.72 121.469 228.115 117.245C234.985 110.631 229.224 98.6831 221.458 93.1786C214.161 87.9727 205.414 85.0284 198.16 79.7372C190.906 74.446 185.06 65.4424 187.578 56.8229C189.498 50.2089 196.026 45.6858 202.768 44.2777C209.51 42.8695 216.551 44.0216 223.293 45.5151C236.777 48.4594 250.56 52.9825 260.203 62.8395C267.457 70.2216 271.725 79.9932 277.784 88.3993C290.926 106.534 313.243 119.677 317.126 141.781C319.004 152.619 315.932 163.628 312.859 174.211C302.448 210.011 291.951 245.983 275.437 279.394C269.207 292.025 261.868 304.527 250.858 313.275C230.035 329.831 200.891 329.661 174.307 328.722" fill="white"/>
<path d="M121.054 93.8182C122.035 102.182 127.881 109.905 135.861 112.551C143.755 115.154 153.142 113.063 160.055 117.671C167.608 122.706 168.504 134.142 164.152 142.122C159.799 150.101 151.521 155.094 143.285 158.806C133.599 163.158 123.315 166.273 114.099 171.522C104.882 176.77 96.4755 184.707 93.8299 194.991C92.6778 199.471 92.6777 204.122 91.6536 208.646C89.1361 219.996 79.8765 229.64 68.6114 232.584C57.3462 235.528 44.5876 231.731 36.7788 223.068C30.0368 215.601 27.2206 205.317 26.4952 195.247C24.575 168.748 35.6694 142.719 34.9013 116.135C34.6026 106.662 32.8104 97.0612 34.9867 87.8016C39.2537 69.4531 57.2183 57.1213 71.2143 46.2402C84.1436 36.2125 100.359 21.747 117.811 21.5337C132.66 21.363 148.193 36.4258 146.315 52.0434C144.096 70.0931 118.536 72.0134 121.054 93.8182Z" fill="white"/>
</g>
</g>
</svg>
