<svg width="481" height="432" viewBox="0 0 481 432" fill="none" xmlns="http://www.w3.org/2000/svg">
<g filter="url(#filter0_f_590_1231)">
<path d="M426.797 153.998C426.797 164.577 418.233 173.14 407.654 173.14C397.075 173.14 388.512 164.577 388.512 153.998C388.512 143.419 397.075 134.855 407.654 134.855C417.729 134.855 426.797 143.419 426.797 153.998Z" fill="#0057FF"/>
</g>
<g filter="url(#filter1_f_590_1231)">
<path d="M316.5 255.18C316.5 265.758 307.936 274.322 297.357 274.322C286.779 274.322 278.215 265.758 278.215 255.18C278.215 244.601 286.779 236.037 297.357 236.037C307.432 236.037 316.5 244.601 316.5 255.18Z" fill="#0057FF"/>
</g>
<g filter="url(#filter2_f_590_1231)">
<path d="M150.285 232.143C150.285 242.721 141.721 251.285 131.142 251.285C120.564 251.285 112 242.721 112 232.143C112 221.564 120.564 213 131.142 213C141.218 213 150.285 221.564 150.285 232.143Z" fill="#0057FF"/>
</g>
<g filter="url(#filter3_f_590_1231)">
<path d="M427.285 154.143C427.285 164.721 418.721 173.285 408.142 173.285C397.564 173.285 389 164.721 389 154.143C389 143.564 397.564 135 408.142 135C418.218 135 427.285 143.564 427.285 154.143Z" fill="#0057FF"/>
</g>
<g filter="url(#filter4_f_590_1231)">
<path d="M64.9119 352.715C64.9119 363.294 56.3482 371.857 45.7694 371.857C35.1907 371.857 26.627 363.294 26.627 352.715C26.627 342.136 35.1907 333.572 45.7694 333.572C55.8445 333.572 64.9119 342.136 64.9119 352.715Z" fill="#0057FF"/>
</g>
<g filter="url(#filter5_f_590_1231)">
<path d="M265.285 79.1426C265.285 89.7213 256.721 98.285 246.142 98.285C235.564 98.285 227 89.7213 227 79.1426C227 68.5639 235.564 60 246.142 60C256.218 60 265.285 68.5639 265.285 79.1426Z" fill="#0057FF"/>
</g>
<g filter="url(#filter6_f_590_1231)">
<path d="M169.741 376.416C169.741 386.995 161.381 395.558 151.054 395.558C140.727 395.558 132.367 386.995 132.367 376.416C132.367 365.837 140.727 357.273 151.054 357.273C160.889 357.273 169.741 365.837 169.741 376.416Z" fill="#0057FF"/>
</g>
<path d="M7.6034 281.783C10.1458 281.783 12.2068 279.721 12.2068 277.178C12.2068 274.634 10.1458 272.573 7.6034 272.573C5.061 272.573 3 274.634 3 277.178C3 279.721 5.061 281.783 7.6034 281.783Z" fill="white" stroke="white" stroke-width="6"/>
<path d="M130.926 239.128C133.468 239.128 135.529 237.066 135.529 234.523C135.529 231.98 133.468 229.918 130.926 229.918C128.383 229.918 126.322 231.98 126.322 234.523C126.322 237.066 128.383 239.128 130.926 239.128Z" fill="white" stroke="white" stroke-width="6"/>
<path d="M212.698 239.128C215.241 239.128 217.302 237.066 217.302 234.523C217.302 231.98 215.241 229.918 212.698 229.918C210.156 229.918 208.095 231.98 208.095 234.523C208.095 237.066 210.156 239.128 212.698 239.128Z" fill="white" stroke="white" stroke-width="6"/>
<path d="M284.051 333.769C284.051 336.314 281.991 338.374 279.447 338.374C276.903 338.374 274.844 336.314 274.844 333.769C274.844 331.225 276.903 329.165 279.447 329.165C281.991 329.165 284.051 331.225 284.051 333.769Z" fill="white" stroke="white" stroke-width="6"/>
<path d="M151.4 381.152C153.943 381.152 156.004 379.091 156.004 376.547C156.004 374.004 153.943 371.942 151.4 371.942C148.858 371.942 146.797 374.004 146.797 376.547C146.797 379.091 148.858 381.152 151.4 381.152Z" fill="white" stroke="white" stroke-width="6"/>
<path d="M122.566 332.801C125.109 332.801 127.17 330.739 127.17 328.196C127.17 325.652 125.109 323.591 122.566 323.591C120.024 323.591 117.963 325.652 117.963 328.196C117.963 330.739 120.024 332.801 122.566 332.801Z" fill="white" stroke="white" stroke-width="6"/>
<path d="M50.2459 354.249C50.2459 356.794 48.1865 358.854 45.6425 358.854C43.0985 358.854 41.0391 356.794 41.0391 354.249C41.0391 351.705 43.0985 349.645 45.6425 349.645C48.1865 349.645 50.2459 351.705 50.2459 354.249Z" fill="white" stroke="white" stroke-width="6"/>
<path d="M301.736 254.882C301.736 257.426 299.677 259.487 297.133 259.487C294.589 259.487 292.529 257.426 292.529 254.882C292.529 252.337 294.589 250.277 297.133 250.277C299.677 250.277 301.736 252.337 301.736 254.882Z" fill="white" stroke="white" stroke-width="6"/>
<path d="M359.28 184.353C359.28 186.898 357.221 188.958 354.677 188.958C352.133 188.958 350.073 186.898 350.073 184.353C350.073 181.808 352.133 179.748 354.677 179.748C357.221 179.748 359.28 181.808 359.28 184.353Z" fill="white" stroke="white" stroke-width="6"/>
<path d="M297.135 148.969C297.135 151.513 295.075 153.573 292.531 153.573C289.987 153.573 287.928 151.513 287.928 148.969C287.928 146.424 289.987 144.364 292.531 144.364C294.954 144.364 297.135 146.424 297.135 148.969Z" fill="white" stroke="white" stroke-width="6"/>
<path d="M251.584 78.5629C251.584 81.1077 249.524 83.1678 246.98 83.1678C244.436 83.1678 242.377 81.1077 242.377 78.5629C242.377 76.0181 244.436 73.958 246.98 73.958C249.524 73.958 251.584 76.0181 251.584 78.5629Z" fill="white" stroke="white" stroke-width="6"/>
<path d="M407.495 158.178C410.037 158.178 412.098 156.116 412.098 153.573C412.098 151.03 410.037 148.968 407.495 148.968C404.953 148.968 402.892 151.03 402.892 153.573C402.892 156.116 404.953 158.178 407.495 158.178Z" fill="white" stroke="white" stroke-width="6"/>
<path d="M478.001 93.3461C478.001 95.8909 475.941 97.9509 473.397 97.9509C470.853 97.9509 468.794 95.8909 468.794 93.3461C468.794 90.8013 470.853 88.7412 473.397 88.7412C475.941 88.7412 478.001 90.8013 478.001 93.3461Z" fill="white" stroke="white" stroke-width="6"/>
<path d="M468.792 39.5434C468.792 42.0882 466.732 44.1483 464.188 44.1483C461.644 44.1483 459.585 42.0882 459.585 39.5434C459.585 36.9986 461.644 34.9385 464.188 34.9385C466.732 34.9385 468.792 36.9986 468.792 39.5434Z" fill="white" stroke="white" stroke-width="6"/>
<g filter="url(#filter7_f_590_1231)">
<path d="M418.593 39.1426C418.593 49.7213 410.029 58.285 399.45 58.285C388.871 58.285 380.308 49.7213 380.308 39.1426C380.308 28.5639 388.871 20 399.45 20C409.525 20 418.593 28.5639 418.593 39.1426Z" fill="#0057FF"/>
</g>
<path d="M403.86 39.5434C403.86 42.0882 401.801 44.1483 399.257 44.1483C396.713 44.1483 394.653 42.0882 394.653 39.5434C394.653 36.9986 396.713 34.9385 399.257 34.9385C401.68 34.9385 403.86 36.9986 403.86 39.5434Z" fill="white" stroke="white" stroke-width="6"/>
<path d="M403.84 40.1157C403.84 42.6605 401.78 44.7205 399.236 44.7205C396.692 44.7205 394.633 42.6605 394.633 40.1157C394.633 37.5709 396.692 35.5107 399.236 35.5107C401.78 35.5107 403.84 37.5709 403.84 40.1157Z" fill="white" stroke="white" stroke-width="6"/>
<path d="M151.157 377.033L122.446 328.803L45.7628 354.735L45.3994 353.766L122.809 327.712L151.641 375.942L279.083 333.529L296.649 254.761L296.77 254.64L354.313 183.991H354.434L407.252 153.212L472.911 93.227L463.705 40.0285H399.136V39.0591H464.553V39.4226L473.881 93.5905L473.759 93.7116L407.737 153.939V154.06L354.919 184.719L297.497 255.125L279.81 334.135L279.568 334.256L151.157 377.033Z" fill="white" stroke="white" stroke-width="2"/>
<path d="M7.72572 277.663L7.3623 276.815L130.928 234.038L212.457 235.371L291.926 148.969L246.619 78.805L247.346 78.3203L293.016 149.09L292.774 149.332L212.82 236.34H212.578L131.049 235.007L7.72572 277.663Z" fill="white" stroke="white" stroke-width="2"/>
<path d="M354.435 184.717L292.168 149.332L292.652 148.605L354.799 183.99L354.435 184.717Z" fill="white" stroke="white" stroke-width="2"/>
<path d="M279.083 334.133L212.212 236.098L213.06 235.613L279.809 333.527L279.083 334.133Z" fill="white" stroke="white" stroke-width="2"/>
<defs>
<filter id="filter0_f_590_1231" x="358.512" y="104.855" width="98.2852" height="98.2852" filterUnits="userSpaceOnUse" color-interpolation-filters="sRGB">
<feFlood flood-opacity="0" result="BackgroundImageFix"/>
<feBlend mode="normal" in="SourceGraphic" in2="BackgroundImageFix" result="shape"/>
<feGaussianBlur stdDeviation="15" result="effect1_foregroundBlur_590_1231"/>
</filter>
<filter id="filter1_f_590_1231" x="270.215" y="228.037" width="54.2852" height="54.2852" filterUnits="userSpaceOnUse" color-interpolation-filters="sRGB">
<feFlood flood-opacity="0" result="BackgroundImageFix"/>
<feBlend mode="normal" in="SourceGraphic" in2="BackgroundImageFix" result="shape"/>
<feGaussianBlur stdDeviation="4" result="effect1_foregroundBlur_590_1231"/>
</filter>
<filter id="filter2_f_590_1231" x="104" y="205" width="54.2852" height="54.2852" filterUnits="userSpaceOnUse" color-interpolation-filters="sRGB">
<feFlood flood-opacity="0" result="BackgroundImageFix"/>
<feBlend mode="normal" in="SourceGraphic" in2="BackgroundImageFix" result="shape"/>
<feGaussianBlur stdDeviation="4" result="effect1_foregroundBlur_590_1231"/>
</filter>
<filter id="filter3_f_590_1231" x="381" y="127" width="54.2852" height="54.2852" filterUnits="userSpaceOnUse" color-interpolation-filters="sRGB">
<feFlood flood-opacity="0" result="BackgroundImageFix"/>
<feBlend mode="normal" in="SourceGraphic" in2="BackgroundImageFix" result="shape"/>
<feGaussianBlur stdDeviation="4" result="effect1_foregroundBlur_590_1231"/>
</filter>
<filter id="filter4_f_590_1231" x="13.627" y="320.572" width="64.2852" height="64.2852" filterUnits="userSpaceOnUse" color-interpolation-filters="sRGB">
<feFlood flood-opacity="0" result="BackgroundImageFix"/>
<feBlend mode="normal" in="SourceGraphic" in2="BackgroundImageFix" result="shape"/>
<feGaussianBlur stdDeviation="6.5" result="effect1_foregroundBlur_590_1231"/>
</filter>
<filter id="filter5_f_590_1231" x="207" y="40" width="78.2852" height="78.2852" filterUnits="userSpaceOnUse" color-interpolation-filters="sRGB">
<feFlood flood-opacity="0" result="BackgroundImageFix"/>
<feBlend mode="normal" in="SourceGraphic" in2="BackgroundImageFix" result="shape"/>
<feGaussianBlur stdDeviation="10" result="effect1_foregroundBlur_590_1231"/>
</filter>
<filter id="filter6_f_590_1231" x="96.3672" y="321.273" width="109.373" height="110.285" filterUnits="userSpaceOnUse" color-interpolation-filters="sRGB">
<feFlood flood-opacity="0" result="BackgroundImageFix"/>
<feBlend mode="normal" in="SourceGraphic" in2="BackgroundImageFix" result="shape"/>
<feGaussianBlur stdDeviation="18" result="effect1_foregroundBlur_590_1231"/>
</filter>
<filter id="filter7_f_590_1231" x="360.308" y="0" width="78.2852" height="78.2852" filterUnits="userSpaceOnUse" color-interpolation-filters="sRGB">
<feFlood flood-opacity="0" result="BackgroundImageFix"/>
<feBlend mode="normal" in="SourceGraphic" in2="BackgroundImageFix" result="shape"/>
<feGaussianBlur stdDeviation="10" result="effect1_foregroundBlur_590_1231"/>
</filter>
</defs>
</svg>
