<svg width="547" height="312" viewBox="0 0 547 312" fill="none" xmlns="http://www.w3.org/2000/svg">
<g filter="url(#filter0_f_590_1265)">
<path d="M297.285 160.143C297.285 170.721 288.721 179.285 278.142 179.285C267.564 179.285 259 170.721 259 160.143C259 149.564 267.564 141 278.142 141C288.218 141 297.285 149.564 297.285 160.143Z" fill="#0057FF"/>
</g>
<g filter="url(#filter1_f_590_1265)">
<path d="M46.285 284.143C46.285 294.721 37.7213 303.285 27.1425 303.285C16.5637 303.285 8 294.721 8 284.143C8 273.564 16.5637 265 27.1425 265C37.2175 265 46.285 273.564 46.285 284.143Z" fill="#0057FF"/>
</g>
<g filter="url(#filter2_f_590_1265)">
<path d="M132.285 103.143C132.285 113.721 123.721 122.285 113.142 122.285C102.564 122.285 94 113.721 94 103.143C94 92.5639 102.564 84 113.142 84C123.218 84 132.285 92.5639 132.285 103.143Z" fill="#0057FF"/>
</g>
<g filter="url(#filter3_f_590_1265)">
<path d="M240 36.0001C240 43.7369 233.513 50 225.5 50C217.487 50 211 43.7369 211 36.0001C211 28.2633 217.487 22 225.5 22C233.132 22 240 28.2633 240 36.0001Z" fill="#0057FF"/>
</g>
<g filter="url(#filter4_f_590_1265)">
<path d="M342 62.5001C342 72.7238 333.053 81 322 81C310.947 81 302 72.7238 302 62.5001C302 52.2765 310.947 44 322 44C332.526 44 342 52.2765 342 62.5001Z" fill="#0057FF"/>
</g>
<g filter="url(#filter5_f_590_1265)">
<path d="M538.285 238.143C538.285 248.721 529.721 257.285 519.142 257.285C508.564 257.285 500 248.721 500 238.143C500 227.564 508.564 219 519.142 219C529.218 219 538.285 227.564 538.285 238.143Z" fill="#0057FF"/>
</g>
<path d="M523 238.067C523 240.197 521.27 241.929 519.141 241.929C517.011 241.929 515.281 240.197 515.281 238.067C515.281 235.936 517.011 234.205 519.141 234.205C521.27 234.205 523 235.936 523 238.067Z" fill="white"/>
<path d="M33.6468 284.674C33.6468 287.603 31.2513 290 28.3234 290C25.3955 290 23 287.603 23 284.674C23 281.744 25.3955 279.347 28.3234 279.347C31.1182 279.347 33.6468 281.744 33.6468 284.674Z" fill="white"/>
<path d="M98.9915 213.831C98.9915 216.761 96.596 219.158 93.6681 219.158C90.7403 219.158 88.3447 216.761 88.3447 213.831C88.3447 210.902 90.7403 208.505 93.6681 208.505C96.596 208.505 98.9915 210.902 98.9915 213.831Z" fill="white"/>
<path d="M118.688 182.538C118.688 185.468 116.292 187.865 113.364 187.865C110.437 187.865 108.041 185.468 108.041 182.538C108.041 179.609 110.437 177.212 113.364 177.212C116.292 177.079 118.688 179.476 118.688 182.538Z" fill="white"/>
<path d="M118.688 103.574C118.688 106.503 116.292 108.9 113.364 108.9C110.437 108.9 108.041 106.503 108.041 103.574C108.041 100.644 110.437 98.2471 113.364 98.2471C116.292 98.2471 118.688 100.644 118.688 103.574Z" fill="white"/>
<path d="M252 42.0028C252 45.3013 249.3 48 246 48C242.7 48 240 45.3013 240 42.0028C240 38.7044 242.7 36.0057 246 36.0057C249.3 35.8557 252 38.7044 252 42.0028Z" fill="white" stroke="white" stroke-width="6"/>
<path d="M231.544 36.3265C231.544 39.256 229.149 41.653 226.221 41.653C223.293 41.653 220.897 39.256 220.897 36.3265C220.897 33.3969 223.293 31 226.221 31C229.149 31 231.544 33.3969 231.544 36.3265Z" fill="white" stroke="#FFFEFE" stroke-width="6"/>
<path d="M267.344 62.4261C267.344 65.3556 264.949 67.7526 262.021 67.7526C259.093 67.7526 256.697 65.3556 256.697 62.4261C256.697 59.4965 259.093 57.0996 262.021 57.0996C264.949 57.0996 267.344 59.4965 267.344 62.4261Z" fill="white"/>
<path d="M283.58 160.567C283.58 163.496 281.185 165.893 278.257 165.893C275.329 165.893 272.934 163.496 272.934 160.567C272.934 157.637 275.329 155.24 278.257 155.24C281.052 155.24 283.58 157.637 283.58 160.567Z" fill="white"/>
<path d="M283.58 243.393C283.58 246.323 281.185 248.72 278.257 248.72C275.329 248.72 272.934 246.323 272.934 243.393C272.934 240.464 275.329 238.067 278.257 238.067C281.052 238.067 283.58 240.464 283.58 243.393Z" fill="white"/>
<path d="M66.5193 72.2801C66.5193 73.2122 65.8537 73.878 64.9221 73.878C63.9906 73.878 63.3252 73.0791 63.3252 72.2801C63.3252 71.348 63.9906 70.6821 64.9221 70.6821C65.8537 70.5489 66.5193 71.348 66.5193 72.2801Z" fill="white"/>
<path d="M321.11 65.4889C322.8 65.4889 324.171 64.1176 324.171 62.4261C324.171 60.7346 322.8 59.3633 321.11 59.3633C319.419 59.3633 318.049 60.7346 318.049 62.4261C318.049 64.1176 319.419 65.4889 321.11 65.4889Z" fill="white" stroke="white" stroke-width="6"/>
<path d="M396.303 155.24C396.303 160.7 391.911 164.961 386.454 164.961C380.998 164.961 376.739 160.567 376.739 155.24C376.739 149.78 381.131 145.386 386.454 145.386C391.778 145.386 396.303 149.78 396.303 155.24Z" fill="white"/>
<path d="M523 238.067C523 240.197 521.27 241.929 519.141 241.929C517.011 241.929 515.281 240.197 515.281 238.067C515.281 235.936 517.011 234.205 519.141 234.205C521.27 234.205 523 235.936 523 238.067Z" fill="white"/>
<path d="M523 238.067C523 240.197 521.27 241.929 519.141 241.929C517.011 241.929 515.281 240.197 515.281 238.067C515.281 235.936 517.011 234.205 519.141 234.205C521.27 234.205 523 235.936 523 238.067Z" fill="white"/>
<path d="M28.5895 285.073L27.791 284.407L93.2688 213.565L112.832 182.405V103.839L63.7239 72.0136L226.221 35.9268L246.183 41.3864L262.287 62.0265H321.376L321.509 62.1598L386.854 154.84L519.407 237.667L518.874 238.466L386.189 155.506L320.844 62.9587H261.754L245.651 42.1855L226.221 36.859L66.2525 72.4132L113.764 103.307V182.671L93.9342 214.231L28.5895 285.073Z" fill="white" stroke="white" stroke-width="2"/>
<path d="M278.656 243.393H277.592V160.433L320.711 62.293L321.643 62.6924L278.656 160.7V243.393Z" fill="white" stroke="white" stroke-width="2"/>
<defs>
<filter id="filter0_f_590_1265" x="251" y="133" width="54.2852" height="54.2852" filterUnits="userSpaceOnUse" color-interpolation-filters="sRGB">
<feFlood flood-opacity="0" result="BackgroundImageFix"/>
<feBlend mode="normal" in="SourceGraphic" in2="BackgroundImageFix" result="shape"/>
<feGaussianBlur stdDeviation="4" result="effect1_foregroundBlur_590_1265"/>
</filter>
<filter id="filter1_f_590_1265" x="0" y="257" width="54.2852" height="54.2852" filterUnits="userSpaceOnUse" color-interpolation-filters="sRGB">
<feFlood flood-opacity="0" result="BackgroundImageFix"/>
<feBlend mode="normal" in="SourceGraphic" in2="BackgroundImageFix" result="shape"/>
<feGaussianBlur stdDeviation="4" result="effect1_foregroundBlur_590_1265"/>
</filter>
<filter id="filter2_f_590_1265" x="72" y="62" width="82.2852" height="82.2852" filterUnits="userSpaceOnUse" color-interpolation-filters="sRGB">
<feFlood flood-opacity="0" result="BackgroundImageFix"/>
<feBlend mode="normal" in="SourceGraphic" in2="BackgroundImageFix" result="shape"/>
<feGaussianBlur stdDeviation="11" result="effect1_foregroundBlur_590_1265"/>
</filter>
<filter id="filter3_f_590_1265" x="189" y="0" width="73" height="72" filterUnits="userSpaceOnUse" color-interpolation-filters="sRGB">
<feFlood flood-opacity="0" result="BackgroundImageFix"/>
<feBlend mode="normal" in="SourceGraphic" in2="BackgroundImageFix" result="shape"/>
<feGaussianBlur stdDeviation="11" result="effect1_foregroundBlur_590_1265"/>
</filter>
<filter id="filter4_f_590_1265" x="280" y="22" width="84" height="81" filterUnits="userSpaceOnUse" color-interpolation-filters="sRGB">
<feFlood flood-opacity="0" result="BackgroundImageFix"/>
<feBlend mode="normal" in="SourceGraphic" in2="BackgroundImageFix" result="shape"/>
<feGaussianBlur stdDeviation="11" result="effect1_foregroundBlur_590_1265"/>
</filter>
<filter id="filter5_f_590_1265" x="492" y="211" width="54.2852" height="54.2852" filterUnits="userSpaceOnUse" color-interpolation-filters="sRGB">
<feFlood flood-opacity="0" result="BackgroundImageFix"/>
<feBlend mode="normal" in="SourceGraphic" in2="BackgroundImageFix" result="shape"/>
<feGaussianBlur stdDeviation="4" result="effect1_foregroundBlur_590_1265"/>
</filter>
</defs>
</svg>
