<svg width="432" height="494" viewBox="0 0 432 494" fill="none" xmlns="http://www.w3.org/2000/svg">
<g filter="url(#filter0_f_590_727)">
<path d="M272.285 171.028C272.285 181.607 263.721 190.17 253.142 190.17C242.564 190.17 234 181.607 234 171.028C234 160.449 242.564 151.885 253.142 151.885C263.218 151.885 272.285 160.449 272.285 171.028Z" fill="#0057FF"/>
</g>
<path d="M31.3023 335.084C31.3023 337.477 29.4418 339.338 27.0496 339.338C24.6574 339.338 22.7969 337.477 22.7969 335.084C22.7969 332.824 24.6574 330.83 27.0496 330.83C29.4418 330.83 31.3023 332.824 31.3023 335.084Z" fill="white" stroke="white" stroke-width="6"/>
<g filter="url(#filter1_f_590_727)">
<path d="M248.285 242.028C248.285 252.607 239.721 261.17 229.142 261.17C218.564 261.17 210 252.607 210 242.028C210 231.449 218.564 222.885 229.142 222.885C239.218 222.885 248.285 231.449 248.285 242.028Z" fill="#0057FF"/>
</g>
<g filter="url(#filter2_f_590_727)">
<path d="M191.285 466.028C191.285 476.607 182.721 485.17 172.142 485.17C161.564 485.17 153 476.607 153 466.028C153 455.449 161.564 446.885 172.142 446.885C182.218 446.885 191.285 455.449 191.285 466.028Z" fill="#0057FF"/>
</g>
<g filter="url(#filter3_f_590_727)">
<path d="M257.285 91.0279C257.285 101.607 248.721 110.17 238.142 110.17C227.564 110.17 219 101.607 219 91.0279C219 80.4492 227.564 71.8853 238.142 71.8853C248.218 71.8853 257.285 80.4492 257.285 91.0279Z" fill="#0057FF"/>
</g>
<g filter="url(#filter4_f_590_727)">
<path d="M393.285 346.028C393.285 356.607 384.721 365.17 374.142 365.17C363.564 365.17 355 356.607 355 346.028C355 335.449 363.564 326.885 374.142 326.885C384.218 326.885 393.285 335.449 393.285 346.028Z" fill="#0057FF"/>
</g>
<g filter="url(#filter5_f_590_727)">
<path d="M385.285 232.028C385.285 242.607 376.721 251.17 366.142 251.17C355.564 251.17 347 242.607 347 232.028C347 221.449 355.564 212.885 366.142 212.885C376.218 212.885 385.285 221.449 385.285 232.028Z" fill="#0057FF"/>
</g>
<g filter="url(#filter6_f_590_727)">
<path d="M46.285 334.028C46.285 344.607 37.7213 353.17 27.1425 353.17C16.5637 353.17 8 344.607 8 334.028C8 323.449 16.5637 314.885 27.1425 314.885C37.2175 314.885 46.285 323.449 46.285 334.028Z" fill="#0057FF"/>
</g>
<g filter="url(#filter7_f_590_727)">
<path d="M418.285 96.0279C418.285 106.607 409.721 115.17 399.142 115.17C388.564 115.17 380 106.607 380 96.0279C380 85.4492 388.564 76.8853 399.142 76.8853C409.218 76.8853 418.285 85.4492 418.285 96.0279Z" fill="#0057FF"/>
</g>
<g filter="url(#filter8_f_590_727)">
<path d="M151.285 49.0279C151.285 59.6066 142.721 68.1702 132.142 68.1702C121.564 68.1702 113 59.6066 113 49.0279C113 38.4492 121.564 29.8853 132.142 29.8853C142.218 29.8853 151.285 38.4492 151.285 49.0279Z" fill="#0057FF"/>
</g>
<path d="M72.899 432.396C72.899 434.789 71.0385 436.65 68.6463 436.65C66.2541 436.65 64.3936 434.789 64.3936 432.396C64.3936 430.003 66.2541 428.142 68.6463 428.142C71.0385 428.142 72.899 430.003 72.899 432.396Z" fill="white" stroke="white" stroke-width="6"/>
<path d="M178.553 465.498C178.553 467.891 176.693 469.752 174.301 469.752C171.908 469.752 170.048 467.891 170.048 465.498C170.048 463.105 171.908 461.244 174.301 461.244C176.693 461.244 178.553 463.238 178.553 465.498Z" fill="white" stroke="white" stroke-width="6"/>
<path d="M158.22 409.796C160.568 409.796 162.472 407.892 162.472 405.542C162.472 403.193 160.568 401.288 158.22 401.288C155.871 401.288 153.967 403.193 153.967 405.542C153.967 407.892 155.871 409.796 158.22 409.796Z" fill="white" stroke="white" stroke-width="6"/>
<path d="M233.573 242.558C233.573 244.951 231.712 246.812 229.32 246.812C226.928 246.812 225.067 244.951 225.067 242.558C225.067 240.165 226.928 238.304 229.32 238.304C231.712 238.304 233.573 240.165 233.573 242.558Z" fill="white" stroke="white" stroke-width="6"/>
<path d="M404.878 95.3932C404.878 97.7861 403.018 99.6473 400.626 99.6473C398.234 99.6473 396.373 97.7861 396.373 95.3932C396.373 93.0003 398.234 91.1392 400.626 91.1392C403.018 91.1392 404.878 93.0003 404.878 95.3932Z" fill="white" stroke="white" stroke-width="6"/>
<path d="M205.398 201.081C205.398 203.474 203.537 205.335 201.145 205.335C198.753 205.335 196.893 203.474 196.893 201.081C196.893 198.821 198.753 196.827 201.145 196.827C203.537 196.96 205.398 198.821 205.398 201.081Z" fill="white" stroke="white" stroke-width="6"/>
<path d="M242.079 91.1393C242.079 93.5322 240.218 95.3933 237.826 95.3933C235.434 95.3933 233.573 93.5322 233.573 91.1393C233.573 88.8793 235.434 86.8853 237.826 86.8853C240.218 86.8853 242.079 88.8793 242.079 91.1393Z" fill="white" stroke="white" stroke-width="6"/>
<path d="M147.587 7.25417C147.587 9.64709 145.727 11.5082 143.335 11.5082C140.943 11.5082 139.082 9.64709 139.082 7.25417C139.082 4.86126 140.943 3 143.335 3C145.727 3 147.587 4.86126 147.587 7.25417Z" fill="white" stroke="white" stroke-width="6"/>
<path d="M347.067 168.245C349.416 168.245 351.32 166.34 351.32 163.991C351.32 161.641 349.416 159.736 347.067 159.736C344.718 159.736 342.814 161.641 342.814 163.991C342.814 166.34 344.718 168.245 347.067 168.245Z" fill="white" stroke="white" stroke-width="6"/>
<path d="M259.488 170.77C259.488 174.626 256.432 177.683 252.578 177.683C248.724 177.683 245.667 174.626 245.667 170.77C245.667 166.915 248.724 163.857 252.578 163.857C256.432 163.99 259.488 167.048 259.488 170.77Z" fill="white" stroke="white" stroke-width="6"/>
<path d="M199.02 95.3933C199.02 99.2485 195.963 102.306 192.109 102.306C188.255 102.306 185.198 99.2485 185.198 95.3933C185.198 91.538 188.255 88.4805 192.109 88.4805C195.963 88.4805 199.02 91.538 199.02 95.3933Z" fill="white" stroke="white" stroke-width="6"/>
<path d="M139.082 48.8645C139.082 52.7197 136.025 55.7774 132.171 55.7774C128.317 55.7774 125.261 52.7197 125.261 48.8645C125.261 45.0092 128.317 41.9517 132.171 41.9517C136.025 41.9517 139.082 45.0092 139.082 48.8645Z" fill="white" stroke="white" stroke-width="6"/>
<path d="M295.37 194.035C295.37 197.89 292.314 200.947 288.46 200.947C284.605 200.947 281.549 197.89 281.549 194.035C281.549 190.179 284.605 187.122 288.46 187.122C292.314 187.255 295.37 190.312 295.37 194.035Z" fill="white" stroke="white" stroke-width="6"/>
<path d="M372.982 231.391C372.982 235.113 369.926 238.304 366.072 238.304C362.218 238.304 359.161 235.246 359.161 231.391C359.161 227.536 362.218 224.478 366.072 224.478C369.926 224.478 372.982 227.536 372.982 231.391Z" fill="white" stroke="white" stroke-width="6"/>
<path d="M428.002 253.592C428.002 257.447 424.945 260.504 421.091 260.504C417.237 260.504 414.181 257.447 414.181 253.592C414.181 249.736 417.237 246.679 421.091 246.679C424.812 246.679 428.002 249.869 428.002 253.592Z" fill="white" stroke="white" stroke-width="6"/>
<path d="M351.32 303.178C351.32 307.034 348.264 310.091 344.41 310.091C340.556 310.091 337.499 307.034 337.499 303.178C337.499 299.323 340.556 296.266 344.41 296.266C348.264 296.266 351.32 299.456 351.32 303.178Z" fill="white" stroke="white" stroke-width="6"/>
<path d="M379.894 346.251C379.894 350.106 376.837 353.164 372.983 353.164C369.129 353.164 366.072 350.106 366.072 346.251C366.072 342.396 369.129 339.338 372.983 339.338C376.704 339.338 379.894 342.396 379.894 346.251Z" fill="white" stroke="white" stroke-width="6"/>
<path d="M68.1147 432.662L26.3848 334.951L26.7835 334.685L200.88 200.682L251.779 170.637L191.843 95.7919L131.64 48.9972L142.803 7.12109L143.866 7.38691L132.836 48.5983L192.507 94.9943H192.64L253.507 171.036L201.411 201.612L27.7137 335.217L69.1779 432.13L68.1147 432.662Z" fill="white" stroke="white" stroke-width="2"/>
<path d="M173.902 465.631L157.556 405.542L157.689 405.409L228.922 242.159L229.055 242.026L287.663 194.168L252.046 171.169V170.903L237.427 91.8039L192.242 95.925L192.109 94.8616L238.225 90.6074L253.109 170.504L289.523 194.035L229.852 242.824L158.752 405.675L174.965 465.365L173.902 465.631Z" fill="white" stroke="white" stroke-width="2"/>
<path d="M157.954 406.074L26.7842 335.616L27.3158 334.685L158.486 405.143L157.954 406.074Z" fill="white" stroke="white" stroke-width="2"/>
<path d="M372.983 347.314L343.746 303.311L343.878 303.046L365.408 231.657L288.327 194.567L288.859 193.636L365.275 230.46L346.536 163.99L346.669 163.725L401.025 94.064L421.624 253.326L421.889 253.459L421.624 253.991L372.983 347.314ZM345.075 303.046L372.983 345.055L420.428 253.858L366.604 232.189L345.075 303.046ZM366.604 230.992L420.428 252.794L400.227 96.8558L347.6 164.123L366.604 230.992Z" fill="white" stroke="white" stroke-width="2"/>
<defs>
<filter id="filter0_f_590_727" x="212" y="129.885" width="82.2852" height="82.2852" filterUnits="userSpaceOnUse" color-interpolation-filters="sRGB">
<feFlood flood-opacity="0" result="BackgroundImageFix"/>
<feBlend mode="normal" in="SourceGraphic" in2="BackgroundImageFix" result="shape"/>
<feGaussianBlur stdDeviation="11" result="effect1_foregroundBlur_590_727"/>
</filter>
<filter id="filter1_f_590_727" x="184" y="196.885" width="90.2852" height="90.2852" filterUnits="userSpaceOnUse" color-interpolation-filters="sRGB">
<feFlood flood-opacity="0" result="BackgroundImageFix"/>
<feBlend mode="normal" in="SourceGraphic" in2="BackgroundImageFix" result="shape"/>
<feGaussianBlur stdDeviation="13" result="effect1_foregroundBlur_590_727"/>
</filter>
<filter id="filter2_f_590_727" x="145" y="438.885" width="54.2852" height="54.2852" filterUnits="userSpaceOnUse" color-interpolation-filters="sRGB">
<feFlood flood-opacity="0" result="BackgroundImageFix"/>
<feBlend mode="normal" in="SourceGraphic" in2="BackgroundImageFix" result="shape"/>
<feGaussianBlur stdDeviation="4" result="effect1_foregroundBlur_590_727"/>
</filter>
<filter id="filter3_f_590_727" x="211" y="63.8853" width="54.2852" height="54.2852" filterUnits="userSpaceOnUse" color-interpolation-filters="sRGB">
<feFlood flood-opacity="0" result="BackgroundImageFix"/>
<feBlend mode="normal" in="SourceGraphic" in2="BackgroundImageFix" result="shape"/>
<feGaussianBlur stdDeviation="4" result="effect1_foregroundBlur_590_727"/>
</filter>
<filter id="filter4_f_590_727" x="347" y="318.885" width="54.2852" height="54.2852" filterUnits="userSpaceOnUse" color-interpolation-filters="sRGB">
<feFlood flood-opacity="0" result="BackgroundImageFix"/>
<feBlend mode="normal" in="SourceGraphic" in2="BackgroundImageFix" result="shape"/>
<feGaussianBlur stdDeviation="4" result="effect1_foregroundBlur_590_727"/>
</filter>
<filter id="filter5_f_590_727" x="339" y="204.885" width="54.2852" height="54.2852" filterUnits="userSpaceOnUse" color-interpolation-filters="sRGB">
<feFlood flood-opacity="0" result="BackgroundImageFix"/>
<feBlend mode="normal" in="SourceGraphic" in2="BackgroundImageFix" result="shape"/>
<feGaussianBlur stdDeviation="4" result="effect1_foregroundBlur_590_727"/>
</filter>
<filter id="filter6_f_590_727" x="0" y="306.885" width="54.2852" height="54.2852" filterUnits="userSpaceOnUse" color-interpolation-filters="sRGB">
<feFlood flood-opacity="0" result="BackgroundImageFix"/>
<feBlend mode="normal" in="SourceGraphic" in2="BackgroundImageFix" result="shape"/>
<feGaussianBlur stdDeviation="4" result="effect1_foregroundBlur_590_727"/>
</filter>
<filter id="filter7_f_590_727" x="372" y="68.8853" width="54.2852" height="54.2852" filterUnits="userSpaceOnUse" color-interpolation-filters="sRGB">
<feFlood flood-opacity="0" result="BackgroundImageFix"/>
<feBlend mode="normal" in="SourceGraphic" in2="BackgroundImageFix" result="shape"/>
<feGaussianBlur stdDeviation="4" result="effect1_foregroundBlur_590_727"/>
</filter>
<filter id="filter8_f_590_727" x="105" y="21.8853" width="54.2852" height="54.2852" filterUnits="userSpaceOnUse" color-interpolation-filters="sRGB">
<feFlood flood-opacity="0" result="BackgroundImageFix"/>
<feBlend mode="normal" in="SourceGraphic" in2="BackgroundImageFix" result="shape"/>
<feGaussianBlur stdDeviation="4" result="effect1_foregroundBlur_590_727"/>
</filter>
</defs>
</svg>
