<svg width="167" height="200" viewBox="0 0 167 200" fill="none" xmlns="http://www.w3.org/2000/svg">
<path d="M30.0535 161.987C25.8885 164.457 21.4458 165.516 17.0031 165.869C17.2808 164.105 17.5584 161.987 17.8361 160.223C18.1137 158.811 18.6691 156.694 18.1138 155.635C17.8361 154.929 17.0031 154.577 16.4477 155.282C16.1701 155.635 15.8925 155.988 15.8925 156.341C15.8925 156.694 15.8925 156.694 15.8925 157.047C15.8925 157.4 15.8925 157.4 15.8925 157.753C15.6148 158.811 15.6148 159.87 15.3371 160.929C15.0594 163.046 14.5041 165.516 14.5041 167.633C14.5041 168.692 15.0595 169.398 15.8925 169.398C21.1681 169.045 26.1661 166.928 30.6088 163.752C31.4418 163.046 30.8865 161.281 30.0535 161.987ZM160.834 45.8868C148.895 45.5339 139.176 50.4743 129.458 58.9437C128.625 59.6494 129.458 61.4139 130.291 60.7081C135.844 56.4734 156.947 42.005 158.058 54.0032C158.335 58.9436 149.728 68.1188 147.506 71.2948C138.066 83.6459 126.681 93.8797 115.575 103.408C111.965 106.584 108.355 109.76 104.746 112.583C100.858 109.054 96.9712 105.525 93.0838 101.643C94.7498 68.8245 95.3052 33.1828 88.9188 1.42279C88.6412 0.364118 87.8081 0.011208 87.2527 1.06987C72.8141 21.1845 74.7578 52.9445 73.9248 78.3525C73.9248 79.4112 75.3131 79.7641 75.3131 78.3525C76.1461 63.8841 76.1461 49.0628 78.0898 34.5943C78.3674 33.1828 83.3654 3.5401 87.8081 4.59876C88.6411 4.95165 89.474 16.9499 89.474 18.3614C91.973 42.3579 92.2507 67.0601 91.4177 91.0565C91.4177 93.8797 91.1401 96.7028 91.1401 99.8788C74.4801 83.9988 57.8201 67.413 39.2164 55.7677C38.3834 55.4148 38.1057 56.8263 38.6611 57.1792C57.5424 68.8245 74.2025 85.7632 91.1401 101.643C90.8625 109.407 90.3071 117.17 89.7518 124.934C85.8645 128.11 81.6995 130.933 77.8122 134.109C72.5365 129.521 67.5385 124.581 62.5405 119.641C52.2668 109.76 41.4378 100.937 31.4418 90.3508C28.3875 87.1748 25.0554 83.6459 22.0011 80.117C22.0011 79.7641 22.0011 79.4112 22.0011 79.4112C22.0011 77.2939 22.2788 74.8237 21.7235 72.7063C20.8905 70.2361 18.1137 68.8245 16.4477 67.7659C15.6147 67.0601 15.0595 67.413 14.5041 68.1188C13.9488 68.1188 13.3935 68.1188 13.3935 68.8246C12.5605 67.413 11.7274 66.0014 10.8944 64.9428C8.67308 61.061 2.84215 53.2974 5.06348 48.0041C7.84015 41.6521 14.2265 48.357 20.0575 53.2974C20.8905 54.0032 21.7234 52.5917 20.8904 51.8859C14.5041 46.9454 8.39541 43.4165 1.17608 40.9463C0.620746 40.5934 0.0654297 41.2992 0.0654297 42.005C2.56443 53.2974 7.00711 63.5312 12.8381 72.3534C12.5604 74.4708 12.2828 76.2352 12.8381 77.9997C13.6711 80.4699 15.8924 81.5285 17.8361 81.8814C18.3914 82.9401 19.5021 83.6459 20.3351 82.5872C32.8301 97.7615 48.1017 110.113 60.8744 122.111C65.3171 126.345 70.3151 131.286 75.3131 136.226C65.3171 143.637 54.7658 150.342 44.4921 156.341C43.6591 156.694 44.2145 158.105 45.0475 157.753C55.8765 151.753 66.4278 144.696 76.7014 137.285C80.0334 140.461 83.6431 143.637 86.9751 146.813C85.8645 153.871 84.7537 160.929 83.0877 167.986C81.6994 174.338 76.9791 198.335 68.9268 191.63C62.8181 186.689 65.3171 156.694 65.0394 149.283C65.0394 148.225 63.6511 148.225 63.6511 149.283C62.8181 163.752 61.7074 188.454 71.1481 199.041C71.4258 199.393 71.9811 199.393 72.5364 199.041C82.5324 187.395 87.2528 168.692 89.7518 149.283C94.7498 153.518 100.025 157.4 105.301 160.929C105.023 161.281 104.746 161.634 104.746 161.987C103.913 163.752 104.19 165.516 104.746 166.928C104.746 169.045 105.301 170.809 106.412 172.574C108.911 177.161 115.019 181.396 119.184 177.867C119.74 177.514 120.295 176.809 120.573 176.456C122.516 174.691 124.182 172.574 124.46 169.751C130.291 171.515 136.4 171.868 142.231 171.162C142.786 171.162 143.064 170.457 143.064 169.751C141.398 158.105 135.289 148.225 127.792 140.814C126.959 140.108 125.848 141.873 126.959 142.578C135.011 150.695 144.73 167.633 129.181 168.339C127.792 168.339 126.126 168.339 124.46 167.986C124.46 164.457 121.961 161.987 119.462 160.576C118.907 160.223 118.629 159.87 118.074 159.87C116.13 158.105 113.631 157.047 111.132 157.047C110.855 156.341 110.299 155.988 109.744 156.341C108.911 157.047 108.078 158.105 107.245 159.164C103.913 157.047 101.136 154.577 98.6372 152.812C95.8605 150.695 93.0838 148.577 90.3072 146.46C91.1402 139.755 91.4178 133.403 91.9731 127.051C96.4158 123.522 100.858 119.993 105.301 116.112C108.355 118.935 111.41 121.405 114.742 123.875C115.297 124.228 116.13 123.169 115.297 122.817C112.243 120.346 109.466 117.876 106.412 115.406C110.577 111.877 114.742 108.348 118.629 104.819C132.235 92.821 159.446 72.7063 161.39 48.7099C161.667 46.5925 161.39 45.8868 160.834 45.8868ZM88.0857 142.931C85.0314 140.461 82.2548 137.991 79.4781 135.168C83.0878 132.697 86.4198 130.227 89.7518 127.404C89.1965 132.697 88.641 137.638 88.0857 142.931ZM118.351 166.575H118.629C118.907 167.986 118.907 169.751 118.629 171.162C118.351 171.515 118.352 171.515 118.074 171.515C118.074 171.515 118.074 171.515 118.074 171.162C118.074 170.809 118.351 170.457 118.351 170.457C118.351 169.751 118.352 169.045 118.074 168.339C118.352 167.986 118.351 167.281 118.351 166.575ZM111.41 170.809C111.687 171.162 112.243 171.162 112.521 171.515C112.798 172.221 113.354 172.574 113.909 172.221H114.186V172.574C114.186 172.927 114.464 173.28 114.742 173.985C113.353 173.633 111.965 172.574 110.854 171.515C111.132 171.515 111.41 171.162 111.41 170.809ZM92.2507 123.169C92.5284 118.229 93.0838 105.525 93.3614 103.761C96.9711 106.937 100.581 110.465 104.191 113.641C100.026 116.817 96.138 119.993 92.2507 123.169ZM34.7738 130.58C31.9971 133.05 29.7758 136.932 27.2768 140.108C26.7215 140.814 27.5544 142.225 28.1098 141.52C30.6088 138.697 33.6631 135.521 35.6068 131.992C36.4398 130.933 35.6068 130.227 34.7738 130.58ZM166.666 34.2414C166.11 33.5357 165.555 32.8299 165.277 31.7712C164.444 30.3597 162.778 32.1241 163.611 33.5357C163.889 34.5943 164.444 35.3001 164.999 36.0059C165.832 38.1232 167.776 36.0059 166.666 34.2414ZM67.8161 120.699C68.0937 112.936 67.8161 105.172 68.9268 97.4086C69.2045 96.3499 67.8161 96.3499 67.5385 97.4086C66.4278 105.172 66.1501 113.289 66.4277 121.052C66.7054 121.405 67.8161 121.405 67.8161 120.699ZM113.631 79.0583C114.186 78.7054 114.464 78.7054 115.019 78.3525C115.297 78.3525 115.852 78.3525 116.13 78.3525C116.408 78.3525 116.685 78.7054 116.963 78.7054C117.518 78.7054 117.796 77.9997 118.074 77.6468C119.462 77.9997 120.573 77.2939 121.128 75.1765C123.072 69.1774 116.685 64.9428 113.353 63.5312C112.52 63.1783 111.687 63.8841 111.965 64.9428C112.243 66.0014 112.243 66.7072 112.521 67.7659C112.521 68.1188 112.243 68.4717 112.243 68.8246C111.41 68.8246 110.854 69.5303 110.577 70.589C109.466 70.589 108.911 72.3534 109.188 73.4121C109.744 75.8823 110.021 80.8228 113.631 79.0583ZM115.019 66.7072C115.297 66.7072 115.575 67.0601 115.575 67.0601C115.297 67.0601 115.297 67.413 115.019 67.7659L114.742 68.1188C114.742 68.4716 114.742 68.4717 114.464 68.8246C114.464 68.4717 114.186 68.1188 114.186 67.413C114.742 67.413 114.742 67.0601 115.019 66.7072Z" fill="#713D64"/>
</svg>
