<svg width="242" height="306" viewBox="0 0 242 306" fill="none" xmlns="http://www.w3.org/2000/svg">
<path d="M72.9709 92.4686C72.9709 92.4686 73.2486 92.4686 73.2486 92.1157C73.8039 91.7628 73.5263 90.7041 72.9709 90.7041C72.9709 90.3513 72.6933 89.9984 72.6933 89.2926C72.6933 88.2339 72.6933 87.1753 72.1379 86.4695C71.8603 85.7637 71.0273 85.7637 70.7496 86.4695C70.4719 87.881 70.4719 90.7042 71.3049 92.1157C72.1379 92.8215 72.6933 92.8215 72.9709 92.4686ZM54.9226 266.09C53.2566 265.384 51.8683 264.325 50.4799 263.267C49.6469 262.561 48.5363 264.325 49.3693 265.031C50.4799 266.443 51.8683 267.149 53.5343 267.854C54.9226 268.56 56.3109 269.619 57.4216 269.972C58.2546 270.325 59.0876 268.913 58.5323 268.207C57.4216 267.149 56.0333 266.796 54.9226 266.09ZM23.2686 72.0011C21.8802 74.4713 21.3249 77.2944 20.7696 80.1175C20.4919 81.1761 22.1579 81.8819 22.4356 80.4704C22.9909 78.0001 23.5463 75.177 24.9346 73.0597C25.7676 72.001 24.1016 70.5895 23.2686 72.0011ZM55.2002 18.3619C56.8662 15.8917 58.8099 13.4215 61.3089 12.7157C64.3633 11.3042 66.0293 13.4215 68.5283 15.1859C69.0836 15.5388 69.9166 14.8331 69.6389 14.1273C68.5283 10.5984 64.6409 9.53972 61.8643 10.2455C58.5323 11.3042 55.7556 14.1273 54.0896 17.6562C53.5343 18.3619 54.6449 19.4206 55.2002 18.3619ZM61.3089 14.833C60.4759 14.833 60.4759 16.9504 61.3089 16.9504C62.1419 16.9504 63.2526 16.9504 64.0856 17.3033C64.9186 17.6562 65.7516 18.009 66.5846 18.009C67.1399 18.009 67.6953 17.3033 67.4176 16.5975C66.3069 14.4802 63.2526 14.4802 61.3089 14.833ZM237.072 196.924C236.794 196.924 236.517 196.924 236.239 197.277C232.352 198.688 229.02 201.511 225.41 203.629C220.69 206.099 216.247 206.099 211.527 207.51C211.249 207.51 210.971 207.863 210.694 208.216C207.917 209.628 205.418 211.392 202.364 211.039C199.032 210.686 197.088 208.216 194.311 206.099C193.756 205.746 193.201 205.746 192.923 206.452C180.983 202.57 160.158 202.57 154.05 187.749C154.05 187.396 153.772 187.396 153.772 187.043C151.828 184.925 149.329 183.867 147.108 182.455C146.553 182.102 145.997 182.455 145.72 183.161C144.887 183.161 144.054 183.514 142.943 183.514C142.11 183.514 141.555 183.514 140.722 183.514C127.671 172.574 115.454 161.282 105.18 146.108C94.6289 130.228 88.7979 112.936 82.1339 94.5859C82.1339 94.233 81.8563 94.233 81.8563 94.233C81.3009 92.4686 80.4679 91.057 79.3573 89.9984C78.5243 88.9397 77.4136 87.8811 76.3029 87.8811C75.7476 85.7637 74.9146 83.6464 74.6369 81.529C74.3592 80.1175 74.0816 78.7059 73.8039 77.2944C75.1923 75.1771 76.3029 72.7068 76.0252 70.2366C76.0252 69.8837 76.0253 69.8837 75.7476 69.5308C74.9146 63.8846 73.8039 58.2384 72.6933 52.5922C71.5826 47.2988 71.3049 42.3584 71.3049 37.065C72.4156 30.3602 73.5263 24.0082 74.9146 17.3033C75.7476 13.0686 77.4136 6.01082 74.0816 2.48193C69.9166 -1.75274 62.9749 3.18771 59.3652 5.65794C54.6449 8.83394 49.0916 13.0686 45.2043 18.3619C30.7656 32.8304 17.4376 56.4739 11.8843 77.6473C11.8843 78.0002 11.8843 78.353 11.8843 78.353C11.0513 81.8819 11.3289 85.7637 10.4959 89.2926C9.38527 93.1744 6.60861 95.9975 5.77561 99.5264C-3.38739 136.227 -1.44373 176.103 12.7173 209.981C12.7173 210.333 12.9949 210.333 12.9949 210.333C14.9386 217.038 17.7153 225.861 22.1579 230.095C24.6569 232.565 27.7112 232.918 30.2102 235.389C35.7636 240.329 39.9286 249.857 39.6509 258.326C39.6509 259.385 40.2062 259.738 40.7616 260.091C64.9186 286.91 97.4056 306.319 129.893 302.79C133.502 303.143 137.112 305.966 140.722 305.966C143.776 305.966 145.997 302.79 148.496 301.026C162.102 300.32 174.597 293.262 186.259 285.146C197.366 277.382 209.861 268.913 218.746 256.915C222.356 250.563 253.732 199.041 237.072 196.924ZM225.688 236.8C219.301 249.857 211.527 259.738 200.975 268.207C183.482 282.323 166.545 293.262 145.997 298.909C143.221 299.614 141.555 303.143 138.5 303.143C135.446 303.143 132.669 300.673 129.615 301.026C94.9066 299.967 68.2506 284.44 40.7616 258.679C41.0392 249.857 37.4296 241.388 32.4316 235.389C29.6549 232.213 27.1559 231.507 24.1016 229.037C18.5482 224.802 16.0493 214.568 12.7173 207.51C1.88827 172.574 -0.610761 137.285 6.60857 100.938V100.585C11.6066 97.409 15.4939 83.2935 12.7173 77.6473C17.4376 67.0606 21.8802 56.4739 27.4336 46.9459C31.8762 39.5353 36.8743 32.8304 41.8723 26.4784C42.1499 26.4784 42.4276 26.4784 42.7052 26.1255C47.4256 19.4206 53.2566 14.1273 59.6429 9.89259C62.6973 7.77526 71.0273 1.77615 71.3049 9.53971C71.5826 18.3619 66.3069 27.537 67.1399 36.3593C66.8623 37.4179 66.8623 38.4766 66.8623 39.5353C66.8623 39.8881 67.1399 40.2411 67.1399 40.2411C67.1399 44.1228 67.9729 48.3575 68.5283 51.8864C69.6389 58.2384 71.0273 64.5904 72.6933 70.5895C72.4156 71.2953 72.1379 72.3539 71.8602 73.4126C71.5826 74.1184 71.3049 75.1771 71.0273 75.8828C70.7496 75.8828 70.4719 76.2357 70.4719 76.5886C69.9166 78.7059 70.7496 80.8233 71.3049 82.9406C71.8603 85.0579 72.6933 87.1753 73.8039 89.2926C73.8039 89.6455 73.8039 89.9984 74.0816 90.3513C74.9146 91.4099 76.0253 91.7628 77.1359 92.8215C77.9689 93.5272 78.8019 94.9388 79.6349 95.9975V96.3504C86.2989 133.404 112.122 170.81 139.056 186.337C139.056 186.337 139.056 186.337 139.333 186.337C139.333 186.337 139.333 186.337 139.611 186.337H139.889C140.166 186.337 140.166 186.337 140.444 186.337C142.388 186.69 144.609 186.69 145.997 185.631C147.663 186.69 149.607 188.101 151.551 188.807C151.551 188.807 151.551 189.16 151.551 189.513C154.605 198.688 159.603 200.1 166.822 202.57C175.43 205.393 184.315 208.569 193.201 209.275C195.144 212.451 198.476 214.215 201.531 214.568C205.14 215.274 208.472 213.509 211.527 211.039C219.301 214.568 230.963 206.452 236.794 200.1C242.348 202.57 227.354 233.624 225.688 236.8ZM17.1599 171.516C25.7676 175.045 25.2122 154.224 24.6569 148.931C24.6569 147.872 23.2686 147.872 23.2686 148.931C22.7132 152.46 22.9909 155.989 22.7132 159.518C22.7132 160.223 22.7132 160.929 22.7132 161.282C22.9909 164.458 21.8803 165.869 19.3813 165.869C17.7153 167.987 16.6046 167.987 16.0493 165.869C15.4939 165.164 15.2162 164.105 14.9386 163.046C12.9949 156.694 13.5503 149.637 13.8279 143.285C13.8279 141.873 12.1619 141.52 11.8843 142.932C11.0513 148.931 10.7736 154.93 11.8843 160.576C12.4396 164.811 14.1056 170.457 17.1599 171.516ZM13.8279 137.285C14.9386 136.227 16.0493 134.815 16.8823 133.404C19.3813 134.462 20.7696 136.933 21.0473 140.461C21.0473 141.52 22.4356 141.52 22.4356 140.461C22.4356 136.227 20.2142 132.698 17.1599 130.933C16.8822 130.933 16.3269 130.933 16.3269 131.286C15.2162 132.698 13.8279 134.462 12.9949 136.227C12.7172 136.933 13.2726 137.638 13.8279 137.285ZM22.4356 178.573C26.3229 176.456 27.9889 168.693 27.4336 163.752C27.4336 163.046 26.3229 162.693 26.0452 163.752C24.9346 167.634 25.7676 172.574 22.9909 175.75C21.0473 178.221 16.6046 178.221 16.0493 174.339C15.7716 173.28 14.6609 173.633 14.6609 174.692C15.2163 178.573 19.3813 179.985 22.4356 178.573ZM25.4899 137.285C25.2122 143.637 26.0452 150.342 26.8782 156.694C26.8782 157.753 28.2666 157.4 28.2666 156.341C27.9889 149.989 27.9889 143.285 26.8782 137.285C26.6006 136.227 25.4899 136.227 25.4899 137.285ZM48.8139 92.4686C49.3693 90.3513 50.2023 88.2339 50.4799 86.1166C51.0353 83.2935 51.3129 80.1175 50.4799 77.2944C49.0916 72.3539 44.9266 70.2366 41.5946 73.7655C36.8743 78.7059 38.5403 89.2926 39.6509 95.6446C39.9286 96.7033 41.3169 96.7033 41.0393 95.2917C40.4839 91.4099 40.2063 87.5281 40.2063 83.6464C40.2063 82.2348 40.4839 80.4704 40.7616 79.0588C43.2606 78.7059 45.7596 78.0002 48.2586 77.6473C49.6469 79.0588 48.5362 85.0579 48.2586 86.4695C47.7032 88.9397 46.8702 91.4099 46.3149 93.8801C46.0372 95.6446 46.8703 108.701 42.4276 105.525C41.3169 104.82 40.2062 106.584 41.3169 107.643C44.6489 110.466 47.4256 106.584 47.9809 102.349C48.5363 99.1735 47.9809 95.9975 48.8139 92.4686ZM50.2023 101.997C52.1459 98.1148 53.8119 93.1744 53.5343 88.5868C53.5343 87.5281 52.4236 87.1753 52.1459 88.2339C51.0353 92.8215 50.4799 97.0561 48.8139 101.291C48.8139 102.349 49.9246 103.055 50.2023 101.997ZM84.3552 183.161C87.4096 178.221 86.5766 171.516 84.6329 165.869C86.8543 169.751 88.5203 173.633 87.9649 178.926C87.4096 184.573 84.3553 189.16 80.4679 191.983C79.6349 192.689 80.1903 194.101 81.0233 193.748C90.4639 188.454 93.7959 170.457 84.3552 162.693C84.0776 162.341 83.7999 162.693 83.5223 162.693C83.2446 161.988 82.9669 161.635 82.9669 160.929C80.4679 155.283 75.4699 146.461 69.6389 149.284C68.5283 149.637 69.0836 151.754 70.1943 151.401C75.7476 149.989 80.4679 160.223 82.1339 165.164C84.3553 171.516 86.0213 181.044 79.6349 184.573C68.5283 190.925 63.8079 171.516 62.6973 161.635C62.4196 160.223 61.0313 160.576 61.0313 161.988C61.5866 171.163 63.8079 181.749 70.7496 186.337C74.9146 189.16 81.0232 188.454 84.3552 183.161ZM65.4739 143.99C64.3633 144.343 63.5303 145.049 62.9749 146.108C62.4196 147.166 62.6973 147.872 63.2526 148.931C63.8079 149.637 64.6409 148.931 64.3633 148.225C64.6409 147.872 64.6409 147.519 64.9186 147.166C65.4739 146.461 66.5846 146.461 67.1399 146.461C68.5283 146.461 69.6389 147.519 71.0273 147.519C71.5826 147.519 72.1379 146.813 71.8602 146.108C71.0272 143.285 67.6953 143.285 65.4739 143.99ZM62.9749 157.4C62.9749 158.812 64.3633 158.812 64.6409 157.753C64.9186 155.636 66.0293 154.93 67.1399 153.871C67.6953 153.518 67.4176 152.107 66.8623 152.107C64.3633 151.754 62.9749 154.577 62.9749 157.4ZM109.345 179.632C110.734 188.101 118.786 195.512 125.45 195.159C127.671 195.159 129.615 193.395 129.893 190.219C130.17 185.984 127.394 182.808 124.617 181.044C124.062 180.691 123.229 181.749 123.784 182.455C125.45 184.22 128.504 186.69 127.949 189.866C127.116 195.159 120.73 191.63 119.064 190.572C114.899 187.749 112.677 183.514 110.456 178.221C110.456 178.221 110.456 178.221 110.178 177.868C110.178 177.162 110.178 176.103 110.178 175.397C111.011 175.397 111.844 175.75 112.677 175.75C113.233 175.75 113.788 174.692 113.233 173.986C112.122 172.574 110.456 172.574 108.79 172.927C108.235 172.927 107.957 173.633 107.957 174.339C107.957 175.75 108.235 177.162 108.512 178.573C108.79 179.279 109.068 179.632 109.345 179.632ZM101.015 260.797C100.182 260.444 99.6269 261.855 100.46 262.208C103.237 263.973 106.291 265.384 108.79 267.501C114.066 271.736 114.343 283.381 107.957 285.146C105.736 285.499 103.237 285.499 101.015 285.146C91.5746 283.381 83.2446 277.735 76.5806 268.56C76.0253 267.501 74.6369 268.913 75.4699 269.972C83.2446 281.264 99.0716 293.615 111.289 286.91C115.454 284.793 117.675 280.205 116.565 274.559C114.621 265.737 106.846 262.914 101.015 260.797ZM74.3593 263.62C74.0816 265.031 75.7476 265.031 75.7476 263.973C76.8583 258.326 81.0233 255.15 85.4659 255.503C89.3533 255.856 92.4076 258.326 95.7396 260.444C96.8503 261.149 97.6832 259.385 96.8502 258.679C90.1862 251.621 76.3029 249.504 74.3593 263.62ZM56.5886 208.569C56.0332 208.216 55.2003 209.275 55.7556 209.981C56.8663 211.392 57.9769 212.451 58.2546 214.921C58.5323 217.038 58.2546 219.509 57.1439 220.92C54.3673 224.449 49.3692 221.979 48.2586 217.744C47.9809 217.038 46.8703 217.391 47.1479 218.097C48.5363 223.743 54.3672 226.566 57.9769 222.685C61.0312 219.156 61.0312 209.981 56.5886 208.569ZM185.148 233.977C181.261 231.507 174.875 234.33 170.987 236.094C170.154 236.447 170.71 238.212 171.543 237.859C174.597 237.506 177.374 236.094 180.15 235.741C185.426 234.683 188.758 240.682 187.092 247.034C183.76 258.326 172.653 254.445 165.989 251.269C165.434 250.916 164.879 252.327 165.434 252.68C172.653 257.973 187.647 260.444 189.591 245.622C190.146 241.035 188.48 236.094 185.148 233.977ZM162.657 247.74C162.935 249.151 164.601 248.093 164.046 246.681C163.49 244.564 164.046 242.446 165.156 240.682C165.712 239.976 166.267 239.27 167.1 238.917C167.933 238.565 168.488 238.565 169.321 238.212C169.877 237.859 169.877 236.8 169.321 236.447C167.378 235.036 164.879 237.153 163.49 239.27C162.38 242.093 161.824 244.917 162.657 247.74ZM132.669 241.741C127.949 239.976 122.673 243.152 120.73 248.445C120.174 249.504 121.563 250.21 122.118 249.504C124.617 245.269 128.782 242.446 132.947 244.564C136.834 246.328 137.667 250.916 138.778 255.15C139.056 255.856 140.166 255.856 140.166 255.15C141.555 249.504 137.112 243.505 132.669 241.741ZM160.714 209.981C161.824 212.098 159.603 212.098 158.492 212.098C156.549 211.745 154.605 209.981 153.494 207.863C152.939 206.805 151.828 207.51 152.384 208.569C153.772 212.451 158.215 215.98 161.547 213.862C165.156 211.745 161.269 206.805 158.77 206.452C157.659 206.452 157.659 207.863 158.492 208.569C159.048 208.569 160.436 208.922 160.714 209.981ZM112.122 289.028C97.6832 289.733 86.2989 286.91 75.7476 273.501C75.1923 272.795 74.0816 273.853 74.6369 274.559C82.9669 287.616 99.3493 296.438 112.4 290.439C112.955 290.439 112.677 289.028 112.122 289.028ZM118.508 270.325C119.897 274.206 120.73 278.441 119.064 282.676C118.508 283.734 119.897 285.146 120.452 283.734C122.673 279.5 122.951 272.795 119.897 269.266C119.064 268.913 118.231 269.266 118.508 270.325ZM92.9629 251.974C97.1279 255.503 102.126 257.973 107.124 260.091C107.957 260.444 108.512 259.032 107.679 258.326C102.959 255.856 98.5163 252.68 93.7959 250.563C92.9629 250.21 92.4076 251.621 92.9629 251.974ZM78.8019 150.342C79.3572 152.46 80.1903 153.871 81.3009 155.636C81.8563 156.694 83.2446 155.636 82.9669 154.224C82.1339 152.46 81.5786 150.695 80.1902 149.284C79.6349 148.578 78.5242 149.284 78.8019 150.342ZM101.293 152.46C93.5183 138.697 87.9649 124.581 81.5786 109.76C81.3009 108.701 79.9126 109.407 80.1902 110.466C83.7999 125.993 91.8523 141.52 100.182 153.871C101.015 154.577 101.848 153.518 101.293 152.46ZM76.0252 105.525C76.0252 107.643 76.8583 109.76 77.4136 111.877C77.6913 112.936 79.0796 112.23 78.8019 111.172C78.5242 109.054 78.2466 106.584 77.1359 104.82C76.8583 104.467 76.0252 104.82 76.0252 105.525ZM79.6349 102.349C78.5243 100.232 77.6912 97.409 76.0252 95.6446C75.4699 95.2917 74.6369 95.6446 74.9146 96.7033C75.4699 99.1735 77.1359 101.644 78.2466 103.761C78.8019 104.467 80.1903 103.408 79.6349 102.349ZM111.011 187.749C110.456 187.043 109.345 187.749 109.901 188.807C113.788 197.629 124.339 203.629 131.836 200.1C132.392 199.747 132.114 198.688 131.559 198.688C127.671 198.688 124.339 199.041 120.73 197.277C116.287 195.159 113.788 191.983 111.011 187.749ZM123.784 179.279C124.339 179.279 124.895 178.221 124.339 177.868C123.506 177.162 122.673 176.809 121.84 176.103C121.007 175.397 120.174 174.339 119.341 173.28C118.786 172.221 117.398 173.633 118.231 174.692C119.341 176.809 121.285 179.279 123.784 179.279ZM151.551 213.862C152.106 214.921 153.217 213.509 152.661 212.804C151.273 210.333 149.885 207.51 148.774 204.687C149.885 202.57 151.551 202.57 153.494 202.923C154.327 203.276 154.605 201.511 154.05 201.158C151.828 199.394 148.774 200.805 147.386 203.276C146.553 205.04 147.386 206.099 148.219 207.863C149.329 209.981 150.44 212.098 151.551 213.862ZM152.661 205.746C153.772 206.099 154.883 206.805 156.271 206.452C156.826 206.452 157.104 205.393 156.549 205.04C155.438 204.334 154.327 203.981 153.217 203.981C152.384 203.629 152.106 205.393 152.661 205.746ZM182.927 228.331C176.818 227.272 172.098 233.624 165.989 233.624C165.156 233.624 164.879 235.389 165.989 235.389C169.599 236.094 172.376 233.977 175.708 232.213C181.816 229.037 186.814 231.154 190.702 237.859C191.257 238.917 192.368 237.859 192.09 236.8C190.424 232.213 186.814 229.037 182.927 228.331ZM177.929 257.973C168.488 260.444 161.269 254.797 160.158 242.446C160.158 241.388 158.77 241.388 158.77 242.446C157.937 255.15 169.321 265.384 178.207 259.738C179.04 259.032 178.484 257.621 177.929 257.973ZM205.973 239.976C205.14 239.623 204.585 241.388 205.418 241.741C208.472 243.505 212.082 239.623 210.971 235.741C210.416 233.977 209.305 232.565 207.917 232.213C206.806 231.86 204.307 231.86 204.03 233.977C203.752 234.683 204.307 235.389 204.863 235.389C205.696 235.389 206.251 234.683 207.084 234.683C207.917 234.683 208.75 235.389 209.028 236.094C210.416 238.565 207.639 241.035 205.973 239.976ZM141.832 282.676C140.722 283.734 141.555 286.205 142.665 285.146C144.331 283.734 154.327 277.382 155.438 282.323C156.826 288.322 145.72 288.675 143.221 288.675C142.11 288.675 142.11 290.792 142.943 290.792C147.108 290.792 158.492 290.439 157.104 281.97C156.271 274.206 144.887 280.205 141.832 282.676ZM17.9929 199.394C15.2163 199.041 15.2163 202.923 15.2163 205.393C15.7716 210.686 17.7153 215.98 20.7696 219.861C21.6026 220.92 22.9909 219.509 22.1579 218.45C20.7696 215.98 19.3813 213.157 18.5483 210.333C18.5483 209.981 17.1599 206.099 17.4376 205.393C18.5483 202.217 20.2143 205.393 20.7696 206.452C24.1016 211.392 25.4899 217.744 25.7676 224.096C25.7676 225.508 27.7113 225.508 27.7113 224.096C27.7113 218.803 26.8783 213.862 24.9346 209.275C23.8239 205.746 21.0473 199.747 17.9929 199.394ZM214.859 247.387C211.527 250.563 209.028 255.15 205.696 258.679C202.086 262.561 198.476 265.737 194.311 268.56C193.478 269.266 194.034 270.677 194.867 270.325C202.641 265.737 212.082 258.679 215.969 248.798C216.525 247.387 215.414 246.681 214.859 247.387ZM219.857 239.27C219.024 239.623 218.468 240.682 217.913 241.741C217.08 243.152 218.746 244.917 219.857 243.505C220.412 242.446 220.967 241.741 221.245 240.329C221.245 239.623 220.412 238.917 219.857 239.27ZM228.464 221.273C227.076 223.037 226.243 225.155 225.41 227.272C224.577 229.389 223.466 231.507 222.633 233.977C222.078 235.036 223.744 236.094 224.299 235.036C225.41 232.918 226.243 230.801 227.354 228.684C228.187 226.566 229.297 224.802 229.575 222.332C229.853 221.626 229.02 220.567 228.464 221.273ZM228.464 208.569C227.631 208.922 227.909 211.039 229.02 210.686C230.408 210.333 230.408 212.804 230.686 213.862C230.963 214.568 231.519 214.568 231.796 214.568C233.185 213.862 232.907 211.392 232.074 209.981C231.241 208.216 229.853 207.863 228.464 208.569ZM210.971 215.627C211.527 214.568 210.694 213.862 209.861 214.215C207.362 215.274 205.418 217.038 202.919 217.391C200.142 217.744 197.366 217.744 194.867 216.333C194.034 215.98 193.478 217.744 194.311 218.097C199.309 220.92 207.084 221.626 210.971 215.627ZM212.915 215.274C213.47 214.921 214.026 214.568 214.581 213.862C215.136 213.157 214.303 211.745 213.748 212.098C212.915 212.451 212.637 212.804 212.082 213.509C210.694 213.862 211.804 215.98 212.915 215.274ZM189.313 209.275C187.37 208.216 185.148 208.569 183.482 209.981C182.649 210.686 183.205 212.098 184.038 211.392C185.426 210.333 186.814 210.686 188.48 211.392C189.869 212.098 190.424 213.862 191.257 215.274C191.812 215.98 192.645 215.627 192.645 214.568C192.923 212.451 190.979 210.333 189.313 209.275ZM66.3069 55.7681C66.8622 58.2384 67.4176 60.3557 67.6952 62.8259C67.9729 66.0019 67.4176 68.825 66.8623 71.6481C66.5846 73.0597 67.9729 73.7655 68.5283 72.3539C70.1943 67.0606 70.4719 59.297 67.6952 54.7095C67.1399 54.0037 66.3069 54.7095 66.3069 55.7681ZM16.6046 85.4108C16.3269 79.4117 17.4376 74.1184 19.6589 68.8251C21.0473 65.2962 23.2686 62.473 24.3793 58.9441C24.6569 57.8855 23.5463 57.1797 22.9909 57.8855C17.4376 64.2375 13.2726 76.2357 14.9386 85.7637C15.2162 87.1753 16.6046 86.4695 16.6046 85.4108ZM9.94061 100.585C6.33094 103.055 4.94257 109.054 5.22024 113.995C5.22024 115.406 6.88626 115.053 6.88626 113.642C6.60859 108.701 8.27457 105.525 10.7736 102.349C11.3289 101.291 10.7736 99.8793 9.94061 100.585Z" fill="#FEC841"/>
</svg>
