<svg width="100" height="131" viewBox="0 0 100 131" fill="none" xmlns="http://www.w3.org/2000/svg">
<path d="M48.0353 120.079C46.9246 122.902 45.2586 125.372 43.3149 127.843C42.7596 126.784 42.4819 125.725 41.9266 124.667C41.6489 123.961 41.3713 122.902 40.5383 122.902C40.2606 122.902 39.9829 123.255 39.9829 123.608C39.9829 123.961 39.9829 123.961 39.9829 124.314C39.9829 124.314 39.9829 124.667 40.2606 124.667C40.2606 124.667 40.2606 125.02 40.5383 125.02C40.8159 125.725 41.0936 126.078 41.3713 126.784C41.9266 127.843 42.2043 128.901 42.7596 129.96C43.0373 130.313 43.5926 130.313 43.8703 129.96C46.0916 127.49 47.7576 124.314 48.8683 120.432C49.1459 119.726 48.3129 119.373 48.0353 120.079ZM41.6489 111.61C41.9266 109.139 42.4819 106.316 42.2043 103.846C42.2043 103.493 41.6489 103.14 41.3713 103.846C40.8159 106.316 40.8159 109.139 40.8159 111.61C40.8159 112.315 41.3713 112.315 41.6489 111.61ZM99.6813 71.0275C95.5163 66.7928 90.2406 65.3814 84.9649 65.3814C84.4096 65.3814 84.1319 66.44 84.9649 66.44C91.0736 66.44 103.013 69.9689 92.7396 77.3796C92.1843 77.7325 91.6289 78.0853 91.0736 78.4382C89.9629 77.3795 88.5746 77.3796 87.1863 77.7325C86.9086 77.7325 86.6309 78.0853 86.0756 78.0853C84.6872 78.0853 83.2989 78.7911 82.1883 80.2026C81.9106 80.2026 81.6329 80.2027 81.3553 80.5555C81.0776 81.2613 81.0776 81.9671 81.0776 82.6729C80.7999 82.6729 80.7999 82.6729 80.5223 82.6729C76.9126 83.7316 73.5806 84.4374 69.9709 84.7903C68.3049 81.6143 66.6389 78.4382 65.2506 75.6151C66.3613 72.0862 67.1943 68.2044 68.0273 64.6755C70.2486 64.3226 72.1923 64.3226 74.4136 63.9697C74.9689 63.9697 74.6913 62.9111 74.4136 63.264C72.4699 63.6169 70.5263 63.9697 68.3049 63.9697C69.4156 59.7351 70.2486 55.5004 71.3593 50.9129C73.8583 39.6204 79.1339 20.2115 73.5806 9.27193C73.3029 8.91904 73.0253 8.56624 72.7476 8.91913C67.4719 14.5654 64.6953 20.5644 62.7516 29.0337C62.4739 29.7395 63.5846 30.4453 63.5846 29.3866C64.9729 24.4462 70.8039 5.39015 74.1359 14.5653C75.5243 18.0942 74.4136 24.0933 73.8583 27.9751C73.0253 38.2089 70.8039 48.4427 68.3049 58.3236C67.7496 60.088 67.4719 61.8525 66.9166 63.6169C64.1399 63.9698 61.3633 63.9697 58.5866 64.3226C49.9789 49.1484 39.9829 33.2684 28.3209 22.3289C28.0433 21.976 27.4879 22.3289 27.4879 22.6818C27.2103 38.5618 36.6509 51.2658 43.5926 62.9111C43.8703 63.264 44.4256 62.911 44.1479 62.2053C39.9829 54.7946 34.7073 47.3839 31.6529 39.2675C30.2646 35.7386 25.8219 25.1519 29.4316 25.1519C30.5423 25.1519 34.1519 30.4453 34.9849 31.504C41.9266 39.9733 48.0353 49.5013 53.8663 59.0293C54.9769 60.7937 56.0876 62.5582 57.1983 64.3226C45.2586 65.0284 33.3189 65.3814 21.9346 68.9102C21.3793 68.9102 21.6569 69.9688 21.9346 69.616C33.5966 66.0871 45.8139 65.7342 57.7536 65.0285C59.6973 68.5573 61.9186 72.0862 63.5846 75.6151C62.7516 78.7911 61.9186 81.967 60.8079 85.143C58.5866 85.143 56.6429 85.496 54.6993 85.496C46.0916 86.2017 37.7616 86.9075 29.1539 87.2604C26.3773 87.2604 23.8783 87.2604 21.1016 86.9075L20.8239 86.5547C20.8239 86.5547 20.8239 86.5547 20.5463 86.5547C19.9909 85.496 19.4356 84.0844 18.6026 83.7315C17.4919 83.0257 16.1036 83.7315 14.7153 84.0844C14.4376 84.0844 14.1599 84.4373 14.1599 85.143C13.8823 85.4959 13.8823 85.496 13.8823 86.2018C11.1056 85.496 8.6066 84.7902 6.1076 83.3786C6.38527 77.7324 8.32893 75.6151 12.4939 75.968C13.0493 75.968 12.7716 74.9093 12.2163 74.9093C7.7736 75.6151 4.44161 77.0267 0.276609 79.144C-0.00105727 79.144 -0.00105727 79.8497 0.276609 80.2026C4.71928 84.0844 9.4396 86.2018 14.4376 87.6133C14.9929 88.672 15.2706 89.7307 16.1036 90.0836C17.2143 90.7894 18.3249 90.0835 19.4356 89.3778C19.9909 89.3778 20.5463 89.3777 20.8239 88.6719C31.6529 89.7306 43.0373 87.9662 53.0333 87.2604C55.2546 87.2604 57.7536 86.9075 60.2526 86.9075C58.0313 94.6711 55.2546 102.435 52.4779 110.198C52.2003 110.551 53.0333 110.904 53.0333 110.551C56.0876 102.788 58.5866 95.0239 61.0856 86.9075C63.5846 86.9075 65.8059 86.5547 68.3049 86.2018C69.4156 89.0249 70.5263 91.848 71.6369 94.6711C72.4699 96.7884 78.0233 111.257 75.8019 113.727C71.9146 117.962 61.9186 100.67 59.4196 97.4942C59.1419 97.1413 58.5866 97.4942 58.8643 98.2C62.7516 104.905 68.8603 115.844 76.0796 116.55C76.3573 116.55 76.6349 116.197 76.6349 115.844C77.7456 105.964 74.4136 95.3769 69.9709 86.2018C73.3029 85.8489 76.9126 85.1431 80.2446 84.0844C80.2446 84.4373 80.2446 84.4374 80.2446 84.7903C80.5223 85.8489 81.0776 86.5546 81.6329 86.9075C82.1883 87.6133 82.4659 87.9662 83.2989 88.3191C85.5203 89.7307 89.6853 89.0249 91.0736 85.8489C91.3513 85.1431 91.3513 84.4373 91.3513 83.7315C91.6289 81.9671 91.6289 80.2027 91.0736 78.7911C94.1279 76.6738 96.9046 74.5564 99.1259 71.3804C99.9589 71.7333 99.9589 71.0275 99.6813 71.0275ZM61.0856 68.5573C60.5303 67.4987 59.9749 66.44 59.4196 65.3814C61.9186 65.3814 64.4176 65.0284 66.9166 64.6755C66.0836 67.8515 65.2506 71.0276 64.4176 74.2036C63.3069 72.0862 62.1963 70.3218 61.0856 68.5573ZM62.1963 85.496C63.0293 82.6729 63.8623 80.2027 64.6953 77.3796C66.0836 79.8498 67.1943 82.3199 68.3049 85.143C66.0836 85.143 64.1399 85.496 62.1963 85.496ZM86.3533 86.9075C86.3533 86.5546 86.3533 86.5547 86.3533 86.2018C86.6309 86.2018 86.9086 86.2018 87.1863 85.8489C87.464 86.2018 87.7416 85.8489 88.0192 85.496C88.0192 85.496 88.0193 85.496 88.2969 85.496C88.2969 85.496 88.5746 85.496 88.5746 85.8489C88.8523 85.8489 88.8523 85.8489 89.1299 86.2018C88.2969 86.9076 87.1863 86.9075 86.3533 86.9075ZM89.6853 83.7315C89.4076 83.3786 89.4076 83.3787 89.4076 83.0258L89.1299 82.6729L88.8523 82.32C88.8523 81.9671 88.5746 81.6143 88.5746 81.2614C88.5746 81.2614 88.5746 81.2614 88.8523 81.2614C89.4076 81.6143 89.9629 82.3199 90.2406 83.3786C89.6853 83.3786 89.6853 83.7315 89.6853 83.7315ZM70.2486 2.21415C70.8039 2.56704 70.8039 2.56706 71.6369 2.56706C72.7476 2.91995 73.0253 1.15551 71.9146 0.802617C71.3593 0.802617 71.0816 0.449707 70.5263 0.449707C69.6933 0.449707 69.6933 1.86126 70.2486 2.21415ZM53.0333 84.4373C51.0896 80.9084 48.5906 77.7324 46.9246 73.4978C46.6469 72.792 46.0916 73.4978 46.3693 73.8507C48.0353 77.7324 50.2566 81.6143 52.4779 84.7903C52.7556 85.496 53.3109 84.7902 53.0333 84.4373ZM57.4759 40.6791C57.4759 41.032 57.4759 41.032 57.4759 40.6791C57.1983 41.3849 57.1983 42.0906 57.1983 42.7964C56.9206 43.1493 56.6429 44.2079 57.1983 44.5608C58.3089 45.6195 59.9749 47.7369 61.0856 45.2666C61.0856 45.2666 61.3633 44.9137 61.3633 44.5608C61.6409 44.2079 61.9186 44.208 61.9186 43.8551C62.1963 43.8551 62.1963 43.5022 62.4739 43.5022C62.4739 43.1493 62.4739 43.1493 62.4739 42.7964C63.0293 42.4435 63.3069 41.3849 63.0293 40.3262C62.1963 36.7973 58.0313 37.856 56.0876 38.5618C55.5323 38.9147 55.5323 39.6204 56.0876 39.9733C56.6429 39.9733 57.1983 40.3262 57.4759 40.6791ZM58.8643 38.9147C58.5866 39.2676 58.5866 39.6204 58.8643 39.9733C58.8643 39.9733 58.8643 39.9733 58.8643 40.3262C58.5866 40.3262 58.5866 39.9733 58.5866 39.9733C58.5866 39.6204 58.5866 39.6204 58.3089 39.2675C58.5866 38.9146 58.8643 38.9147 58.8643 38.9147Z" fill="#BEB8A3"/>
</svg>
