<svg width="186" height="173" viewBox="0 0 186 173" fill="none" xmlns="http://www.w3.org/2000/svg">
<path d="M131.358 77.4255C131.08 77.4255 131.08 77.4255 130.802 77.4255C129.692 71.0735 127.748 65.4273 124.971 60.134C128.581 56.6051 131.913 53.4291 135.8 50.606C136.356 50.2531 136.633 49.5473 136.633 48.8415C136.911 49.5473 137.189 49.9002 137.744 50.2531C138.855 51.3117 139.965 51.6646 141.076 51.6646C142.742 53.7819 143.853 53.4291 145.796 52.0175H146.074C146.629 51.6646 147.185 51.3118 147.74 50.606C148.295 50.2531 148.851 49.5473 148.851 48.4886L149.128 48.1357C148.851 47.7828 148.851 47.43 148.573 47.0771C147.74 44.9598 147.74 42.4895 148.573 40.3722C148.851 38.9606 149.684 37.902 150.517 36.8433C150.517 36.8433 150.517 36.4904 150.239 36.4904C147.74 32.2558 142.187 30.1384 139.132 34.3731C138.577 34.3731 138.022 34.726 137.744 35.4318C136.633 37.5491 132.746 43.5482 134.69 46.3713L134.967 46.7242H134.69C130.802 49.5473 126.915 53.0762 123.305 56.6051C118.307 48.4886 110.81 42.8424 100.814 41.7838C98.0378 41.4309 95.5388 41.7837 93.0398 42.1366C91.6515 33.3144 90.8184 24.4922 90.8184 15.3171C90.8184 14.9642 90.8184 14.9642 90.8184 14.6113C91.6514 14.6113 92.2068 14.6113 93.0398 14.6113C93.8728 14.6113 94.4281 13.5526 94.4281 12.494C94.7058 12.1411 94.9834 11.7882 95.2611 11.4353C96.3718 10.0237 97.2048 7.90641 96.6494 6.14197C96.0941 2.61308 92.7621 0.848633 89.9855 0.848633C88.3195 0.848633 86.9311 1.90731 86.0981 3.67175C86.0981 3.67175 86.0981 3.67172 86.0981 4.02461C85.8205 4.3775 85.5428 4.73042 85.5428 5.4362C85.2651 6.14198 85.2651 6.84772 85.5428 7.5535V7.90641C85.2651 8.96508 85.2651 10.3766 85.8205 11.4353C86.3758 12.8469 87.2088 13.5526 88.0418 14.2584C88.0418 14.6113 87.7642 14.9642 87.7642 15.3171C87.4865 24.8451 88.0418 34.3731 89.9855 43.5482C82.2108 46.0184 75.5468 51.6647 70.2711 59.4282C65.2731 56.958 58.0538 58.7224 53.0558 59.0753C41.3938 60.134 29.7318 62.6042 18.6251 66.8388C11.1281 69.662 -6.08723 77.7784 3.6311 89.4238C36.3958 158.237 118.863 197.408 176.062 154.002C176.34 154.002 176.34 153.65 176.617 153.297C177.173 153.65 177.728 153.65 178.561 152.944C204.384 124.007 147.74 86.2477 131.358 77.4255ZM142.464 36.1375C142.187 36.4904 141.909 36.8433 141.631 37.1962C141.631 36.8433 141.354 36.8433 141.354 36.4904C141.631 36.4904 142.187 36.4904 142.464 36.1375ZM136.078 46.7242C136.078 47.0771 136.078 47.0771 136.078 46.7242V46.7242ZM92.7621 6.14197C92.7621 6.14197 92.7621 6.14199 93.0398 6.49488V6.84773C93.0398 7.20062 93.0398 6.84775 93.0398 7.20064C93.0398 7.20064 92.7621 6.49485 92.7621 6.14197C92.4845 6.14197 92.4845 6.14197 92.7621 6.14197ZM88.3194 8.96509C88.3194 8.25931 88.3194 7.90642 88.3194 7.20064C88.5971 7.55353 88.8748 7.5535 89.1525 7.5535C89.4302 7.90639 89.4301 7.90643 89.7078 8.25932C89.7078 8.25932 89.7078 8.61218 89.9855 8.61218C89.4301 8.25929 88.5971 8.6122 88.3194 8.96509ZM91.6515 48.1357C91.9291 48.1357 92.2068 48.1358 92.4844 47.7829C94.7058 47.43 96.9271 47.0771 99.4261 47.0771C108.867 47.43 115.531 52.3704 119.973 59.7811C115.531 64.3686 111.366 69.3091 107.201 74.2495C106.368 75.6611 107.478 77.4255 108.589 76.3668C113.032 71.7793 117.197 67.5447 121.639 62.9571C126.915 73.5438 128.859 88.0122 128.303 101.422C128.026 101.422 127.47 101.775 127.193 102.128C106.923 125.418 77.4904 111.303 63.0518 85.8949C67.4944 67.8975 77.2128 52.0175 91.6515 48.1357ZM175.507 149.062C175.229 149.415 174.951 150.121 174.951 150.474H174.674C142.187 164.589 111.921 170.941 78.6011 156.826C47.7801 143.769 24.1784 118.008 4.74175 85.542C4.46409 85.1891 4.46414 85.1891 4.18647 85.1891C0.854471 74.2495 31.9531 67.5447 36.9511 66.486C46.9471 64.3687 57.4984 65.4273 67.4944 64.0157C64.7178 69.6619 62.4964 76.014 61.6634 82.7188C60.8304 82.366 59.7198 83.7775 59.9975 85.1891C70.5488 118.714 109.977 129.653 130.247 106.01C130.525 105.657 130.525 105.304 130.802 105.304C131.635 105.304 132.746 104.598 132.746 103.186C133.024 96.1286 132.746 88.7179 131.635 81.6602C145.796 94.7171 198.275 124.007 175.507 149.062ZM82.7661 138.475C54.4441 125.418 30.2871 108.127 7.51842 83.4246C6.68542 82.3659 5.57477 84.4833 6.40777 85.1891C27.5104 109.538 53.6112 134.241 82.2108 140.946C83.3215 141.298 83.8768 138.828 82.7661 138.475ZM176.062 144.122C150.517 147.298 126.082 150.474 100.814 142.357C99.7038 142.004 98.8708 144.122 99.9815 144.827C123.028 154.708 152.738 154.355 176.34 146.592C177.728 145.886 177.45 143.769 176.062 144.122ZM69.4381 86.2477C71.3818 93.6584 77.7682 97.1873 83.5992 95.7757C92.2068 94.0113 94.4282 79.8957 89.1525 72.1322C87.7642 70.0148 85.5428 68.2504 83.3215 67.8975C80.8225 67.1917 76.6575 66.8388 74.7138 69.3091C74.1585 70.0148 74.1584 70.7206 74.4361 71.0735C69.7158 72.8379 67.7721 80.2486 69.4381 86.2477ZM77.4905 73.1909C78.0458 73.1909 78.3235 72.4851 78.0458 72.1322C79.4342 71.7793 81.1001 71.4264 82.4884 71.7793C84.1544 72.1322 85.8204 73.5438 86.9311 75.3082C88.8748 78.4842 89.4301 83.7775 88.0418 87.3064C86.0981 92.2469 81.6555 92.9526 78.0458 91.5411C74.4362 90.1295 72.2148 87.6593 71.6594 82.7188C71.1041 77.7784 73.3255 73.5437 77.4905 73.1909Z" fill="#8ABEBA"/>
</svg>
