<svg width="195" height="226" viewBox="0 0 195 226" fill="none" xmlns="http://www.w3.org/2000/svg">
<path d="M191.505 34.6487C190.95 32.8842 189.006 34.2958 189.284 36.0602C194.004 52.2931 191.227 67.1145 182.897 79.8185C188.173 64.2913 188.728 45.9411 182.064 31.8255C169.014 4.30021 127.642 0.771355 117.09 31.4727C98.2088 45.9411 78.7721 61.4682 61.8345 79.4655C61.8345 79.4655 61.8345 79.4655 61.5568 79.4655C61.5568 79.4655 61.5568 79.4655 61.2792 79.4655C61.2792 79.4655 61.0015 79.4656 61.0015 79.1127C61.0015 79.1127 61.0015 79.1127 61.2792 79.1127C61.0015 79.1127 61.0015 79.1127 60.7238 79.1127C60.4462 78.7598 60.4462 78.7597 60.1685 78.4069C60.1685 78.4069 60.1685 78.4069 60.1685 78.054L59.8908 77.7011C59.8908 77.7011 59.8908 77.3482 59.6132 77.3482L59.3355 76.9953H59.0578C59.0578 76.9953 58.7802 76.9953 58.7802 76.6424H58.5025C58.2248 76.6424 58.2248 76.6424 57.9472 76.6424C57.3918 76.6424 56.5588 77.3482 56.0035 78.054C55.4482 78.4069 54.8928 79.1127 54.6152 79.8185C54.6152 80.1713 54.3375 80.1713 54.3375 80.5242C53.7822 81.23 52.9492 81.9358 52.6715 82.6416C52.3938 82.9945 52.3938 83.3473 52.3938 83.7002C52.1162 84.406 51.8385 85.4647 51.8385 86.1705C51.8385 87.2291 52.3938 88.2878 53.2268 88.6407C53.5045 90.0522 54.3375 91.1109 55.4482 91.8167C58.5025 93.5811 62.1122 91.8167 64.8888 90.0522C65.4442 89.6993 65.9995 88.9935 65.9995 88.2878C65.9995 85.8175 65.4442 84.0531 64.3335 81.9358C80.9935 68.8789 97.0981 54.4104 113.203 40.6478C110.704 55.1162 111.537 72.0549 115.979 85.4646C108.76 93.2282 101.819 101.698 95.4322 108.755C84.0478 121.106 72.9412 133.458 61.2792 145.456C61.0015 144.75 60.7238 144.397 60.1685 144.044C59.3355 143.691 58.2248 143.338 57.3918 143.691C56.5588 143.691 55.1705 144.397 54.3375 145.103C52.6715 145.809 51.0055 148.985 50.4502 150.749C50.4502 151.102 50.1725 151.455 50.1725 151.455C49.6172 152.161 49.0618 152.866 48.7842 153.572C48.2288 154.984 48.5065 156.042 49.6172 156.748H49.8948C50.4502 158.16 51.2832 158.866 52.3938 158.866C52.6715 158.866 52.9492 158.866 53.2268 158.866C53.5045 159.218 53.7822 159.218 54.3375 159.571C54.6152 160.277 55.1705 160.63 55.7258 160.277C56.5588 160.277 57.6695 159.924 57.6695 158.16C58.2248 157.807 58.7801 157.807 59.0578 157.454C61.2791 156.395 62.3898 154.278 62.6675 151.455C62.6675 150.749 62.6675 149.69 62.3898 148.985C74.0518 139.457 84.6031 127.106 95.1545 115.813C102.651 107.344 110.982 99.5802 119.034 91.4638C123.754 100.286 130.696 106.285 140.414 106.991C142.636 108.05 144.857 108.755 146.801 109.108C141.525 114.754 136.527 120.401 131.529 126.047C122.088 136.634 111.815 146.514 102.374 157.101C102.096 157.101 101.818 157.101 101.541 156.748C101.263 156.748 100.985 156.395 100.708 156.395C99.5972 156.042 98.4865 155.337 97.3758 155.69C96.2652 156.042 95.7098 156.748 95.1545 157.807C94.0438 158.866 93.4885 160.63 92.9332 162.394C92.6555 163.1 92.9332 163.806 93.2108 164.512C93.2108 165.217 92.9332 165.923 92.9332 166.629C92.9332 167.688 93.4885 168.746 94.3215 169.099C96.2652 169.099 97.9312 169.099 99.8749 169.452C100.43 169.452 101.263 169.099 101.541 168.394C102.096 167.335 102.651 166.276 102.929 164.865C103.207 164.159 103.207 163.1 102.929 162.394C102.929 162.042 102.652 162.042 102.652 161.689C120.145 147.22 135.694 127.811 150.688 109.814C163.738 109.814 174.845 98.1687 181.231 82.9944C181.509 83.3473 181.787 83.7002 182.342 83.3473C195.392 74.5251 197.336 50.5287 191.505 34.6487ZM60.1685 87.9349C60.1685 87.582 60.4461 87.582 60.4461 87.582C60.7238 87.582 60.7238 87.2291 60.7238 87.2291C61.0015 87.2291 61.0015 86.8762 61.2792 86.8762L61.5568 86.5233C61.5568 86.8762 61.8345 86.8762 61.8345 87.2291C61.2791 87.2291 60.7238 87.582 60.1685 87.9349ZM140.692 15.9455C140.692 17.0042 140.692 17.71 140.692 18.7687C139.026 19.1216 137.637 19.4744 136.249 20.1802C136.249 20.1802 136.249 20.1802 135.972 20.1802C135.972 19.4744 135.972 18.7687 135.972 17.71C137.36 17.0042 139.026 16.2984 140.692 15.9455ZM146.245 104.521C136.249 101.698 127.364 98.8745 121.811 89.6993C126.809 84.7589 131.529 79.4656 135.694 73.8194C136.804 72.4078 135.694 70.2905 134.306 70.9962C128.752 73.8193 123.477 78.054 118.479 82.9944C117.646 81.23 117.09 79.1127 116.535 76.9953C113.758 64.6442 114.869 52.646 115.979 40.2949C116.535 40.6478 117.646 40.6478 117.923 39.5891C118.201 38.1775 118.756 36.766 119.312 35.7073C119.867 35.3545 119.867 34.6487 119.867 33.9429C122.921 26.8851 127.642 21.9447 133.195 18.7687C133.473 49.8229 145.69 78.7598 164.571 98.1687C159.295 102.05 153.187 103.815 146.245 104.521ZM167.348 96.0513C149.855 76.6424 137.36 52.2931 135.972 22.6505C136.249 22.6505 136.249 22.6505 136.527 22.6505C137.915 22.2976 139.304 22.2975 140.692 21.9446C141.525 45.5882 151.243 70.9962 164.849 87.2291C163.738 87.582 162.627 88.6406 163.183 90.758C163.46 91.4638 164.571 91.8167 164.849 91.1109C165.404 90.0522 165.682 90.4051 166.793 90.0522C167.07 90.0522 167.07 90.0522 167.348 90.0522C168.458 91.1109 169.569 92.1696 170.68 93.2282C169.569 94.2869 168.458 95.3455 167.348 96.0513ZM176.511 84.7589C175.123 86.8762 173.734 88.9935 172.346 90.758C155.963 69.9375 147.633 49.47 143.746 21.5918C147.633 21.5918 151.521 21.9447 155.686 22.2976C156.797 22.2976 157.074 20.5331 155.964 20.1802C152.354 18.0629 147.634 17.71 142.913 18.4158C142.913 17.3571 142.635 16.6514 142.635 15.5927C156.797 13.1225 172.901 20.886 179.565 37.4718C185.674 52.646 184.008 71.3491 176.511 84.7589ZM122.921 14.8869C139.581 0.0655336 157.907 1.1242 174.845 14.8869C175.678 15.5926 176.511 13.8282 175.678 13.1224C159.851 -1.34602 136.805 -5.58069 121.811 13.1224C121.255 14.534 122.088 15.5926 122.921 14.8869ZM75.9955 181.45C72.3858 186.038 67.9432 190.626 64.8888 195.919C64.3335 196.625 65.4441 198.036 65.9995 197.33C70.1645 193.096 73.4965 187.802 77.1061 183.215C77.9391 182.156 76.8285 180.392 75.9955 181.45ZM52.6715 119.342C34.3455 133.81 17.1302 150.749 1.02549 168.746C0.192489 169.452 1.30316 170.864 2.13616 170.158C19.0738 153.219 35.1785 135.222 53.5045 120.754C53.7821 120.401 53.2268 118.989 52.6715 119.342ZM28.2368 94.6398C43.5085 81.5829 58.5025 68.526 74.0518 55.822C74.8848 55.1162 74.3295 53.3518 73.4965 54.0575C57.9472 66.7615 42.3978 79.4656 27.4038 93.2282C26.5708 93.5811 27.6815 94.9927 28.2368 94.6398ZM107.649 133.458C108.482 132.752 107.372 131.34 106.817 132.046C82.9372 155.69 63.2228 185.332 39.8988 209.682C39.0658 210.387 40.1765 211.799 41.0095 211.093C65.1665 188.155 83.7702 157.101 107.649 133.458ZM179.01 45.5882C178.455 44.5296 177.066 44.8825 177.066 46.294C179.01 58.2922 176.233 66.7616 171.791 77.3482C171.235 78.4069 172.346 79.8184 173.179 78.7598C179.843 73.1136 182.62 54.4105 179.01 45.5882ZM172.068 33.59C171.513 31.1198 169.292 26.8851 167.07 26.8851C165.404 26.8851 165.404 29.7082 166.793 30.0611C167.348 30.0611 168.181 32.1784 168.459 32.5313C169.014 33.59 169.847 34.2958 170.68 35.0016C171.513 35.0016 172.346 34.2958 172.068 33.59ZM155.131 90.758C154.02 92.1695 152.632 91.8166 151.243 92.5224C150.41 92.8753 150.688 94.2869 151.243 94.6398C153.187 95.6984 155.131 94.6398 156.519 92.8753C157.63 91.8167 156.241 89.6993 155.131 90.758ZM134.583 144.397C110.149 169.099 88.7682 198.036 64.8888 223.797C64.0558 224.503 65.1665 226.267 65.9995 225.209C90.1565 200.154 110.981 170.511 135.416 145.456C136.249 145.103 135.139 143.691 134.583 144.397ZM122.921 40.6478C122.643 48.4113 122.366 56.8806 124.309 64.2913C124.587 65.7029 126.531 64.9971 126.253 63.5855C125.42 55.822 124.865 48.7642 124.865 41.0007C124.587 39.2362 122.921 38.8833 122.921 40.6478Z" fill="#526E84"/>
</svg>
