<svg width="400" height="500" viewBox="0 0 211 391" fill="none" xmlns="http://www.w3.org/2000/svg">
<path d="M209.083 132.791C209.361 133.85 210.749 133.144 210.472 132.085C209.916 128.204 209.083 124.322 207.973 120.793V129.615C208.528 130.674 208.806 131.733 209.083 132.791Z" fill="#57D0FF"/>
<path d="M208.25 176.903C208.25 170.904 208.25 165.257 208.25 159.258C208.25 158.905 208.25 158.905 207.973 158.905L208.25 176.903Z" fill="#57D0FF"/>
<path d="M130.503 345.583C175.208 313.823 206.306 254.538 204.363 188.194C202.419 122.204 168.821 60.4487 119.952 37.5109C80.801 19.1607 34.7083 26.2185 0 55.1553V60.4487C28.0443 36.0993 64.141 26.2185 97.7387 33.982C111.9 37.158 125.228 43.8629 137.445 52.6851C137.723 51.2735 139.389 51.2735 139.666 52.6851C139.666 53.3909 139.666 53.7437 139.666 54.4495C169.099 77.7402 190.202 115.852 197.976 159.963C199.642 163.139 201.031 166.668 201.031 170.197C201.031 171.256 199.92 171.609 199.365 170.903C206.306 230.188 185.759 288.415 148.552 325.115C117.453 356.17 79.4127 366.756 44.4267 357.581C44.7043 357.934 44.7043 358.287 44.982 358.993C45.2597 359.698 44.7043 361.11 43.8713 360.404C42.2053 359.346 41.0947 357.934 39.7063 356.17C25.823 352.288 12.495 344.524 0 333.938V339.231C38.0403 371.344 89.6863 374.873 130.503 345.583Z" fill="#57D0FF"/>
<path d="M121.063 87.9744C123.007 86.2099 123.84 84.0926 124.395 80.9166C125.506 74.2117 127.727 70.6828 132.725 67.154C137.168 63.978 139.944 61.1548 139.667 54.8028C139.667 54.0971 139.667 53.7442 139.667 53.0384C139.389 51.274 137.723 51.6268 137.445 53.0384C137.445 53.3913 137.445 53.3913 137.445 53.7442C138.001 62.9193 130.781 63.625 126.339 68.5655C121.618 73.8588 122.729 80.5637 119.675 86.5629C120.508 85.5042 121.341 86.9157 121.063 87.9744Z" fill="#57D0FF"/>
<path d="M100.238 106.325H100.516C102.737 104.913 105.236 103.149 107.735 104.207C109.124 104.913 110.512 106.325 111.345 107.736C111.623 108.442 111.623 109.148 112.178 109.501C113.011 110.206 114.399 110.206 115.51 110.206C116.343 110.206 117.454 109.148 117.176 108.089C115.788 100.678 116.343 93.6206 120.786 88.3273C120.786 88.3273 121.063 87.9745 121.063 87.6216C121.341 86.5629 120.508 85.5042 119.675 86.21C113.844 90.4446 112.733 98.914 114.122 106.678C113.844 106.678 113.566 106.678 113.566 106.678C112.733 106.325 110.79 102.796 109.679 102.09C106.347 99.6197 102.182 100.678 99.6829 104.207C99.4053 104.56 99.4053 104.913 99.4053 104.913C99.6829 105.266 99.9606 105.619 100.238 106.325Z" fill="#57D0FF"/>
<path d="M84.4111 122.91C87.7431 125.734 92.7411 125.734 94.9624 121.146C97.1838 116.558 97.4614 111.265 99.9604 106.678C99.9604 106.325 100.238 106.325 99.9604 105.972C99.9604 105.266 99.6828 104.913 99.1274 104.913C98.8498 104.913 98.8498 104.913 98.5721 104.913C95.5178 107.383 94.6848 111.971 93.5741 115.853C93.0188 117.617 92.4634 120.087 91.0751 120.793C88.8537 122.205 86.3547 120.087 84.1334 120.087C83.5781 120.087 83.0228 120.793 83.3004 121.499C83.5781 121.499 83.5781 121.499 83.8558 121.852C84.4111 122.205 84.4111 122.558 84.4111 122.91Z" fill="#57D0FF"/>
<path d="M73.582 133.497C73.3043 133.497 73.3043 133.85 73.0267 133.85C74.6927 134.203 76.6364 132.791 78.0247 131.38C79.9684 128.91 81.079 126.086 83.3003 123.969C82.745 123.969 82.4673 123.969 81.912 123.969C81.079 123.969 80.8014 122.91 81.079 122.205C79.413 123.263 78.3023 125.028 77.1917 126.792C76.6363 127.851 76.081 128.91 75.248 129.615C74.1374 130.674 73.0267 130.674 71.916 131.38C72.1937 131.38 72.4713 131.38 73.0267 131.027C73.8597 131.38 74.415 133.144 73.582 133.497Z" fill="#57D0FF"/>
<path d="M81.6348 123.969C82.1901 123.969 82.7454 123.969 83.0231 123.969C83.3008 123.969 83.5784 123.969 83.8561 123.616C84.1338 123.616 84.1338 123.263 84.1338 122.91C84.1338 122.558 84.1338 122.205 83.8561 121.852C83.5784 121.852 83.5784 121.499 83.3008 121.499C83.0231 121.499 82.7454 121.499 82.4678 121.146H82.1901C81.9124 121.146 81.9124 121.146 81.6348 121.146C81.0794 121.146 80.8018 121.499 80.8018 121.852C80.8018 123.263 81.0794 123.969 81.6348 123.969Z" fill="#57D0FF"/>
<path d="M22.4913 164.199C21.936 152.906 32.2097 152.2 36.3747 145.143C36.93 144.084 35.8193 142.32 36.097 141.967C39.9843 134.556 43.0387 142.32 47.2037 143.731C51.091 145.496 51.091 143.378 53.8677 141.614C60.254 137.732 67.1957 139.144 73.3043 134.203C73.582 134.203 73.582 133.85 73.8597 133.85C74.6927 133.144 73.8597 131.733 73.0267 131.733C72.749 131.733 72.1937 132.086 71.916 132.086C66.918 133.497 62.753 133.144 57.755 133.85C52.757 134.556 55.256 135.615 51.924 137.379C45.8153 140.555 46.926 138.085 42.2057 135.615C39.9843 134.203 36.3747 133.144 34.1533 135.262C32.4873 136.673 32.765 137.026 31.932 139.496C31.3767 140.908 33.0427 141.967 32.765 143.025C31.932 146.201 29.1553 147.26 26.934 149.377C21.936 153.965 18.604 158.905 20.8253 166.669C20.8253 167.022 21.103 167.375 21.3807 167.375C21.103 167.022 21.103 166.316 20.8253 165.61C20.5477 163.846 21.936 163.14 22.4913 164.199Z" fill="#57D0FF"/>
<path d="M78.58 207.604H78.8577C69.6947 197.018 62.4754 224.896 53.59 198.076C51.924 193.136 51.3687 187.489 48.592 183.255C45.8154 178.667 37.4854 175.491 37.4854 169.139C37.4854 168.786 37.2077 168.081 36.93 168.081C33.0427 167.022 24.7127 169.139 22.4914 164.199C21.936 162.787 20.5477 163.846 20.8254 165.258C21.103 165.963 21.103 166.316 21.3807 167.022C24.7127 174.786 30.5437 165.963 35.264 171.257C34.9864 170.904 36.097 176.903 36.6524 177.256C40.262 182.902 44.427 181.49 47.759 188.548C51.091 195.959 50.5357 207.251 56.3667 212.545C64.9744 220.308 71.3607 205.487 78.58 211.486C79.1354 212.192 79.9684 211.486 80.246 210.78C79.6907 210.78 78.8577 210.78 78.3024 210.78C76.6364 210.427 76.914 207.604 78.58 207.604Z" fill="#57D0FF"/>
<path d="M101.626 181.49C102.182 181.137 102.459 181.137 103.015 180.784C98.5721 179.02 95.2401 184.313 93.5741 189.254C90.2421 198.782 88.2984 207.251 78.8577 207.604H78.5801C77.1917 207.604 76.9141 210.427 78.3024 210.78C78.8577 210.78 79.6907 210.78 80.2461 210.78C85.7994 210.78 89.9644 206.545 92.7411 200.193C94.1294 196.664 94.9624 192.43 96.6284 188.901C98.2944 185.019 100.238 184.313 103.57 183.608C103.015 183.608 102.459 183.608 101.904 183.608C101.071 183.608 100.516 181.843 101.626 181.49Z" fill="#57D0FF"/>
<path d="M145.497 203.369C146.053 203.369 146.608 203.369 146.886 203.722C146.33 201.605 145.775 199.488 144.942 197.37C144.664 196.312 143.831 196.312 142.998 196.664C125.505 205.134 134.668 169.845 119.397 167.728C118.841 167.728 118.286 168.08 118.008 168.786C115.509 180.079 109.401 178.667 103.014 181.137C102.459 181.137 102.181 181.49 101.626 181.843C100.793 182.196 101.071 183.96 101.904 183.96C102.459 183.96 103.014 183.96 103.57 183.96C108.568 183.96 114.121 182.902 117.453 177.961C119.397 175.138 119.674 170.551 123.284 173.021C126.338 175.138 127.171 181.843 128.004 185.725C128.837 190.665 129.393 197.017 132.725 200.193C134.113 201.605 135.779 201.958 137.723 202.311C141.888 202.664 142.443 200.546 144.942 204.428C144.942 203.722 145.22 203.369 145.497 203.369Z" fill="#57D0FF"/>
<path d="M159.381 175.138C159.381 174.432 159.103 173.374 159.103 172.668C158.27 177.961 158.548 181.843 154.938 185.725C154.383 186.431 154.105 187.842 154.661 188.548C157.993 193.136 159.103 198.429 154.105 202.311C151.884 204.075 149.385 204.428 146.886 204.075C146.331 204.075 145.775 204.075 145.498 203.722C145.22 203.722 144.942 203.722 144.665 204.075C144.387 204.781 144.387 205.84 144.942 206.192C149.385 208.663 154.938 206.898 158.27 202.664C161.88 197.723 160.492 192.077 157.715 187.489C160.769 183.255 161.88 178.667 161.047 172.668C161.047 172.315 160.769 171.962 160.492 171.609C160.492 172.668 160.769 174.08 160.492 175.138C161.047 176.197 159.381 176.197 159.381 175.138Z" fill="#57D0FF"/>
<path d="M160.769 132.791C160.491 135.261 160.491 138.084 160.769 140.908C161.324 147.612 162.99 153.259 155.493 154.67C154.66 154.67 154.105 156.082 154.383 157.14C156.604 162.081 157.992 167.374 158.825 173.021C158.825 173.726 159.103 174.785 159.103 175.491C159.103 176.549 160.769 176.549 160.769 175.491C160.769 174.432 160.769 173.021 160.769 171.962C160.491 167.021 159.381 162.434 157.715 157.846C168.544 155.023 160.769 141.613 162.435 131.027C162.435 130.674 162.435 130.674 162.435 130.674C162.157 131.38 161.602 132.085 161.602 132.791C161.602 132.791 161.047 132.791 160.769 132.791Z" fill="#57D0FF"/>
<path d="M175.486 141.614C175.208 139.496 173.542 137.026 172.709 134.909C171.599 132.086 170.21 129.263 168.544 126.792C167.434 125.381 166.045 123.969 164.102 124.675C161.88 125.381 161.047 128.91 160.214 131.38C159.937 132.086 160.214 132.439 160.77 132.791C161.047 133.144 161.603 132.791 161.603 132.439C161.88 131.733 162.158 131.027 162.436 130.321C163.269 128.91 164.102 127.498 165.212 128.204C166.601 128.91 167.711 132.086 168.267 133.497C169.655 136.32 171.321 142.319 173.82 143.731C173.82 142.672 174.375 141.261 175.486 141.614Z" fill="#57D0FF"/>
<path d="M201.031 170.55C201.031 167.021 199.365 163.493 197.977 160.317C196.589 157.493 195.2 154.67 194.645 151.494C194.645 150.789 194.09 150.436 193.812 150.083C187.703 147.613 181.595 144.437 175.486 141.966H175.208C174.098 141.613 173.542 143.025 174.098 143.731C174.098 144.084 174.375 144.084 174.375 144.084C177.985 146.201 181.595 148.318 185.204 150.083C188.259 151.847 190.758 151.847 192.424 155.729C194.367 160.669 196.311 166.669 199.365 170.903C200.198 171.962 201.031 171.609 201.031 170.55Z" fill="#57D0FF"/>
<path d="M88.8535 216.426C88.5758 216.779 88.8535 216.779 88.8535 216.426C88.8535 216.779 89.1312 216.779 89.4088 216.426C91.0748 214.309 92.7408 211.486 94.9622 211.133C96.9058 210.78 98.5718 211.838 99.9602 213.603C100.238 212.897 100.793 212.544 101.349 212.897C101.904 213.25 102.459 213.603 102.737 213.956V213.603C101.349 209.721 98.8495 206.898 95.2398 207.251C91.9078 207.604 89.1312 210.427 88.0205 213.956C88.8535 214.662 89.1312 215.72 88.8535 216.426Z" fill="#57D0FF"/>
<path d="M68.8616 221.366C70.25 219.602 71.3606 217.838 73.8596 218.19C76.081 218.19 78.0246 219.602 80.246 219.955C83.578 221.014 86.91 220.308 88.8536 216.779C88.8536 216.779 88.8536 216.426 89.1313 216.426C89.6866 215.72 89.1313 214.661 88.576 214.309C88.2983 214.309 88.0206 214.309 87.743 214.662C83.3003 219.602 79.413 215.367 74.415 214.662C70.8053 214.309 67.751 216.779 66.918 221.013C67.1956 220.661 67.4733 220.661 67.751 220.308C68.0286 219.602 68.8616 220.661 68.8616 221.366Z" fill="#57D0FF"/>
<path d="M40.5394 244.657C40.2617 244.304 39.984 243.952 39.4287 243.599C39.984 244.304 40.2617 245.363 40.5394 246.422C41.0947 246.069 41.0947 245.01 40.5394 244.657Z" fill="#57D0FF"/>
<path d="M38.0407 242.54C34.431 240.07 29.9884 237.952 30.266 231.6C30.5437 222.425 35.8194 225.248 40.5397 226.307C44.7047 227.366 47.4814 226.307 49.425 222.072C55.8114 228.424 62.1977 230.542 68.8617 222.425C69.1394 222.072 69.1394 222.072 69.1394 221.72C69.1394 220.661 68.3064 219.955 67.4734 220.661C67.1957 221.014 66.918 221.014 66.6404 221.367C60.254 226.66 55.256 223.837 49.7027 217.838C48.8697 217.132 48.0367 217.838 47.4814 218.543C43.8717 229.483 33.3204 215.015 28.8777 224.896C23.602 236.541 31.3767 242.187 38.3184 246.069C38.0407 245.363 38.0407 244.657 37.763 243.952C37.2077 243.246 37.4854 242.893 38.0407 242.54Z" fill="#57D0FF"/>
<path d="M80.5241 293.356C81.3571 293.003 82.1901 292.65 82.7454 293.003C82.7454 292.297 82.4678 291.944 81.9125 291.944C77.1921 291.944 71.6388 292.65 69.9728 284.181C69.9728 283.475 69.4174 282.769 68.8621 282.769C64.1418 282.769 56.0894 284.181 52.7575 278.887C52.2021 277.829 51.0914 272.888 50.8138 271.477C50.5361 271.124 50.2584 270.771 49.7031 270.418C38.5964 268.301 43.5944 255.244 40.8178 246.069C40.5401 245.01 39.9848 244.304 39.7071 243.246C39.4295 242.893 39.4295 242.54 39.1518 242.187C38.8741 241.834 38.3188 241.834 38.0411 241.834C37.7634 242.187 37.4858 242.54 37.7635 243.246C38.0411 243.951 38.3188 244.657 38.3188 245.363C40.2625 252.421 38.0411 259.831 40.2624 266.536C43.0391 275.006 51.3691 270.065 50.2585 281.358C50.2585 282.063 50.5361 282.769 51.0914 282.769C55.5341 284.181 59.9768 284.181 64.4195 285.239C68.8621 285.945 67.7514 287.71 70.2505 290.886C72.7494 294.062 76.9145 295.12 80.5241 294.414C79.9688 294.414 80.2465 293.709 80.5241 293.356Z" fill="#57D0FF"/>
<path d="M91.9075 322.645C92.1852 322.293 92.1852 321.94 91.9075 321.587C90.7969 318.058 89.1309 314.529 88.0202 310.647C87.4649 308.883 86.6319 307.118 86.6319 305.707C86.6319 304.295 86.9095 302.531 86.9095 301.119C86.9095 297.238 85.7989 293.003 83.0222 292.65C82.4669 292.65 81.6339 292.65 80.8009 293.003C80.2455 293.356 80.2455 294.061 80.5232 294.767C80.5232 295.12 80.8009 295.12 81.0785 295.12C86.3542 295.12 83.8552 302.884 84.1329 306.765C84.9659 312.412 88.0202 318.411 90.7969 322.293C91.0745 321.94 91.6299 321.94 91.9075 322.645Z" fill="#57D0FF"/>
<path d="M120.507 252.068C122.173 262.655 117.453 265.831 118.008 274.3C118.008 276.417 119.119 278.182 119.397 279.946C120.23 289.121 121.34 292.297 118.841 300.414C117.453 305.354 115.787 309.942 114.399 314.882C111.622 322.646 103.014 343.466 94.1291 329.703C92.1854 326.527 92.4631 326.528 92.1854 323.352C92.1854 323.352 92.1854 322.999 91.9077 322.999C91.6301 322.646 90.7971 322.293 90.5194 322.999C90.2417 324.41 89.9641 325.822 89.4087 327.233C89.1311 327.939 89.4087 328.645 89.9641 328.998C96.3504 336.056 103.292 342.407 110.234 333.232C116.62 324.763 124.395 301.472 124.95 289.827C125.228 283.475 122.729 279.24 122.451 272.888C121.896 265.125 124.395 258.773 123.284 251.362C122.451 246.422 121.34 237.247 120.23 233.012C118.841 228.424 118.286 228.072 114.676 226.307C113.566 225.601 113.01 227.719 114.121 228.424C114.399 228.424 114.676 229.13 114.954 230.189C116.898 234.776 120.23 249.598 120.507 252.068Z" fill="#57D0FF"/>
<path d="M107.735 220.661C106.069 218.544 104.68 216.073 103.014 214.309C102.459 213.956 102.181 213.25 101.626 213.25C101.071 212.897 100.515 213.25 100.238 213.956C99.9599 214.309 99.9599 215.015 100.238 215.368C101.626 218.896 104.958 222.073 107.179 224.896C109.401 227.366 111.622 229.836 114.121 231.248C114.954 231.6 115.509 230.542 115.232 229.836C115.232 229.836 115.232 229.836 114.954 229.483C112.177 226.66 109.956 223.837 107.735 220.661Z" fill="#57D0FF"/>
<path d="M135.78 284.533C136.057 284.533 136.613 284.181 136.613 283.828C141.611 275.711 149.108 263.713 143.554 253.479C141.888 249.95 138.001 245.716 134.669 247.127C130.782 248.892 131.059 254.891 131.615 258.773C129.949 267.948 128.56 282.416 135.78 284.533ZM139.389 252.421C142.166 255.244 143.554 259.478 142.721 264.066C142.166 268.654 139.112 277.123 136.057 280.299C135.224 281.005 135.224 282.063 133.836 280.652C133.003 279.946 132.725 277.476 132.725 276.417C132.448 273.947 132.448 271.83 132.725 269.359C133.003 264.772 134.114 260.184 134.114 255.949C134.114 255.597 133.836 255.244 133.558 254.891C134.669 251.715 136.335 249.245 139.389 252.421Z" fill="#57D0FF"/>
<path d="M0 148.318V150.083C0.277667 149.73 0.555333 149.377 0.833 149.024C1.11067 148.318 1.11067 147.966 0.833 147.26L0.555333 147.613C0.277667 148.318 0.277667 148.318 0 148.318Z" fill="#57D0FF"/>
<path d="M0.000322908 132.438C0.27799 133.144 0.27799 133.497 0.27799 134.203C0.833323 137.379 0.555656 140.202 0.000322908 143.025V148.318C0.27799 148.318 0.27799 148.318 0.555656 147.965L0.833323 147.613C3.60999 143.731 3.88766 137.026 2.77699 132.438C2.22166 130.321 1.11099 127.851 -0.277344 126.086V132.438H0.000322908Z" fill="#57D0FF"/>
<path d="M1.66593 69.6241C1.1106 76.6819 3.6096 96.0908 11.3843 96.4437C11.6619 96.4437 12.2173 96.4436 12.4949 95.7378C16.3823 86.5627 24.1569 89.3858 30.8209 86.2098C37.2073 83.0338 37.7626 74.5645 35.8189 67.1538C35.8189 67.5067 35.8189 67.5067 35.5413 67.8596C35.2636 68.5654 34.7083 68.5654 34.1529 68.2125C34.7083 75.2703 35.5413 83.3867 28.3219 84.4453C24.4346 85.1511 20.5473 84.4454 16.9376 85.857C15.5493 86.2099 14.4386 86.9156 13.3279 87.9742C12.4949 88.68 10.8289 92.9148 10.2736 92.9148C6.38627 95.0321 3.05427 72.8001 3.33193 69.2712V68.9183C2.7766 68.9183 2.49893 68.5654 2.49893 67.8596C2.22127 68.5654 1.66593 68.5654 1.66593 69.6241Z" fill="#57D0FF"/>
<path d="M3.60958 69.6246C3.88724 69.6246 3.88724 69.6246 4.16491 69.2717C8.32991 61.861 13.0502 70.3304 18.0482 69.2717C20.2696 68.9188 21.1026 67.1544 22.4909 65.3899C24.7122 62.9197 26.9336 60.4494 29.4326 57.9792C30.8209 56.5677 32.2092 54.8032 33.5976 56.2148C35.2636 57.9792 33.8752 65.037 34.1529 67.5073C34.1529 67.8602 34.1529 68.2131 34.4306 68.2131C34.7082 68.566 35.5412 68.9188 35.8189 67.8602C35.8189 67.8602 35.8189 67.5072 36.0966 67.1544C37.2072 63.2726 38.5956 54.8033 34.9859 52.3331C32.2092 50.5686 28.8772 54.4504 26.9336 56.5677C22.4909 61.5081 21.1026 67.8602 14.1609 64.6842C9.44058 62.5669 4.72024 60.0966 3.05424 68.2131C3.05424 68.2131 3.05424 68.213 3.05424 68.5659C2.77658 69.2717 3.05424 69.6246 3.60958 69.6246Z" fill="#57D0FF"/>
<path d="M23.6023 330.762C19.715 330.409 18.3267 328.645 16.9383 324.057C16.383 322.293 16.1053 320.528 14.9947 319.117C13.051 316.999 9.71899 314.529 7.21999 313.118C4.99865 307.119 4.99865 297.591 0.27832 294.415V299.002C3.05499 303.59 2.77732 309.589 4.99865 315.235C5.27632 315.941 5.55399 315.941 6.10932 316.294C8.05299 317.352 10.552 319.117 12.218 320.528C14.1617 322.293 14.4393 324.41 15.2723 327.233C16.9383 332.88 20.2703 334.644 24.713 333.585C24.713 333.585 24.9907 333.585 24.9907 333.232C24.713 332.879 24.1577 332.174 23.88 331.821C23.3247 331.468 23.3247 331.115 23.6023 330.762Z" fill="#57D0FF"/>
<path d="M44.1489 360.758C44.9819 361.111 45.5372 360.052 45.2596 359.346C44.9819 358.993 44.9819 358.64 44.7042 357.935C42.4829 352.994 38.5956 348.054 35.8189 343.819C32.7646 338.879 29.1549 333.938 24.9899 330.056C24.4346 329.704 23.8792 330.056 23.6016 330.762C23.6016 331.115 23.6016 331.468 23.8792 331.821C24.1569 332.174 24.7122 332.879 24.9899 333.232C28.5996 337.82 31.6539 342.408 34.7082 347.701C36.3742 350.524 38.0402 354.053 39.9839 356.876C41.0946 358.288 42.4829 359.699 44.1489 360.758Z" fill="#57D0FF"/>
<path d="M159.381 227.718C174.098 226.307 186.315 212.897 196.311 199.84C196.866 199.134 196.033 198.076 195.478 198.428C184.371 210.427 174.653 223.836 159.104 225.954C158.271 226.307 158.548 227.718 159.381 227.718Z" fill="#57D0FF"/>
<path d="M164.657 213.25C167.433 212.191 170.21 211.486 172.709 209.721C173.264 209.368 172.987 207.957 172.431 208.31C169.655 209.015 166.878 210.427 164.379 211.486C163.546 211.838 163.824 213.603 164.657 213.25Z" fill="#57D0FF"/>
<path d="M186.87 196.311C183.261 200.193 179.651 203.369 175.764 206.192C174.931 206.898 175.486 208.31 176.319 207.604C183.816 202.311 192.424 195.959 196.589 186.431C196.866 185.725 196.311 184.666 195.756 185.372C192.701 188.901 189.925 192.783 186.87 196.311Z" fill="#57D0FF"/>
<path d="M170.765 196.664C177.984 194.547 186.592 188.548 191.312 180.784C191.868 180.078 191.035 179.02 190.479 179.725C184.093 185.725 178.262 192.077 170.487 195.253C169.654 195.253 169.932 197.017 170.765 196.664Z" fill="#57D0FF"/>
<path d="M179.65 182.549C180.761 181.843 181.872 181.137 182.982 180.078C184.093 179.373 185.204 178.667 186.037 177.608C186.592 176.902 186.314 175.844 185.481 175.844C184.371 176.197 183.26 176.902 182.427 177.608C181.316 178.314 180.206 179.373 179.095 180.078C177.984 181.137 178.817 183.254 179.65 182.549Z" fill="#57D0FF"/>
<path d="M155.216 247.833C158.27 246.775 161.325 246.069 164.101 244.304C164.657 243.952 164.379 242.54 163.824 242.54C160.769 243.246 157.715 244.304 154.938 245.716C153.828 246.069 154.105 248.186 155.216 247.833Z" fill="#57D0FF"/>
<path d="M192.145 217.485C184.371 224.19 177.984 232.659 169.654 238.305C168.821 239.011 169.377 240.423 170.21 240.07C178.54 234.776 186.592 227.366 192.978 218.896C193.534 217.838 192.701 216.779 192.145 217.485Z" fill="#57D0FF"/>
<path d="M151.607 264.419C164.935 261.949 180.762 253.127 188.536 238.658C188.814 237.952 188.259 236.894 187.703 237.599C177.152 249.951 165.768 259.478 151.329 262.654C150.496 262.654 150.774 264.419 151.607 264.419Z" fill="#57D0FF"/>
<path d="M150.495 278.887C152.717 278.887 155.493 278.182 157.159 276.417C157.715 275.711 157.159 274.653 156.604 274.653C154.383 275.006 152.717 276.417 150.495 276.77C149.385 276.77 149.662 278.887 150.495 278.887Z" fill="#57D0FF"/>
<path d="M180.761 257.361C174.097 263.008 168.266 269.007 160.769 272.536C159.936 272.889 160.492 274.653 161.325 274.3C168.544 270.771 176.041 265.831 181.594 258.773C182.15 257.714 181.317 256.656 180.761 257.361Z" fill="#57D0FF"/>
<path d="M171.321 276.064C164.935 280.652 157.993 284.181 151.329 288.063C150.496 288.416 151.051 290.18 151.884 289.827C158.826 287.004 166.323 283.475 172.154 277.476C172.432 276.77 171.876 275.359 171.321 276.064Z" fill="#57D0FF"/>
<path d="M147.164 300.061C145.776 299.708 144.11 300.061 142.999 301.119C142.166 301.825 143.277 303.589 144.11 302.531C144.943 301.472 146.053 301.825 147.164 301.472C147.997 301.472 147.997 300.413 147.164 300.061Z" fill="#57D0FF"/>
<path d="M154.661 296.885C153.828 297.238 154.383 299.002 155.216 298.649C159.104 296.532 163.269 294.768 166.601 291.945C167.434 291.239 166.601 290.18 165.768 290.533C162.158 291.945 158.271 294.415 154.661 296.885Z" fill="#57D0FF"/>
<path d="M143.832 313.823C146.609 312.765 149.385 311.353 151.884 309.236C152.44 308.883 151.884 307.471 151.329 307.824C148.83 309.589 146.331 311 143.554 312.059C142.444 312.765 143.277 314.176 143.832 313.823Z" fill="#57D0FF"/>
<path d="M128.56 52.3331C129.115 51.2744 128.004 50.5685 127.449 51.2743C119.397 62.9197 113.288 74.9179 102.459 83.0343C101.626 83.7401 102.181 85.1516 103.014 84.4459C113.566 78.4467 122.729 65.0371 128.56 52.3331Z" fill="#57D0FF"/>
<path d="M114.399 80.2108C113.288 81.9753 112.455 83.7396 110.511 84.4454C109.956 84.7983 109.956 85.8571 110.511 85.8571C112.733 86.2099 114.954 83.3867 115.509 80.9165C115.787 80.2107 114.954 79.505 114.399 80.2108Z" fill="#57D0FF"/>
<path d="M100.515 75.9763C99.4046 77.7408 98.0163 78.7995 96.3503 79.8581C95.5173 80.5639 96.0726 82.3283 97.1833 81.6226C99.127 80.5639 101.071 79.1524 101.904 76.6821C101.904 75.6235 100.793 74.9177 100.515 75.9763Z" fill="#57D0FF"/>
<path d="M118.009 53.7445C114.677 59.7436 110.79 65.037 106.625 69.9774C106.069 70.6832 106.902 72.4476 107.458 71.389C111.623 66.0956 115.788 61.1551 118.842 54.4502C119.12 53.7444 118.287 53.0387 118.009 53.7445Z" fill="#57D0FF"/>
<path d="M90.7977 72.8C98.5724 68.5654 105.514 60.096 110.234 51.2738C110.79 50.568 109.679 49.5094 109.124 50.2152C102.737 57.6258 98.0171 66.0952 89.9648 71.0356C89.4094 71.7414 89.9647 73.1529 90.7977 72.8Z" fill="#57D0FF"/>
<path d="M91.0749 59.0379C89.1312 59.7436 87.7429 61.8609 86.3546 63.6254C85.7992 64.684 86.9099 66.0956 87.7429 65.0369C89.1312 63.6254 90.5195 61.861 91.9079 60.4494C92.4632 59.7436 91.9079 58.685 91.0749 59.0379Z" fill="#57D0FF"/>
<path d="M96.351 54.803C99.1277 52.3328 101.071 49.1568 102.46 45.6279C102.737 44.5692 101.904 43.8635 101.349 44.5693C99.4053 47.7453 97.7393 50.9212 95.2403 53.0386C94.4073 54.0972 95.518 55.5088 96.351 54.803Z" fill="#57D0FF"/>
<path d="M92.7409 46.6864C89.6866 48.4509 86.9099 51.6268 84.6886 54.4499C83.8556 55.5086 84.9662 56.9201 85.7992 56.2143C86.9099 54.8028 88.2982 53.3913 89.6866 51.9797C91.0749 50.9211 92.4632 49.8624 93.5739 48.4509C94.1292 47.3922 93.5739 46.3335 92.7409 46.6864Z" fill="#57D0FF"/>
<path d="M1.666 264.772C1.11067 264.772 0.555333 265.125 0 265.125V266.889C0.555333 266.889 1.11067 266.536 1.94367 266.536C2.499 266.184 2.499 264.772 1.666 264.772Z" fill="#57D0FF"/>
<path d="M4.998 255.95C3.332 255.95 1.666 256.303 0 256.656V258.42C1.666 258.067 3.60967 257.714 5.27567 257.361C6.10867 257.361 5.831 255.95 4.998 255.95Z" fill="#57D0FF"/>
<path d="M0.833 246.069C0.555333 246.069 0.277667 246.069 0 246.422V247.833C0.277667 247.833 0.555333 247.833 0.833 247.48C1.666 247.128 1.38833 245.716 0.833 246.069Z" fill="#57D0FF"/>
<path d="M14.7163 272.535C9.71833 273.947 4.998 275.006 0 275.359V277.829C5.27567 277.476 10.5513 276.417 14.994 273.947C15.827 273.947 15.2717 272.183 14.7163 272.535Z" fill="#57D0FF"/>
<path d="M2.49936 285.239C7.49736 286.298 12.4954 285.592 17.4934 284.181C18.3264 283.828 18.0487 282.416 17.2157 282.769C12.2177 283.475 7.49736 284.533 2.49936 283.828C1.94403 283.475 1.66636 284.886 2.49936 285.239Z" fill="#57D0FF"/>
<path d="M7.77514 293.003C10.8295 293.003 14.1615 293.003 17.4935 293.003C18.3265 293.003 18.6041 291.238 17.4935 291.238C14.4391 291.238 11.1071 291.238 7.77514 291.238C6.94214 291.238 6.94214 293.003 7.77514 293.003Z" fill="#57D0FF"/>
<path d="M53.035 322.293C47.204 324.057 41.373 324.763 35.542 326.528C34.709 326.88 34.9867 328.292 35.8197 328.292C41.6507 327.586 48.037 326.528 53.3127 323.705C54.1457 323.705 53.5904 322.293 53.035 322.293Z" fill="#57D0FF"/>
<path d="M41.3727 334.997C42.761 334.291 44.1493 334.291 45.5377 333.938C46.3707 333.585 46.093 332.526 45.5377 332.173C43.8717 331.821 42.2057 332.526 40.8173 333.232C39.7067 333.938 40.262 335.702 41.3727 334.997Z" fill="#57D0FF"/>
<path d="M51.3689 332.88C55.2562 331.821 58.8659 331.115 62.7532 330.762C63.5862 330.762 63.3086 329.351 62.7532 329.351C58.8659 328.998 54.9786 330.409 51.3689 331.468C50.5359 331.468 50.5359 333.232 51.3689 332.88Z" fill="#57D0FF"/>
<path d="M46.3707 342.76C56.0891 340.643 67.1957 340.643 76.0811 334.997C76.9141 334.644 76.3587 333.232 75.5257 333.585C65.8074 337.467 55.5337 337.467 45.8154 341.349C44.9824 341.349 45.5377 343.113 46.3707 342.76Z" fill="#57D0FF"/>
<path d="M72.7491 342.407C64.9745 346.289 57.1998 348.407 48.5921 347.701C47.4815 347.701 47.4815 349.818 48.3145 349.818C56.6445 350.877 65.8075 349.112 73.0268 343.819C74.1375 343.113 73.5821 342.055 72.7491 342.407Z" fill="#57D0FF"/>
<path d="M56.6439 351.935C55.5332 351.935 55.5332 354.053 56.3662 354.053C58.0322 354.053 59.9759 354.406 61.9196 354.053C62.7526 353.7 62.7526 352.288 61.9196 352.288C60.2536 351.583 58.3099 351.935 56.6439 351.935Z" fill="#57D0FF"/>
<path d="M71.3607 353.7C76.081 352.641 81.079 351.582 85.5217 349.112C86.077 348.759 85.7994 347.348 85.244 347.701C80.5237 349.465 76.081 350.877 71.3607 351.935C70.5277 352.288 70.8054 354.053 71.3607 353.7Z" fill="#57D0FF"/>
<path d="M195.2 272.182C186.314 296.179 175.485 315.235 159.381 332.173C158.825 332.879 159.381 334.291 160.214 333.938C176.318 321.234 191.868 296.532 196.588 272.888C196.866 271.83 195.755 271.124 195.2 272.182Z" fill="#57D0FF"/>
<path d="M199.92 261.949C199.643 263.007 201.031 263.713 201.309 262.654C204.085 251.715 207.973 239.717 207.14 228.071C207.14 227.013 205.751 227.013 205.474 228.071C204.363 239.717 202.142 250.656 199.92 261.949Z" fill="#57D0FF"/>
<path d="M188.536 97.5021C189.091 98.2079 190.202 97.5021 189.647 96.4435C180.761 72.7999 161.88 52.6852 144.109 39.9812C143.276 39.6283 142.721 40.687 143.276 41.3928C161.88 57.2728 175.763 74.5643 188.536 97.5021Z" fill="#57D0FF"/>
<path d="M192.979 105.972C195.478 116.559 198.255 126.793 201.031 137.379C201.309 138.438 202.697 137.732 202.697 136.673C200.754 126.087 197.422 115.853 194.367 105.619C194.09 104.561 192.701 104.913 192.979 105.972Z" fill="#57D0FF"/>
<path d="M161.603 37.158C162.991 39.2754 164.657 40.6869 166.045 42.4514C167.711 44.5687 169.1 46.6861 170.766 48.8034C171.321 49.5092 172.154 48.8034 171.876 47.7447C170.21 42.8043 165.49 38.9225 162.436 35.3936C162.158 35.0407 161.047 36.4523 161.603 37.158Z" fill="#57D0FF"/>
<path d="M208.25 120.793C202.141 96.0911 190.202 73.5063 177.984 53.7445C177.429 53.0387 176.596 54.0973 176.874 54.8031C189.924 78.7995 200.753 102.09 208.25 129.616V120.793Z" fill="#57D0FF"/>
<path d="M208.25 158.552C207.972 157.494 206.584 157.494 206.584 158.905C206.584 164.904 206.584 170.551 206.584 176.55C206.584 177.608 207.972 177.961 207.972 176.903V158.552H208.25Z" fill="#57D0FF"/>
<path d="M14.9947 30.1005C40.5401 20.5725 64.6971 13.1619 91.3531 18.4552C92.1861 18.4552 92.4637 17.0437 91.6307 16.6908C66.9184 5.75123 38.0411 18.4552 14.4394 28.689C13.6064 28.689 14.1617 30.1005 14.9947 30.1005Z" fill="#57D0FF"/>
<path d="M28.8773 11.0443C32.2093 9.98568 35.819 9.63279 39.4286 9.2799C40.2616 9.2799 40.2616 7.51546 39.4286 7.51546C35.5413 7.16257 32.2093 7.16255 28.5996 8.92699C27.489 9.27988 27.7666 11.3972 28.8773 11.0443Z" fill="#57D0FF"/>
<path d="M47.4811 6.45724C60.8091 2.22257 73.3041 3.98702 86.6321 4.6928C87.4651 4.6928 87.7427 3.28124 86.9097 2.92835C74.4147 -1.6592 59.4207 -0.247616 46.9257 4.33994C46.0927 4.69283 46.3704 6.81013 47.4811 6.45724Z" fill="#57D0FF"/>
<path d="M130.781 32.9236C131.614 32.9236 131.892 31.512 131.059 31.1591C122.729 27.2773 114.121 23.7484 105.513 20.9253C104.68 20.5724 104.125 22.3369 104.958 22.6898C113.566 25.8658 121.896 31.1591 130.781 32.9236Z" fill="#57D0FF"/>
<path d="M109.679 16.6906C112.733 18.1022 116.065 18.8079 119.119 19.5137C119.952 19.8666 120.23 18.1021 119.397 17.7492C116.343 15.9848 113.288 15.9848 110.234 14.5732C109.401 14.5732 108.846 16.3377 109.679 16.6906Z" fill="#57D0FF"/>
<path d="M122.174 360.405C102.182 377.343 79.4129 377.696 56.6443 373.815C55.8113 373.815 55.8113 375.226 56.6443 375.226C78.58 380.167 105.236 380.519 123.562 362.169C124.117 361.111 123.007 359.699 122.174 360.405Z" fill="#57D0FF"/>
<path d="M91.3523 388.283C90.5193 388.283 90.5193 390.4 91.3523 390.4C98.294 390.753 105.513 389.342 112.455 387.224C113.288 386.872 113.01 385.46 112.177 385.46C105.236 386.166 98.294 387.577 91.3523 388.283Z" fill="#57D0FF"/>
</svg>
