<svg width="69" height="296" viewBox="0 0 69 296" fill="none" xmlns="http://www.w3.org/2000/svg">
<path d="M68.9999 278.938C58.7263 270.115 49.5633 259.176 41.2333 246.472C41.2333 246.119 41.2333 245.766 41.2333 245.413C38.1789 239.414 35.1246 233.062 32.3479 226.71C30.6819 225.651 29.2936 224.24 28.1829 222.475C27.3499 221.417 28.7383 219.299 29.849 220.358C29.849 220.358 29.8489 220.358 30.1266 220.358C27.9053 215.065 25.9616 209.418 24.0179 204.125L23.7403 204.478C23.185 204.831 22.6296 204.478 22.6296 203.772C22.6296 202.714 22.9073 201.655 23.1849 200.596C18.1869 184.363 14.855 167.777 14.022 149.78C12.356 111.668 22.3519 72.8504 39.8449 42.149C40.6779 40.7375 41.511 39.326 42.344 37.9144C42.0663 35.7971 42.0663 33.6797 43.177 32.2682C43.7323 31.9153 44.5653 31.9153 44.5653 32.6211C44.5653 32.974 44.8429 33.3268 44.8429 33.6797C52.0622 22.3873 60.6699 12.8592 69.8329 4.74279V0.155273C62.6136 6.15438 55.6719 13.2122 49.5633 21.3286C2.08228 83.0842 -0.416688 179.07 40.4003 246.472C40.1226 246.825 40.1226 247.53 40.4003 247.883C48.7303 262.352 58.7262 274.703 69.8329 284.231V278.938H68.9999Z" fill="#57D0FF"/>
<path d="M23.1842 204.831L23.4618 204.478C25.9608 201.655 27.3492 196.008 28.1822 192.479C29.0152 188.598 29.0153 184.716 27.0716 181.187C27.0716 181.54 27.0716 181.54 27.0716 181.893C27.3493 183.304 25.4056 183.657 25.1279 182.246V181.893C25.1279 182.246 25.1279 182.599 25.1279 182.599C26.5163 187.186 25.9609 190.715 24.5726 194.95C24.0172 196.714 22.9066 198.831 22.3513 200.949C22.0736 202.007 21.7959 203.066 21.7959 204.125C22.0736 204.831 22.6289 205.184 23.1842 204.831Z" fill="#57D0FF"/>
<path d="M27.3498 181.54C27.3498 181.187 27.3498 181.187 27.3498 180.834C26.7945 176.6 26.5168 172.365 25.9615 168.13C28.7382 166.366 30.6818 162.837 32.9032 160.367C33.1808 160.014 33.1808 159.661 33.1808 159.308C32.9031 159.661 32.6255 160.014 32.0702 160.367C31.2372 161.072 30.4042 160.014 30.6819 158.955C28.1829 160.367 26.5168 164.248 24.0178 165.66C23.4625 166.013 23.1848 166.719 23.4624 167.424C24.5731 172.012 24.5731 176.599 25.4061 181.187V181.54C25.6838 183.657 27.3498 183.304 27.3498 181.54Z" fill="#57D0FF"/>
<path d="M32.0698 160.367C32.3474 160.014 32.9026 159.661 33.1803 159.308C39.0113 151.897 32.0698 141.311 34.0135 132.489C34.0135 132.136 34.0135 131.783 34.0135 131.783C33.7358 132.136 33.4581 132.841 32.9027 133.194C32.6251 133.547 32.0696 133.547 31.792 133.194C30.4036 136.017 30.6814 139.193 31.5144 142.722C32.9027 149.074 34.2911 153.662 30.6814 159.308C30.4038 160.367 31.2368 161.073 32.0698 160.367Z" fill="#57D0FF"/>
<path d="M32.9029 132.841C33.1806 132.489 33.4583 132.136 34.0137 131.43C35.9573 128.607 37.9009 125.431 37.3455 121.549C37.0679 119.785 36.2349 118.373 35.6796 116.961C34.5689 114.491 33.736 112.021 32.6253 109.198C32.3477 108.845 32.3476 108.492 32.07 108.492C31.7923 108.492 31.5146 108.492 31.5146 108.492C30.9593 108.845 30.6816 109.198 30.6816 109.904C31.237 113.785 32.9029 116.609 34.2913 119.785C36.2349 124.019 34.0135 127.548 31.7922 131.077C31.5145 131.43 31.5146 132.136 32.07 132.489C32.07 133.194 32.6253 133.547 32.9029 132.841Z" fill="#57D0FF"/>
<path d="M31.7926 108.492C32.0703 108.492 32.0704 108.139 32.0704 107.786C35.9577 93.3179 59.8371 106.022 68.7224 95.0823V93.3179C68.1671 93.3179 67.8893 92.9651 67.8893 92.2593C60.1146 99.3171 51.2294 97.1997 42.3441 98.2583C39.5674 98.6112 35.4024 98.9642 32.9034 101.081C30.4044 103.199 30.9596 103.552 30.4043 107.786C30.4043 108.139 30.682 108.492 30.9597 108.845C31.515 108.492 31.7926 108.845 31.7926 108.492Z" fill="#57D0FF"/>
<path d="M63.7238 68.9687C63.1685 68.9687 62.6132 68.6157 62.0579 68.2628C61.7802 68.6157 61.7802 69.3216 62.0579 69.6745C63.4462 71.086 65.1121 71.4389 66.5005 72.8505C67.6111 73.9091 68.4442 75.6735 68.9995 77.438V70.7331C67.6112 68.9687 66.2229 67.91 64.5569 67.5571C64.5569 68.2629 64.2791 68.9687 63.7238 68.9687Z" fill="#57D0FF"/>
<path d="M69 93.3177V88.0244C68.7223 89.436 68.4447 90.4947 68.167 91.9062V92.2591C68.167 92.9649 68.4446 93.3177 69 93.3177Z" fill="#57D0FF"/>
<path d="M60.3923 55.9118C60.3923 57.3234 58.7262 57.3234 58.7262 55.9118C58.7262 55.5589 58.7262 55.559 58.7262 55.2061C57.6156 57.6763 57.3379 60.4994 58.1709 62.9696C59.0039 65.7927 60.3923 67.5572 62.6136 68.2629C63.169 68.6158 63.7242 68.6159 64.2796 68.9688C64.8349 68.9688 65.1125 68.263 65.1125 67.9101C65.1125 67.5572 65.1126 67.2043 64.8349 67.2043C63.1689 65.7928 61.2252 64.0283 60.9475 61.5581C60.6699 59.0878 61.503 56.2648 61.7807 53.7946C61.7807 53.0888 61.5029 52.7358 60.9475 52.7358C60.3922 53.4416 60.3923 54.5003 60.3923 55.9118Z" fill="#57D0FF"/>
<path d="M47.0644 44.9722C46.509 44.9722 45.9538 44.6192 45.3984 44.2663C45.3984 44.9721 45.6761 45.325 46.2314 45.6779C49.2857 46.3836 52.0625 44.6193 54.8392 46.7366C57.0605 48.501 57.8935 51.677 58.4488 54.853C58.4488 55.2059 58.4488 55.2059 58.4488 55.5588C58.7265 56.9704 60.1147 56.6175 60.1147 55.5588C60.1147 54.5002 60.1147 53.4414 60.1147 52.3827C59.8371 49.2067 58.4488 46.0308 56.2275 43.9134C54.0062 41.7961 50.3964 41.0903 47.6197 42.149C48.7304 43.2076 48.4527 45.325 47.0644 44.9722Z" fill="#57D0FF"/>
<path d="M42.3438 32.6211C41.2331 34.0327 41.233 36.1499 41.5107 38.2672C41.7883 38.973 41.7884 39.6788 42.066 40.3846C42.899 42.149 44.0097 43.5606 45.3981 44.6193C45.9534 44.9722 46.5087 44.9721 47.064 45.325C48.4523 45.6779 48.7301 43.2077 47.8971 42.502C47.8971 42.502 47.897 42.502 47.6194 42.502C46.231 41.7962 45.1203 40.7375 44.2873 38.6202C44.0097 37.2086 44.0097 35.7971 44.0097 34.3856C44.0097 34.0327 44.0098 33.6797 43.7321 33.3268C43.4545 32.2682 42.6215 31.9153 42.3438 32.6211Z" fill="#57D0FF"/>
<path d="M27.9053 222.475C29.2936 224.24 30.682 225.651 32.0703 226.71C33.7363 227.769 35.4023 228.474 37.0683 228.827C39.2896 229.18 41.2332 228.827 43.4546 228.827C47.6196 228.827 47.0643 230.239 49.5633 234.121C53.4506 240.12 59.837 237.649 65.3903 239.767C65.1126 239.061 65.6679 238.002 66.2233 238.355C66.7786 238.355 67.3339 238.708 67.6116 238.708C67.6116 238.708 67.6117 238.355 67.334 238.355C65.1127 235.885 62.6135 235.179 59.5592 235.179C58.1709 235.179 56.7825 235.885 55.3942 235.532C50.9515 234.826 49.5632 229.886 48.4525 225.651C48.1749 224.945 47.6196 224.945 47.342 224.945C40.1226 226.357 35.1246 226.71 29.2936 220.711C29.2936 220.711 29.2935 220.711 29.0159 220.711C28.4605 219.299 27.0723 221.417 27.9053 222.475Z" fill="#57D0FF"/>
<path d="M65.3896 239.767C65.3896 240.12 65.6672 240.12 65.6672 240.473C67.0556 241.531 68.1663 242.59 68.7217 244.001V239.414C68.444 239.061 68.1663 239.061 67.6109 238.708C67.0556 238.355 66.7779 238.355 66.2226 238.355C65.6673 238.002 65.3896 239.061 65.3896 239.767Z" fill="#57D0FF"/>
<path d="M35.68 212.594C46.509 214.712 57.8934 215.064 69 211.888V210.124C57.8934 212.241 47.0643 212.947 35.9576 210.83C35.1246 210.83 35.1247 212.241 35.68 212.594Z" fill="#57D0FF"/>
<path d="M36.7902 202.008C35.9572 202.008 35.6795 203.772 36.7902 203.772C37.9008 203.772 39.2891 203.772 40.3998 203.772C41.2328 203.772 40.9551 202.361 40.3998 202.008C39.0115 202.008 37.9008 202.008 36.7902 202.008Z" fill="#57D0FF"/>
<path d="M51.5066 203.066C50.6736 203.066 50.6736 204.478 51.5066 204.831C57.3376 205.537 63.1686 204.831 68.9996 203.772V202.008C63.1686 202.714 57.6153 203.772 51.5066 203.066Z" fill="#57D0FF"/>
<path d="M34.8467 194.95C46.5087 195.303 57.6154 196.714 68.9997 192.832V191.421C57.893 194.95 46.5087 193.185 35.1243 193.185C34.2913 193.185 34.0137 194.95 34.8467 194.95Z" fill="#57D0FF"/>
<path d="M37.6231 186.128C38.4561 186.128 39.5668 186.128 40.3998 186.128C41.2328 186.128 40.9551 184.716 40.3998 184.716C39.5668 184.716 38.7337 184.716 37.9007 184.716C36.79 184.011 36.5124 186.128 37.6231 186.128Z" fill="#57D0FF"/>
<path d="M49.0074 186.834C53.4501 185.775 57.8928 185.775 62.0578 184.716C62.8908 184.363 62.6132 182.952 61.7802 183.305C57.3375 184.01 52.8948 184.363 48.7298 185.422C48.1745 185.775 48.1744 187.186 49.0074 186.834Z" fill="#57D0FF"/>
<path d="M37.6238 175.894C43.4548 175.894 49.2857 175.894 55.1167 175.894C55.9497 175.894 55.9497 174.483 55.1167 174.483C49.2857 174.13 43.4548 174.483 37.6238 174.483C36.7908 174.483 36.7908 175.894 37.6238 175.894Z" fill="#57D0FF"/>
<path d="M46.2311 167.072C47.0641 167.072 47.0641 165.66 46.2311 165.66C45.3981 165.66 44.5652 165.66 43.7322 165.66C42.8992 165.66 42.8992 167.425 43.7322 167.425C44.5652 167.072 45.3981 167.072 46.2311 167.072Z" fill="#57D0FF"/>
<path d="M68.9999 220.358C64.8349 220.711 60.3922 220.358 55.9495 219.652C55.1165 219.652 54.8389 221.064 55.6719 221.417C59.8369 222.828 64.2796 223.181 68.9999 222.828V220.358Z" fill="#57D0FF"/>
<path d="M62.0579 228.475C60.9473 228.475 60.9473 230.592 61.7803 230.592C63.1687 230.592 64.8346 230.592 66.2229 230.592C67.0559 230.592 66.7783 229.18 66.2229 228.827C65.1123 228.475 63.4463 228.475 62.0579 228.475Z" fill="#57D0FF"/>
<path d="M11.2449 75.3207C-0.972439 101.082 -0.972506 135.312 1.80416 164.602C1.80416 165.66 3.47026 165.66 3.47026 164.602C3.74793 133.195 2.63723 106.022 12.6332 76.3794C12.9109 75.3208 11.5226 74.6149 11.2449 75.3207Z" fill="#57D0FF"/>
<path d="M20.6853 58.7347C24.0173 44.2663 34.0133 36.1498 39.289 23.4458C39.5667 22.3871 38.456 21.6813 37.9007 22.74C30.959 33.3267 21.5184 44.6191 19.0194 58.7347C18.7417 59.4405 20.4076 59.7934 20.6853 58.7347Z" fill="#57D0FF"/>
<path d="M32.0702 249.648C28.7382 243.296 25.6839 237.296 22.9073 230.592C22.6296 229.533 21.2413 230.239 21.5189 231.297C24.2956 238.002 27.0722 244.707 30.9595 250.706C31.5148 251.412 32.3479 250.353 32.0702 249.648Z" fill="#57D0FF"/>
<path d="M8.74598 223.887C18.4643 251.412 30.6817 276.467 49.563 295.17C50.396 296.229 51.5068 294.112 50.6738 293.406C32.0701 274.703 20.6856 250 10.1343 223.181C9.57898 222.122 8.46831 222.828 8.74598 223.887Z" fill="#57D0FF"/>
<path d="M41.511 264.116C40.9556 263.057 39.8451 264.469 40.4004 265.528C46.2314 275.762 54.5614 286.348 64.0021 290.936C64.8351 291.289 65.3904 289.877 64.5574 289.524C55.6721 281.761 47.8973 275.056 41.511 264.116Z" fill="#57D0FF"/>
</svg>
