<svg width="148" height="103" viewBox="0 0 148 103" fill="none" xmlns="http://www.w3.org/2000/svg">
<path d="M112.35 99.9341C76.8084 81.9367 38.4905 72.7616 1.83845 58.9989C0.450121 58.2931 -0.382845 61.1163 1.00549 61.822C36.8245 78.0549 74.8648 90.0531 111.517 102.051C112.905 102.404 113.46 100.287 112.35 99.9341ZM35.7138 50.1767C36.8245 50.5296 37.1021 48.4123 35.9914 47.7065C31.5488 45.5891 26.8284 44.5305 22.3858 43.1189C20.9974 42.766 20.1645 45.2363 21.5528 45.942C26.2731 47.7065 30.9935 49.118 35.7138 50.1767ZM80.9735 66.4096C82.0841 66.7625 82.3618 64.2923 81.5288 63.9394C71.2552 59.7047 60.7039 55.4701 50.1525 52.2941C49.0419 51.9412 48.2088 54.0585 49.5972 54.4114C59.8708 57.9402 70.1445 63.9394 80.9735 66.4096ZM147.336 69.9385C106.519 50.5296 64.0358 37.4727 22.1081 22.6514C20.9974 22.2985 20.1645 24.7687 21.2751 25.1216C63.2028 40.6487 105.13 55.1171 146.78 72.0558C147.891 72.7616 148.447 70.6443 147.336 69.9385ZM19.8868 2.5367C29.6051 7.47714 40.1565 9.59446 50.4301 12.0647C51.2631 12.4176 51.8184 10.3003 50.7077 9.94738C40.7117 6.06561 30.1605 5.00695 20.4422 0.419394C19.6092 -0.286384 19.0538 1.83092 19.8868 2.5367Z" fill="#6B92B3"/>
</svg>
