<svg width="1240" height="1316" viewBox="0 0 1240 1316" fill="none" xmlns="http://www.w3.org/2000/svg">
<path d="M353.598 76.4266C454.407 -24.3759 617.875 -24.3759 718.684 76.4266L936.796 294.525L571.71 659.681L353.598 441.582C252.789 340.78 252.789 177.321 353.598 76.4266Z" fill="#039BE5"/>
<path d="M626.815 390.444C652.063 377.36 671.783 356.259 686.618 332.118C712.143 290.655 723.293 240.161 722.556 205.24C722.463 202.844 722.371 200.449 722.279 198.237C722.371 198.237 722.371 198.237 722.371 198.053C722.371 198.053 722.371 197.961 722.279 197.961C721.358 185.614 718.778 175.663 714.631 169.673C710.761 163.961 705.509 161.565 699.151 163.684C688.277 167.278 681.919 176.584 676.482 189.299C676.206 189.852 676.022 190.405 675.745 190.958C675.008 192.617 674.363 194.275 673.718 196.026C660.633 229.842 649.483 281.256 588.758 312.953C568.486 323.457 559.363 352.85 569.868 373.029C580.281 393.3 606.635 401.04 626.815 390.444Z" fill="#B0BEC5"/>
<path d="M675.652 191.051C676.942 192.156 678.232 193.078 679.614 193.815C682.102 196.948 685.696 199.712 690.58 202.107C696.293 204.872 700.256 205.977 703.389 205.977C709.654 206.162 712.88 202.476 720.62 201.186C721.173 200.357 721.726 199.251 722.279 198.145C722.371 198.145 722.371 198.145 722.371 197.961C724.582 193.354 726.425 186.996 727.807 182.573C732.783 167.002 736.377 135.581 713.801 128.487C713.709 128.487 713.709 128.487 713.617 128.394C689.935 121.023 683.577 142.031 679.246 158.248C674.27 152.812 668.741 150.14 664.779 152.075C659.25 154.931 659.434 166.357 665.148 177.414C667.543 181.928 670.584 186.167 673.901 189.3C674.454 190.037 675.007 190.498 675.652 191.051Z" fill="#B0BEC5"/>
<path d="M672.796 195.381C673.073 195.657 673.349 195.842 673.625 196.118C682.011 203.121 690.857 207.636 703.665 207.636C709.102 207.728 715.368 206.899 722.555 205.24C722.555 205.148 722.74 205.148 722.832 205.148C723.477 204.964 724.03 204.687 724.491 204.227C725.32 203.397 725.689 202.107 725.504 200.817C725.136 199.343 723.846 198.237 722.279 198.145C722.279 198.145 722.279 198.053 722.187 198.053C721.819 197.961 721.45 198.053 721.081 198.145C714.447 199.804 709.01 200.541 704.126 200.541C692.7 200.541 685.052 196.579 677.404 190.037C677.127 189.76 676.759 189.576 676.298 189.484C675.469 189.115 674.547 189.115 673.718 189.484C673.073 189.576 672.612 189.945 672.243 190.405C671.045 191.788 671.23 194.183 672.796 195.381Z" fill="#E64A19"/>
<path opacity="0.2" d="M686.616 332.119C712.141 290.655 723.291 240.162 722.553 205.24C722.553 205.148 722.738 205.148 722.83 205.148C723.475 204.964 724.028 204.687 724.489 204.227C725.318 203.397 725.686 202.107 725.502 200.817C725.134 199.343 723.844 198.237 722.277 198.145C724.489 193.538 726.331 187.18 727.714 182.758C732.69 167.186 736.283 135.766 713.707 128.671C713.615 128.671 713.615 128.671 713.523 128.579C718.96 141.202 717.854 156.037 714.629 169.766C711.865 181.468 707.441 192.432 704.216 200.449C703.756 201.647 703.295 202.752 702.834 203.858C703.018 204.595 703.203 205.332 703.387 205.977C703.571 206.53 703.664 207.083 703.756 207.636C709.192 233.988 688.736 273.793 672.334 299.316C662.566 314.428 674.176 325.3 686.616 332.119Z" fill="#212121"/>
<path d="M642.847 478.347C646.349 481.111 649.666 484.059 652.799 487.192C653.352 487.653 653.905 488.298 654.458 488.758C667.819 501.935 693.344 523.404 721.265 545.057C737.667 547.913 756.004 544.872 773.42 536.211C783.648 531.143 793.6 524.049 802.538 515.111C808.988 508.661 817.005 499.078 825.667 487.653C820.783 467.474 815.162 447.111 809.081 428.406C800.88 403.159 791.941 381.137 783.095 366.763C780.239 362.064 777.29 358.286 774.526 355.43C703.572 284.389 647.731 259.05 612.255 264.118C603.961 277.847 541.302 324.931 526.005 330.091C531.073 345.294 526.005 360.498 551.346 395.972C586.085 444.439 618.336 458.536 642.847 478.347Z" fill="#CFD8DC"/>
<path d="M690.67 529.946C699.148 538.054 709.745 543.122 721.355 545.149C737.757 548.005 756.095 544.965 773.51 536.304C783.739 531.236 793.69 524.141 802.629 515.203C809.079 508.753 817.096 499.171 825.758 487.745C833.682 477.241 842.16 465.17 850.545 452.363C857.548 441.674 864.367 430.525 870.725 419.468C872.384 416.52 874.043 413.479 875.701 410.531C895.236 374.78 907.676 342.162 898.001 332.395C897.079 331.473 895.881 330.736 894.499 330.184C893.946 329.999 893.393 329.815 892.748 329.631C892.196 329.539 891.458 329.354 890.721 329.262C886.482 328.617 880.769 329.078 874.135 330.368C872.661 330.644 871.186 331.013 869.62 331.289C846.859 336.541 814.884 350.27 784.568 366.119C784.107 366.395 783.739 366.579 783.278 366.856C780.698 368.238 778.118 369.62 775.63 371.002C767.429 375.425 759.412 379.94 751.948 384.547C748.815 386.482 745.774 388.417 742.733 390.26C740.982 391.365 739.324 392.471 737.573 393.577C727.805 399.842 719.328 406.016 712.693 411.544C711.495 412.65 710.39 413.571 709.284 414.585C708.086 415.691 706.98 416.704 705.874 417.81L705.69 417.994C677.217 446.466 603.499 424.26 643.03 478.439C652.061 490.878 667.265 507.555 690.67 529.946Z" fill="#CFD8DC"/>
<path d="M705.691 417.718C721.633 429.051 742.826 435.962 766.324 435.962C788.716 435.962 833.315 421.127 873.03 411.083C921.131 399.105 963.058 390.26 963.058 374.135C963.058 361.419 932.465 344.557 894.408 330.091C865.566 319.126 739.325 384.363 705.691 417.718Z" fill="#CFD8DC"/>
<path opacity="0.2" d="M642.847 478.347C652.062 490.878 667.266 507.556 690.671 529.946C699.149 538.054 709.746 543.122 721.356 545.149C737.758 548.006 756.096 544.965 773.511 536.304C783.74 531.236 793.692 524.141 802.63 515.203C809.08 508.753 817.097 499.171 825.759 487.745C833.683 477.241 842.161 465.171 850.546 452.363C857.549 441.675 864.368 430.525 870.726 419.469C872.385 416.52 874.044 413.479 875.702 410.531C922.697 398.829 963.058 390.075 963.058 374.319C963.058 372.569 962.505 370.726 961.307 368.791C940.482 380.585 917.353 377.452 894.132 371.831C889.985 370.818 885.839 369.712 881.692 368.607C863.078 377.452 842.529 399.29 817.926 426.103C815.53 428.59 813.227 431.078 810.739 433.75C799.313 446.189 786.965 459.274 773.604 472.634C727.622 518.06 708.824 463.788 694.081 442.78C684.866 440.477 675.836 437.712 667.082 434.395C606.541 411.636 556.874 365.382 554.847 312.677C542.315 321.43 531.257 328.341 525.913 330.091C530.981 345.295 525.913 360.498 551.253 395.972C586.084 444.439 618.336 458.536 642.847 478.347Z" fill="#212121"/>
<path d="M414.508 299.593C480.393 365.566 544.435 342.162 591.983 294.525C642.664 243.847 652.8 193.078 586.915 127.197C539.275 79.5595 460.121 61.2233 409.44 111.993C333.326 188.01 366.868 251.956 414.508 299.593Z" fill="#CFD8DC"/>
<path opacity="0.2" d="M376.911 154.839C371.198 197.224 395.801 234.172 426.025 264.395C492.003 330.276 555.953 306.964 603.501 259.327C615.848 246.98 625.708 234.725 632.711 222.194C630.315 247.349 615.664 270.937 591.982 294.525C544.342 342.162 480.392 365.474 414.507 299.593C376.082 261.17 346.963 212.243 376.911 154.839Z" fill="#212121"/>
<path opacity="0.2" d="M605.066 395.235C660.262 400.856 715.09 369.62 752.317 334.238C733.796 317.284 716.38 303.739 700.254 293.235C678.231 304.937 651.14 313.137 615.756 309.452C595.852 307.425 575.119 322.167 568.761 341.056C567.839 343.728 567.286 346.493 566.918 349.257C564.706 371.924 582.398 392.84 605.066 395.235Z" fill="#212121"/>
<path d="M597.05 393.946C672.15 410.992 755.082 357.55 790.006 314.612C791.48 312.769 792.862 310.926 794.152 309.176L794.336 308.991C808.527 289.55 811.844 273.148 798.944 267.896C788.439 263.566 777.474 266.514 765.034 272.688C764.481 272.964 763.928 273.241 763.467 273.517C761.809 274.346 760.242 275.176 758.583 276.189C741.997 285.127 722.831 298.119 698.78 306.227C697.951 306.504 697.029 306.872 696.2 307.149C694.265 307.794 692.238 308.346 690.211 308.899C689.197 309.268 688.275 309.452 687.17 309.729C687.077 309.729 687.077 309.729 687.077 309.729C685.327 310.189 683.576 310.65 681.641 311.111C680.719 311.295 679.798 311.479 678.876 311.663C661.184 315.165 641.004 315.533 617.967 310.281C595.76 305.214 569.774 321.615 564.706 343.821C559.822 365.843 574.842 388.786 597.05 393.946Z" fill="#CFD8DC"/>
<path d="M767.614 291.576C765.403 286.6 764.573 282.178 764.665 278.123C762.546 272.779 762.362 264.394 764.113 256.378C766.877 244.216 774.064 235.462 780.146 236.844C784.385 237.766 786.965 243.478 787.242 250.85C801.064 241.359 819.493 229.381 832.762 250.481C845.386 270.568 822.257 292.129 808.435 300.882C803.551 304.015 796.087 308.807 791.019 310.373C780.883 304.199 775.262 308.899 767.614 291.576Z" fill="#CFD8DC"/>
<path d="M794.43 314.059C794.706 313.782 794.89 313.506 795.075 313.137C795.996 311.387 795.259 309.175 793.508 308.346C773.144 298.118 767.799 287.983 765.495 273.793C765.219 271.858 763.284 270.476 761.349 270.844C759.414 271.213 758.124 273.056 758.4 274.991C761.073 291.023 767.338 303.186 790.283 314.704C791.665 315.441 793.324 315.072 794.43 314.059Z" fill="#E64A19"/>
<path d="M659.842 325.732L664.021 380.765L634.343 383.018L630.165 327.985L659.842 325.732Z" fill="#D84315"/>
<g opacity="0.2">
<path d="M696.2 336.265C695.739 334.422 693.896 326.498 692.053 318.573C691.408 315.164 690.764 311.755 690.211 308.714C689.197 309.083 688.275 309.267 687.17 309.544C687.999 312.4 689.013 315.717 690.026 319.126C692.791 326.774 695.463 334.514 696.2 336.265Z" fill="#212121"/>
<path d="M680.812 328.709L681.826 310.926C680.905 311.11 679.983 311.294 679.062 311.479L680.812 328.709Z" fill="#212121"/>
<path d="M705.139 320.693C704.586 319.495 702.006 314.519 700.07 309.359C699.702 308.254 699.241 307.148 698.781 306.134C697.951 306.411 697.03 306.779 696.2 307.056C696.845 307.977 697.583 309.175 698.135 310.281C700.992 315.164 704.309 319.679 705.139 320.693Z" fill="#212121"/>
</g>
<path opacity="0.2" d="M597.05 393.945C672.15 410.992 754.99 357.458 789.914 314.612C790.006 314.704 790.098 314.704 790.282 314.796C791.665 315.533 793.323 315.165 794.429 314.151C794.706 313.875 794.982 313.506 795.074 313.23C795.811 311.848 795.443 310.189 794.429 309.083C799.129 306.964 804.565 303.371 808.528 300.883C822.442 292.129 845.571 270.568 832.947 250.574C832.578 250.021 832.209 249.468 831.841 249.007C825.114 269.739 812.766 282.915 782.45 297.934C759.045 328.157 691.87 365.197 654.366 367.04C620.916 368.699 572.724 362.802 567.748 335.897C566.55 338.384 565.536 341.149 564.983 343.821C559.823 365.842 574.843 388.786 597.05 393.945Z" fill="#212121"/>
<path d="M489.7 232.79L493.109 236.199C526.927 270.015 558.81 301.896 630.408 235.37C639.254 202.66 627.551 167.831 586.915 127.196C563.141 103.424 531.627 87.0227 499.559 82.7842C498.269 83.982 496.887 85.3641 495.597 86.6541C465.281 116.969 450.537 143.045 450.537 166.448C450.629 193.999 470.533 213.717 489.7 232.79Z" fill="#263238"/>
<path d="M500.665 91.6298C503.245 89.0498 505.825 86.562 508.313 84.1663C526.005 76.4265 570.328 100.475 591.983 122.036C627.644 157.695 647.731 208.281 632.527 223.484C560.745 294.156 532.732 265.685 498.177 231.132C463.161 196.118 427.132 165.158 500.665 91.6298Z" fill="#000014"/>
<path d="M484.078 109.689C531.994 117.429 577.976 139.543 615.203 175.939C608.016 162.026 598.525 149.034 586.822 137.332C562.127 112.638 531.349 97.8952 499.374 93.0117C493.661 98.8166 488.501 104.345 484.078 109.689Z" fill="#EEEEEE"/>
<path d="M443.349 206.715C440.032 203.398 435.517 205.517 433.305 211.414L426.762 228.644C424.459 234.541 425.38 242.097 428.606 245.322L464.451 281.165C467.768 284.482 475.232 285.311 481.129 283.008L498.361 276.466C504.258 274.254 506.378 269.647 503.152 266.422L443.349 206.715Z" fill="#90A4AE"/>
<path d="M782.173 362.986C783.556 361.604 783.556 359.3 782.173 357.918C780.791 356.536 778.488 356.536 777.105 357.918C721.264 413.848 656.577 475.49 646.625 478.807C644.782 479.452 643.769 481.479 644.322 483.322C644.967 485.165 646.994 486.179 648.837 485.626C664.133 480.466 762.546 382.52 782.173 362.986Z" fill="#E64A19"/>
<path d="M482.88 484.059C485.736 487.469 490.528 488.206 493.569 485.718L510.155 472.081C513.196 469.593 513.38 464.71 510.616 461.3L484.999 430.157C482.143 426.747 477.351 426.01 474.31 428.498L457.724 442.227C454.683 444.715 454.498 449.599 457.355 453.008L482.88 484.059Z" fill="#BDBDBD"/>
<path d="M528.216 561.643C531.072 565.052 535.772 565.789 538.905 563.301L572.078 535.935C575.119 533.448 575.303 528.564 572.446 525.155L521.213 462.959C518.356 459.55 513.565 458.813 510.524 461.301L477.351 488.667C474.31 491.155 474.126 496.038 476.982 499.447L528.216 561.643Z" fill="#BDBDBD"/>
<path d="M469.978 400.764C472.835 404.173 477.627 404.91 480.667 402.422L486.196 397.815C489.237 395.328 489.421 390.444 486.657 387.035L450.812 343.452C447.955 340.043 443.164 339.306 440.123 341.794L434.594 346.308C431.553 348.796 431.369 353.68 434.133 357.089L469.978 400.764Z" fill="#BDBDBD"/>
<path opacity="0.2" d="M434.133 357.181C431.276 353.772 431.46 348.888 434.593 346.401L435.054 345.94C435.239 347.598 435.791 349.257 436.897 350.639L472.742 394.222C475.599 397.631 480.299 398.368 483.432 395.88L488.407 391.734C488.592 394.038 487.947 396.341 486.104 397.815L480.575 402.423C477.534 404.91 472.742 404.173 469.886 400.764L434.133 357.181Z" fill="#212121"/>
<path opacity="0.2" d="M476.981 499.447C474.124 496.038 474.309 491.154 477.349 488.667L482.878 484.06L457.261 452.916C454.405 449.507 454.589 444.623 457.63 442.135L463.988 436.883C462.237 439.555 462.421 443.241 464.817 446.097L490.434 477.149L484.906 481.756C481.865 484.244 481.68 489.127 484.537 492.537L535.771 554.732C538.627 558.141 543.419 558.878 546.46 556.391L573.274 534.277C572.906 534.829 572.629 535.382 572.076 535.843L538.904 563.209C535.863 565.697 531.071 564.96 528.214 561.55L476.981 499.447Z" fill="#212121"/>
<path d="M560.651 549.02C569.129 559.339 583.504 561.551 592.626 553.995L635.659 518.521C644.874 510.965 652.614 490.51 644.137 480.282C644.137 480.282 602.671 444.439 569.682 404.634C545.816 375.794 528.032 349.257 528.032 349.257C519.554 338.937 501.401 336.818 492.279 344.374L449.246 379.848C440.123 387.404 439.571 401.87 448.048 412.19L560.651 549.02Z" fill="#BDBDBD"/>
<path opacity="0.2" d="M560.652 549.02L447.956 412.19C440.677 403.344 440.032 391.366 445.929 383.35C446.021 388.694 447.956 394.314 451.826 399.014L564.522 535.843C573 546.163 587.283 548.375 596.497 540.819L639.53 505.345C642.571 502.857 645.427 498.895 647.639 494.472C646.717 503.778 641.465 513.73 635.66 518.521L592.627 553.995C583.412 561.551 569.129 559.339 560.652 549.02Z" fill="#212121"/>
<path d="M531.441 470.422C538.997 479.637 552.543 480.927 561.758 473.371C570.972 465.815 572.262 452.271 564.706 443.056C557.15 433.842 543.605 432.552 534.39 440.108C525.175 447.664 523.793 461.208 531.441 470.422Z" fill="#1A237E"/>
<path d="M576.225 445.083L517.712 453.837L573.46 473.647L560.56 457.983L576.225 445.083Z" fill="#D84315"/>
<path d="M527.068 391.103L540.775 407.746L502.011 439.669L488.303 423.026L527.068 391.103Z" fill="#212121"/>
<path d="M591.245 491.523C595.023 496.13 601.842 496.775 606.357 492.997C610.965 489.219 611.61 482.401 607.832 477.886C604.054 473.279 597.235 472.634 592.719 476.412C588.112 480.098 587.467 486.916 591.245 491.523Z" fill="#212121"/>
<path d="M557.98 518.889C561.758 523.496 568.576 524.141 573.092 520.364C577.699 516.586 578.344 509.767 574.566 505.252C570.788 500.645 563.969 500 559.454 503.778C554.847 507.464 554.202 514.282 557.98 518.889Z" fill="#212121"/>
<path d="M735.455 362.433C739.233 367.04 746.052 367.685 750.567 363.907C755.175 360.13 755.82 353.311 752.042 348.796C748.264 344.189 741.445 343.544 736.929 347.322C732.322 351.1 731.677 357.918 735.455 362.433Z" fill="#212121"/>
<path d="M690.302 438.081C720.434 407.951 741.444 374.135 749.921 359.208C751.856 355.799 750.658 351.376 747.249 349.441C743.839 347.506 739.416 348.704 737.481 352.113C726.976 370.357 671.043 462.314 597.971 477.702C594.101 478.531 591.613 482.309 592.442 486.179C593.271 490.049 597.05 492.537 600.92 491.707C635.567 484.428 665.883 462.499 690.302 438.081Z" fill="#78909C"/>
<path d="M596.774 292.498C609.122 280.151 617.968 269.278 620.456 265.685C621.562 264.026 621.193 261.815 619.534 260.709C617.968 259.603 615.664 259.972 614.558 261.631C608.569 270.2 566.918 319.68 526.558 332.579C524.623 333.224 523.609 335.159 524.254 337.094C524.899 339.029 526.927 340.043 528.77 339.398C553.649 331.382 578.898 310.281 596.774 292.498Z" fill="#263238"/>
<path opacity="0.2" d="M592.535 486.179C592.258 484.889 592.442 483.691 592.811 482.493C594.47 484.612 597.142 485.718 599.906 485.165C634.461 477.886 664.87 455.957 689.289 431.539C719.421 401.409 740.43 367.593 748.908 352.666C749.184 352.205 749.277 351.653 749.461 351.192C751.212 353.403 751.58 356.628 750.106 359.208C741.536 374.135 720.527 407.951 690.487 438.081C666.068 462.499 635.659 484.428 601.104 491.707C597.142 492.444 593.364 490.049 592.535 486.179Z" fill="#212121"/>
<path opacity="0.2" d="M353.599 76.4264C364.841 65.1851 376.912 55.2339 389.536 46.4805C319.965 147.099 329.917 286.048 419.484 375.609L637.596 593.707L571.711 659.681L353.599 441.582C252.79 340.78 252.79 177.321 353.599 76.4264Z" fill="#212121"/>
<path d="M486.289 568.277C514.302 565.512 615.018 517.23 704.77 427.577C799.22 333.132 849.717 228.091 845.478 205.056C1092.06 30.1716 1232.5 82.9686 1232.5 82.9686C1232.5 82.9686 1312.2 294.525 952.092 654.521C716.841 889.758 460.949 1015.25 380.504 934.815C323.281 877.779 370.184 732.196 486.289 568.277Z" fill="#B0BEC5"/>
<path d="M713.983 436.699C809.079 341.609 863.814 232.882 858.286 202.66C856.996 195.565 850.177 190.958 843.173 192.248C836.078 193.538 831.471 200.356 832.761 207.359C835.249 223.208 790.65 323.365 695.646 418.363C606.356 507.556 507.574 553.073 485.09 555.377C477.995 556.114 472.743 562.472 473.48 569.567C474.217 576.754 480.575 581.913 487.671 581.176C520.198 577.951 623.772 526.905 713.983 436.699Z" fill="#263238"/>
<path d="M1039.72 275.636C1079.62 315.533 1134.08 333.962 1191.58 332.027C1265.85 171.609 1232.4 82.8766 1232.4 82.8766C1232.4 82.8766 1143.66 49.5215 983.329 123.787C981.394 181.376 999.823 235.739 1039.72 275.636Z" fill="#C62828"/>
<path d="M943.89 143.69C946.102 142.4 948.221 141.202 950.433 140.097C961.674 134.107 972.64 128.763 983.329 123.788C981.394 181.376 999.823 235.739 1039.72 275.636C1079.62 315.534 1134.08 333.962 1191.58 332.027C1186.61 342.715 1181.26 353.588 1175.27 364.921C1174.07 367.133 1172.97 369.252 1171.77 371.463C1110.12 370.634 1052.35 349.073 1009.22 305.951C966.19 263.013 944.719 205.333 943.89 143.69Z" fill="#212121"/>
<path d="M758.583 615.822C800.602 648.071 860.774 640.239 893.025 598.223C925.277 556.206 917.444 496.038 875.425 463.789C833.499 431.539 773.234 439.371 740.983 481.388C708.732 523.404 716.564 583.572 758.583 615.822Z" fill="#8166D1"/>
<path d="M778.204 657.114L926.227 439.04L693.024 561.75L783.299 566.84L778.204 657.114Z" fill="#D84315"/>
<path opacity="0.2" d="M390.457 943.2C480.484 1005.4 725.871 880.728 952 654.521C1287.41 319.127 1241.16 112.638 1233.32 85.9175C1040.83 348.612 1035.21 441.491 615.203 713.215C539.735 788.771 443.073 888.652 390.457 943.2Z" fill="#212121"/>
<path d="M139.447 1218.15C125.164 1244.41 67.8491 1301.81 0.121114 1315.27C13.5746 1247.64 70.9822 1190.23 97.2441 1175.95C88.2137 1166.92 49.1432 1181.94 28.8709 1202.12C34.7683 1154.02 104.984 1095.88 124.151 1094.77C121.847 1079.02 79.8282 1090.9 62.8732 1107.86C78.6303 1055.98 151.426 1007.24 176.951 1005.86C165.248 987.428 126.178 1002.35 112.725 1015.9C147.925 956.561 231.133 904.685 254.631 928.181L320.885 994.431L387.138 1060.68C410.636 1084.18 358.757 1167.38 299.415 1202.58C312.96 1189.03 327.888 1149.97 309.459 1138.36C307.984 1163.88 259.238 1236.76 207.452 1252.43C224.315 1235.56 236.294 1193.46 220.537 1191.15C219.431 1210.32 161.286 1280.53 113.185 1286.43C133.458 1266.25 148.478 1227.18 139.447 1218.15Z" fill="#D84315"/>
<path d="M131.983 1183.41C147.187 1127.67 182.664 1112.46 187.732 1107.4C177.596 1097.26 167.46 1107.4 157.323 1117.53C167.46 1076.99 213.072 1061.79 233.345 1061.79C223.209 1041.52 187.732 1046.58 177.596 1056.72C187.732 1006.04 253.709 1011.11 268.914 1016.18C258.777 995.905 228.277 985.77 208.004 995.905C258.685 945.227 328.901 954.534 344.935 970.566C360.968 986.599 370.275 1056.81 319.594 1107.49C329.731 1087.22 319.594 1056.81 299.322 1046.58C304.39 1061.79 309.458 1127.76 258.777 1137.89C268.914 1127.76 273.981 1092.28 253.709 1082.15C253.709 1102.42 238.505 1148.03 197.96 1158.17C208.096 1148.03 218.233 1137.89 208.097 1127.76C202.936 1132.73 187.732 1168.21 131.983 1183.41Z" fill="#FF8F00"/>
<path d="M477.443 1000.23L505.18 951.861L363.366 810.147L315.173 837.974L477.443 1000.23Z" fill="#263238"/>
<path d="M426.763 1111.82L491.358 1016.73L490.16 1007.79L307.525 825.259L298.679 823.969L203.583 888.652L426.763 1111.82Z" fill="#212121"/>
<path opacity="0.2" d="M440.861 887.547L505.18 951.861L479.286 997.011L490.16 1007.79L491.358 1016.73L426.763 1111.82L321.715 1006.78L440.861 887.547Z" fill="#212121"/>
<path d="M44.2597 791.443L79.7363 816.782L81.3026 816.413L328.257 750.901L372.395 779.004C392.022 765.091 423.444 731.735 446.942 688.061C464.265 656.18 477.35 618.678 478.732 579.242L318.212 588.64L44.2597 791.443Z" fill="#C62828"/>
<path d="M523.793 1270.95L726.609 997.103L736.192 836.685C696.753 837.975 659.342 851.059 627.367 868.381C583.689 891.969 550.332 923.389 536.418 943.016L564.338 986.967L498.453 1235.47L501.402 1239.62L523.793 1270.95Z" fill="#C62828"/>
<path opacity="0.2" d="M498.453 1235.47L635.66 1000.05L627.459 868.381C583.781 891.97 550.424 923.39 536.51 943.016L564.43 986.967L498.453 1235.47Z" fill="#212121"/>
<path opacity="0.2" d="M81.3044 816.414L328.258 750.901L372.397 779.004C392.024 765.091 423.446 731.736 446.943 688.061L315.266 679.768L81.3044 816.414Z" fill="#212121"/>
<path d="M290.662 1037.83C273.891 1021.06 383.638 884.045 473.205 794.392C584.795 682.809 615.203 713.215 615.203 713.215C615.203 713.215 645.612 743.622 534.114 855.205C444.455 944.951 307.525 1054.69 290.662 1037.83Z" fill="#C62828"/>
<path opacity="0.2" d="M615.203 713.308C615.203 713.308 645.612 743.714 534.114 855.297C444.455 944.951 307.525 1054.69 290.662 1037.83L615.203 713.308Z" fill="#212121"/>
<path d="M381.794 90.8933C408.701 64.0801 441.321 46.6655 475.784 38.6492V66.1994C436.621 71.0829 398.565 85.457 365.392 109.506C370.46 103.056 375.897 96.8824 381.794 90.8933ZM659.064 90.8933C680.442 112.178 695.738 137.24 705.229 163.869C698.318 154.839 690.855 146.178 682.654 137.977C630.591 86.0098 561.757 61.408 494.582 64.5408V35.2399C552.911 27.5001 614.188 46.0205 659.064 90.8933Z" fill="#EEEEEE"/>
</svg>
