<svg xmlns="http://www.w3.org/2000/svg" width="243" height="306" fill="none" viewBox="0 0 243 306"><path fill="#57D0FF" d="M73.6113 91.8768C73.6113 91.8768 73.8891 91.8768 73.8891 91.5239C74.4448 91.171 74.167 90.1124 73.6113 90.1124C73.6113 89.7595 73.3335 89.4066 73.3335 88.7008C73.3335 87.6421 73.3335 86.5835 72.7778 85.8777C72.5 85.1719 71.6665 85.1719 71.3886 85.8777C71.1108 87.2893 71.1108 90.1124 71.9443 91.5239C72.7778 92.2297 73.3335 92.2297 73.6113 91.8768ZM55.5521 265.498C53.8851 264.792 52.496 263.734 51.1068 262.675C50.2733 261.969 49.162 263.734 49.9955 264.439C51.1068 265.851 52.496 266.557 54.163 267.263C55.5521 267.968 56.9413 269.027 58.0526 269.38C58.8861 269.733 59.7196 268.321 59.164 267.615C58.0526 266.557 56.6635 266.204 55.5521 265.498ZM23.8791 71.4093C22.4899 73.8795 21.9343 76.7026 21.3786 79.5257C21.1008 80.5844 22.7678 81.2901 23.0456 79.8786C23.6013 77.4084 24.157 74.5853 25.5461 72.4679C26.3796 71.4093 24.7126 69.9977 23.8791 71.4093ZM55.8299 17.7701C57.4969 15.2999 59.4418 12.8297 61.9423 12.1239C64.9985 10.7124 66.6655 12.8297 69.166 14.5941C69.7216 14.947 70.5551 14.2413 70.2773 13.5355C69.166 10.0066 65.2763 8.94793 62.498 9.65371C59.164 10.7124 56.3856 13.5355 54.7186 17.0644C54.163 17.7701 55.2743 18.8288 55.8299 17.7701ZM61.9423 14.2412C61.1088 14.2412 61.1088 16.3586 61.9423 16.3586C62.7758 16.3586 63.8871 16.3586 64.7206 16.7115C65.5541 17.0644 66.3876 17.4173 67.2211 17.4173C67.7768 17.4173 68.3325 16.7115 68.0546 16.0057C66.9433 13.8884 63.8871 13.8884 61.9423 14.2412ZM237.811 196.332C237.533 196.332 237.255 196.332 236.977 196.685C233.088 198.096 229.754 200.92 226.142 203.037C221.419 205.507 216.973 205.507 212.25 206.919C211.972 206.919 211.694 207.271 211.417 207.624C208.638 209.036 206.138 210.8 203.082 210.447C199.748 210.095 197.803 207.624 195.024 205.507C194.469 205.154 193.913 205.154 193.635 205.86C181.688 201.978 160.851 201.978 154.739 187.157C154.739 186.804 154.461 186.804 154.461 186.451C152.516 184.334 150.015 183.275 147.793 181.863C147.237 181.511 146.681 181.863 146.404 182.569C145.57 182.569 144.737 182.922 143.625 182.922C142.792 182.922 142.236 182.922 141.403 182.922C128.344 171.983 116.12 160.69 105.84 145.516C95.2823 129.636 89.4478 112.344 82.7798 93.9941C82.7798 93.6412 82.502 93.6413 82.502 93.6413C81.9463 91.8768 81.1128 90.4653 80.0015 89.4066C79.168 88.3479 78.0566 87.2893 76.9453 87.2893C76.3896 85.1719 75.5561 83.0546 75.2783 80.9373C75.0004 79.5257 74.7226 78.1142 74.4448 76.7026C75.834 74.5853 76.9453 72.115 76.6674 69.6448C76.6674 69.2919 76.6675 69.2919 76.3896 68.939C75.5561 63.2928 74.4448 57.6466 73.3335 52.0004C72.2221 46.707 71.9443 41.7666 71.9443 36.4733C73.0556 29.7684 74.167 23.4164 75.5561 16.7115C76.3896 12.4768 78.0566 5.41902 74.7226 1.89013C70.5551 -2.34453 63.6093 2.59592 59.9974 5.06614C55.2743 8.24214 49.7176 12.4768 45.828 17.7701C31.3806 32.2386 18.0446 55.8821 12.488 77.0555C12.488 77.4084 12.488 77.7613 12.488 77.7613C11.6545 81.2901 11.9323 85.1719 11.0988 88.7008C9.98747 92.5826 7.20914 95.4057 6.37564 98.9346C-2.79286 135.635 -0.848022 175.511 13.3215 209.389C13.3215 209.742 13.5993 209.742 13.5993 209.742C15.5441 216.447 18.3225 225.269 22.7678 229.503C25.2683 231.974 28.3244 232.327 30.8249 234.797C36.3816 239.737 40.5491 249.265 40.2713 257.735C40.2713 258.793 40.827 259.146 41.3826 259.499C65.5541 286.319 98.0606 305.727 130.567 302.199C134.179 302.551 137.791 305.375 141.403 305.375C144.459 305.375 146.681 302.199 149.182 300.434C162.796 299.728 175.298 292.671 186.967 284.554C198.081 276.791 210.583 268.321 219.474 256.323C223.086 249.971 254.481 198.449 237.811 196.332ZM226.42 236.208C220.029 249.265 212.25 259.146 201.692 267.615C184.189 281.731 167.241 292.671 146.681 298.317C143.903 299.023 142.236 302.551 139.18 302.551C136.124 302.551 133.345 300.081 130.289 300.434C95.5601 299.375 68.8881 283.848 41.3826 258.087C41.6605 249.265 38.0486 240.796 33.0476 234.797C30.2693 231.621 27.7688 230.915 24.7126 228.445C19.156 224.21 16.6555 213.976 13.3215 206.919C2.48598 171.983 -0.0145564 136.694 7.20911 100.346V99.9933C12.2101 96.8173 16.0998 82.7017 13.3215 77.0555C18.0446 66.4688 22.4899 55.8821 28.0466 46.3541C32.4919 38.9435 37.493 32.2386 42.494 25.8866C42.7718 25.8866 43.0496 25.8866 43.3274 25.5337C48.0506 18.8288 53.8851 13.5355 60.2753 9.3008C63.3315 7.18346 71.6664 1.18436 71.9443 8.94791C72.2221 17.7701 66.9433 26.9452 67.7768 35.7675C67.499 36.8261 67.499 37.8848 67.499 38.9435C67.499 39.2964 67.7768 39.6493 67.7768 39.6493C67.7768 43.531 68.6103 47.7657 69.166 51.2946C70.2773 57.6466 71.6665 63.9986 73.3335 69.9977C73.0556 70.7035 72.7778 71.7621 72.4999 72.8208C72.2221 73.5266 71.9443 74.5853 71.6665 75.291C71.3886 75.291 71.1108 75.6439 71.1108 75.9968C70.5551 78.1141 71.3886 80.2315 71.9443 82.3488C72.4999 84.4661 73.3335 86.5835 74.4448 88.7008C74.4448 89.0537 74.4448 89.4066 74.7226 89.7595C75.5561 90.8181 76.6675 91.171 77.7788 92.2297C78.6123 92.9355 79.4458 94.347 80.2793 95.4057V95.7586C86.9473 132.812 112.786 170.218 139.736 185.745C139.736 185.745 139.736 185.745 140.013 185.745C140.013 185.745 140.013 185.745 140.291 185.745H140.569C140.847 185.745 140.847 185.745 141.125 185.745C143.07 186.098 145.292 186.098 146.681 185.039C148.348 186.098 150.293 187.51 152.238 188.215C152.238 188.215 152.238 188.568 152.238 188.921C155.294 198.096 160.295 199.508 167.519 201.978C176.132 204.801 185.022 207.977 193.913 208.683C195.858 211.859 199.192 213.623 202.248 213.976C205.86 214.682 209.194 212.918 212.25 210.447C220.03 213.976 231.698 205.86 237.533 199.508C243.09 201.978 228.087 233.032 226.42 236.208ZM17.7668 170.924C26.3796 174.453 25.8239 153.632 25.2683 148.339C25.2683 147.28 23.8791 147.28 23.8791 148.339C23.3234 151.868 23.6013 155.397 23.3235 158.926C23.3235 159.631 23.3235 160.337 23.3235 160.69C23.6013 163.866 22.49 165.278 19.9895 165.278C18.3225 167.395 17.2111 167.395 16.6555 165.278C16.0998 164.572 15.8219 163.513 15.5441 162.455C13.5993 156.103 14.155 149.045 14.4328 142.693C14.4328 141.281 12.7658 140.928 12.488 142.34C11.6545 148.339 11.3766 154.338 12.488 159.984C13.0436 164.219 14.7106 169.865 17.7668 170.924ZM14.4328 136.694C15.5441 135.635 16.6555 134.223 17.489 132.812C19.9895 133.871 21.3786 136.341 21.6565 139.87C21.6565 140.928 23.0456 140.928 23.0456 139.87C23.0456 135.635 20.823 132.106 17.7668 130.342C17.489 130.342 16.9333 130.342 16.9333 130.695C15.8219 132.106 14.4328 133.871 13.5993 135.635C13.3215 136.341 13.8771 137.047 14.4328 136.694ZM23.0456 177.982C26.9353 175.864 28.6023 168.101 28.0466 163.16C28.0466 162.455 26.9353 162.102 26.6574 163.16C25.5461 167.042 26.3796 171.983 23.6013 175.159C21.6565 177.629 17.2111 177.629 16.6555 173.747C16.3776 172.688 15.2663 173.041 15.2663 174.1C15.822 177.982 19.9895 179.393 23.0456 177.982ZM26.1018 136.694C25.824 143.046 26.6575 149.751 27.491 156.103C27.491 157.161 28.8801 156.808 28.8801 155.75C28.6023 149.398 28.6023 142.693 27.491 136.694C27.2131 135.635 26.1018 135.635 26.1018 136.694ZM49.4398 91.8768C49.9955 89.7595 50.829 87.6422 51.1068 85.5248C51.6625 82.7017 51.9403 79.5257 51.1068 76.7026C49.7176 71.7622 45.5501 69.6448 42.2161 73.1737C37.493 78.1142 39.16 88.7008 40.2713 95.0528C40.5491 96.1115 41.9383 96.1115 41.6605 94.6999C41.1048 90.8182 40.827 86.9364 40.827 83.0546C40.827 81.643 41.1048 79.8786 41.3826 78.467C43.8831 78.1142 46.3836 77.4084 48.8841 77.0555C50.2733 78.467 49.1619 84.4662 48.8841 85.8777C48.3284 88.3479 47.495 90.8181 46.9393 93.2884C46.6615 95.0528 47.495 108.11 43.0496 104.934C41.9383 104.228 40.8269 105.992 41.9383 107.051C45.2723 109.874 48.0506 105.992 48.6063 101.758C49.162 98.5817 48.6063 95.4057 49.4398 91.8768ZM50.829 101.405C52.7738 97.523 54.4408 92.5826 54.163 87.995C54.163 86.9364 53.0516 86.5835 52.7738 87.6422C51.6625 92.2297 51.1068 96.4644 49.4398 100.699C49.4398 101.758 50.5511 102.463 50.829 101.405ZM85.0024 182.569C88.0586 177.629 87.2251 170.924 85.2803 165.278C87.503 169.159 89.17 173.041 88.6143 178.335C88.0586 183.981 85.0025 188.568 81.1128 191.391C80.2793 192.097 80.8349 193.509 81.6684 193.156C91.1148 187.863 94.4488 169.865 85.0024 162.102C84.7246 161.749 84.4468 162.102 84.169 162.102C83.8911 161.396 83.6133 161.043 83.6133 160.337C81.1128 154.691 76.1118 145.869 70.2773 148.692C69.166 149.045 69.7216 151.162 70.833 150.809C76.3896 149.398 81.1128 159.631 82.7798 164.572C85.0025 170.924 86.6695 180.452 80.2793 183.981C69.166 190.333 64.4428 170.924 63.3315 161.043C63.0536 159.631 61.6645 159.984 61.6645 161.396C62.2201 170.571 64.4428 181.158 71.3886 185.745C75.5561 188.568 81.6684 187.863 85.0024 182.569ZM66.1098 143.399C64.9985 143.751 64.165 144.457 63.6093 145.516C63.0536 146.575 63.3315 147.28 63.8871 148.339C64.4428 149.045 65.2763 148.339 64.9985 147.633C65.2763 147.28 65.2763 146.928 65.5541 146.575C66.1098 145.869 67.2211 145.869 67.7768 145.869C69.166 145.869 70.2773 146.927 71.6665 146.927C72.2221 146.927 72.7778 146.222 72.4999 145.516C71.6664 142.693 68.3325 142.693 66.1098 143.399ZM63.6093 156.808C63.6093 158.22 64.9985 158.22 65.2763 157.161C65.5541 155.044 66.6655 154.338 67.7768 153.279C68.3325 152.927 68.0546 151.515 67.499 151.515C64.9985 151.162 63.6093 153.985 63.6093 156.808ZM110.007 179.04C111.397 187.51 119.454 194.92 126.122 194.567C128.344 194.567 130.289 192.803 130.567 189.627C130.845 185.392 128.067 182.216 125.288 180.452C124.733 180.099 123.899 181.158 124.455 181.863C126.122 183.628 129.178 186.098 128.622 189.274C127.789 194.567 121.399 191.039 119.732 189.98C115.564 187.157 113.341 182.922 111.119 177.629C111.119 177.629 111.119 177.629 110.841 177.276C110.841 176.57 110.841 175.512 110.841 174.806C111.674 174.806 112.508 175.159 113.341 175.159C113.897 175.159 114.453 174.1 113.897 173.394C112.786 171.983 111.119 171.983 109.452 172.335C108.896 172.335 108.618 173.041 108.618 173.747C108.618 175.159 108.896 176.57 109.174 177.982C109.452 178.687 109.73 179.04 110.007 179.04ZM101.672 260.205C100.839 259.852 100.283 261.263 101.117 261.616C103.895 263.381 106.951 264.792 109.452 266.91C114.731 271.144 115.008 282.79 108.618 284.554C106.396 284.907 103.895 284.907 101.672 284.554C92.2261 282.79 83.8911 277.143 77.2231 267.968C76.6675 266.91 75.2783 268.321 76.1118 269.38C83.8911 280.672 99.7276 293.023 111.952 286.319C116.12 284.201 118.342 279.614 117.231 273.967C115.286 265.145 107.507 262.322 101.672 260.205ZM75.0005 263.028C74.7226 264.44 76.3896 264.439 76.3896 263.381C77.501 257.735 81.6685 254.559 86.1138 254.911C90.0035 255.264 93.0596 257.735 96.3936 259.852C97.505 260.558 98.3384 258.793 97.5049 258.087C90.8369 251.03 76.9453 248.912 75.0005 263.028ZM57.2191 207.977C56.6634 207.624 55.83 208.683 56.3856 209.389C57.497 210.8 58.6083 211.859 58.8861 214.329C59.164 216.447 58.8861 218.917 57.7748 220.328C54.9965 223.857 49.9954 221.387 48.8841 217.152C48.6063 216.447 47.495 216.799 47.7728 217.505C49.162 223.151 54.9964 225.975 58.6083 222.093C61.6644 218.564 61.6644 209.389 57.2191 207.977ZM185.856 233.385C181.966 230.915 175.576 233.738 171.686 235.503C170.853 235.855 171.409 237.62 172.242 237.267C175.298 236.914 178.077 235.503 180.855 235.15C186.134 234.091 189.468 240.09 187.801 246.442C184.467 257.735 173.353 253.853 166.685 250.677C166.13 250.324 165.574 251.735 166.13 252.088C173.353 257.382 188.356 259.852 190.301 245.031C190.857 240.443 189.19 235.503 185.856 233.385ZM163.351 247.148C163.629 248.56 165.296 247.501 164.741 246.089C164.185 243.972 164.741 241.855 165.852 240.09C166.408 239.384 166.963 238.679 167.797 238.326C168.63 237.973 169.186 237.973 170.019 237.62C170.575 237.267 170.575 236.208 170.019 235.855C168.075 234.444 165.574 236.561 164.185 238.679C163.074 241.502 162.518 244.325 163.351 247.148ZM133.345 241.149C128.622 239.384 123.343 242.56 121.399 247.854C120.843 248.912 122.232 249.618 122.788 248.912C125.288 244.678 129.456 241.855 133.623 243.972C137.513 245.736 138.346 250.324 139.458 254.559C139.736 255.264 140.847 255.264 140.847 254.559C142.236 248.912 137.791 242.913 133.345 241.149ZM161.407 209.389C162.518 211.506 160.295 211.506 159.184 211.506C157.239 211.153 155.294 209.389 154.183 207.271C153.627 206.213 152.516 206.919 153.072 207.977C154.461 211.859 158.906 215.388 162.24 213.271C165.852 211.153 161.962 206.213 159.462 205.86C158.351 205.86 158.35 207.271 159.184 207.977C159.74 207.977 161.129 208.33 161.407 209.389ZM112.786 288.436C98.3384 289.142 86.9473 286.319 76.3896 272.909C75.834 272.203 74.7226 273.262 75.2783 273.967C83.6133 287.024 100.005 295.847 113.064 289.847C113.619 289.847 113.341 288.436 112.786 288.436ZM119.176 269.733C120.565 273.615 121.399 277.849 119.732 282.084C119.176 283.143 120.565 284.554 121.121 283.143C123.343 278.908 123.621 272.203 120.565 268.674C119.732 268.321 118.898 268.674 119.176 269.733ZM93.6153 251.383C97.7828 254.911 102.784 257.382 107.785 259.499C108.618 259.852 109.174 258.44 108.34 257.735C103.617 255.264 99.172 252.088 94.4488 249.971C93.6153 249.618 93.0596 251.03 93.6153 251.383ZM79.4458 149.751C80.0014 151.868 80.835 153.279 81.9463 155.044C82.502 156.103 83.8911 155.044 83.6133 153.632C82.7798 151.868 82.2241 150.103 80.8349 148.692C80.2793 147.986 79.1679 148.692 79.4458 149.751ZM101.95 151.868C94.171 138.105 88.6143 123.99 82.2241 109.168C81.9463 108.11 80.5571 108.815 80.8349 109.874C84.4468 125.401 92.504 140.928 100.839 153.279C101.672 153.985 102.506 152.927 101.95 151.868ZM76.6674 104.934C76.6674 107.051 77.5009 109.168 78.0566 111.286C78.3344 112.344 79.7236 111.639 79.4458 110.58C79.1679 108.463 78.8901 105.992 77.7788 104.228C77.501 103.875 76.6674 104.228 76.6674 104.934ZM80.2793 101.758C79.168 99.6404 78.3344 96.8173 76.6674 95.0528C76.1118 94.6999 75.2783 95.0528 75.5561 96.1115C76.1118 98.5817 77.7788 101.052 78.8901 103.169C79.4458 103.875 80.835 102.816 80.2793 101.758ZM111.674 187.157C111.119 186.451 110.007 187.157 110.563 188.215C114.453 197.038 125.01 203.037 132.512 199.508C133.068 199.155 132.79 198.096 132.234 198.096C128.344 198.096 125.01 198.449 121.399 196.685C116.953 194.567 114.453 191.391 111.674 187.157ZM124.455 178.687C125.01 178.687 125.566 177.629 125.01 177.276C124.177 176.57 123.343 176.217 122.51 175.511C121.676 174.806 120.843 173.747 120.009 172.688C119.454 171.63 118.065 173.041 118.898 174.1C120.009 176.217 121.954 178.687 124.455 178.687ZM152.238 213.271C152.794 214.329 153.905 212.918 153.349 212.212C151.96 209.742 150.571 206.919 149.46 204.095C150.571 201.978 152.238 201.978 154.183 202.331C155.016 202.684 155.294 200.919 154.739 200.567C152.516 198.802 149.46 200.214 148.071 202.684C147.237 204.448 148.071 205.507 148.904 207.271C150.015 209.389 151.127 211.506 152.238 213.271ZM153.349 205.154C154.461 205.507 155.572 206.213 156.961 205.86C157.517 205.86 157.795 204.801 157.239 204.448C156.128 203.743 155.016 203.39 153.905 203.39C153.072 203.037 152.794 204.801 153.349 205.154ZM183.633 227.739C177.521 226.68 172.798 233.032 166.685 233.032C165.852 233.032 165.574 234.797 166.685 234.797C170.297 235.503 173.076 233.385 176.41 231.621C182.522 228.445 187.523 230.562 191.413 237.267C191.968 238.326 193.08 237.267 192.802 236.208C191.135 231.621 187.523 228.445 183.633 227.739ZM178.632 257.382C169.186 259.852 161.962 254.206 160.851 241.855C160.851 240.796 159.462 240.796 159.462 241.855C158.628 254.559 170.02 264.792 178.91 259.146C179.744 258.44 179.188 257.029 178.632 257.382ZM206.693 239.384C205.86 239.031 205.304 240.796 206.138 241.149C209.194 242.913 212.806 239.031 211.694 235.15C211.139 233.385 210.027 231.974 208.638 231.621C207.527 231.268 205.026 231.268 204.749 233.385C204.471 234.091 205.026 234.797 205.582 234.797C206.416 234.797 206.971 234.091 207.805 234.091C208.638 234.091 209.472 234.797 209.75 235.503C211.139 237.973 208.36 240.443 206.693 239.384ZM142.514 282.084C141.403 283.143 142.236 285.613 143.347 284.554C145.014 283.143 155.016 276.791 156.128 281.731C157.517 287.73 146.404 288.083 143.903 288.083C142.792 288.083 142.792 290.2 143.625 290.2C147.793 290.2 159.184 289.847 157.795 281.378C156.961 273.615 145.57 279.614 142.514 282.084ZM18.6003 198.802C15.822 198.449 15.822 202.331 15.822 204.801C16.3776 210.095 18.3225 215.388 21.3786 219.27C22.2121 220.328 23.6013 218.917 22.7678 217.858C21.3786 215.388 19.9895 212.565 19.156 209.742C19.156 209.389 17.7668 205.507 18.0446 204.801C19.156 201.625 20.823 204.801 21.3786 205.86C24.7126 210.8 26.1018 217.152 26.3796 223.504C26.3796 224.916 28.3245 224.916 28.3245 223.504C28.3245 218.211 27.491 213.271 25.5461 208.683C24.4348 205.154 21.6565 199.155 18.6003 198.802ZM215.584 246.795C212.25 249.971 209.75 254.559 206.416 258.087C202.804 261.969 199.192 265.145 195.024 267.968C194.191 268.674 194.747 270.086 195.58 269.733C203.36 265.145 212.806 258.087 216.695 248.207C217.251 246.795 216.14 246.089 215.584 246.795ZM220.585 238.679C219.752 239.031 219.196 240.09 218.64 241.149C217.807 242.56 219.474 244.325 220.585 242.913C221.141 241.855 221.697 241.149 221.974 239.737C221.974 239.031 221.141 238.326 220.585 238.679ZM229.198 220.681C227.809 222.446 226.975 224.563 226.142 226.68C225.308 228.798 224.197 230.915 223.363 233.385C222.808 234.444 224.475 235.503 225.03 234.444C226.142 232.327 226.975 230.209 228.087 228.092C228.92 225.975 230.032 224.21 230.309 221.74C230.587 221.034 229.754 219.975 229.198 220.681ZM229.198 207.977C228.364 208.33 228.642 210.447 229.754 210.095C231.143 209.742 231.143 212.212 231.421 213.271C231.698 213.976 232.254 213.976 232.532 213.976C233.921 213.271 233.643 210.8 232.81 209.389C231.976 207.624 230.587 207.271 229.198 207.977ZM211.694 215.035C212.25 213.976 211.417 213.271 210.583 213.624C208.083 214.682 206.138 216.447 203.637 216.799C200.859 217.152 198.081 217.152 195.58 215.741C194.747 215.388 194.191 217.152 195.024 217.505C200.025 220.328 207.805 221.034 211.694 215.035ZM213.639 214.682C214.195 214.329 214.751 213.976 215.306 213.271C215.862 212.565 215.028 211.153 214.473 211.506C213.639 211.859 213.361 212.212 212.806 212.918C211.417 213.271 212.528 215.388 213.639 214.682ZM190.023 208.683C188.079 207.624 185.856 207.977 184.189 209.389C183.355 210.095 183.911 211.506 184.745 210.8C186.134 209.742 187.523 210.095 189.19 210.8C190.579 211.506 191.135 213.271 191.968 214.682C192.524 215.388 193.357 215.035 193.357 213.976C193.635 211.859 191.69 209.742 190.023 208.683ZM66.9433 55.1764C67.4989 57.6466 68.0546 59.7639 68.3324 62.2341C68.6103 65.4101 68.0546 68.2332 67.499 71.0564C67.2211 72.4679 68.6103 73.1737 69.166 71.7621C70.833 66.4688 71.1108 58.7053 68.3324 54.1177C67.7768 53.4119 66.9433 54.1177 66.9433 55.1764ZM17.2111 84.819C16.9333 78.8199 18.0446 73.5266 20.2673 68.2333C21.6565 64.7044 23.8791 61.8812 24.9905 58.3524C25.2683 57.2937 24.157 56.5879 23.6013 57.2937C18.0446 63.6457 13.8771 75.6439 15.5441 85.1719C15.8219 86.5835 17.2111 85.8777 17.2111 84.819ZM10.5431 99.9933C6.93131 102.463 5.54211 108.463 5.81994 113.403C5.81994 114.815 7.48696 114.462 7.48696 113.05C7.20913 108.11 8.87611 104.934 11.3766 101.758C11.9323 100.699 11.3766 99.2875 10.5431 99.9933Z"/></svg>